<?xml version="1.0" encoding="UTF-8"?> <svg xmlns="http://www.w3.org/2000/svg" width="40" height="40" viewBox="0 0 40 40" fill="none"><mask id="path-2-inside-1" fill="white"><path d="M0 1.23779V34.0705H12.8384V36.4181H10.4919V38.7619H29.508V36.4181H27.1615V34.0705H40V1.23779H0ZM24.8176 36.4181H15.1823V34.0705H24.8177V36.4181H24.8176ZM37.6562 31.7267H2.34383V27.0333H37.6561V31.7267H37.6562ZM37.6562 24.6895H2.34383V3.5817H37.6561V24.6895H37.6562Z"></path></mask><path d="M0 1.23779V34.0705H12.8384V36.4181H10.4919V38.7619H29.508V36.4181H27.1615V34.0705H40V1.23779H0ZM24.8176 36.4181H15.1823V34.0705H24.8177V36.4181H24.8176ZM37.6562 31.7267H2.34383V27.0333H37.6561V31.7267H37.6562ZM37.6562 24.6895H2.34383V3.5817H37.6561V24.6895H37.6562Z" fill="white"></path><path d="M0 1.23779V-8.76221H-10V1.23779H0ZM0 34.0705H-10V44.0705H0V34.0705ZM12.8384 34.0705H22.8384V24.0705H12.8384V34.0705ZM12.8384 36.4181V46.4181H22.8384V36.4181H12.8384ZM10.4919 36.4181V26.4181H0.491875V36.4181H10.4919ZM10.4919 38.7619H0.491875V48.7619H10.4919V38.7619ZM29.508 38.7619V48.7619H39.508V38.7619H29.508ZM29.508 36.4181H39.508V26.4181H29.508V36.4181ZM27.1615 36.4181H17.1615V46.4181H27.1615V36.4181ZM27.1615 34.0705V24.0705H17.1615V34.0705H27.1615ZM40 34.0705V44.0705H50V34.0705H40ZM40 1.23779H50V-8.76221H40V1.23779ZM15.1823 36.4181H5.18234V46.4181H15.1823V36.4181ZM15.1823 34.0705V24.0705H5.18234V34.0705H15.1823ZM24.8177 34.0705H34.8177V24.0705H24.8177V34.0705ZM24.8177 36.4181V46.4181H34.8177V36.4181H24.8177ZM2.34383 31.7267H-7.65617V41.7267H2.34383V31.7267ZM2.34383 27.0333V17.0333H-7.65617V27.0333H2.34383ZM37.6561 27.0333H47.6561V17.0333H37.6561V27.0333ZM37.6561 31.7267H27.6561V41.7267H37.6561V31.7267ZM2.34383 24.6895H-7.65617V34.6895H2.34383V24.6895ZM2.34383 3.5817V-6.4183H-7.65617V3.5817H2.34383ZM37.6561 3.5817H47.6561V-6.4183H37.6561V3.5817ZM37.6561 24.6895H27.6561V34.6895H37.6561V24.6895ZM-10 1.23779V34.0705H10V1.23779H-10ZM0 44.0705H12.8384V24.0705H0V44.0705ZM2.83844 34.0705V36.4181H22.8384V34.0705H2.83844ZM12.8384 26.4181H10.4919V46.4181H12.8384V26.4181ZM0.491875 36.4181V38.7619H20.4919V36.4181H0.491875ZM10.4919 48.7619H29.508V28.7619H10.4919V48.7619ZM39.508 38.7619V36.4181H19.508V38.7619H39.508ZM29.508 26.4181H27.1615V46.4181H29.508V26.4181ZM37.1615 36.4181V34.0705H17.1615V36.4181H37.1615ZM27.1615 44.0705H40V24.0705H27.1615V44.0705ZM50 34.0705V1.23779H30V34.0705H50ZM40 -8.76221H0V11.2378H40V-8.76221ZM24.8176 26.4181H15.1823V46.4181H24.8176V26.4181ZM25.1823 36.4181V34.0705H5.18234V36.4181H25.1823ZM15.1823 44.0705H24.8177V24.0705H15.1823V44.0705ZM14.8177 34.0705V36.4181H34.8177V34.0705H14.8177ZM24.8177 26.4181H24.8176V46.4181H24.8177V26.4181ZM37.6562 21.7267H2.34383V41.7267H37.6562V21.7267ZM12.3438 31.7267V27.0333H-7.65617V31.7267H12.3438ZM2.34383 37.0333H37.6561V17.0333H2.34383V37.0333ZM27.6561 27.0333V31.7267H47.6561V27.0333H27.6561ZM37.6561 41.7267H37.6562V21.7267H37.6561V41.7267ZM37.6562 14.6895H2.34383V34.6895H37.6562V14.6895ZM12.3438 24.6895V3.5817H-7.65617V24.6895H12.3438ZM2.34383 13.5817H37.6561V-6.4183H2.34383V13.5817ZM27.6561 3.5817V24.6895H47.6561V3.5817H27.6561ZM37.6561 34.6895H37.6562V14.6895H37.6561V34.6895Z" fill="white" mask="url(#path-2-inside-1)"></path><mask id="path-4-inside-2" fill="white"><path d="M15.933 9.89929L14.2757 8.24194L8.38203 14.1356L14.2757 20.0292L15.933 18.3719L11.6967 14.1356L15.933 9.89929Z"></path></mask><path d="M15.933 9.89929L14.2757 8.24194L8.38203 14.1356L14.2757 20.0292L15.933 18.3719L11.6967 14.1356L15.933 9.89929Z" fill="white"></path><path d="M15.933 9.89929L23.0041 16.9704L30.0752 9.89929L23.0041 2.82822L15.933 9.89929ZM14.2757 8.24194L21.3468 1.17088L14.2757 -5.90019L7.20464 1.17087L14.2757 8.24194ZM8.38203 14.1356L1.31097 7.06454L-5.76015 14.1357L1.31101 21.2067L8.38203 14.1356ZM14.2757 20.0292L7.20469 27.1003L14.2758 34.1713L21.3468 27.1003L14.2757 20.0292ZM15.933 18.3719L23.0041 25.4429L30.0752 18.3718L23.0041 11.3007L15.933 18.3719ZM11.6967 14.1356L4.62565 7.06454L-2.44548 14.1357L4.62572 21.2067L11.6967 14.1356ZM23.0041 2.82822L21.3468 1.17088L7.20464 15.313L8.86198 16.9704L23.0041 2.82822ZM7.20464 1.17087L1.31097 7.06454L15.4531 21.2067L21.3468 15.313L7.20464 1.17087ZM1.31101 21.2067L7.20469 27.1003L21.3467 12.9581L15.4531 7.0645L1.31101 21.2067ZM21.3468 27.1003L23.0041 25.4429L8.86198 11.3008L7.20464 12.9581L21.3468 27.1003ZM23.0041 11.3007L18.7677 7.06448L4.62572 21.2067L8.86205 25.443L23.0041 11.3007ZM18.7678 21.2067L23.0041 16.9704L8.86198 2.82822L4.62565 7.06454L18.7678 21.2067Z" fill="white" mask="url(#path-4-inside-2)"></path><mask id="path-6-inside-3" fill="white"><path d="M25.7243 8.24194L24.067 9.89929L28.3033 14.1356L24.067 18.3719L25.7243 20.0292L31.6179 14.1356L25.7243 8.24194Z"></path></mask><path d="M25.7243 8.24194L24.067 9.89929L28.3033 14.1356L24.067 18.3719L25.7243 20.0292L31.6179 14.1356L25.7243 8.24194Z" fill="white"></path><path d="M25.7243 8.24194L32.7954 1.17092L25.7243 -5.90024L18.6532 1.17088L25.7243 8.24194ZM24.067 9.89929L16.9959 2.82822L9.92482 9.89929L16.9959 16.9704L24.067 9.89929ZM28.3033 14.1356L35.3743 21.2067L42.4455 14.1357L35.3743 7.06454L28.3033 14.1356ZM24.067 18.3719L16.996 11.3007L9.92476 18.3718L16.9959 25.4429L24.067 18.3719ZM25.7243 20.0292L18.6532 27.1003L25.7243 34.1713L32.7954 27.1003L25.7243 20.0292ZM31.6179 14.1356L38.689 21.2067L45.76 14.1357L38.689 7.06459L31.6179 14.1356ZM18.6532 1.17088L16.9959 2.82822L31.138 16.9704L32.7954 15.313L18.6532 1.17088ZM16.9959 16.9704L21.2322 21.2067L35.3743 7.06454L31.138 2.82822L16.9959 16.9704ZM21.2323 7.06448L16.996 11.3007L31.138 25.443L35.3743 21.2067L21.2323 7.06448ZM16.9959 25.4429L18.6532 27.1003L32.7954 12.9581L31.138 11.3008L16.9959 25.4429ZM32.7954 27.1003L38.689 21.2067L24.5468 7.06454L18.6532 12.9581L32.7954 27.1003ZM38.689 7.06459L32.7954 1.17092L18.6532 15.313L24.5468 21.2066L38.689 7.06459Z" fill="white" mask="url(#path-6-inside-3)"></path><mask id="path-8-inside-4" fill="white"><path d="M20.211 7.06842L17.4901 20.7468L19.789 21.2041L22.5099 7.52572L20.211 7.06842Z"></path></mask><path d="M20.211 7.06842L17.4901 20.7468L19.789 21.2041L22.5099 7.52572L20.211 7.06842Z" fill="white"></path><path d="M17.4901 20.7468L7.68213 18.7958L5.73113 28.6038L15.5391 30.5548L17.4901 20.7468ZM20.211 7.06842L22.162 -2.73958L12.354 -4.69058L10.403 5.11742L20.211 7.06842ZM22.5099 7.52572L32.3179 9.47672L34.2689 -0.331282L24.4609 -2.28228L22.5099 7.52572ZM19.789 21.2041L17.838 31.0121L27.646 32.9631L29.597 23.1551L19.789 21.2041ZM27.2981 22.6978L30.019 9.01942L10.403 5.11742L7.68213 18.7958L27.2981 22.6978ZM18.26 16.8764L20.5589 17.3337L24.4609 -2.28228L22.162 -2.73958L18.26 16.8764ZM12.7019 5.57472L9.98103 19.2531L29.597 23.1551L32.3179 9.47672L12.7019 5.57472ZM21.74 11.3961L19.4411 10.9388L15.5391 30.5548L17.838 31.0121L21.74 11.3961Z" fill="white" mask="url(#path-8-inside-4)"></path><rect x="0.25" y="0.25" width="39.5" height="39.5" stroke="#FF725E" stroke-width="0.5"></rect></svg> 