<?xml version="1.0" encoding="UTF-8"?> <svg xmlns="http://www.w3.org/2000/svg" width="38" height="38" viewBox="0 0 38 38" fill="none"><path d="M33.3984 1.78209L33.3985 1.78212L36.1951 4.56838C38.1881 6.5646 38.1881 9.79775 36.1951 11.7943C36.1951 11.7943 36.1951 11.7943 36.1951 11.7943L14.9247 33.0646L14.9189 33.0705L14.9152 33.0779C14.9146 33.0793 14.9129 33.0817 14.9076 33.0861C14.9054 33.0879 14.9032 33.0895 14.9003 33.0917L14.8979 33.0936C14.8943 33.0962 14.8888 33.1005 14.8837 33.1054L14.8685 33.1202V33.1213C14.8678 33.1218 14.8672 33.1224 14.8666 33.123C14.8498 33.1345 14.8336 33.148 14.8196 33.1596C14.8036 33.1729 14.7902 33.1839 14.7775 33.1923L14.7774 33.1924C14.7635 33.2016 14.747 33.2112 14.7286 33.2218L14.7285 33.2218L14.7285 33.2218C14.7108 33.2321 14.6912 33.2433 14.6742 33.2548L14.6738 33.2543L14.6707 33.2572L14.6641 33.258L14.6545 33.264C14.6299 33.2795 14.6028 33.2915 14.5743 33.3L14.5629 33.3034L14.5571 33.3088L14.552 33.3105L1.59082 37.6344C1.59057 37.6345 1.59031 37.6345 1.59005 37.6346C1.48761 37.6654 1.38151 37.682 1.27451 37.6839C1.01378 37.6848 0.763151 37.5821 0.577281 37.3987L0.577268 37.3987C0.312999 37.1381 0.221528 36.7492 0.341853 36.3981L0.341996 36.3977L4.65542 23.4267C4.65683 23.4249 4.65839 23.4227 4.65993 23.4202C4.66243 23.416 4.66468 23.4111 4.66627 23.4054C4.66676 23.4036 4.66717 23.4019 4.6675 23.4001C4.67161 23.3885 4.67572 23.3783 4.68019 23.3672L4.6807 23.366C4.68498 23.3554 4.68957 23.3439 4.69422 23.3307C4.69982 23.3231 4.70307 23.3163 4.70494 23.3126C4.70554 23.3114 4.70597 23.3105 4.70628 23.3099L4.70666 23.3103L4.7116 23.303C4.72295 23.2862 4.73132 23.2723 4.73908 23.2593L4.73976 23.2581C4.74726 23.2456 4.75419 23.234 4.76345 23.2201L4.77185 23.2075V23.2064C4.77236 23.2057 4.77287 23.2049 4.77336 23.2041C4.77551 23.2006 4.77749 23.1967 4.77906 23.1922C4.78663 23.1816 4.79591 23.1704 4.80676 23.1574L4.80805 23.1558C4.81714 23.145 4.82736 23.1327 4.83683 23.1199C4.8377 23.1194 4.83857 23.1188 4.83943 23.1182C4.84894 23.1116 4.85444 23.1036 4.8568 23.1L4.85976 23.0952L4.86105 23.0932C4.86105 23.0932 4.86105 23.0932 4.86106 23.0932L4.90182 23.0521L4.90197 23.0519L24.3456 3.61865L24.3457 3.61854L26.1721 1.78209C26.1722 1.78205 26.1722 1.78202 26.1722 1.78199C28.1688 -0.210956 31.4019 -0.210923 33.3984 1.78209ZM14.2023 30.9679L14.2376 31.0032L14.273 30.9679L32.2511 12.9898L32.2864 12.9544L32.2511 12.9191L25.0681 5.73639L25.0327 5.70104L24.9974 5.73639L7.01927 23.7145L6.98391 23.7499L7.01927 23.7852L14.2023 30.9679ZM6.07823 25.6237L6.02108 25.5666L5.99545 25.6432L2.84786 35.0553L2.81612 35.1503L2.91107 35.1186L12.3339 31.9814L12.4106 31.9558L12.3534 31.8986L6.07823 25.6237ZM33.646 11.5244L33.6815 11.56L33.7169 11.5243L34.8109 10.42C36.0351 9.1925 36.0396 7.20695 34.821 5.97357L34.8208 5.97335L32.0138 3.16634L32.0138 3.16632C30.7856 1.93944 28.7953 1.93943 27.5675 3.16633L27.6028 3.2017L27.5674 3.16633L26.4627 4.27041L26.4273 4.30577L26.4627 4.34113L33.646 11.5244Z" fill="white" stroke="#FF725E" stroke-width="0.1"></path></svg> 