<?xml version="1.0" encoding="UTF-8"?> <svg xmlns="http://www.w3.org/2000/svg" width="52" height="52" viewBox="0 0 52 52" fill="none"><path d="M33.9122 14.5152L33.9471 14.492L33.9549 14.4508C34.2516 12.9043 35.6153 11.6868 37.3076 11.6868L37.3076 11.5868L37.3076 11.6868C39.1904 11.6868 40.7223 13.2188 40.7222 15.1015L40.7222 33.8465C40.7221 35.7229 39.2006 37.2507 37.3267 37.261C37.3204 37.2611 37.3141 37.2611 37.3077 37.2611L37.3077 37.261C35.6522 37.261 34.2621 36.0757 33.9561 34.4976L33.9481 34.4566L33.9134 34.4334L33.8341 34.3805C30.9725 32.4729 27.781 31.1982 24.438 30.6085L24.3206 30.5878L24.3206 30.707L24.3206 31.5032L24.4206 31.5032H24.3206C24.3206 33.3908 22.7932 34.9179 20.906 34.9178L19.7344 34.9178L19.6344 34.9178L19.6344 35.0178L19.6344 38.5325C19.6344 40.4152 18.1025 41.9471 16.2198 41.9471C14.3323 41.9471 12.8052 40.4199 12.8052 38.5325L12.8052 30.3316V30.2316H12.7052L11.5336 30.2316C9.6462 30.2316 8.11893 28.7042 8.11898 26.817L8.11898 22.1308L8.01937 22.1308L8.11898 22.1308C8.11888 20.2433 9.64624 18.7162 11.5336 18.7162L20.1315 18.7162C25.0246 18.7162 29.7629 17.2815 33.8339 14.5674L33.8339 14.5674L33.9122 14.5152ZM11.5336 28.0885L11.5336 28.0885L19.7345 28.0885L19.8345 28.0885L19.8345 27.9885L19.8345 20.9592L19.8345 20.8592L19.7345 20.8592L11.5336 20.8592C10.8308 20.8592 10.2622 21.4279 10.2621 22.1308L10.3621 22.1308L10.2621 22.1308L10.2621 26.8169C10.262 27.5196 10.831 28.0885 11.5336 28.0885ZM15.0483 30.2315L14.9483 30.2315L14.9483 30.3315L14.9483 38.5324C14.9483 39.2335 15.5187 39.8039 16.2198 39.8039C16.921 39.8038 17.4913 39.2335 17.4913 38.5324L17.4914 30.3315L17.4914 30.2315L17.3914 30.2315L15.0483 30.2315ZM19.7345 30.2315L19.6345 30.2315L19.6345 30.3315L19.6344 32.6747L19.6344 32.7747L19.7344 32.7747L20.906 32.7747V32.6747L20.906 32.7747C21.6088 32.7746 22.1775 32.2059 22.1775 31.5031L22.1776 30.4087L22.1776 30.3163L22.0854 30.309C21.0785 30.2298 20.3567 30.2308 19.8599 30.2314C19.8164 30.2315 19.7746 30.2315 19.7345 30.2315ZM21.9775 28.0589L21.9775 28.152L22.0703 28.1587C26.1948 28.4548 30.1745 29.693 33.7422 31.7941L33.893 31.8828L33.893 31.7079L33.893 17.2396V17.0647L33.7422 17.1535C30.1744 19.2545 26.1947 20.4928 22.0703 20.7889L21.9775 20.7956L21.9775 20.8886L21.9775 28.0589ZM36.036 15.1014L36.036 15.1014L36.036 33.8462H36.136L36.036 33.8462C36.0361 34.549 36.6048 35.1177 37.3076 35.1178L37.3076 35.1178C38.0088 35.1176 38.5791 34.5474 38.5792 33.8462L38.4792 33.8462H38.5792L38.5792 15.1015C38.5792 14.3987 38.0104 13.8299 37.3076 13.8299C36.6048 13.8299 36.0361 14.3986 36.036 15.1014Z" fill="white" stroke="#FF725E" stroke-width="0.2"></path></svg> 