<?xml version="1.0" encoding="UTF-8"?> <svg xmlns="http://www.w3.org/2000/svg" width="40" height="38" viewBox="0 0 40 38" fill="none"><mask id="path-1-inside-1" fill="white"><path d="M0 0.237793V33.0705H12.8384V35.4181H10.4919V37.7619H29.508V35.4181H27.1615V33.0705H40V0.237793H0ZM24.8176 35.4181H15.1823V33.0705H24.8177V35.4181H24.8176ZM37.6562 30.7267H2.34383V26.0333H37.6561V30.7267H37.6562ZM37.6562 23.6895H2.34383V2.5817H37.6561V23.6895H37.6562Z"></path></mask><path d="M0 0.237793V33.0705H12.8384V35.4181H10.4919V37.7619H29.508V35.4181H27.1615V33.0705H40V0.237793H0ZM24.8176 35.4181H15.1823V33.0705H24.8177V35.4181H24.8176ZM37.6562 30.7267H2.34383V26.0333H37.6561V30.7267H37.6562ZM37.6562 23.6895H2.34383V2.5817H37.6561V23.6895H37.6562Z" fill="white"></path><path d="M0 0.237793V-9.76221H-10V0.237793H0ZM0 33.0705H-10V43.0705H0V33.0705ZM12.8384 33.0705H22.8384V23.0705H12.8384V33.0705ZM12.8384 35.4181V45.4181H22.8384V35.4181H12.8384ZM10.4919 35.4181V25.4181H0.491875V35.4181H10.4919ZM10.4919 37.7619H0.491875V47.7619H10.4919V37.7619ZM29.508 37.7619V47.7619H39.508V37.7619H29.508ZM29.508 35.4181H39.508V25.4181H29.508V35.4181ZM27.1615 35.4181H17.1615V45.4181H27.1615V35.4181ZM27.1615 33.0705V23.0705H17.1615V33.0705H27.1615ZM40 33.0705V43.0705H50V33.0705H40ZM40 0.237793H50V-9.76221H40V0.237793ZM15.1823 35.4181H5.18234V45.4181H15.1823V35.4181ZM15.1823 33.0705V23.0705H5.18234V33.0705H15.1823ZM24.8177 33.0705H34.8177V23.0705H24.8177V33.0705ZM24.8177 35.4181V45.4181H34.8177V35.4181H24.8177ZM2.34383 30.7267H-7.65617V40.7267H2.34383V30.7267ZM2.34383 26.0333V16.0333H-7.65617V26.0333H2.34383ZM37.6561 26.0333H47.6561V16.0333H37.6561V26.0333ZM37.6561 30.7267H27.6561V40.7267H37.6561V30.7267ZM2.34383 23.6895H-7.65617V33.6895H2.34383V23.6895ZM2.34383 2.5817V-7.4183H-7.65617V2.5817H2.34383ZM37.6561 2.5817H47.6561V-7.4183H37.6561V2.5817ZM37.6561 23.6895H27.6561V33.6895H37.6561V23.6895ZM-10 0.237793V33.0705H10V0.237793H-10ZM0 43.0705H12.8384V23.0705H0V43.0705ZM2.83844 33.0705V35.4181H22.8384V33.0705H2.83844ZM12.8384 25.4181H10.4919V45.4181H12.8384V25.4181ZM0.491875 35.4181V37.7619H20.4919V35.4181H0.491875ZM10.4919 47.7619H29.508V27.7619H10.4919V47.7619ZM39.508 37.7619V35.4181H19.508V37.7619H39.508ZM29.508 25.4181H27.1615V45.4181H29.508V25.4181ZM37.1615 35.4181V33.0705H17.1615V35.4181H37.1615ZM27.1615 43.0705H40V23.0705H27.1615V43.0705ZM50 33.0705V0.237793H30V33.0705H50ZM40 -9.76221H0V10.2378H40V-9.76221ZM24.8176 25.4181H15.1823V45.4181H24.8176V25.4181ZM25.1823 35.4181V33.0705H5.18234V35.4181H25.1823ZM15.1823 43.0705H24.8177V23.0705H15.1823V43.0705ZM14.8177 33.0705V35.4181H34.8177V33.0705H14.8177ZM24.8177 25.4181H24.8176V45.4181H24.8177V25.4181ZM37.6562 20.7267H2.34383V40.7267H37.6562V20.7267ZM12.3438 30.7267V26.0333H-7.65617V30.7267H12.3438ZM2.34383 36.0333H37.6561V16.0333H2.34383V36.0333ZM27.6561 26.0333V30.7267H47.6561V26.0333H27.6561ZM37.6561 40.7267H37.6562V20.7267H37.6561V40.7267ZM37.6562 13.6895H2.34383V33.6895H37.6562V13.6895ZM12.3438 23.6895V2.5817H-7.65617V23.6895H12.3438ZM2.34383 12.5817H37.6561V-7.4183H2.34383V12.5817ZM27.6561 2.5817V23.6895H47.6561V2.5817H27.6561ZM37.6561 33.6895H37.6562V13.6895H37.6561V33.6895Z" fill="white" mask="url(#path-1-inside-1)"></path></svg> 