<?xml version="1.0" encoding="UTF-8"?> <svg xmlns="http://www.w3.org/2000/svg" width="713" height="431" viewBox="0 0 713 431"><g id="Group_150" data-name="Group 150" transform="translate(-2796 -1336)"><rect id="Rectangle_105" data-name="Rectangle 105" width="713" height="431" transform="translate(2796 1336)" fill="#fff"></rect><g id="Group_148" data-name="Group 148"><path id="Path_210" data-name="Path 210" d="M605.631,68.3,404.67,498.449H872.177V68.3Z" transform="translate(2636.511 1267.699)" fill="#a0a9ff" opacity="0.23"></path><g id="Group_147" data-name="Group 147" transform="translate(604 2975)"><g id="Group_146" data-name="Group 146" transform="translate(1837 -1894.677)"><rect id="Rectangle_77" data-name="Rectangle 77" width="195.879" height="45.061" transform="translate(581.814 589.089)" fill="#355389"></rect><g id="Group_94" data-name="Group 94" transform="translate(472.569 469.316)"><rect id="Rectangle_78" data-name="Rectangle 78" width="1.457" height="2.067" transform="translate(15.366 6.044) rotate(-150.492)" fill="#86b1f2"></rect><path id="Path_73" data-name="Path 73" d="M723.7,905.223l3.966,2.245a2.772,2.772,0,0,0,3.778-1.047l7.991-14.118a5.051,5.051,0,0,0-1.908-6.884h0a5.051,5.051,0,0,0-6.884,1.907l-7.991,14.117A2.772,2.772,0,0,0,723.7,905.223Z" transform="translate(-722.295 -880.813)" fill="#9bc1f9"></path><path id="Path_74" data-name="Path 74" d="M755.828,892.811l8.747,4.951a.824.824,0,0,0,1.124-.311l.021-.037a.824.824,0,0,0-.311-1.124l-8.747-4.951a.825.825,0,0,0-1.124.311l-.021.037A.824.824,0,0,0,755.828,892.811Z" transform="translate(-747.739 -885.783)" fill="#86b1f2"></path><path id="Path_75" data-name="Path 75" d="M786.242,869.976a.823.823,0,1,0,.549-1.527l.145-.256a.951.951,0,0,1,1.3-.359l.892.5a.951.951,0,0,1,.359,1.3l-1.1,1.943a.951.951,0,0,1-1.3.359l-.892-.5a.951.951,0,0,1-.359-1.3l.19-.336A.82.82,0,0,0,786.242,869.976Z" transform="translate(-771.022 -867.71)" fill="#fae0b2"></path><path id="Path_76" data-name="Path 76" d="M740.5,902.97l-8.792-4.976-7.661,13.535,8.792,4.976Z" transform="translate(-723.643 -890.979)" fill="#50bfa5"></path></g><g id="Group_96" data-name="Group 96" transform="translate(724.653 362.405)"><g id="Group_95" data-name="Group 95" transform="translate(0 0)"><path id="Path_77" data-name="Path 77" d="M1850.566,670.536S1815.012,559.771,1811.03,534.7s14.954-19.853,14.954-19.853-22.523-57.679-11.852-70.815,25.733,13.661,25.733,13.661,3.44-50.394,19.7-51.467c22.566-1.49,18.578,56.013,18.578,56.013s4.4-25.977,16.745-20.809c18.613,7.794-4.679,61.938-4.679,61.938s10.785-20.118,19.495-9.354C1925.327,513.331,1850.566,670.536,1850.566,670.536Z" transform="translate(-1810.479 -406.201)" fill="#86b1f2"></path></g></g><g id="Group_98" data-name="Group 98" transform="translate(761.345 415.159)"><g id="Group_97" data-name="Group 97" transform="translate(0 0)"><path id="Path_78" data-name="Path 78" d="M1968.869,848.383s91.736-40.567,108.513-63.548-5.59-25.9-5.59-25.9,42.168-37.824,37.66-55.289-26.334-2.587-26.334-2.587,29.534-58.578,17.894-65.413c-21.68-12.73-57.093,49.335-57.093,49.335s8.492-27.44-6.976-27.6c-23.327-.243-26.314,62.952-26.314,62.952s-1.111-24.387-15.611-17.5C1969,715.205,1968.869,848.383,1968.869,848.383Z" transform="translate(-1968.869 -633.926)" fill="#466eb6"></path></g><path id="Path_79" data-name="Path 79" d="M1995.809,702.839c14.585-6.689,15.611,17.5,15.611,17.5s2.988-63.195,26.314-62.952c15.468.161,6.975,27.6,6.975,27.6s35.413-62.066,57.093-49.335L1969.989,848.331C1969.362,831.3,1971.356,714.054,1995.809,702.839Z" transform="translate(-1969.659 -633.926)" fill="#355389"></path></g><rect id="Rectangle_79" data-name="Rectangle 79" width="12.072" height="31.57" transform="translate(609.487 601.985)" fill="#f47458"></rect><rect id="Rectangle_80" data-name="Rectangle 80" width="13.345" height="27.642" transform="translate(758.153 600.527)" fill="#f47458"></rect><g id="Group_103" data-name="Group 103" transform="translate(554.55 440.587)"><g id="Group_99" data-name="Group 99" transform="translate(3.912 28.056)"><path id="Path_80" data-name="Path 80" d="M1113.388,967.53a.561.561,0,0,1,1.114-.136l0,.019h0l2.709,22.175,4.538,1.58h0l2.125,15.93a.443.443,0,0,1-.878.118v-.01l-2.072-15.447-4.038-1.924s-1.895-12.086-3.5-22.286C1113.39,967.543,1113.389,967.535,1113.388,967.53Z" transform="translate(-1108.677 -943.252)" fill="#355389"></path><path id="Path_81" data-name="Path 81" d="M1093.555,867.3l-.484,31.779a6.914,6.914,0,1,0,13.6-1.661l-8.12-30.728A2.542,2.542,0,0,0,1093.555,867.3Z" transform="translate(-1093.07 -864.805)" fill="#355389"></path><path id="Path_82" data-name="Path 82" d="M1154.536,1184.679c-2.715.016-5.187-3.486-5.521-7.823l-3.695-47.982,5.425-.663,7.965,47.461c.058.354.109.759.137,1.126C1159.181,1181.135,1157.251,1184.663,1154.536,1184.679Z" transform="translate(-1133.216 -1067.192)" fill="#b75742"></path><path id="Path_83" data-name="Path 83" d="M1103.387,884.329c-1.994,9.5-3.279,24.87-.607,33.479a.839.839,0,1,0,1.59-.535C1101.429,909.149,1101.852,894.036,1103.387,884.329Z" transform="translate(-1099.366 -879.806)" fill="#466eb6" opacity="0.55"></path><rect id="Rectangle_81" data-name="Rectangle 81" width="5.888" height="1.159" transform="translate(17.677 61.318) rotate(173.037)" fill="#b75742"></rect></g><g id="Group_102" data-name="Group 102" transform="translate(0 0)"><g id="Group_100" data-name="Group 100" transform="translate(34.236)"><rect id="Rectangle_82" data-name="Rectangle 82" width="10.909" height="103.173" transform="translate(1.18 45.311) rotate(0.348)" fill="#96d9c9"></rect><rect id="Rectangle_83" data-name="Rectangle 83" width="12.102" height="7.11" transform="matrix(1, 0.006, -0.006, 1, 0.527, 54.566)" fill="#86b1f2"></rect><rect id="Rectangle_84" data-name="Rectangle 84" width="12.102" height="7.11" transform="translate(0.576 46.409) rotate(0.348)" fill="#86b1f2"></rect><rect id="Rectangle_85" data-name="Rectangle 85" width="11.288" height="7.11" transform="translate(1.031 38.641) rotate(0.348)" fill="#86b1f2"></rect><path id="Path_84" data-name="Path 84" d="M1236.354,842.627l-11.288-.068-1.012-20.591,13.562.082Z" transform="translate(-1224.036 -803.835)" fill="#86b1f2"></path><path id="Path_85" data-name="Path 85" d="M1234.824,743.76l-.273,7.974-.745,0-.234-7.977-5.478-.033-.539,12.035-1.023-.006-.512-12.042-1.934-.012-.11,18.131,13.579.083.11-18.131Z" transform="translate(-1223.976 -743.694)" fill="#f7cc7f"></path><path id="Path_86" data-name="Path 86" d="M1231.2,829.742l1.3,19.105.2,4.962,1.478-.074.49-5.867,1.757-18.012Z" transform="translate(-1229.53 -809.809)" fill="#9bc1f9"></path></g><g id="Group_101" data-name="Group 101" transform="translate(0 69.23)"><rect id="Rectangle_86" data-name="Rectangle 86" width="10.909" height="70.909" transform="translate(3.256 21.324) rotate(-10.387)" fill="#355389"></rect><rect id="Rectangle_87" data-name="Rectangle 87" width="12.102" height="4.886" transform="translate(3.816 27.691) rotate(-10.386)" fill="#86b1f2"></rect><rect id="Rectangle_88" data-name="Rectangle 88" width="12.102" height="4.886" transform="translate(2.806 22.177) rotate(-10.386)" fill="#86b1f2"></rect><rect id="Rectangle_89" data-name="Rectangle 89" width="11.288" height="4.886" transform="translate(2.243 16.85) rotate(-10.387)" fill="#86b1f2"></rect><path id="Path_87" data-name="Path 87" d="M1083.112,1042.545l-1.782.327,1.255,6.848a1.326,1.326,0,1,1-.9.136l-1.25-6.82-1.859.341-2.392,10.438.027.044a6.7,6.7,0,0,1,2.476,2.819,8.273,8.273,0,0,1,.917,2.7l.054.088,4.075-.747,4.073-.747.019-.1a8.29,8.29,0,0,1-.1-2.851,6.7,6.7,0,0,1,1.316-3.514l.01-.05Z" transform="translate(-1076.185 -1042.545)" fill="#86b1f2"></path></g><rect id="Rectangle_90" data-name="Rectangle 90" width="46.372" height="57.775" transform="translate(4.241 136.956)" fill="#3c8f7c"></rect><rect id="Rectangle_91" data-name="Rectangle 91" width="53.068" height="8.068" transform="translate(0.717 128.984)" fill="#50bfa5"></rect></g></g><g id="Group_105" data-name="Group 105" transform="translate(766.255 575.526)"><g id="Group_104" data-name="Group 104"><path id="Path_88" data-name="Path 88" d="M1990.067,1383.015s20.872-39.017,31.235-45.538,10.662,3.5,10.662,3.5,17.66-17.178,24.82-14.494,0,11.761,0,11.761,25.866-10.766,28.258-5.343c4.455,10.1-23.122,23.333-23.122,23.333s11.894-2.678,11.32,4.177c-.866,10.338-27.573,9.168-27.573,9.168s10.212,1.454,6.711,7.6C2046.092,1388.208,1990.067,1383.015,1990.067,1383.015Z" transform="translate(-1990.067 -1326.195)" fill="#355389"></path></g><path id="Path_89" data-name="Path 89" d="M2052.49,1399.41c3.419-6.194-6.711-7.6-6.711-7.6s26.706,1.169,27.572-9.168c.574-6.855-11.32-4.177-11.32-4.177s27.577-13.232,23.122-23.333l-94.934,49.973c2.657.354,11.178,1.141,21.118,1.4C2028.094,1406.928,2048.892,1405.928,2052.49,1399.41Z" transform="translate(-1990.184 -1348.428)" fill="#355389"></path></g><path id="Path_90" data-name="Path 90" d="M2293.811,510.625l1.61-5.535-3.647-4.464a.792.792,0,0,1,.589-1.293l5.762-.179,3.119-4.848a.792.792,0,0,1,1.412.161l1.951,5.424,5.574,1.468a.792.792,0,0,1,.284,1.392l-4.556,3.532.327,5.755a.792.792,0,0,1-1.237.7l-4.767-3.242-5.372,2.089A.792.792,0,0,1,2293.811,510.625Z" transform="translate(-1455.488 -111.211)" fill="#f79c8d"></path><path id="Path_91" data-name="Path 91" d="M1038.867,584.742l-3.779,3.52-6.335-5.456-6.16,4.465-5.408-3.308-1.674,2.738,7.233,4.424,5.838-4.231,6.59,5.675,5.687-5.3Z" transform="translate(-475.016 -179.49)" fill="#f48c7f"></path><g id="Group_107" data-name="Group 107" transform="translate(627.242 379.064)"><path id="Path_92" data-name="Path 92" d="M1451.8,500.4l-22.5.971a4.809,4.809,0,0,1-5.013-4.6l-.547-12.669a4.809,4.809,0,0,1,4.6-5.013l22.5-.972a4.81,4.81,0,0,1,5.013,4.6l.547,12.669A4.81,4.81,0,0,1,1451.8,500.4Z" transform="translate(-1415.92 -478.113)" fill="#fae0b2"></path><path id="Path_93" data-name="Path 93" d="M1399.057,530.654l-9.077,10.24,11.7-2.8Z" transform="translate(-1389.98 -518.483)" fill="#fae0b2"></path><g id="Group_106" data-name="Group 106" transform="translate(17.089 2.823)"><path id="Path_94" data-name="Path 94" d="M1464.3,497.835l2.878-.2s3.492-2.895,3.555-3.858-.635-2.961-.085-3.244a1.889,1.889,0,0,1,2.55.685c.594.893.309,4.277.659,4.485a15.258,15.258,0,0,0,3.086-.006,2.14,2.14,0,0,1,1.958,1.04v0a1.14,1.14,0,0,1-.2,1.421l-.615.57.54.646a1.14,1.14,0,0,1-.139,1.6l-.487.413.367.378a1.14,1.14,0,0,1-.117,1.694l-.435.339.074.121a1.14,1.14,0,0,1-.3,1.511l-.438.323-7.665.525a5.285,5.285,0,0,1-2.117-.288l-2.726-.261a.594.594,0,0,1-.537-.56l-.358-6.715A.594.594,0,0,1,1464.3,497.835Z" transform="translate(-1463.749 -490.299)" fill="#fff"></path></g></g><g id="Group_108" data-name="Group 108" transform="translate(828.661 349.2)"><path id="Path_95" data-name="Path 95" d="M2321.278,371.484l-22.5.972a4.81,4.81,0,0,1-5.013-4.6l-.547-12.669a4.81,4.81,0,0,1,4.6-5.013l22.5-.972a4.81,4.81,0,0,1,5.013,4.6l.547,12.669A4.81,4.81,0,0,1,2321.278,371.484Z" transform="translate(-2285.395 -349.2)" fill="#fae0b2"></path><path id="Path_96" data-name="Path 96" d="M2268.532,401.742l-9.077,10.239,11.7-2.8Z" transform="translate(-2259.455 -389.57)" fill="#fae0b2"></path></g><g id="Group_117" data-name="Group 117" transform="translate(426.04 454.337)"><path id="Path_97" data-name="Path 97" d="M593.946,872.414a6.513,6.513,0,1,1-6.513-6.513A6.513,6.513,0,0,1,593.946,872.414Z" transform="translate(-567.141 -851.341)" fill="#f7cc7f"></path><g id="Group_109" data-name="Group 109" transform="translate(17.025 0)"><path id="Path_98" data-name="Path 98" d="M594.956,805.013a48.34,48.34,0,0,0,.861,5.78,1.5,1.5,0,0,0,2.942-.4,51.784,51.784,0,0,0-.8-6.211,1.568,1.568,0,0,0-1.917-1.088,1.6,1.6,0,0,0-1.088,1.917Z" transform="translate(-594.933 -803.048)" fill="#f7cc7f"></path></g><g id="Group_110" data-name="Group 110" transform="translate(4.571 6.266)"><path id="Path_99" data-name="Path 99" d="M541.963,833.079a63.19,63.19,0,0,1,5.714,4.76,1.5,1.5,0,0,0,2.122-2.123,28.613,28.613,0,0,0-6.225-5.394,1.612,1.612,0,0,0-2.184.573,1.628,1.628,0,0,0,.573,2.184Z" transform="translate(-541.174 -830.096)" fill="#f7cc7f"></path></g><g id="Group_111" data-name="Group 111" transform="translate(0 18.171)"><path id="Path_100" data-name="Path 100" d="M530.085,884.479a1.128,1.128,0,0,0,.392-1.5c-.663-1.368-2.446-1.435-3.782-1.486a14.127,14.127,0,0,0-4.126.486,1.591,1.591,0,0,0,.845,3.066C527.235,884.038,528.567,885.5,530.085,884.479Z" transform="translate(-521.441 -881.488)" fill="#f7cc7f"></path></g><g id="Group_112" data-name="Group 112" transform="translate(7.722 27.279)"><path id="Path_101" data-name="Path 101" d="M557.414,926.779c2.242-2.854,3.4-3.473,3.09-5.041a1.278,1.278,0,0,0-1.226-.934c-1.173.055-1.721.947-2.414,1.76-.563.661-1.121,1.324-1.653,2.011a1.61,1.61,0,0,0,0,2.2,1.569,1.569,0,0,0,2.2,0Z" transform="translate(-554.773 -920.804)" fill="#f7cc7f"></path></g><g id="Group_113" data-name="Group 113" transform="translate(17.864 31.994)"><path id="Path_102" data-name="Path 102" d="M598.61,943.11c.227.968-.581,2.65.643,4.153.668.82,1.808.226,2.12-.559a7.153,7.153,0,0,0,.351-2.206,7.381,7.381,0,0,0-.1-2.219c-.46-1.96-3.477-1.13-3.017.832Z" transform="translate(-598.556 -941.16)" fill="#f7cc7f"></path></g><g id="Group_114" data-name="Group 114" transform="translate(24.943 28.779)"><path id="Path_103" data-name="Path 103" d="M629.563,929.925c2.62,2.293,3.1,2.886,4.184,2.847.639-.023,1.393-.582,1.3-1.3-.162-1.314-.871-1.717-3.284-3.747a1.6,1.6,0,0,0-2.2,0,1.572,1.572,0,0,0,0,2.2Z" transform="translate(-629.113 -927.281)" fill="#f7cc7f"></path></g><g id="Group_115" data-name="Group 115" transform="translate(28.051 19.938)"><path id="Path_104" data-name="Path 104" d="M651.122,892.042a1.476,1.476,0,0,0-.39-2.883c-.961-.124-1.112,0-6.611.61a1.637,1.637,0,0,0-1.59,1.59,1.6,1.6,0,0,0,1.59,1.59C649.924,892.312,650.138,892.4,651.122,892.042Z" transform="translate(-642.532 -889.114)" fill="#f7cc7f"></path></g><g id="Group_116" data-name="Group 116" transform="translate(26.425 7.419)"><path id="Path_105" data-name="Path 105" d="M638.242,840.9c3.082-2.592,3.6-2.17,4.86-3.8a1.348,1.348,0,0,0-1.159-2.019c-1.267.143-1.682.408-3.19,1.439-.961.657-1.885,1.371-2.778,2.118a1.615,1.615,0,0,0,0,2.266,1.637,1.637,0,0,0,2.267,0Z" transform="translate(-635.511 -835.074)" fill="#f7cc7f"></path></g></g><g id="Group_121" data-name="Group 121" transform="translate(448.43 574.559)"><g id="Group_118" data-name="Group 118" transform="translate(7.521 0)"><path id="Path_106" data-name="Path 106" d="M696.033,1383.165s-34.547-7.789-39.564-15.32,5.455-7.5,5.455-7.5-13.044-12.74-11.182-18.055,6.785-2.648,6.785-2.648-7.85-12.642-4.265-16.544c5.509-6,19.433,14.952,19.433,14.952s-2.2-8.719,2.893-8.4c7.675.477,8.86,20.313,8.86,20.313s1.112-6.831,3.938-5.209C696.545,1349.434,696.033,1383.165,696.033,1383.165Z" transform="translate(-650.56 -1322.02)" fill="#355389"></path><path id="Path_107" data-name="Path 107" d="M653.262,1326.678c-3.585,3.9,4.265,16.544,4.265,16.544s-4.924-2.667-6.785,2.648,11.182,18.055,11.182,18.055-10.472-.031-5.455,7.5,39.564,15.32,39.564,15.32Z" transform="translate(-650.56 -1325.599)" fill="#466eb6"></path></g><g id="Group_120" data-name="Group 120" transform="translate(0 38.463)"><g id="Group_119" data-name="Group 119"><path id="Path_108" data-name="Path 108" d="M670.184,1510.718s-23.051.427-28.086-.256-3.179-4.019-3.179-4.019-9.771.8-11.839-2,2.308-3.819,2.308-3.819-11.488-3.5-11.291-5.905c.366-4.486,11.437-1.562,11.437-1.562s-3.316-2.112-1.764-4.183c2.341-3.124,10.341,2.754,10.341,2.754s-.913-2.144.51-2.56C643.25,1487.81,670.184,1510.718,670.184,1510.718Z" transform="translate(-618.093 -1488.055)" fill="#355389"></path></g></g></g><g id="Group_122" data-name="Group 122" transform="translate(599.724 407.52)"><path id="Rectangle_92" data-name="Rectangle 92" d="M23.752,0h93.121a23.751,23.751,0,0,1,23.751,23.751V174.02a23.751,23.751,0,0,1-23.751,23.751H23.752A23.752,23.752,0,0,1,0,174.019V23.752A23.752,23.752,0,0,1,23.752,0Z" transform="translate(0 0)" fill="#f47458"></path><path id="Rectangle_93" data-name="Rectangle 93" d="M24.039,0h95.979a24.039,24.039,0,0,1,24.039,24.039V173.732a24.04,24.04,0,0,1-24.04,24.04H24.04A24.04,24.04,0,0,1,0,173.732V24.039A24.039,24.039,0,0,1,24.039,0Z" transform="translate(5.315 0)" fill="#fae0b2"></path><rect id="Rectangle_94" data-name="Rectangle 94" width="157.47" height="167.093" transform="translate(19.874 22.409)" fill="#fff"></rect><path id="Rectangle_95" data-name="Rectangle 95" d="M0,0H25.859a0,0,0,0,1,0,0V9.417a0,0,0,0,1,0,0H3.951A3.951,3.951,0,0,1,0,5.466V0A0,0,0,0,1,0,0Z" transform="translate(4.456 188.357)" fill="#f47458"></path><path id="Rectangle_96" data-name="Rectangle 96" d="M9.4,0h0a0,0,0,0,1,0,0V18.369a0,0,0,0,1,0,0H0a0,0,0,0,1,0,0V9.4A9.4,9.4,0,0,1,9.4,0Z" transform="translate(20.863 179.282)" fill="#f47458"></path><rect id="Rectangle_97" data-name="Rectangle 97" width="158.038" height="18.461" transform="translate(27.746 179.311)" fill="#f7cc7f"></rect><path id="Path_109" data-name="Path 109" d="M1356.541,697.614l-.133,66.7s11.466,25.287,17.661,23.38-12.9-40.061-6.223-42.92,42.893,78.161,50.518,69.106-28.119-61.957-22.876-65.293,27.166,38.6,40.034,30.978-37.651-43.846-26.689-48.612,23.829,18.587,31.932,17.157-29.549-24.783-25.259-32.885,40.034,26.212,47.659,16.681-23.829-34.315-23.829-34.315Z" transform="translate(-1336.667 -675.205)" fill="#f47458"></path></g><g id="Group_123" data-name="Group 123" transform="translate(457.781 633.559)"><path id="Path_110" data-name="Path 110" d="M1250.081,1578.115a1.362,1.362,0,0,0-1.311-1.407H660.047a1.418,1.418,0,1,0,0,2.814H1248.77a1.361,1.361,0,0,0,1.311-1.407Z" transform="translate(-658.457 -1576.708)" fill="#184655"></path></g><path id="Path_111" data-name="Path 111" d="M661.19,595.469l-2.044-4.832-5.139-1.056a.721.721,0,0,1-.327-1.251l3.964-3.437-.583-5.214a.721.721,0,0,1,1.088-.7l4.494,2.708,4.778-2.166a.721.721,0,0,1,1,.82l-1.187,5.111,3.537,3.875a.721.721,0,0,1-.471,1.2l-5.227.451-2.592,4.561A.721.721,0,0,1,661.19,595.469Z" transform="translate(-196.815 -176.47)" fill="#f7cc7f"></path><path id="Path_112" data-name="Path 112" d="M932.516,741.572l2.462-4.158-2.03-4.385a.664.664,0,0,1,.748-.927l4.715,1.056,3.543-3.285a.664.664,0,0,1,1.113.425l.453,4.81,4.219,2.354a.664.664,0,0,1-.06,1.189l-4.435,1.917-.935,4.741a.664.664,0,0,1-1.15.31l-3.194-3.626-4.8.575A.664.664,0,0,1,932.516,741.572Z" transform="translate(-411.176 -292.352)" fill="#466eb6"></path><path id="Path_113" data-name="Path 113" d="M2589.173,474.288,2588,468.48l-5.473.73-1.4-5.671-5.316.053-1.744-4.072L2572,460.4l2.333,5.446,5.038-.05,1.46,5.9,5.383-.718,1.059,5.263Z" transform="translate(-1670.94 -84.764)" fill="#f48c7f"></path><path id="Path_114" data-name="Path 114" d="M1094.466,426.065l1.522,4.529,4.842.542,1.346,5.2,5.335-1.013,1.782,5.81,5.028-.327,2.629,5.31-2.01.995-1.966-3.97-5.305.345-1.713-5.585-5.425,1.03-1.486-5.735-4.728-.529-1.411-4.2-3.178.3-.212-2.233Z" transform="translate(-531.879 -59.059)" fill="#96d9c9"></path><path id="Path_115" data-name="Path 115" d="M2111.6,469.973l2.343,3.892a.593.593,0,0,0,1.061-.089l1.664-4.226,4.425-1.026a.594.594,0,0,0,.244-1.036l-3.505-2.888.392-4.525a.593.593,0,0,0-.91-.552l-3.831,2.441-4.182-1.771a.594.594,0,0,0-.806.7l1.138,4.4-2.977,3.43a.594.594,0,0,0,.412.982Z" transform="translate(-1313.275 -84.693)" fill="#f47458"></path><g id="Group_125" data-name="Group 125" transform="translate(847.591 354.362)"><g id="Group_124" data-name="Group 124" transform="translate(0)"><path id="Path_116" data-name="Path 116" d="M2353.844,377.091a6.358,6.358,0,1,1-7.065-5.562A6.357,6.357,0,0,1,2353.844,377.091Z" transform="translate(-2341.172 -371.483)" fill="#f7cc7f"></path><path id="Path_117" data-name="Path 117" d="M2354.564,402.32a3.4,3.4,0,1,0,6.751-.8Z" transform="translate(-2351.462 -394.559)" fill="#efefef"></path></g></g><g id="Group_127" data-name="Group 127" transform="translate(696.48 441.496)"><path id="Path_118" data-name="Path 118" d="M2096.6,1066.64l11.119,7.942s19.876,6.719,21.882,10.23-1.806,3.348-6.02,2.858-19.463-4.086-19.463-4.086l-10.378-12.6Z" transform="translate(-1999.949 -992.737)" fill="#3c8f7c"></path><g id="Group_126" data-name="Group 126" transform="translate(48.804)"><path id="Path_119" data-name="Path 119" d="M1932.922,821.57a2.4,2.4,0,0,1-3.271.907l-19.03-10.771a2.4,2.4,0,0,1-1.122-2.761l14.252-48.844-12.1-6.85-7.661,12.6a2.4,2.4,0,0,1-4.1-2.494l8.87-14.59a2.4,2.4,0,0,1,3.233-.842l15.781,8.932a2.4,2.4,0,0,1,1.122,2.761l-14.252,48.844,17.376,9.834A2.4,2.4,0,0,1,1932.922,821.57Z" transform="translate(-1899.538 -747.617)" fill="#3c8f7c"></path></g><path id="Path_120" data-name="Path 120" d="M1752.073,783.929l-39.929,70.552a5.334,5.334,0,0,1-7.269,2.014l-13.306-7.53a5.333,5.333,0,0,1-2.015-7.268l39.929-70.552a5.334,5.334,0,0,1,7.269-2.015l13.306,7.53A5.333,5.333,0,0,1,1752.073,783.929Z" transform="translate(-1688.862 -763.614)" fill="#f7cc7f"></path><path id="Path_121" data-name="Path 121" d="M1729.484,771.145,1689.555,841.7a5.333,5.333,0,0,0,2.015,7.268l4.331,2.451c3.642-.96,7.3-1.88,9.885-6.456,5.122-9.051-4.161-14.3.962-23.356s14.406-3.8,19.528-12.847-4.16-14.306.962-23.357c4.78-8.445,13.178-4.443,18.444-11.217l-8.929-5.053A5.334,5.334,0,0,0,1729.484,771.145Z" transform="translate(-1688.862 -763.614)" fill="#f47458"></path></g><g id="Group_128" data-name="Group 128" transform="translate(718.69 366.489)"><path id="Path_122" data-name="Path 122" d="M1856.556,427.8l1.852-1.384,2.51-2.14a.251.251,0,0,0,.045-.332h0a.251.251,0,0,0-.319-.083l-2.963,1.485-2.032,1.436Z" transform="translate(-1839.221 -423.834)" fill="#184655"></path><rect id="Rectangle_98" data-name="Rectangle 98" width="15.393" height="3.046" transform="matrix(0.827, -0.563, 0.563, 0.827, 2.816, 11.008)" fill="#3c8f7c"></rect><rect id="Rectangle_99" data-name="Rectangle 99" width="4.492" height="0.685" transform="matrix(-0.563, -0.827, 0.827, -0.563, 4.509, 14.553)" fill="#9bc1f9"></rect><path id="Rectangle_100" data-name="Rectangle 100" d="M1.453,0h0A1.453,1.453,0,0,1,2.906,1.453V2.906a0,0,0,0,1,0,0H0a0,0,0,0,1,0,0V1.453A1.453,1.453,0,0,1,1.453,0Z" transform="translate(1.636 15.496) rotate(-124.252)" fill="#f79c8d"></path><path id="Path_123" data-name="Path 123" d="M1854.865,430.076l-3.05.9a2.924,2.924,0,0,0,1.714,2.518l2.036-2.368Z" transform="translate(-1836.276 -428.63)" fill="#f7a491"></path></g><g id="Group_129" data-name="Group 129" transform="translate(490.323 600.998)"><rect id="Rectangle_101" data-name="Rectangle 101" width="14.453" height="5.638" transform="translate(100.479 28.284) rotate(-88.282)" fill="#f7cc7f"></rect><path id="Path_124" data-name="Path 124" d="M800.03,1436.163l10,.719,10.588.766,19.9,1.445,19.893,1.436L894,1442.785a6.068,6.068,0,0,1,5.886,6.25l-.495,16.488a6.068,6.068,0,0,1-6.25,5.886l-4.114.141-29.548.1-19.943.25-19.953.25-10.615.13-10.024.119Z" transform="translate(-798.941 -1436.16)" fill="#86b1f2"></path><path id="Path_125" data-name="Path 125" d="M953.8,1469.24c16.681.5,30.139,3.074,30.059,5.748s-13.668,4.437-30.349,3.936-30.139-3.074-30.058-5.748S937.117,1468.739,953.8,1469.24Z" transform="translate(-894.605 -1461.509)" fill="#9bc1f9"></path><path id="Path_126" data-name="Path 126" d="M1258.079,1467.109l-.743,25.322-.083,2.815h-2.883l.078-2.815.7-25.409Z" transform="translate(-1148.866 -1459.87)" fill="#fae0b2"></path><path id="Path_127" data-name="Path 127" d="M800.021,1436.15l10,.719-1.062,35.4-10.024.119Z" transform="translate(-798.934 -1436.15)" fill="#9bc1f9"></path><path id="Path_128" data-name="Path 128" d="M889.071,1442.573l19.9,1.445,18.869,1.4.09,31.154-19.943.25-19.953.25Z" transform="translate(-867.396 -1441.085)" fill="#f47458"></path></g><g id="Group_132" data-name="Group 132" transform="translate(477.064 523.575)"><path id="Path_129" data-name="Path 129" d="M772.508,1109.106c-1.7-1.91-7.255-9.811-11.941-6.271s-1,8.843-9.365,5.212c-7.751-3.364-11.722,5.127-7.67,9.573a5.315,5.315,0,0,0-1.472,2.088,5.746,5.746,0,0,0,3.471,7.34c.482.188.742.6,1.231.662a10.581,10.581,0,0,0,7.461,4.718c9.792,1.817,7.376-8.231,10.306-10.584s3.33,1.421,7.212.687,5.264-3.015,4.469-11.11l-.324-2.122A2.214,2.214,0,0,1,772.508,1109.106Z" transform="translate(-741.697 -1101.934)" fill="#b75742"></path><g id="Group_131" data-name="Group 131" transform="translate(25.32 0.102)"><g id="Group_130" data-name="Group 130" transform="translate(34.937 70.378)"><path id="Path_130" data-name="Path 130" d="M1061.366,1550.127c1.826,3.515,4.2,7.653,4.614,7.76.2.052,1-.024,1.2.035a14.419,14.419,0,0,0,9.379-7.342c-2.433,1.083-6.211,2.813-6.76,2.719-.875-.15-1.238-2.125-3.487-6.672C1065.113,1547.329,1062.789,1547.818,1061.366,1550.127Z" transform="translate(-1047.571 -1514.092)" fill="#f7a491"></path><path id="Path_131" data-name="Path 131" d="M1080.446,1564c.709,1.38,2.448,3.566,2.741,3.371.35-.232,12.49-9.439,12.681-11.912.115-1.487-1.866-.2-4.894,1.086C1088.994,1559.928,1081.264,1564.626,1080.446,1564Z" transform="translate(-1062.231 -1520.364)" fill="#13375b"></path><path id="Path_132" data-name="Path 132" d="M1009.929,1406.247c3.886,1.078,12.783,37,12.783,37l-5.822,3.69s-11.939-27.682-14.479-28.451S1006.043,1405.169,1009.929,1406.247Z" transform="translate(-1001.814 -1406.182)" fill="#355389"></path></g><path id="Path_133" data-name="Path 133" d="M1002.784,1559.911c.815,3.118.18,9.267.029,9.945a3.027,3.027,0,0,0,.322,1.169c4.562,2.173,9.1,1.165,12.785-.119-2.569-.759-5.974-1.738-6.49-2.027-1.346-.753-.5-4.89-.874-9.444C1006.759,1561.248,1005.353,1559.083,1002.784,1559.911Z" transform="translate(-967.622 -1453.554)" fill="#f7a491"></path><path id="Path_134" data-name="Path 134" d="M1002.123,1604.15c-.3,1.531-.365,4.451-.015,4.494.419.051,15.693,1.021,17.415-.732,1.035-1.054-1.149-1.656-4.306-2.65C1011.532,1606.546,1002.354,1605.159,1002.123,1604.15Z" transform="translate(-966.92 -1487.911)" fill="#355389"></path><path id="Path_135" data-name="Path 135" d="M868.545,1355.451l.817,4.881s25.869,1.005,26.329,6.092-3.124,38.388-3.124,38.388h-7.1s-1.3-18.877-1.139-24.171c.159-5.163.636-5.957.636-5.957s-28.281-1.3-30.239-2.163-5.066-3.567-3.109-11.143,2.992-9.524,2.992-9.524Z" transform="translate(-850.998 -1294.06)" fill="#466eb6"></path><path id="Path_136" data-name="Path 136" d="M881,1107.747c-1.72,4.733,1.3,10.613,6.427,11.292,3.331.441,7-1.5,7.91-4.9,1.477-5.518-.509-9.192-3.653-10.96-3.68-2.07-8.289.131-10.228,3.573A6.666,6.666,0,0,0,881,1107.747Z" transform="translate(-873.677 -1102.376)" fill="#b75742"></path><path id="Path_137" data-name="Path 137" d="M874.9,1213.321a45.7,45.7,0,0,0-2.6-4.064c-1.329-2.266-4.764-3.412-4.764-3.412s-1.149.022-2.468.084a.994.994,0,0,1-.249.42c-.5.357-3.337-.1-5.172,1.091-6.151,5.057-3.02,32.777-4.623,40.437l18.059,1.328s-1.03-20.945,2.776-25.224C878.5,1221,876.8,1216.683,874.9,1213.321Z" transform="translate(-854.086 -1181.876)" fill="#fae0b2"></path><path id="Path_138" data-name="Path 138" d="M898.33,1167.179s-1.029,7.052-1.749,8.766,3.955,5.379,7.844,6.491-1.189-3.786-1.027-5.618.868-10.506.868-10.506Z" transform="translate(-885.965 -1151.502)" fill="#f7a491"></path><path id="Path_139" data-name="Path 139" d="M909.075,1168.807c.118-1.442.2-2.489.2-2.494h0l-5.935.866h0s-.122.836-.311,2A5.037,5.037,0,0,0,909.075,1168.807Z" transform="translate(-890.978 -1151.502)" fill="#f47458"></path><path id="Path_140" data-name="Path 140" d="M895.905,1114.237a6.77,6.77,0,0,0-3.784,2.62c-1.444,2.114-2.436,8.337,2.322,11.242s8.457-1.2,8.519-5.212S902.128,1113.53,895.905,1114.237Z" transform="translate(-881.679 -1111.44)" fill="#f7a491"></path><path id="Path_141" data-name="Path 141" d="M939.757,1139.042c-.406.967-1.211,1.567-1.8,1.34s-.735-1.194-.329-2.161,1.211-1.567,1.8-1.341S940.163,1138.075,939.757,1139.042Z" transform="translate(-917.385 -1128.85)" fill="#f7a491"></path><path id="Path_142" data-name="Path 142" d="M886.465,1144.744c.345,1.042.029,2.068-.705,2.291s-1.609-.439-1.954-1.481-.029-2.068.705-2.291S886.12,1143.7,886.465,1144.744Z" transform="translate(-876.098 -1133.758)" fill="#f7a491"></path><path id="Path_143" data-name="Path 143" d="M889.314,1284.34c-.148-.576-2.862-3.579-3.8-3.692-.912-.11-6.818-1.009-6.818-1.009s-10.478-8.628-11.038-9.077c-.027-.3-.123-13.145.079-16.758-3.278-.469-5.177.262-8.348.957-.669,7.2-.586,18.236,3.027,20.487,3.474,2.165,15.191,6.98,15.191,6.98a44.064,44.064,0,0,0,4.571,1.434c.541.033,2.027-.085,2.757.024,1.658.248,3.76,2.615,3.894,2.343a3.124,3.124,0,0,0-1.073-2.209c-.867-.807-2.378-1.522-2.293-1.641C885.8,1281.7,889.58,1285.375,889.314,1284.34Z" transform="translate(-857.195 -1218.609)" fill="#f7a491"></path><path id="Path_144" data-name="Path 144" d="M866.572,1215.514c-.151-2.287-.382-4.593-2.79-5.638a5.333,5.333,0,0,0-4.691.338,5.927,5.927,0,0,0-2.6,4.523,66.207,66.207,0,0,0-.736,12.221c3.047-1.119,7.133-.388,10.444-.368C867.034,1223.073,866.769,1218.493,866.572,1215.514Z" transform="translate(-854.619 -1184.671)" fill="#f7cc7f"></path><path id="Path_145" data-name="Path 145" d="M948.6,1384.106l-28.336-3.2a2.892,2.892,0,0,1-2.339-2.136l-.249-1.418,31.888,3.66Z" transform="translate(-902.227 -1313.651)" fill="#184655"></path><path id="Path_146" data-name="Path 146" d="M1044.3,1306.6l-2.258-.663,8.83-28.9.666.192a1.643,1.643,0,0,1,1.163,2.04Z" transform="translate(-997.783 -1236.574)" fill="#184655"></path></g></g><path id="Rectangle_102" data-name="Rectangle 102" d="M10.931,0H157.178a10.931,10.931,0,0,1,10.931,10.931v0a0,0,0,0,1,0,0H0a0,0,0,0,1,0,0v0A10.931,10.931,0,0,1,10.931,0Z" transform="translate(619.287 622.626)" fill="#fae0b2"></path><g id="Group_133" data-name="Group 133" transform="translate(397.277 362.597)"><path id="Path_147" data-name="Path 147" d="M895.732,487.347c-12.046-18.267-38.225-46.776-57.086-36.731-5.284,2.814-8.128,8.359-11.619,13.162-9.523,13.1-25.778,18.857-41.513,18.4-24.838-.716-46.369-16.757-65.406-32.291C700.637,434,680.9,416.115,656.627,409.574c-21.429-5.775-45.435-2.243-60.925,16.1-15.3,18.115-20.815,43.087-36.585,60.926-8.419,9.524-19.136,18.28-31.054,21.815-9.917,2.941-19.548.9-28.174-4.785-15.756-10.377-26.491-27.9-43.2-36.845-21.814-11.683-45.853-2.4-55.539,19.128-13.527,30.065,10.839,57.467,34.785,52.612,3.259-.661,2.087-6.049-1.173-5.388-17.848,3.616-37.688-15.665-30.989-39.363,6.517-23.053,30.573-33.433,51.226-21.685,15.9,9.047,26.451,25.7,41.591,35.907,15.914,10.732,34.2,11.286,57.294-8.663a100.1,100.1,0,0,0,22.193-28.053c10.775-19.787,17.832-43.286,38-53.519,9.648-4.894,20.612-5.985,31.093-4.762,23.9,2.791,44.04,18.551,62.553,33.755,19.121,15.7,38.725,32.669,62.644,38.88,19.1,4.96,41.634,1.791,56.4-13.272,3.89-3.969,6.426-9,10.025-13.2,4-4.664,9.4-5.826,14.993-4.344,11.328,3,20.156,12.548,28.516,20.685a143.229,143.229,0,0,1,12.584,14.035c1.261,1.6,4.008-.423,2.843-2.189Z" transform="translate(-397.277 -407.031)" fill="#f47458"></path></g><g id="Group_134" data-name="Group 134" transform="translate(572.195 468.757)"><path id="Path_148" data-name="Path 148" d="M1158.313,865.3s-4.955,9.152-5.838,12.388,3.34,11.006,3.34,11.006l9.971-.543s4.1-4.3,2.347-8.6S1159.595,873.345,1158.313,865.3Z" transform="translate(-1152.354 -865.298)" fill="#f48c7f"></path><path id="Path_149" data-name="Path 149" d="M1184,1103.625l-3.3-59.353-10.892.6,3.261,58.748Z" transform="translate(-1165.771 -1002.811)" fill="#f7cc7f"></path><path id="Path_150" data-name="Path 150" d="M1167.3,964.446l9.99-.555,2.085,19.384-12,.667Z" transform="translate(-1163.835 -941.052)" fill="#86b1f2"></path><path id="Path_151" data-name="Path 151" d="M1178.188,987.147l-1.985-13.035-.39-3.393-1.3.129-.179,4.05-.772,12.448Z" transform="translate(-1168.647 -946.298)" fill="#9bc1f9"></path></g><g id="Group_137" data-name="Group 137" transform="translate(764.75 503.378)"><path id="Path_152" data-name="Path 152" d="M2265.222,1538.2a15.118,15.118,0,0,1-5.11,1.4l12.231.874-.238-2.144a11.1,11.1,0,0,0-2.118-6.01c-2.065-2.621-13.132-12.655-13.132-12.655l-5.4,2.542s11.446,9.059,14.455,13.422C2266.611,1536.643,2265.582,1537.985,2265.222,1538.2Z" transform="translate(-2189.398 -1402.697)" fill="#f79c8d"></path><path id="Path_153" data-name="Path 153" d="M2383.507,1538.2a24.9,24.9,0,0,1-5.692,1.906l12.443.106.132-1.88a11.1,11.1,0,0,0-2.118-6.01c-2.065-2.621-13.131-12.655-13.131-12.655l-5.4,2.542s12.24,9.456,15.249,13.82C2385.69,1537.04,2383.866,1537.985,2383.507,1538.2Z" transform="translate(-2280.281 -1402.697)" fill="#f79c8d"></path><g id="Group_136" data-name="Group 136" transform="translate(47.912 4.549)"><path id="Path_154" data-name="Path 154" d="M2201.8,1127.893l-2.6-.924-5.041,2.352a19.394,19.394,0,0,0-3.064,6.546c-1.26,4.368-.8,30.083,1.3,34.283S2201.8,1127.893,2201.8,1127.893Z" transform="translate(-2190.392 -1105.521)" fill="#f7cc7f"></path><path id="Path_155" data-name="Path 155" d="M2230.689,1287.781s6.241,12.395,7.521,15.722l8.478,21.263,25.045,30.975s-4.925,1.165-7.89.741c0,0-27.571-21.087-29.652-24.3-3.171-4.9-18.85-33.04-18.85-33.04l1.831-6.158Z" transform="translate(-2209.562 -1229.08)" fill="#b75742"></path><path id="Path_156" data-name="Path 156" d="M2203.31,1274.828l.1,10.569s-4.837,32.862-3.962,34.913c2.135,5,25.866,23.854,25.866,23.854l6.552-.874-18.969-26.263,6.142-16.415c1.787-4.254,4.631-11.785,4.534-16.4-.083-3.954-7.919-13.121-7.919-13.121Z" transform="translate(-2197.269 -1216.258)" fill="#f47458"></path><path id="Path_157" data-name="Path 157" d="M2207.712,1178.983c6.216-1.412,11.247-3.609,11.762-5.343.233-.784-3.233-8.669-5.784-19.2-.833-3.438-.683-6.667-2.016-18.707-.283-2.554-1.341-7.907-5.3-9.287a5.933,5.933,0,0,0-2.164-.422c-.033.006-5.032.039-7.319,1.309-.564.766-2.668,4.957-3.228,16.382-.244,4.989-1.241,21-1.036,23.608q.045.579.116,1.121C2193.643,1175.359,2200.914,1180.527,2207.712,1178.983Z" transform="translate(-2192.092 -1104.794)" fill="#50bfa5"></path><path id="Path_158" data-name="Path 158" d="M2210.391,1116.039s.011,0,.018,0c2.533-.28,9.283-8.767,9.283-8.767l-4.322-6.115s-5.363.379-4.229,2.144,1.338,6.67,1.338,6.67c-.019.048-.044.106-.08.176A21.043,21.043,0,0,0,2210.391,1116.039Z" transform="translate(-2205.758 -1085.689)" fill="#f7a491"></path><path id="Path_159" data-name="Path 159" d="M2217.532,1101.625c.016-.026.031-.054.047-.081l-.245-.388s-5.363.379-4.229,2.144a5.32,5.32,0,0,1,.557,1.315A7.584,7.584,0,0,0,2217.532,1101.625Z" transform="translate(-2207.722 -1085.689)" fill="#f47458"></path><g id="Group_135" data-name="Group 135" transform="translate(0.381)"><path id="Path_160" data-name="Path 160" d="M2200.672,1049.248c.147-.088,2.865,7.919,1.189,10.595s-5.657,4.219-7.484,2.725c-2.02-1.653-3.66-10.509-.822-13.478S2200.672,1049.248,2200.672,1049.248Z" transform="translate(-2192.035 -1044.7)" fill="#f7a491"></path><path id="Path_161" data-name="Path 161" d="M2197.077,1034.385a14.754,14.754,0,0,1,9.128,4.119,6.766,6.766,0,0,1-.106,9.045,5.222,5.222,0,0,0-1.521,4.287s-4.349-1.241-4.572-4.424c-.094-1.336.558-2.081-.127-2.976-.528-.689-.721-2.393-1.082-3.809,0,0-2.495-2.134-3.848-1.136C2194.487,1039.833,2193.684,1034.359,2197.077,1034.385Z" transform="translate(-2193.946 -1034.385)" fill="#f7cc7f"></path><path id="Path_162" data-name="Path 162" d="M2215.056,1073.014c.179,1.007.8,1.739,1.383,1.635s.915-1,.736-2.011-.8-1.739-1.383-1.635S2214.877,1072.007,2215.056,1073.014Z" transform="translate(-2209.685 -1062.512)" fill="#f7a491"></path></g></g><path id="Path_163" data-name="Path 163" d="M2036.091,1043.969l-4.028,7.117a4.089,4.089,0,0,1-5.572,1.545l-40.846-23.117a4.089,4.089,0,0,1-1.545-5.573l4.028-7.117a4.089,4.089,0,0,1,5.573-1.544l40.846,23.117A4.089,4.089,0,0,1,2036.091,1043.969Z" transform="translate(-1983.569 -1014.749)" fill="#f47458"></path><path id="Path_164" data-name="Path 164" d="M2040.129,1099.605a7.617,7.617,0,0,0,1.38,3.392c1.059,1.165,4.527.5,5.057.662a30.133,30.133,0,0,1,3.442,3.071l2.648-3.124s-3.442-1.906-3.812-3.177a4.889,4.889,0,0,0-3.2-2.561c-.688,0,.185,1.489.821,2.019s-1.27,1.191-2.237,1.125A22.875,22.875,0,0,1,2040.129,1099.605Z" transform="translate(-2027.027 -1078.613)" fill="#f8a492"></path><path id="Path_165" data-name="Path 165" d="M2079.115,1122.427l3.6-4.13,12.788,9.241s20.509-6.521,20.566-6.528l2.017-.555c5.917-.874,6.579,7.046,5.575,8.529-2.34,3.455-20.757,9.655-27.971,8.491C2089.75,1136.516,2079.115,1122.427,2079.115,1122.427Z" transform="translate(-2056.981 -1094.309)" fill="#96d9c9"></path></g><g id="Group_140" data-name="Group 140" transform="translate(608.004 470.097)"><path id="Path_166" data-name="Path 166" d="M1333.356,1105.156a5.24,5.24,0,0,0,.5,1.286,48.65,48.65,0,0,0,4.752,6.748l2.569-6.177s-.419-1.94-1.145-4.712C1337.548,1102.992,1335.185,1103.393,1333.356,1105.156Z" transform="translate(-1327.235 -1048.738)" fill="#f8a492"></path><path id="Path_167" data-name="Path 167" d="M1328.184,1019.865s-14.328,6.585-14.792,6.459c-.3-.081-5.877-10.047-5.937-19.419-.028-4.329,4.184-9.536,8.884-8.506,2.366.518,2.329,1.221,5.83,6.649S1328.184,1019.865,1328.184,1019.865Z" transform="translate(-1307.335 -968.805)" fill="#13375b"></path><path id="Path_168" data-name="Path 168" d="M1446.555,1601.157s-.34,6.006-.342,6.018c-.125.762-.617,2.646-.617,3.339,0,2.6,11.586-2.21,8.99-3.365-.235-.1-1.467-.895-1.544-1.781-.119-1.365-.421-4.128-.421-4.128Z" transform="translate(-1413.474 -1432.032)" fill="#f7a491"></path><path id="Path_169" data-name="Path 169" d="M1453.2,1626.566a41.8,41.8,0,0,1-4.113,1c-1.393.2-3.23-1.478-4.215-1.025-1.085.5-1.042,4.986-1.042,4.986s14.588,1.278,18.689-.044C1464.14,1630.955,1458.757,1628.421,1453.2,1626.566Z" transform="translate(-1412.114 -1451.472)" fill="#184655"></path><path id="Path_170" data-name="Path 170" d="M1344.241,1601.157s-.34,6.006-.342,6.018c-.125.762-.617,2.646-.617,3.339,0,2.6,11.587-2.21,8.99-3.365-.235-.1-1.831-1.484-1.909-2.37-.119-1.366-.056-3.539-.056-3.539Z" transform="translate(-1334.862 -1432.032)" fill="#f7a491"></path><path id="Path_171" data-name="Path 171" d="M1350.6,1626.566a41.8,41.8,0,0,1-4.113,1c-1.393.2-3.23-1.478-4.215-1.025-1.085.5-1.128,4.986-1.128,4.986s14.654,1.489,18.775-.044C1361.517,1630.883,1356.16,1628.421,1350.6,1626.566Z" transform="translate(-1333.218 -1451.472)" fill="#184655"></path><g id="Group_138" data-name="Group 138" transform="translate(12.92 12.593)"><path id="Path_172" data-name="Path 172" d="M1362.708,972.6l10.2-15.256c.043-.133.135-.407.277-.824.514-1.514,1.583-4.664,2.515-7.8l.01-.034c.293-1.1.913-3.006,1.513-4.855.667-2.055,1.495-4.6,1.524-5.039-.026-.074-.074-.208-.138-.385a37.17,37.17,0,0,1-1.059-4.578c-.114-.683-.227-2.345.533-2.345,1.2,0,.627,1.659,1.179,2.7a27.642,27.642,0,0,0,.829-3.457l.2-3.244c.038-.245-.205-2.034.634-2.034l.04,0c.754.059.737,1.961,1.051,5.179.1-.37.2-.817.273-1.227a12.462,12.462,0,0,1,.255-1.7c-.151-.9-.063-2.311.831-2.177.448.067.411,2.04.411,2.04,0,.271-.031,2.357-.018,2.77.092-.7.451-3.686,1.152-3.686.582,0,.629.8.617,1.439-.007.376-.373,3.611-.393,3.988.274-.491.6-3.342.871-3.342,1.135,0,.725,4.053.308,5.11a5.023,5.023,0,0,0-.129.566,10.414,10.414,0,0,1-.973,3.016c-.713,1.3-1.7,3.37-1.846,3.687-.11.646-.451,2.97-.881,5.893-.184,1.25-.385,2.622-.6,4.043l-.011,0c-.038.307-.251,1.285-1.058,4.953a46.153,46.153,0,0,1-1.268,5.328c-.479.906-11.482,16.852-11.95,17.531l-.276.4Z" transform="translate(-1362.708 -925.443)" fill="#f7a491"></path><path id="Path_173" data-name="Path 173" d="M1437,967.6s-.828-2.261-2.3-2.265a1.606,1.606,0,0,1,1.53.28A3.24,3.24,0,0,1,1437,967.6Z" transform="translate(-1418.023 -956.031)" fill="#f47458"></path></g><g id="Group_139" data-name="Group 139" transform="translate(0 0)"><path id="Path_174" data-name="Path 174" d="M1347.708,954.817l-1.314,8.866s5.005,4.289,7.923,3.385c2.448-.759.769-4.175.769-4.175s-1.3-4.733-.9-7.214S1347.708,954.817,1347.708,954.817Z" transform="translate(-1337.253 -935.021)" fill="#f7a491"></path><path id="Path_175" data-name="Path 175" d="M1352.171,957.5a19.481,19.481,0,0,0,5.665,1.7,12.539,12.539,0,0,1-.133-3.523c.185-1.145-1.181-1.416-2.7-1.376-1.994.182-3.771.515-3.771.515l-.253,1.7A4.165,4.165,0,0,0,1352.171,957.5Z" transform="translate(-1340.773 -935.023)" fill="#fe875e"></path><path id="Path_176" data-name="Path 176" d="M1324.752,896.585c-.207,0,1.979,9.905,5.36,11.609s8.425.816,9.371-1.852c1.047-2.951-2.771-13.056-7.528-14.339S1324.752,896.585,1324.752,896.585Z" transform="translate(-1320.614 -887.016)" fill="#f7a491"></path><path id="Path_177" data-name="Path 177" d="M1314.986,871.552a11.185,11.185,0,0,0-4.358,5.139c-1.268.642-2.8,2.031-3.538,5.773a8.114,8.114,0,0,0,5.727,9.214c3.413,1.067,3.989,3.477,3.989,3.477l.338-2.594a10.457,10.457,0,0,0-1.9-3.389c-1.142-1.13.541-2.778.689-4.121.114-1.035-.6-3.043-.445-4.741,0,0,1.9-3.067,3.766-3.825C1322.438,875.194,1318.452,869.419,1314.986,871.552Z" transform="translate(-1306.935 -871.084)" fill="#13375b"></path><path id="Path_178" data-name="Path 178" d="M1339.106,933.325c.442,1.144.261,2.28-.4,2.537s-1.562-.462-2-1.606-.261-2.28.4-2.537S1338.664,932.181,1339.106,933.325Z" transform="translate(-1329.618 -917.633)" fill="#f7a491"></path></g><path id="Path_179" data-name="Path 179" d="M1402.27,1098.735l19.684-3.425s-2.24-6.017-3.04-6.017-14.883,6.561-14.883,6.561l-1.12,2.4Z" transform="translate(-1380.185 -1038.744)" fill="#f8a492"></path><path id="Path_180" data-name="Path 180" d="M1347.624,1189.042s-1.964,10.131-1.163,17.813.863,34.97.863,34.97l-3.053,43.661,7.245.169s8.591-43.64,8.431-42.52,2.881-30.727,2.881-30.727l-10.242-24.326Z" transform="translate(-1335.621 -1114.648)" fill="#3c8f7c"></path><path id="Path_181" data-name="Path 181" d="M1365.43,1179.008s-1.28,9.122.32,13.123,13.727,43.257,13.887,46.458,4.193,38.578,4.193,38.578l8.425-.253,1.823-39.333-3.816-49.435-3.706-12.5Z" transform="translate(-1351.506 -1105.093)" fill="#50bfa5"></path><path id="Path_182" data-name="Path 182" d="M1346.394,985.3a7.254,7.254,0,0,0,4.015,1.286c1.938-.168,4.677-2.077,4.677-2.077l-.38-1.377s-5.013-.779-5.139-.695S1346.394,985.3,1346.394,985.3Z" transform="translate(-1337.253 -956.633)" fill="#f7a491"></path><path id="Path_183" data-name="Path 183" d="M1441.977,1063.354s7.446,7.5,10.806,6.218,4.751-5.656-3.449-12.059C1442,1051.782,1441.977,1063.354,1441.977,1063.354Z" transform="translate(-1410.694 -1013.101)" fill="#f8a492"></path><path id="Path_184" data-name="Path 184" d="M1350.533,1022.56c-1.106-6.422-9.122-26.406-9.762-30.087-.311-1.79-4.635-1.83-8.754-1.6-4.35.247-8.672.834-8.672.834s-3.851.675-5.545,2.369-2.145,6.38.291,15.276c1.923,7.022,4.306,10.878,5.486,15.992.239,1.716.444,3.408.715,5.386.434,7.648-.005,17.751-.005,17.751s20.965,4.641,28.807-2.4C1353.094,1046.085,1351.666,1029.139,1350.533,1022.56Z" transform="translate(-1314.205 -963.049)" fill="#355389"></path><path id="Path_185" data-name="Path 185" d="M1409.032,1009.6s-8.226,7.247-8.707,7.247c-.309,0-11.739-8.973-14.377-16.346-1.459-4.075,1.6-8.635,5.1-8.62,2.422.01,3.5.677,8.3,5S1409.032,1009.6,1409.032,1009.6Z" transform="translate(-1367.358 -963.9)" fill="#13375b"></path></g><g id="Group_145" data-name="Group 145" transform="translate(896.983 435.347)"><g id="Group_141" data-name="Group 141" transform="translate(22.845 26.104)"><path id="Path_186" data-name="Path 186" d="M2661.951,843.115a5.969,5.969,0,0,1-1.379,2.688,56.37,56.37,0,0,0,1.321,5.81s4.156,15.977,4.41,16.831l10.485,13.266-4.892,7.219s-11.035-14.744-11.482-15.619-3.627-23.139-3.969-25.09c0,0-1.239-2.175-1.974-3.566a13.709,13.709,0,0,1-.981-3.472,14.446,14.446,0,0,1-.489-3.422c-.045-1.651.73-.1.73-.1s.616,3.045.84,2.954c.173-.07-.258-1.713-.327-3.539-.018-.469-.033-.933-.044-1.359-.029-1.118.628-1.454.839-.288a11.511,11.511,0,0,1,.192,1.6,9.485,9.485,0,0,0,.266,1.488,12.542,12.542,0,0,0,.283,1.532c.042-.035.195.122.191-.376,0-.6-.287-1.873-.227-2.756.034-.5.043-1.551.043-1.551a10.074,10.074,0,0,1,.4-1.6c.519-.068.609,1.074.477,1.747a7.748,7.748,0,0,1,.089,1.578s.405,2.254.715,2.2a26.171,26.171,0,0,0,.168-2.834c.116-1.3.438-2.59.691-2.6.428-.025.449,1.431.449,1.431s-.039,1.021-.026,1.361c.015.4.147,1.589.147,1.589s.533,3.668.823,3.592.958-.454,1-.724-.438-1.606-.392-1.875.438-.318.763-.284.907,2.289.907,2.289A4.62,4.62,0,0,1,2661.951,843.115Z" transform="translate(-2653 -833.761)" fill="#f8a492"></path><path id="Path_187" data-name="Path 187" d="M2673.89,868.1a2.686,2.686,0,0,0-1.408.643c-.682.588-.8,2.377-.8,2.377a6.568,6.568,0,0,1-.125-2.328C2671.776,867.966,2673.126,867.748,2673.89,868.1Z" transform="translate(-2667.206 -860.02)" fill="#f47458"></path></g><g id="Group_142" data-name="Group 142"><path id="Path_188" data-name="Path 188" d="M2638.938,721.076l-6.737,31.592,66.428,18.587,8.484-39.782Z" transform="translate(-2614.174 -721.076)" fill="#355389"></path><path id="Path_189" data-name="Path 189" d="M2596.22,743.978l6.767,8.69,6.738-31.591-8.337,3.206a9.674,9.674,0,0,0-5.989,7.011l-1.007,4.723A9.671,9.671,0,0,0,2596.22,743.978Z" transform="translate(-2584.96 -721.076)" fill="#86b1f2"></path><rect id="Rectangle_103" data-name="Rectangle 103" width="9.095" height="9.674" transform="matrix(0.209, -0.978, 0.978, 0.209, 1.268, 15.305)" fill="#86b1f2"></rect><path id="Path_190" data-name="Path 190" d="M2557.565,748.592c1.112.237,1.587,2.429,1.061,4.9s-1.854,4.274-2.966,4.037-1.587-2.429-1.061-4.9S2556.453,748.355,2557.565,748.592Z" transform="translate(-2554.384 -742.201)" fill="#355389"></path><path id="Path_191" data-name="Path 191" d="M2942.568,759.21l-8.578,40.222a3.464,3.464,0,0,1-4.111,2.666l-8.713-1.858a3.465,3.465,0,0,1-2.666-4.111l8.578-40.222a3.465,3.465,0,0,1,4.111-2.666l8.713,1.858A3.464,3.464,0,0,1,2942.568,759.21Z" transform="translate(-2834.091 -745.731)" fill="#86b1f2"></path><path id="Path_192" data-name="Path 192" d="M2751.2,778.968l8.375-39.268-46.342-7.067-7.187,33.7Z" transform="translate(-2670.912 -729.956)" fill="#f47458"></path></g><g id="Group_144" data-name="Group 144" transform="translate(1.879 23.959)"><g id="Group_143" data-name="Group 143"><path id="Path_193" data-name="Path 193" d="M2864.494,829.393s-.516-2.356-.715-3.018-1.3-2.052-1.469-1.853a1.212,1.212,0,0,0,.066,1.1c.186.318.755,2.078.755,2.078l.132,2.462a21.562,21.562,0,0,0-.486-2.54,15.7,15.7,0,0,0-1.107-2l-.985-.96a.279.279,0,0,0-.464.118.582.582,0,0,0-.016.215,2.724,2.724,0,0,0,.622,1.191,7.8,7.8,0,0,1,.887,1.827,7.5,7.5,0,0,1,.186,2.277c-.119,0-.3-1.525-.493-2a7.284,7.284,0,0,0-1.082-1.5c-.318-.357-1.244-1.158-1.642-1.158s.609,1.337.688,1.456.913,1.39.913,1.39.437,1.906.2,1.906-2.333-3.742-2.462-3.1c-.119.6,1.18,2.832,1.31,3.256.094.306.513,3.611.755,5.8.075.683.522,1.19.437,1.549-.357,1.509-5.163,21.56-5.163,21.56s-4.01,5.841-5.162,7.351-3.892,5.639-3.892,5.639l6.751,4.024,9.637-15.779s2.039-24.99,2.078-25Z" transform="translate(-2780.56 -824.502)" fill="#f7a491"></path><path id="Path_194" data-name="Path 194" d="M2924.455,846.128a.942.942,0,0,0-.081.059,1.464,1.464,0,0,0-.555,1.132,3.578,3.578,0,0,1-.463,1.575l-.252,2.793.666.635S2925.209,846.485,2924.455,846.128Z" transform="translate(-2839.567 -841.118)" fill="#f7a491"></path><path id="Path_195" data-name="Path 195" d="M2602.055,1428.834a54.747,54.747,0,0,0-.616,7.774c-.018.321.13,1.786.149,1.992-3.28,1.676-5.272,1.828-8.754,2.627.871-1.583,2.593-1.467,2.823-2.133.278-.8.107-3.944-.536-9.073C2597.539,1430.6,2599.669,1429.446,2602.055,1428.834Z" transform="translate(-2585.806 -1288.837)" fill="#f7a491"></path><path id="Path_196" data-name="Path 196" d="M2735.54,1475.633a35.55,35.55,0,0,0,2.8,6.613c.1.174.974.762,1.084.939-2.185,2.9-2.859,7.5-5.624,9.695.066-1.794,1.039-5.226.945-5.923-.115-.843-1.688-3.6-4.586-7.944C2732.6,1478.514,2733.674,1477.195,2735.54,1475.633Z" transform="translate(-2691.322 -1324.795)" fill="#f7a491"></path><path id="Path_197" data-name="Path 197" d="M2743.8,1505.993a1.625,1.625,0,0,1,2.112-1.033c.814.413,1.888.852,2.7,1.307.914.511,1.027,1.155,1.018,1.3-.029.429-7.969,12.831-11.141,13.478-1.3.265.84-10.165,2.2-11.271C2741.9,1508.792,2742.613,1509.661,2743.8,1505.993Z" transform="translate(-2697.41 -1347.229)" fill="#466eb6"></path><path id="Path_198" data-name="Path 198" d="M2577.405,1466.769a1.649,1.649,0,0,1,2.246.743c.261.85.686,1.9.915,2.773a1.605,1.605,0,0,1-.259,1.607c-.339.278-16.613,2.366-17.718,1.651s8.047-6.471,9.821-6.3C2573.988,1467.4,2573.843,1468.494,2577.405,1466.769Z" transform="translate(-2562.497 -1317.856)" fill="#466eb6"></path><path id="Path_199" data-name="Path 199" d="M2627.664,1215.151l16.766,5.215-21,15.889-20.4,3.691s-1.565,18.886-1.692,26.4c-2.1.861-5.979,1.955-8.156,1.695-1.52-10.431-3.083-31.981-1.223-35.282C2593.567,1229.9,2627.664,1215.151,2627.664,1215.151Z" transform="translate(-2584.482 -1124.655)" fill="#b75742"></path><path id="Path_200" data-name="Path 200" d="M2679.343,1209.453a15.445,15.445,0,0,0,1.024-4.967l10.727,7.451,3.19,1.862s.654,7.852-3.442,12.552-23.393,17.438-23.393,17.438,6.841,17.653,10.026,24.266a19.01,19.01,0,0,1-6.692,4.853c-2.92-4.759-18.7-26.5-17.968-31.32C2653.358,1238.023,2678.473,1211.1,2679.343,1209.453Z" transform="translate(-2631.873 -1116.461)" fill="#f47458"></path><path id="Path_201" data-name="Path 201" d="M2748.478,1018.6s-6.192,6.882-9.708,8.331a14.246,14.246,0,0,1-3.4.228c-3.551.2-12.708-8.494-12.708-8.494s-4.962,6.7-4.921,7.673c.035.833,5.688,6.494,6.04,8.589,1.1,6.537-.7,29.5-.7,29.5,4.879,3.8,21.463,7.024,21.463,7.024s3.584-35.388,3.879-35.642c1.226-1.055,7.075-9.823,7.3-10.836C2756.136,1023.154,2748.478,1018.6,2748.478,1018.6Z" transform="translate(-2681.779 -973.639)" fill="#466eb6"></path></g><path id="Path_202" data-name="Path 202" d="M2786.508,1025.715l-.828,3.378s-.189,2.941,1.177,3.205c1.646.319,4.093-2.145,4.093-2.145l1.417-9.527Z" transform="translate(-2733.971 -975.194)" fill="#f7a491"></path><path id="Path_203" data-name="Path 203" d="M2786.508,1025.715l-.828,3.378s-.189,2.941,1.177,3.205c1.646.319,4.188-2.686,4.188-2.686l1.322-8.985Z" transform="translate(-2733.971 -975.194)" fill="#f7a491"></path><path id="Path_204" data-name="Path 204" d="M2793.077,1020.816l-5.844,5.044-.619,2.523C2788.848,1027.847,2792.032,1025.388,2793.077,1020.816Z" transform="translate(-2734.696 -975.339)" fill="#f47458"></path><path id="Path_205" data-name="Path 205" d="M2774.048,982.979a3.451,3.451,0,0,0-3.182,2.387,30.038,30.038,0,0,0-1.275,4.891c-.618,3.664,1.468,7.017,3.283,7.285s6.139-.935,7.1-6.125c.41-2.225.949-5.142-.881-6.675A8.224,8.224,0,0,0,2774.048,982.979Z" transform="translate(-2721.531 -946.267)" fill="#f7a491"></path><path id="Path_206" data-name="Path 206" d="M2778.559,979.618s6.4-5.7,6.678-10.158-3.835-6.842-7.354-6.966a23.841,23.841,0,0,0-4.306.222c-3.525.444-5.809,2.007-5.005,4.895,1.079,3.877,8.4.606,9.891,1.81,1.235.993-.767,3.382.433,4.293,1.127.857.553.567.18,2.2A28.746,28.746,0,0,0,2778.559,979.618Z" transform="translate(-2720.71 -930.514)" fill="#184655"></path><path id="Path_207" data-name="Path 207" d="M2814.986,1007.164c-.159,1.067-.811,1.856-1.458,1.76s-1.042-1.038-.883-2.105.811-1.856,1.458-1.76S2815.144,1006.1,2814.986,1007.164Z" transform="translate(-2754.669 -963.225)" fill="#f7a491"></path></g></g><path id="Path_208" data-name="Path 208" d="M2282.694,1586.412a1.626,1.626,0,0,1,2.067,1.119c.136.9.4,2.032.505,2.957a1.661,1.661,0,0,1-.469,1.585c-.366.226-15.072.969-17.443-1.237-.97-.9,8.76-5.222,10.451-4.76C2279.309,1586.488,2279.019,1587.577,2282.694,1586.412Z" transform="translate(-1436.812 -950.32)" fill="#466eb6"></path><path id="Path_209" data-name="Path 209" d="M2401.891,1585.613a1.626,1.626,0,0,1,2.068,1.119c.136.9.4,2.032.505,2.957a1.659,1.659,0,0,1-.469,1.585c-.365.226-15.072.97-17.443-1.237-.97-.9,8.761-5.222,10.451-4.759C2398.507,1585.689,2398.216,1586.777,2401.891,1585.613Z" transform="translate(-1528.396 -949.706)" fill="#466eb6"></path></g></g></g></g></svg> 