<?xml version="1.0" encoding="UTF-8"?> <svg xmlns="http://www.w3.org/2000/svg" width="713" height="431.148" viewBox="0 0 713 431.148"><g id="Group_151" data-name="Group 151" transform="translate(-1850 -1336)"><rect id="Rectangle_106" data-name="Rectangle 106" width="713" height="431" transform="translate(1850 1336)" fill="#fff"></rect><g id="Group_33" data-name="Group 33" transform="translate(1685.327 1268.699)"><path id="Path_1" data-name="Path 1" d="M605.631,68.3,404.67,498.449H872.177V68.3Z" transform="translate(5.184)" fill="#a0a9ff" opacity="0.23"></path><g id="Group_32" data-name="Group 32" transform="translate(376.447 146.619)"><g id="Group_27" data-name="Group 27"><path id="Path_2" data-name="Path 2" d="M613.574,201.668l1.734-10.856-6.071-.969a21.147,21.147,0,0,0-1.31-5.47l4.982-3.61-6.45-8.9-4.981,3.61a21.193,21.193,0,0,0-4.792-2.95l.969-6.07L586.8,164.718l-.969,6.071a21.217,21.217,0,0,0-5.471,1.31l-3.609-4.982-8.9,6.45,3.609,4.982a21.2,21.2,0,0,0-2.949,4.79l-6.07-.969-1.734,10.854,6.071.969a21.215,21.215,0,0,0,1.309,5.471l-4.981,3.609,6.45,8.9,4.981-3.609a21.253,21.253,0,0,0,4.79,2.949l-.969,6.071,10.855,1.733.969-6.071a21.215,21.215,0,0,0,5.471-1.309l3.609,4.981,8.9-6.45-3.609-4.981a21.226,21.226,0,0,0,2.949-4.79Zm-27.07-.236a9.533,9.533,0,1,1,10.917-7.911A9.532,9.532,0,0,1,586.5,201.432Z" transform="translate(-342.602 -128.909)" fill="#a0a9ff" opacity="0.68"></path><rect id="Rectangle_4" data-name="Rectangle 4" width="3.445" height="33.634" rx="1.31" transform="translate(224.84 35.447)" fill="#464ff8"></rect><rect id="Rectangle_5" data-name="Rectangle 5" width="3.445" height="33.634" rx="1.31" transform="translate(224.84 75.906)" fill="#464ff8"></rect><path id="Path_3" data-name="Path 3" d="M584.01,134.466H434.04c-5.211,0-9.435,4.625-9.435,10.329V423.689c0,5.7,4.225,10.329,9.435,10.329H584.01c5.212,0,9.436-4.625,9.436-10.329V144.795C593.446,139.091,589.222,134.466,584.01,134.466Z" transform="translate(-367.601 -134.466)" fill="#a0a9ff"></path><rect id="Rectangle_6" data-name="Rectangle 6" width="150.939" height="281.553" rx="5.344" transform="translate(65.955 8.999)" fill="#fff"></rect><path id="Path_4" data-name="Path 4" d="M530.665,150.165H473.489A9.787,9.787,0,0,1,464.3,144.2l-1.869-4.722h79.283L539.85,144.2A9.787,9.787,0,0,1,530.665,150.165Z" transform="translate(-360.653 -133.546)" fill="#a0a9ff"></path><g id="Group_4" data-name="Group 4" transform="translate(6.288 41.741)"><rect id="Rectangle_7" data-name="Rectangle 7" width="182.862" height="39.717" rx="6.389" fill="#e8ebff" opacity="0.8"></rect><circle id="Ellipse_1" data-name="Ellipse 1" cx="9.039" cy="9.039" r="9.039" transform="translate(150.283 12.211) rotate(-22.5)" fill="#a0a9ff"></circle><g id="Group_2" data-name="Group 2" transform="translate(11.665 9.603)" opacity="0.59"><g id="Group_1" data-name="Group 1"><rect id="Rectangle_8" data-name="Rectangle 8" width="16.926" height="1.366" fill="#a0a9ff"></rect><rect id="Rectangle_9" data-name="Rectangle 9" width="16.926" height="1.366" transform="translate(0 3.75)" fill="#a0a9ff"></rect><rect id="Rectangle_10" data-name="Rectangle 10" width="16.926" height="1.366" transform="translate(0 7.501)" fill="#a0a9ff"></rect></g><rect id="Rectangle_11" data-name="Rectangle 11" width="83.224" height="4.433" transform="translate(28.923 0.683)" fill="#a0a9ff"></rect><rect id="Rectangle_12" data-name="Rectangle 12" width="83.224" height="4.433" transform="translate(28.923 16.557)" fill="#a0a9ff"></rect><rect id="Rectangle_13" data-name="Rectangle 13" width="40.028" height="2.217" transform="translate(28.923 8.867)" fill="#a0a9ff"></rect></g><g id="Group_3" data-name="Group 3" transform="translate(158.523 12.565)"><path id="Path_5" data-name="Path 5" d="M519.253,185.72a3.913,3.913,0,0,0-3.57,2.318h7.141A3.914,3.914,0,0,0,519.253,185.72Z" transform="translate(-515.683 -179.358)" fill="#e8ebff"></path><path id="Path_6" data-name="Path 6" d="M519.121,185.779a2.717,2.717,0,1,0-2.716-2.717A2.718,2.718,0,0,0,519.121,185.779Z" transform="translate(-515.551 -180.345)" fill="#e8ebff"></path></g></g><g id="Group_7" data-name="Group 7" transform="translate(0 197.909)"><rect id="Rectangle_14" data-name="Rectangle 14" width="182.862" height="83.695" rx="5.354" fill="#e8ebff" opacity="0.8"></rect><g id="Group_6" data-name="Group 6" transform="translate(12.42 12.935)"><g id="Group_5" data-name="Group 5" transform="translate(47.53 5.68)" opacity="0.59"><rect id="Rectangle_15" data-name="Rectangle 15" width="85.191" height="3.888" fill="#a0a9ff"></rect><rect id="Rectangle_16" data-name="Rectangle 16" width="108.723" height="3.888" transform="translate(0 10.973)" fill="#a0a9ff"></rect><rect id="Rectangle_17" data-name="Rectangle 17" width="108.723" height="3.888" transform="translate(0 20.003)" fill="#a0a9ff"></rect><rect id="Rectangle_18" data-name="Rectangle 18" width="108.723" height="3.888" transform="translate(0 29.032)" fill="#a0a9ff"></rect><rect id="Rectangle_19" data-name="Rectangle 19" width="108.723" height="3.888" transform="translate(0 38.062)" fill="#a0a9ff"></rect><rect id="Rectangle_20" data-name="Rectangle 20" width="58.168" height="3.888" transform="translate(0 47.091)" fill="#a0a9ff"></rect></g><path id="Path_7" data-name="Path 7" d="M423.828,329.618l-2.051-7.153-4,1.147a14.327,14.327,0,0,0-2.372-2.978l2.019-3.642-6.509-3.608-2.018,3.642a14.356,14.356,0,0,0-3.783-.433l-1.147-4-7.153,2.051,1.147,4a14.374,14.374,0,0,0-2.979,2.373L391.339,319l-3.607,6.509,3.642,2.018a14.357,14.357,0,0,0-.434,3.783l-4,1.147,2.05,7.153,4-1.147a14.373,14.373,0,0,0,2.372,2.978l-2.018,3.643,6.508,3.607,2.019-3.642a14.352,14.352,0,0,0,3.783.434l1.147,4,7.153-2.051-1.147-4a14.371,14.371,0,0,0,2.978-2.373l3.642,2.019,3.608-6.508-3.642-2.019a14.355,14.355,0,0,0,.433-3.783Zm-16.666,7.622a6.454,6.454,0,1,1,4.426-7.983A6.453,6.453,0,0,1,407.162,337.24Z" transform="translate(-386.94 -312.592)" fill="#f47458"></path></g></g><g id="Group_24" data-name="Group 24" transform="translate(89.635 94.696)"><rect id="Rectangle_21" data-name="Rectangle 21" width="182.861" height="95.175" rx="5.354" fill="#e8ebff" opacity="0.8"></rect><g id="Group_12" data-name="Group 12" transform="translate(10.337 23.53)"><g id="Group_10" data-name="Group 10" transform="translate(0 0)"><rect id="Rectangle_22" data-name="Rectangle 22" width="45.169" height="45.169" rx="5.378" transform="translate(1.725 2.256)" fill="#a0a9ff" opacity="0.44" style="mix-blend-mode: multiply;isolation: isolate"></rect><rect id="Rectangle_23" data-name="Rectangle 23" width="45.169" height="45.169" rx="5.378" fill="#8730f8"></rect><g id="Group_9" data-name="Group 9" transform="translate(13.54 12.621)"><g id="Group_8" data-name="Group 8"><path id="Path_8" data-name="Path 8" d="M472.345,248.673v-3.665H491.7v3.665" transform="translate(-472.345 -245.009)" fill="none" stroke="#fff" stroke-linecap="round" stroke-linejoin="round" stroke-width="2"></path><line id="Line_1" data-name="Line 1" y2="19.646" transform="translate(9.677)" fill="none" stroke="#fff" stroke-linecap="round" stroke-linejoin="round" stroke-width="2"></line></g><line id="Line_2" data-name="Line 2" x2="8.545" transform="translate(5.404 19.646)" fill="none" stroke="#fff" stroke-linecap="round" stroke-linejoin="round" stroke-width="2"></line></g></g></g><g id="Group_17" data-name="Group 17" transform="translate(68.846 23.53)"><rect id="Rectangle_24" data-name="Rectangle 24" width="45.169" height="45.169" rx="5.378" transform="translate(2.374 2.256)" fill="#a0a9ff" opacity="0.44" style="mix-blend-mode: multiply;isolation: isolate"></rect><g id="Group_16" data-name="Group 16"><g id="Group_14" data-name="Group 14" transform="translate(0 0)"><rect id="Rectangle_25" data-name="Rectangle 25" width="45.169" height="45.169" rx="5.378" fill="#45dbff"></rect><g id="Group_13" data-name="Group 13" transform="translate(12.323 11.306)"><path id="Path_10" data-name="Path 10" d="M531.139,257.969a11.4,11.4,0,0,0-10.393,6.746h20.787A11.4,11.4,0,0,0,531.139,257.969Z" transform="translate(-520.746 -241.313)" fill="none" stroke="#fff" stroke-linecap="round" stroke-linejoin="round" stroke-width="2"></path><path id="Path_11" data-name="Path 11" d="M530.423,255.463a5.782,5.782,0,1,0-5.782-5.782A5.782,5.782,0,0,0,530.423,255.463Z" transform="translate(-520.031 -243.898)" fill="none" stroke="#fff" stroke-linecap="round" stroke-linejoin="round" stroke-width="2"></path></g></g></g></g><g id="Group_23" data-name="Group 23" transform="translate(127.355 23.53)"><rect id="Rectangle_26" data-name="Rectangle 26" width="45.169" height="45.169" rx="5.378" transform="translate(2.403 2.256)" fill="#a0a9ff" opacity="0.44" style="mix-blend-mode: multiply;isolation: isolate"></rect><g id="Group_22" data-name="Group 22"><g id="Group_20" data-name="Group 20" transform="translate(0 0)"><rect id="Rectangle_27" data-name="Rectangle 27" width="45.169" height="45.169" rx="5.378" fill="#464ff8"></rect><g id="Group_19" data-name="Group 19" transform="translate(8.299 14.128)"><g id="Group_18" data-name="Group 18"><path id="Path_13" data-name="Path 13" d="M573.916,260.54l-7.139-6.261,7.139-6.261" transform="translate(-566.776 -245.963)" fill="none" stroke="#fff" stroke-linecap="round" stroke-linejoin="round" stroke-width="2"></path><path id="Path_14" data-name="Path 14" d="M584.882,260.54l7.139-6.261-7.139-6.261" transform="translate(-563.451 -245.963)" fill="none" stroke="#fff" stroke-linecap="round" stroke-linejoin="round" stroke-width="2"></path><line id="Line_3" data-name="Line 3" x1="4.509" y2="16.913" transform="translate(12.179)" fill="none" stroke="#fff" stroke-linecap="round" stroke-linejoin="round" stroke-width="2"></line></g></g></g></g></g></g><g id="Group_26" data-name="Group 26" transform="translate(113.988 8.82)"><rect id="Rectangle_28" data-name="Rectangle 28" width="49.331" height="2.274" rx="0.865" transform="translate(0 0.179)" fill="#464ff8"></rect><circle id="Ellipse_2" data-name="Ellipse 2" cx="1.348" cy="1.348" r="1.348" transform="translate(52.176)" fill="#464ff8"></circle></g></g></g></g></g></svg> 