<?xml version="1.0" encoding="UTF-8"?> <svg xmlns="http://www.w3.org/2000/svg" xmlns:xlink="http://www.w3.org/1999/xlink" width="717.689" height="431.148" viewBox="0 0 717.689 431.148"><defs><linearGradient id="linear-gradient" x1="1.666" y1="0.5" x2="0.158" y2="0.5" gradientUnits="objectBoundingBox"><stop offset="0" stop-color="#fff" stop-opacity="0.302"></stop><stop offset="1" stop-color="#fff"></stop></linearGradient><linearGradient id="linear-gradient-2" x1="0.916" y1="0.5" x2="0.087" y2="0.5" xlink:href="#linear-gradient"></linearGradient><linearGradient id="linear-gradient-3" x1="0.5" y1="1" x2="0.5" y2="0" xlink:href="#linear-gradient"></linearGradient></defs><g id="Group_152" data-name="Group 152" transform="translate(-918 -1336)"><rect id="Rectangle_107" data-name="Rectangle 107" width="713" height="431" transform="translate(918 1336)" fill="#fff"></rect><rect id="Rectangle_104" data-name="Rectangle 104" width="374" height="258" rx="16" transform="translate(1059 1429)" fill="#a0a9ff"></rect><path id="Path_72" data-name="Path 72" d="M605.631,68.3,404.67,498.449H872.177V68.3Z" transform="translate(763.511 1268.699)" fill="#a0a9ff" opacity="0.23"></path><g id="Group_93" data-name="Group 93" transform="translate(995 1290.997)"><g id="Group_92" data-name="Group 92"><g id="Group_42" data-name="Group 42"><g id="Group_37" data-name="Group 37"><rect id="Rectangle_29" data-name="Rectangle 29" width="49.584" height="17.017" rx="3.5" transform="translate(459.945 265.27) rotate(180)" fill="#f577b6"></rect><rect id="Rectangle_30" data-name="Rectangle 30" width="11.889" height="10.49" rx="2.125" transform="translate(456.682 262.123) rotate(180)" fill="#fff"></rect><g id="Group_36" data-name="Group 36"><path id="Path_23" data-name="Path 23" d="M417.382,253.945H439.4a.866.866,0,0,1,0,1.732H417.382a.866.866,0,0,1,0-1.732Z" fill="#001d47" opacity="0.12" style="mix-blend-mode: multiply;isolation: isolate"></path><path id="Path_24" data-name="Path 24" d="M428.7,257.847h10.7a.866.866,0,0,1,0,1.732H428.7a.866.866,0,0,1,0-1.732Z" fill="#001d47" opacity="0.12" style="mix-blend-mode: multiply;isolation: isolate"></path></g></g><g id="Group_39" data-name="Group 39"><rect id="Rectangle_31" data-name="Rectangle 31" width="49.584" height="17.017" rx="3.5" transform="translate(459.945 288.854) rotate(180)" fill="#fff"></rect><rect id="Rectangle_32" data-name="Rectangle 32" width="11.889" height="10.49" rx="2.125" transform="translate(456.682 285.707) rotate(180)" fill="#e0e9f8"></rect><g id="Group_38" data-name="Group 38"><path id="Path_25" data-name="Path 25" d="M417.382,277.528H439.4a.866.866,0,0,1,0,1.732H417.382a.866.866,0,0,1,0-1.732Z" fill="#001d47" opacity="0.12" style="mix-blend-mode: multiply;isolation: isolate"></path><path id="Path_26" data-name="Path 26" d="M428.7,281.43h10.7a.866.866,0,0,1,0,1.732H428.7a.866.866,0,1,1,0-1.732Z" fill="#001d47" opacity="0.12" style="mix-blend-mode: multiply;isolation: isolate"></path></g></g><g id="Group_41" data-name="Group 41"><rect id="Rectangle_33" data-name="Rectangle 33" width="49.584" height="17.017" rx="3.5" transform="translate(459.945 312.437) rotate(180)" fill="#7736f6"></rect><rect id="Rectangle_34" data-name="Rectangle 34" width="11.889" height="10.49" rx="2.125" transform="translate(456.682 309.29) rotate(180)" fill="#fff"></rect><g id="Group_40" data-name="Group 40"><path id="Path_27" data-name="Path 27" d="M417.382,301.111H439.4a.866.866,0,0,1,0,1.732H417.382a.866.866,0,1,1,0-1.732Z" fill="#001d47" opacity="0.12" style="mix-blend-mode: multiply;isolation: isolate"></path><path id="Path_28" data-name="Path 28" d="M428.7,305.013h10.7a.866.866,0,0,1,0,1.732H428.7a.866.866,0,0,1,0-1.732Z" fill="#001d47" opacity="0.12" style="mix-blend-mode: multiply;isolation: isolate"></path></g></g></g><rect id="Rectangle_35" data-name="Rectangle 35" width="360" height="244.659" rx="8" transform="translate(70 144.799)" fill="#e5efff"></rect><g id="Group_49" data-name="Group 49"><rect id="Rectangle_36" data-name="Rectangle 36" width="67.857" height="45.499" rx="2.75" transform="translate(349.5 242.299)" fill="#fff"></rect><rect id="Rectangle_37" data-name="Rectangle 37" width="56.611" height="14.594" rx="1.664" transform="translate(355.123 266.129)" fill="#e0e9f8"></rect><g id="Group_47" data-name="Group 47"><g id="Group_46" data-name="Group 46"><g id="Group_43" data-name="Group 43"><path id="Path_30" data-name="Path 30" d="M403,247.177a1.2,1.2,0,1,1-1.2,1.2A1.2,1.2,0,0,1,403,247.177Z" fill="#c2c9e9"></path></g><g id="Group_44" data-name="Group 44"><path id="Path_31" data-name="Path 31" d="M407.369,247.177a1.2,1.2,0,1,1-1.2,1.2A1.2,1.2,0,0,1,407.369,247.177Z" fill="#c2c9e9"></path></g><g id="Group_45" data-name="Group 45"><path id="Path_32" data-name="Path 32" d="M411.734,247.177a1.2,1.2,0,1,1-1.2,1.2A1.2,1.2,0,0,1,411.734,247.177Z" fill="#c2c9e9"></path></g></g></g><g id="Group_48" data-name="Group 48"><circle id="Ellipse_3" data-name="Ellipse 3" cx="4.52" cy="4.52" r="4.52" transform="translate(355.499 252.196)" fill="#a4b5e9"></circle><rect id="Rectangle_38" data-name="Rectangle 38" width="42.195" height="5.667" rx="0.667" transform="translate(369.163 253.808)" fill="#e0e9f8"></rect></g></g><path id="Path_33" data-name="Path 33" d="M430,164.8v-12a8,8,0,0,0-8-8H78a8,8,0,0,0-8,8v12Z" fill="#f47458"></path><rect id="Rectangle_39" data-name="Rectangle 39" width="360" height="41" transform="translate(70 191.299)" fill="#f7cc7f"></rect><rect id="Rectangle_40" data-name="Rectangle 40" width="306.867" height="16.375" rx="4" transform="translate(97.633 169.924)" fill="#fff"></rect><g id="Group_50" data-name="Group 50"><line id="Line_4" data-name="Line 4" x1="13.047" transform="translate(410.833 173.112)" fill="none" stroke="#8daee6" stroke-linecap="round" stroke-linejoin="round" stroke-width="1.5"></line><line id="Line_5" data-name="Line 5" x1="13.047" transform="translate(410.833 178.112)" fill="none" stroke="#8daee6" stroke-linecap="round" stroke-linejoin="round" stroke-width="1.5"></line><line id="Line_6" data-name="Line 6" x1="13.047" transform="translate(410.833 183.112)" fill="none" stroke="#8daee6" stroke-linecap="round" stroke-linejoin="round" stroke-width="1.5"></line></g><path id="Path_34" data-name="Path 34" d="M82.928,171.641l-5.916,4.364a1.307,1.307,0,0,0-.349.889v7.2a.854.854,0,0,0,.854.855H81a.855.855,0,0,0,.855-.855v-4.568a2.022,2.022,0,0,1,1.64-2.047,1.92,1.92,0,0,1,2.2,1.9v4.716a.855.855,0,0,0,.855.855H90.02a.855.855,0,0,0,.855-.855v-7.2a1.3,1.3,0,0,0-.35-.889l-5.915-4.364A1.149,1.149,0,0,0,82.928,171.641Z" fill="none" stroke="#8daee6" stroke-linecap="round" stroke-linejoin="round" stroke-width="1.5"></path><g id="Group_52" data-name="Group 52"><g id="Group_51" data-name="Group 51"><circle id="Ellipse_4" data-name="Ellipse 4" cx="4.02" cy="4.02" r="4.02" transform="translate(102.01 173.778)" fill="none" stroke="#e0e9f8" stroke-linecap="round" stroke-linejoin="round" stroke-width="1.5"></circle><line id="Line_7" data-name="Line 7" x1="1.34" y1="1.556" transform="translate(108.599 180.889)" fill="none" stroke="#e0e9f8" stroke-linecap="round" stroke-linejoin="round" stroke-width="1.5"></line></g></g><g id="Group_55" data-name="Group 55"><rect id="Rectangle_41" data-name="Rectangle 41" width="183" height="16" rx="2.25" transform="translate(158.5 203.799)" fill="#fff"></rect><path id="Path_35" data-name="Path 35" d="M339.25,203.8H324v16h15.25a2.25,2.25,0,0,0,2.25-2.25v-11.5A2.25,2.25,0,0,0,339.25,203.8Z" fill="#e0e9f8"></path><g id="Group_54" data-name="Group 54"><g id="Group_53" data-name="Group 53"><circle id="Ellipse_5" data-name="Ellipse 5" cx="3.438" cy="3.438" r="3.438" transform="translate(329.313 208.093)" fill="none" stroke="#c2c9e9" stroke-linecap="round" stroke-linejoin="round" stroke-width="1.5"></circle><line id="Line_8" data-name="Line 8" x1="1.146" y1="1.331" transform="translate(334.947 214.174)" fill="none" stroke="#c2c9e9" stroke-linecap="round" stroke-linejoin="round" stroke-width="1.5"></line></g></g></g><circle id="Ellipse_6" data-name="Ellipse 6" cx="4.52" cy="4.52" r="4.52" transform="translate(81.836 243.854)" fill="#7736f6"></circle><rect id="Rectangle_42" data-name="Rectangle 42" width="67.857" height="80.663" rx="2.75" transform="translate(349.5 296.309)" fill="#fff"></rect><rect id="Rectangle_43" data-name="Rectangle 43" width="37" height="5.667" rx="0.667" transform="translate(95.5 245.466)" fill="#a4b5e9"></rect><rect id="Rectangle_44" data-name="Rectangle 44" width="49.833" height="5.667" rx="0.667" transform="translate(119.083 175.278)" fill="#e0e9f8"></rect><circle id="Ellipse_7" data-name="Ellipse 7" cx="4.52" cy="4.52" r="4.52" transform="translate(81.836 257.104)" fill="#a4b5e9"></circle><rect id="Rectangle_45" data-name="Rectangle 45" width="37" height="5.667" rx="0.667" transform="translate(95.5 258.716)" fill="#a4b5e9"></rect><rect id="Rectangle_46" data-name="Rectangle 46" width="25.332" height="2.833" rx="0.667" transform="translate(81.836 274.799)" fill="#355389"></rect><circle id="Ellipse_8" data-name="Ellipse 8" cx="4.52" cy="4.52" r="4.52" transform="translate(81.836 283.604)" fill="#fff"></circle><rect id="Rectangle_47" data-name="Rectangle 47" width="37" height="5.667" rx="0.667" transform="translate(95.5 285.216)" fill="#a4b5e9"></rect><circle id="Ellipse_9" data-name="Ellipse 9" cx="4.52" cy="4.52" r="4.52" transform="translate(81.836 296.854)" fill="#a4b5e9"></circle><rect id="Rectangle_48" data-name="Rectangle 48" width="37" height="5.667" rx="0.667" transform="translate(95.5 298.466)" fill="#a4b5e9"></rect><circle id="Ellipse_10" data-name="Ellipse 10" cx="4.52" cy="4.52" r="4.52" transform="translate(81.836 310.104)" fill="#a4b5e9"></circle><rect id="Rectangle_49" data-name="Rectangle 49" width="37" height="5.667" rx="0.667" transform="translate(95.5 311.716)" fill="#a4b5e9"></rect><circle id="Ellipse_11" data-name="Ellipse 11" cx="4.52" cy="4.52" r="4.52" transform="translate(81.836 323.354)" fill="#fff"></circle><rect id="Rectangle_50" data-name="Rectangle 50" width="37" height="5.667" rx="0.667" transform="translate(95.5 324.966)" fill="#a4b5e9"></rect><rect id="Rectangle_51" data-name="Rectangle 51" width="25.332" height="2.833" rx="0.667" transform="translate(81.836 341.049)" fill="#355389"></rect><circle id="Ellipse_12" data-name="Ellipse 12" cx="4.52" cy="4.52" r="4.52" transform="translate(81.836 349.854)" fill="#a4b5e9"></circle><rect id="Rectangle_52" data-name="Rectangle 52" width="37" height="5.667" rx="0.667" transform="translate(95.5 351.466)" fill="#a4b5e9"></rect><circle id="Ellipse_13" data-name="Ellipse 13" cx="4.52" cy="4.52" r="4.52" transform="translate(81.836 363.104)" fill="#fff"></circle><rect id="Rectangle_53" data-name="Rectangle 53" width="37" height="5.667" rx="0.667" transform="translate(95.5 364.716)" fill="#a4b5e9"></rect><g id="Group_56" data-name="Group 56"><rect id="Rectangle_54" data-name="Rectangle 54" width="199" height="63.5" rx="2.75" transform="translate(144 242.299)" fill="#fff"></rect><rect id="Rectangle_55" data-name="Rectangle 55" width="49.833" height="5.667" rx="0.667" transform="translate(150.167 248.299)" fill="#e0e9f8"></rect><rect id="Rectangle_56" data-name="Rectangle 56" width="185.811" height="5.667" rx="0.667" transform="translate(150.167 294.021)" fill="#e0e9f8"></rect><rect id="Rectangle_57" data-name="Rectangle 57" width="49.833" height="5.667" rx="0.667" transform="translate(206.167 248.299)" fill="#e0e9f8"></rect><rect id="Rectangle_58" data-name="Rectangle 58" width="49.833" height="5.667" rx="0.667" transform="translate(262.167 248.299)" fill="#e0e9f8"></rect><rect id="Rectangle_59" data-name="Rectangle 59" width="161.833" height="20.167" rx="1.292" transform="translate(150.167 265.049)" fill="#8730f8"></rect></g><g id="Group_57" data-name="Group 57"><rect id="Rectangle_60" data-name="Rectangle 60" width="199" height="63.5" rx="2.75" transform="translate(144 313.472)" fill="#fff"></rect><rect id="Rectangle_61" data-name="Rectangle 61" width="49.833" height="5.667" rx="0.667" transform="translate(150.167 319.472)" fill="#e0e9f8"></rect><rect id="Rectangle_62" data-name="Rectangle 62" width="185.811" height="5.667" rx="0.667" transform="translate(150.167 365.194)" fill="#e0e9f8"></rect><rect id="Rectangle_63" data-name="Rectangle 63" width="49.833" height="5.667" rx="0.667" transform="translate(206.167 319.472)" fill="#e0e9f8"></rect><rect id="Rectangle_64" data-name="Rectangle 64" width="49.833" height="5.667" rx="0.667" transform="translate(262.167 319.472)" fill="#e0e9f8"></rect><rect id="Rectangle_65" data-name="Rectangle 65" width="161.833" height="20.167" rx="1.292" transform="translate(150.167 336.222)" fill="#355389"></rect></g><path id="Path_36" data-name="Path 36" d="M397.155,304.132h14.36a1.416,1.416,0,0,0,1.416-1.416h0a1.416,1.416,0,0,0-1.416-1.417h-14.36a1.416,1.416,0,0,0-1.417,1.417h0A1.416,1.416,0,0,0,397.155,304.132Z" fill="#e0e9f8"></path><g id="Group_58" data-name="Group 58"><circle id="Ellipse_14" data-name="Ellipse 14" cx="4.52" cy="4.52" r="4.52" transform="translate(358.096 311.288)" fill="#7736f6"></circle><rect id="Rectangle_66" data-name="Rectangle 66" width="37" height="5.667" rx="0.667" transform="translate(371.761 312.899)" fill="#e0e9f8"></rect><rect id="Rectangle_67" data-name="Rectangle 67" width="50.664" height="5.667" rx="0.667" transform="translate(358.096 326.149)" fill="#a4b5e9"></rect></g><g id="Group_59" data-name="Group 59"><circle id="Ellipse_15" data-name="Ellipse 15" cx="4.52" cy="4.52" r="4.52" transform="translate(358.096 346.868)" fill="#7736f6"></circle><rect id="Rectangle_68" data-name="Rectangle 68" width="37" height="5.667" rx="0.667" transform="translate(371.761 348.48)" fill="#e0e9f8"></rect><rect id="Rectangle_69" data-name="Rectangle 69" width="50.664" height="5.667" rx="0.667" transform="translate(358.096 361.73)" fill="#a4b5e9"></rect></g><path id="Path_37" data-name="Path 37" d="M395.606,173.377l.992,2.009a1.581,1.581,0,0,0,1.19.865l2.218.322a.475.475,0,0,1,.263.81l-1.6,1.564a1.582,1.582,0,0,0-.455,1.4l.379,2.208a.475.475,0,0,1-.689.5l-1.984-1.043a1.581,1.581,0,0,0-1.471,0l-1.984,1.043a.475.475,0,0,1-.689-.5l.379-2.208a1.582,1.582,0,0,0-.455-1.4l-1.6-1.564a.475.475,0,0,1,.263-.81l2.217-.322a1.583,1.583,0,0,0,1.191-.865l.992-2.009A.474.474,0,0,1,395.606,173.377Z" fill="#cedfe7"></path><path id="Path_47" data-name="Path 47" d="M426.168,401.294H39.332a3.833,3.833,0,0,1-3.832-3.833h0a3.832,3.832,0,0,1,3.832-3.832H426.168A3.832,3.832,0,0,1,430,397.461h0A3.833,3.833,0,0,1,426.168,401.294Z" fill="#cfddf4" style="mix-blend-mode: multiply;isolation: isolate"></path><g id="Group_84" data-name="Group 84"><g id="Group_65" data-name="Group 65"><g id="Group_62" data-name="Group 62"><path id="Path_48" data-name="Path 48" d="M242.788,415.151c.7-.774,1.464-1.493,2.181-2.253.135-.139.259-.288.392-.429,1.277-2.418,3.613-4.852,5.269-6.832a24.207,24.207,0,0,1,2.7-2.7H215.615c-1.6,0-3.179.313-3.545.706L198.8,417.921c-.7.751.566,1.375,2.842,1.375h37.7A44.243,44.243,0,0,1,242.788,415.151Z" fill="url(#linear-gradient)"></path></g><g id="Group_64" data-name="Group 64" style="mix-blend-mode: multiply;isolation: isolate"><path id="Path_49" data-name="Path 49" d="M242.788,415.151c.7-.774,1.464-1.493,2.181-2.253.135-.139.259-.288.392-.429a18.277,18.277,0,0,1,1.577-2.412H215.182a4.189,4.189,0,0,0-2.536.6l-3.488,4.5c-.315.406.473.74,1.765.74h31.194C242.341,415.642,242.566,415.395,242.788,415.151Z" fill="#e0e9f8" style="mix-blend-mode: multiply;isolation: isolate"></path><g id="Group_63" data-name="Group 63" style="mix-blend-mode: multiply;isolation: isolate"><path id="Path_50" data-name="Path 50" d="M226.444,406.949c-.4.782-3.171,1.438-6.166,1.438s-4.92-.656-4.322-1.438c.577-.754,3.3-1.346,6.107-1.346S226.835,406.2,226.444,406.949Z" fill="#a4b5e9"></path><path id="Path_51" data-name="Path 51" d="M250.258,406.073H232.911c-.419,0-.792.089-.835.2l-.52,1.332c-.046.117.27.212.706.212h16.5C249.278,407.209,249.786,406.627,250.258,406.073Z" fill="#e0e9f8"></path></g></g></g><g id="Group_74" data-name="Group 74"><g id="Group_66" data-name="Group 66"><path id="Path_52" data-name="Path 52" d="M332.273,419.3H238.825c-2.277,0-3.541-.624-2.843-1.375l13.274-14.28c.365-.393,1.949-.706,3.544-.706h65.5c1.6,0,3.179.313,3.545.706l13.274,14.28C335.814,418.672,334.549,419.3,332.273,419.3Z" fill="url(#linear-gradient-2)"></path></g><g id="Group_73" data-name="Group 73" style="mix-blend-mode: multiply;isolation: isolate"><path id="Path_53" data-name="Path 53" d="M322.989,415.892H248.108c-1.291,0-2.079-.334-1.764-.74l3.488-4.5a4.184,4.184,0,0,1,2.536-.6H318.73a4.189,4.189,0,0,1,2.536.6l3.488,4.5C325.069,415.558,324.281,415.892,322.989,415.892Z" fill="#e0e9f8" style="mix-blend-mode: multiply;isolation: isolate"></path><g id="Group_71" data-name="Group 71" style="mix-blend-mode: multiply;isolation: isolate"><g id="Group_70" data-name="Group 70"><g id="Group_67" data-name="Group 67"><path id="Path_54" data-name="Path 54" d="M306.79,404.206a2.376,2.376,0,0,1,1.484.324c.1.182-.4.33-1.133.33s-1.395-.148-1.486-.33S306.073,404.206,306.79,404.206Z" fill="#c2c9e9"></path></g><g id="Group_68" data-name="Group 68"><path id="Path_55" data-name="Path 55" d="M311.527,404.206a2.576,2.576,0,0,1,1.523.324c.125.182-.364.33-1.093.33a2.511,2.511,0,0,1-1.526-.33C310.318,404.35,310.81,404.206,311.527,404.206Z" fill="#c2c9e9"></path></g><g id="Group_69" data-name="Group 69"><path id="Path_56" data-name="Path 56" d="M316.265,404.206a2.783,2.783,0,0,1,1.561.324c.147.182-.324.33-1.054.33a2.72,2.72,0,0,1-1.566-.33C315.073,404.35,315.547,404.206,316.265,404.206Z" fill="#c2c9e9"></path></g></g></g><g id="Group_72" data-name="Group 72" style="mix-blend-mode: multiply;isolation: isolate"><path id="Path_57" data-name="Path 57" d="M263.63,406.949c-.4.782-3.172,1.438-6.166,1.438s-4.921-.656-4.323-1.438c.577-.754,3.3-1.346,6.108-1.346S264.02,406.2,263.63,406.949Z" fill="#a4b5e9"></path><path id="Path_58" data-name="Path 58" d="M317.829,407.815H269.447c-.436,0-.752-.1-.706-.212l.52-1.332c.043-.109.417-.2.835-.2h46.432a1.563,1.563,0,0,1,.909.2l1.019,1.332C318.546,407.72,318.265,407.815,317.829,407.815Z" fill="#e0e9f8"></path></g></g></g><g id="Group_83" data-name="Group 83"><g id="Group_75" data-name="Group 75"><path id="Path_59" data-name="Path 59" d="M377.353,419.3H283.9c-2.276,0-3.54-.624-2.842-1.375l13.274-14.28c.365-.393,1.949-.706,3.544-.706h65.5c1.595,0,3.179.313,3.545.706l13.273,14.28C380.894,418.672,379.629,419.3,377.353,419.3Z" fill="#fff"></path></g><g id="Group_82" data-name="Group 82" style="mix-blend-mode: multiply;isolation: isolate"><path id="Path_60" data-name="Path 60" d="M368.069,415.892H293.188c-1.291,0-2.079-.334-1.765-.74l3.489-4.5a4.184,4.184,0,0,1,2.536-.6h66.361a4.19,4.19,0,0,1,2.537.6l3.488,4.5C370.149,415.558,369.361,415.892,368.069,415.892Z" fill="#e0e9f8" style="mix-blend-mode: multiply;isolation: isolate"></path><g id="Group_80" data-name="Group 80" style="mix-blend-mode: multiply;isolation: isolate"><g id="Group_79" data-name="Group 79"><g id="Group_76" data-name="Group 76"><path id="Path_61" data-name="Path 61" d="M351.87,404.206a2.376,2.376,0,0,1,1.484.324c.1.182-.4.33-1.133.33s-1.4-.148-1.486-.33S351.153,404.206,351.87,404.206Z" fill="#c2c9e9"></path></g><g id="Group_77" data-name="Group 77"><path id="Path_62" data-name="Path 62" d="M356.607,404.206a2.576,2.576,0,0,1,1.523.324c.125.182-.364.33-1.093.33a2.508,2.508,0,0,1-1.526-.33C355.4,404.35,355.89,404.206,356.607,404.206Z" fill="#c2c9e9"></path></g><g id="Group_78" data-name="Group 78"><path id="Path_63" data-name="Path 63" d="M361.344,404.206a2.784,2.784,0,0,1,1.562.324c.147.182-.324.33-1.054.33a2.72,2.72,0,0,1-1.566-.33C360.153,404.35,360.627,404.206,361.344,404.206Z" fill="#c2c9e9"></path></g></g></g><g id="Group_81" data-name="Group 81" style="mix-blend-mode: multiply;isolation: isolate"><path id="Path_64" data-name="Path 64" d="M308.71,406.949c-.4.782-3.172,1.438-6.166,1.438s-4.921-.656-4.323-1.438c.577-.754,3.3-1.346,6.108-1.346S309.1,406.2,308.71,406.949Z" fill="#a4b5e9"></path><path id="Path_65" data-name="Path 65" d="M362.909,407.815H314.527c-.436,0-.752-.1-.706-.212l.52-1.332c.043-.109.417-.2.835-.2h46.432a1.565,1.565,0,0,1,.909.2l1.019,1.332C363.625,407.72,363.345,407.815,362.909,407.815Z" fill="#e0e9f8"></path></g></g></g></g><g id="Group_90" data-name="Group 90"><g id="Group_85" data-name="Group 85"><rect id="Rectangle_70" data-name="Rectangle 70" width="84.433" height="16.375" rx="4" transform="translate(162.845 122.625)" fill="url(#linear-gradient-3)"></rect><path id="Path_66" data-name="Path 66" d="M174.822,133.617a4.82,4.82,0,1,0-1.149.963l.909,1.056a.75.75,0,1,0,1.136-.979Zm-6.85-3.118a3.27,3.27,0,1,1,3.269,3.27A3.274,3.274,0,0,1,167.972,130.5Z" fill="#e0e9f8" style="mix-blend-mode: multiply;isolation: isolate"></path><rect id="Rectangle_71" data-name="Rectangle 71" width="49.833" height="5.667" rx="0.667" transform="translate(184.295 127.979)" fill="#e0e9f8" style="mix-blend-mode: multiply;isolation: isolate"></rect></g><g id="Group_86" data-name="Group 86"><rect id="Rectangle_72" data-name="Rectangle 72" width="84.433" height="16.375" rx="4" transform="translate(148.272 108.616)" fill="url(#linear-gradient-3)"></rect><path id="Path_67" data-name="Path 67" d="M160.249,119.607a4.726,4.726,0,0,0,1.19-3.117,4.77,4.77,0,1,0-4.77,4.77,4.723,4.723,0,0,0,2.431-.689l.909,1.056a.75.75,0,0,0,1.137-.979Zm-6.85-3.117a3.27,3.27,0,1,1,3.27,3.27A3.274,3.274,0,0,1,153.4,116.49Z" fill="#e0e9f8" style="mix-blend-mode: multiply;isolation: isolate"></path><rect id="Rectangle_73" data-name="Rectangle 73" width="49.833" height="5.667" rx="0.667" transform="translate(169.722 113.97)" fill="#e0e9f8" style="mix-blend-mode: multiply;isolation: isolate"></rect></g><g id="Group_89" data-name="Group 89"><rect id="Rectangle_74" data-name="Rectangle 74" width="84.433" height="16.375" rx="4" transform="translate(175.861 136.82)" fill="#fff"></rect><g id="Group_88" data-name="Group 88"><g id="Group_87" data-name="Group 87"><path id="Path_68" data-name="Path 68" d="M184.258,149.464a4.77,4.77,0,1,1,4.77-4.77A4.776,4.776,0,0,1,184.258,149.464Zm0-8.04a3.27,3.27,0,1,0,3.27,3.27A3.274,3.274,0,0,0,184.258,141.424Z" fill="#e0e9f8"></path><path id="Path_69" data-name="Path 69" d="M188.168,150.092a.749.749,0,0,1-.569-.261l-1.341-1.556a.75.75,0,0,1,1.137-.979l1.34,1.556a.751.751,0,0,1-.567,1.24Z" fill="#e0e9f8"></path></g></g><rect id="Rectangle_75" data-name="Rectangle 75" width="49.833" height="5.667" rx="0.667" transform="translate(197.311 142.175)" fill="#e0e9f8" style="mix-blend-mode: multiply;isolation: isolate"></rect></g></g><g id="Group_91" data-name="Group 91"><circle id="Ellipse_16" data-name="Ellipse 16" cx="5.572" cy="5.572" r="5.572" transform="translate(106.03 407.403)" fill="#cfe4e9"></circle><path id="Path_70" data-name="Path 70" d="M128.1,407.4a5.571,5.571,0,1,1-5.572,5.572A5.572,5.572,0,0,1,128.1,407.4Z" fill="#cfe4e9" opacity="0.6"></path><path id="Path_71" data-name="Path 71" d="M144.608,407.4a5.571,5.571,0,1,1-5.572,5.572A5.572,5.572,0,0,1,144.608,407.4Z" fill="#cfe4e9" opacity="0.35"></path></g></g></g></g></svg> 