<?xml version="1.0" encoding="UTF-8"?> <svg xmlns="http://www.w3.org/2000/svg" width="211" height="218" viewBox="0 0 211 218" fill="none"><path fill-rule="evenodd" clip-rule="evenodd" d="M153.596 107.532L156.882 87.2653C147.426 68.3516 128.095 29.683 114.281 2.05968H111.312C93.8878 2.05968 77.9586 11.9062 70.1663 27.4905C65.3837 37.0555 61.1384 45.5452 58.5559 50.7076L50.7034 58.5552C45.5412 61.1378 37.0517 65.3833 27.487 70.1662C11.9035 77.9588 2.05746 93.8875 2.05746 111.311V114.283C29.685 128.097 68.352 147.434 87.2649 156.891L107.526 153.599C119.715 141.415 141.407 119.716 153.596 107.532Z" fill="#0523FA" fill-opacity="0.4"></path><path fill-rule="evenodd" clip-rule="evenodd" d="M124.58 112.422L112.579 95.7649C92.522 89.0825 51.5038 75.4092 22.2044 65.6441L20.1017 67.747C7.78198 80.0671 3.48104 98.2924 8.99158 114.821C12.3736 124.965 15.3752 133.969 17.1993 139.444V150.552C13.819 160.698 6.39488 182.961 0 202.147L22.2044 224.352C51.5038 214.587 92.522 200.913 112.579 194.231L124.58 177.574V112.422Z" fill="#242EDB" fill-opacity="0.5"></path><path fill-rule="evenodd" clip-rule="evenodd" d="M107.526 136.409L87.2649 133.117C68.352 142.574 29.685 161.911 2.05746 175.725V207.126C20.1449 216.17 41.1372 226.667 50.7034 231.453L58.5559 239.3C63.3416 248.867 73.8377 269.86 82.8815 287.948H114.281C128.095 260.325 147.426 221.656 156.882 202.742L153.596 182.476C141.407 170.291 119.715 148.593 107.526 136.409Z" fill="#744B8B" fill-opacity="0.6"></path><path fill-rule="evenodd" clip-rule="evenodd" d="M112.427 165.415L95.7709 177.422C89.0835 197.48 75.416 238.499 65.646 267.795L87.8504 290C107.035 283.605 129.302 276.186 139.448 272.8H150.551C160.697 276.186 182.964 283.605 202.148 290L224.353 267.795C214.588 238.499 200.915 197.48 194.228 177.422L177.577 165.415H112.427Z" fill="#E3741C" fill-opacity="0.6"></path><path fill-rule="evenodd" clip-rule="evenodd" d="M182.473 136.409L202.739 133.117C221.647 142.574 260.319 161.911 287.941 175.725V207.126C269.854 216.17 248.861 226.667 239.295 231.453L231.443 239.3C226.662 248.867 216.166 269.86 207.122 287.948H175.718C161.909 260.325 142.573 221.656 133.116 202.742L136.403 182.476C148.591 170.291 170.284 148.593 182.473 136.409Z" fill="#FF9400" fill-opacity="0.5"></path><path fill-rule="evenodd" clip-rule="evenodd" d="M165.42 112.422L177.421 95.7649C197.483 89.0825 238.496 75.4092 267.796 65.6441L290 87.8494C283.605 107.035 276.186 129.298 272.801 139.444V150.552C276.186 160.698 283.605 182.961 290 202.147L267.796 224.352C238.496 214.587 197.483 200.913 177.421 194.231L165.42 177.574V112.422Z" fill="#FFAA00" fill-opacity="0.7"></path><path fill-rule="evenodd" clip-rule="evenodd" d="M136.403 107.532L133.116 87.2653C142.573 68.3516 161.909 29.6831 175.718 2.05968H207.122C216.166 20.1478 226.662 41.141 231.443 50.7076L239.295 58.5552C248.861 63.3411 269.854 73.8377 287.941 82.8817V114.283C260.319 128.097 221.647 147.434 202.739 156.891L182.473 153.599C170.284 141.415 148.591 119.716 136.403 107.532Z" fill="#FFC500" fill-opacity="0.6"></path><path fill-rule="evenodd" clip-rule="evenodd" d="M112.427 124.585L95.7709 112.578C89.0835 92.5203 75.416 51.5006 65.646 22.2053L67.7474 20.1038C80.0678 7.78294 98.2944 3.48114 114.824 8.99052C124.969 12.3717 133.973 15.3731 139.448 17.2H150.551C160.697 13.8143 182.964 6.39512 202.148 0L224.353 22.2053C214.588 51.5006 200.915 92.5203 194.228 112.578L177.577 124.585H112.427Z" fill="#FFD700" fill-opacity="0.8"></path><path d="M145.001 187.69C121.43 187.69 102.322 168.581 102.322 145.009C102.322 121.437 121.43 102.328 145.001 102.328C168.573 102.328 187.681 121.437 187.681 145.009C187.681 168.581 168.573 187.69 145.001 187.69Z" fill="white"></path></svg> 