<?xml version="1.0" encoding="UTF-8"?> <svg xmlns="http://www.w3.org/2000/svg" xmlns:xlink="http://www.w3.org/1999/xlink" width="200" height="200" viewBox="0 0 200 200"><defs><clipPath id="clip-path"><rect id="Rectangle_1" data-name="Rectangle 1" width="200" height="200" transform="translate(467 305)" fill="#fff" stroke="#707070" stroke-width="1"></rect></clipPath></defs><g id="Mask_Group_1" data-name="Mask Group 1" transform="translate(-467 -305)" clip-path="url(#clip-path)"><g id="Group_10" data-name="Group 10" transform="translate(468 306)"><g id="Group_9" data-name="Group 9"><g id="Group_1" data-name="Group 1" transform="translate(0.039 0.001)"><path id="Path_1" data-name="Path 1" d="M197.883,1047.169h.732l.312.015h.044l.271.015h.094l.243.015h.075l.311.029h.064l.25.015.091.015.261.029h.053l.311.029.073.015.245.029h.085l.293.044h.015l.312.044.075.015.248.029.073.015.313.044.308.059.072.015.259.044.054.015.117.029.344.059.127.029.419.088.1.029.338.088.138.029.407.1.091.029.335.088.146.044.352.1.057.015.067.029.338.1.154.044.306.1.105.044.032.015.352.117.16.059.275.1.136.059a29.067,29.067,0,0,1,15.6,14.149c13.225,26.453,28.082,56.172,35.732,71.464a16.055,16.055,0,0,1-1.359,16.6l-.353-.1-1.059-.264c-.354-.088-.71-.176-1.068-.249l-1.075-.22c-.36-.073-.722-.132-1.084-.19l-1.094-.176-1.1-.132c-.368-.044-.732-.073-1.11-.117s-.744-.059-1.118-.073-.75-.044-1.126-.058-.756-.029-1.134-.029h-1.011c-.211,0-.422,0-.636.015l-.557.015c-.187,0-.375.015-.562.029l-.56.029c-.187.015-.374.029-.56.029l-.557.059-.554.044-.554.059c-.183.029-.366.044-.551.073l-.548.073c-.182.029-.365.044-.546.073l-.545.088c-.18.029-.36.059-.542.1l-.539.088c-.179.044-.359.073-.538.117l-.535.1c-.177.044-.354.088-.533.117l-.53.132-.527.132-.073.015c-.347.1-.694.19-1.037.293l-.457.132c-.173.044-.344.1-.517.161l-.067.015q-1.037.329-2.051.7l-.428.161c-.167.059-.334.117-.5.19l-.5.191-.5.22-.491.205-.488.22-.485.22c-.161.073-.322.161-.482.234l-.479.234c-.158.073-.316.161-.476.234l-.082.044c-.316.161-.63.322-.939.5s-.618.337-.924.512-.6.366-.905.542-.586.366-.879.557-.586.381-.879.586l-.39.264c-.146.1-.293.19-.439.293l-.429.322-.425.308-.42.322c-.146.1-.278.22-.417.322l-.413.322c-.136.117-.272.22-.409.337l-.406.337-.4.352-.4.337-.393.352-.078.073c-.662.615-1.307,1.23-1.93,1.875-.359.381-.71.747-1.058,1.128s-.7.791-1.041,1.2c-.214.249-.425.512-.631.761l-.293.366c-.108.146-.215.278-.324.41l-.319.425c-.1.146-.209.278-.313.425l-.309.44c-.1.132-.2.278-.3.425l-.293.44-.293.439-.293.439c-.094.147-.189.308-.283.454l-.278.454c-.091.146-.182.293-.272.454l-.268.454c-.088.146-.174.307-.262.454l-.256.469c-.083.161-.167.322-.25.469l-.042.088c-.166.307-.327.63-.483.937s-.312.645-.461.967-.293.645-.439.967-.28.659-.415.982-.264.674-.39,1-.246.674-.365,1.01-.23.659-.338,1-.214.674-.313,1.011-.2.688-.293,1.04l-.132.5-.132.527-.126.527c-.04.19-.081.366-.12.542l-.113.527c-.035.191-.072.366-.107.542l-.1.542c-.031.176-.063.366-.094.542l-.086.542c-.026.19-.054.366-.081.542l-.073.557c-.022.176-.044.366-.066.542l-.06.557c-.018.19-.035.366-.053.557l-.045.557c-.013.191-.026.366-.04.557l-.032.557c-.009.191-.016.381-.025.571l-.018.557c0,.19,0,.381-.012.571v.571a43.9,43.9,0,0,0,1.611,11.82,16.031,16.031,0,0,1-16.589,1.362c-15.3-7.646-45.014-22.513-71.464-35.739a29.02,29.02,0,0,1-14.155-15.6l-.053-.132-.1-.278-.057-.161-.125-.351-.012-.029-.035-.1-.1-.307-.05-.161-.107-.337-.021-.059-.018-.058-.1-.351-.042-.147-.092-.337-.025-.088-.105-.41-.035-.132-.081-.337-.023-.1-.092-.425-.028-.117-.07-.352-.023-.117-.01-.059-.048-.249-.013-.073-.054-.307-.05-.322-.012-.073-.038-.235-.01-.088-.042-.307v-.015l-.037-.293-.01-.088-.028-.249-.009-.073-.031-.307v-.044l-.022-.264-.009-.088-.019-.264v-.058l-.02-.307v-.073l-.013-.249v-.088l-.012-.278v-.044l-.01-.307v-.732a29.189,29.189,0,0,1,17.6-26.788l22-11a45.878,45.878,0,0,0,20.5-20.492l11-22a29.211,29.211,0,0,1,26.791-17.606Z" transform="translate(-100.014 -1047.169)" fill="rgba(5,35,250,0.4)" fill-rule="evenodd"></path></g><g id="Group_2" data-name="Group 2" transform="translate(0 68.721)"><path id="Path_2" data-name="Path 2" d="M117.29,1096.61a29.026,29.026,0,0,1,21.042-1.026c28.055,9.345,59.57,19.847,75.8,25.266a16.028,16.028,0,0,1,10.77,12.7q-1.56.879-3.041,1.889c-.293.191-.586.4-.879.6s-.577.425-.86.63-.567.425-.844.645-.555.454-.828.674-.542.454-.81.688-.53.469-.792.7q-.542.505-1.068,1.011c-.662.644-1.3,1.318-1.92,1.992-.813.908-1.588,1.831-2.326,2.8-.214.278-.426.571-.634.85s-.413.586-.614.864-.4.586-.593.894-.384.586-.571.893-.371.6-.551.908-.356.615-.529.923-.34.615-.505.938-.327.63-.483.937-.311.644-.461.967-.293.644-.439.967-.28.659-.415.981-.264.674-.39,1-.246.674-.365,1.01-.23.659-.338,1-.214.674-.313,1.01a43.994,43.994,0,0,0,20.563,50.811,16.068,16.068,0,0,1-10.77,12.7c-16.229,5.4-47.75,15.907-75.8,25.266a29.181,29.181,0,0,1-21.042-1.025l-.132-.059-.267-.132-.155-.059-.335-.161-.031-.015-.1-.059-.293-.146-.146-.073-.313-.161-.063-.029-.053-.029-.322-.176-.133-.073-.3-.176-.082-.044-.363-.22-.122-.073-.293-.176-.085-.044-.362-.234-.108-.073-.293-.19-.1-.073-.045-.029-.218-.146-.059-.044-.256-.176-.258-.19-.059-.044-.2-.146-.06-.044-.252-.191-.01-.015-.236-.176-.067-.059-.192-.146-.057-.044-.242-.205-.042-.029-.2-.161-.07-.059-.192-.176-.048-.044-.234-.2-.056-.044-.182-.161-.069-.058-.2-.191-.032-.029-.228-.22L109,1241.5l-.171-.161-.066-.059-.224-.22a29.183,29.183,0,0,1-6.493-31.4l7.778-23.333a45.832,45.832,0,0,0,0-28.987L102.046,1134q-.234-.593-.439-1.186a2.244,2.244,0,0,0-.1-.425,29.082,29.082,0,0,1,.636-20.125l.029-.073.132-.322.048-.117.009-.015.157-.366.066-.146.126-.264.06-.132.182-.381.056-.117.146-.293.066-.132.19-.366.012-.015.013-.029.2-.366.066-.117.171-.308.053-.088.223-.381.059-.088.182-.307.067-.1.239-.381.028-.044.221-.322.113-.176.041-.059.18-.264.035-.044.146-.22.051-.073.189-.264.192-.249.053-.073.161-.2.04-.059.2-.249.048-.059.161-.19.054-.073.2-.249.028-.029.183-.22.059-.059.187-.22.028-.029.214-.249.057-.059.174-.19.053-.059.221-.234.045-.044.185-.19.063-.059.228-.234.224-.22.066-.073.171-.161.062-.058.228-.22.032-.029.2-.176.069-.073.182-.161.056-.044.234-.2.048-.044.192-.161.07-.059.2-.176.042-.029.242-.19.057-.059.192-.146.067-.059.236-.176.01-.015.252-.19.06-.044.2-.146.059-.044.258-.176.256-.19.059-.044.218-.146.045-.029.1-.073.293-.19.108-.059.362-.234.085-.059.293-.176.122-.073.363-.22.082-.044.3-.176.133-.073.322-.176.053-.029.063-.029.313-.161.146-.073.293-.146.1-.044.031-.015.335-.161.155-.073.267-.117Z" transform="translate(-99.987 -1094.086)" fill="rgba(36,46,219,0.5)" fill-rule="evenodd"></path></g><g id="Group_3" data-name="Group 3" transform="translate(0.018 131.586)"><path id="Path_3" data-name="Path 3" d="M101.931,1190.033a29.12,29.12,0,0,1,14.155-15.6c26.45-13.227,56.163-28.079,71.463-35.739a16.064,16.064,0,0,1,16.589,1.362l-.1.352c-.1.352-.186.7-.272,1.069s-.167.7-.245,1.054-.146.718-.22,1.084-.133.718-.193,1.084-.114.733-.166,1.1-.1.732-.139,1.1-.079.732-.111,1.113-.06.732-.083,1.113-.043.747-.056,1.128c-.02.542-.031,1.084-.031,1.64v.63a43.975,43.975,0,0,0,55.763,41.7,16.025,16.025,0,0,1,1.359,16.581c-7.65,15.306-22.507,45.011-35.732,71.464a29.094,29.094,0,0,1-15.6,14.164l-.136.044-.275.1-.16.059-.352.132-.032.015-.105.029-.306.1-.154.044-.338.117-.067.014-.057.015-.352.1-.146.044-.335.1-.091.015-.407.1-.138.044-.338.073-.1.03-.419.088-.127.029-.344.073-.117.029h-.054l-.259.059h-.072l-.308.059-.313.044-.073.015-.248.044-.075.015-.312.044h-.015l-.293.029-.085.015-.245.029H201l-.311.044h-.053l-.261.015-.091.015-.25.015-.064.014-.311.015h-.075l-.243.015h-.094l-.271.014h-.044l-.312.015H198.2l-.315.015a29.183,29.183,0,0,1-26.793-17.609l-11-22a45.846,45.846,0,0,0-20.5-20.506l-22-11a29.209,29.209,0,0,1-17.6-26.79v-.733l.01-.308v-.044l.012-.278v-.088l.013-.249v-.073l.021-.308v-.059l.019-.249.009-.1.022-.249v-.059l.031-.308.009-.073.028-.249.01-.088.037-.293v-.015l.042-.307.01-.073.038-.249.012-.073.05-.307.054-.307.013-.073.048-.264.01-.059.023-.117.07-.337.028-.132.092-.41.023-.1.081-.337.035-.146.105-.41.025-.088.092-.337.042-.132.1-.351.018-.059.02-.073.107-.337.05-.161.1-.308.035-.1.012-.03.124-.351.057-.161.1-.278Z" transform="translate(-100 -1137.006)" fill="rgba(116,75,139,0.6)" fill-rule="evenodd"></path></g><g id="Group_4" data-name="Group 4" transform="translate(68.738 168.033)"><path id="Path_4" data-name="Path 4" d="M149.435,1269.5a29.119,29.119,0,0,1-1.025-21.048c9.352-28.049,19.857-59.57,25.266-75.8a16.055,16.055,0,0,1,12.7-10.766,43.941,43.941,0,0,0,76.571,0,16.056,16.056,0,0,1,12.7,10.766c5.409,16.229,15.914,47.75,25.266,75.8.732,2.226.776,8.993.306,18.353l-1.191,2.388a29.148,29.148,0,0,1-37.541,15.54l-23.334-7.778a45.845,45.845,0,0,0-28.987,0l-23.334,7.778a29.262,29.262,0,0,1-31.395-6.489l-.221-.234-.063-.059-.166-.176-.06-.059-.214-.219-.029-.044-.185-.191-.062-.073-.164-.176-.05-.059-.205-.234-.041-.044-.164-.2-.06-.059-.167-.205-.034-.044-.2-.234-.045-.059-.146-.19-.053-.073-.182-.234-.009-.015-.19-.249-.045-.059-.146-.205-.044-.059-.186-.249-.18-.263-.041-.059-.146-.22-.031-.044-.066-.1-.193-.293-.072-.1-.23-.366L151.3,1273l-.18-.293-.073-.117-.214-.366-.047-.088-.171-.293-.073-.132-.176-.322-.028-.059-.034-.059-.163-.322-.075-.146-.146-.278-.05-.1-.015-.029-.16-.337-.073-.161-.122-.264Z" transform="translate(-146.917 -1161.889)" fill="rgba(227,116,28,0.6)" fill-rule="evenodd"></path></g><g id="Group_5" data-name="Group 5" transform="translate(131.609 131.586)"><path id="Path_5" data-name="Path 5" d="M247.107,1140.292l-.063-.234a16.065,16.065,0,0,1,16.589-1.362c15.3,7.66,45.014,22.512,71.464,35.739,1.974.982,5.966,3.3,11.089,6.46l2.941,8.818a29.148,29.148,0,0,1-15.549,37.541L302.7,1242.69a16.039,16.039,0,0,0-7.177,7.177l-15.441,30.891a29.3,29.3,0,0,1-26.791,17.606l-.315-.015h-.416l-.312-.015H252.2l-.271-.015h-.094l-.243-.015h-.075l-.311-.015-.064-.015-.25-.015-.091-.015-.261-.015h-.053l-.311-.044H250.1l-.245-.03-.085-.015-.293-.029h-.015l-.312-.044-.075-.015-.248-.044-.073-.015-.313-.044-.308-.059h-.062l-.259-.058h-.054l-.117-.029-.344-.073-.127-.03-.419-.088-.1-.029-.338-.073-.138-.044-.407-.1-.091-.015-.335-.1-.146-.044-.352-.1-.057-.015-.067-.015-.338-.117-.154-.044-.306-.1-.105-.029-.032-.015-.352-.132-.16-.058-.275-.1-.136-.044a29.1,29.1,0,0,1-15.6-14.164c-13.225-26.453-28.082-56.157-35.732-71.464a16.025,16.025,0,0,1,1.359-16.58,43.974,43.974,0,0,0,55.768-42.331c0-1.362-.062-2.695-.182-4.013-.034-.381-.072-.747-.114-1.113s-.091-.747-.146-1.113-.108-.732-.17-1.084-.126-.733-.2-1.1-.146-.718-.224-1.069-.161-.718-.249-1.069S247.2,1140.643,247.107,1140.292Z" transform="translate(-189.84 -1137.006)" fill="rgba(255,148,0,0.5)" fill-rule="evenodd"></path></g><g id="Group_6" data-name="Group 6" transform="translate(168.052 68.721)"><path id="Path_6" data-name="Path 6" d="M220.637,1137.549a44.573,44.573,0,0,0-5.916-4,16.028,16.028,0,0,1,10.77-12.7c16.229-5.419,47.75-15.921,75.8-25.266a29.026,29.026,0,0,1,21.042,1.025l.132.059.267.117.155.073.335.161.031.015.1.044.293.146.147.073.313.161.063.029.053.029.322.176.133.073.3.176.082.044.363.219.122.074.293.176.085.059.362.234.108.058.293.191.1.073.045.029.218.146.059.044.256.19.258.176.059.044.2.146.06.044.252.19.01.015.236.176.067.059.192.146.057.059.242.19.043.029.2.176.07.059.192.161.048.044.234.205.056.044.182.161.069.073.2.176.032.029.229.22.061.059.171.161.066.073.224.22a29.158,29.158,0,0,1,6.493,31.389l-7.778,23.333a45.833,45.833,0,0,0,0,28.987l7.778,23.333a29.237,29.237,0,0,1-6.493,31.4l-.224.22-.066.059-.171.161-.061.058-.229.22-.032.029-.2.191-.069.059-.182.161-.056.044-.234.205-.048.044-.192.176-.07.059-.2.161-.043.029-.242.205-.057.044-.192.146-.067.059-.236.176-.01.015-.252.191-.06.044-.2.146-.059.044-.258.19-.256.176-.059.044-.218.146-.045.029-.1.073-.293.191-.108.073-.362.234-.085.044-.293.176-.122.073-.363.22-.082.044-.3.176-.133.073-.322.176-.053.029-.063.029-.313.161-.147.073-.293.146-.1.059-.031.014-.335.161-.155.059-.267.132-.132.059a29.18,29.18,0,0,1-21.042,1.025c-28.055-9.359-59.57-19.862-75.8-25.266a16.068,16.068,0,0,1-10.77-12.7,44,44,0,0,0,20.554-50.84c-.1-.351-.212-.7-.324-1.04s-.229-.688-.349-1.025-.245-.689-.374-1.025-.261-.659-.4-1-.277-.659-.422-1-.293-.659-.439-.981-.309-.645-.467-.967-.324-.63-.491-.952-.338-.63-.513-.938a43.989,43.989,0,0,0-6.9-9.213c-.284-.293-.573-.586-.864-.864q-1.125-1.1-2.326-2.109C221.151,1137.974,220.895,1137.769,220.637,1137.549Z" transform="translate(-214.721 -1094.086)" fill="rgba(255,170,0,0.7)" fill-rule="evenodd"></path></g><g id="Group_7" data-name="Group 7" transform="translate(131.635 0.001)"><path id="Path_7" data-name="Path 7" d="M253.285,1047.169a29.183,29.183,0,0,1,26.793,17.609l11,22a45.877,45.877,0,0,0,20.5,20.491l22,11a29.242,29.242,0,0,1,17.613,26.791v.732l-.01.307v.044l-.012.278v.088l-.013.249v.073l-.021.307v.059l-.019.264-.009.088-.022.264v.044l-.031.307-.009.073-.028.249-.01.088-.037.293v.015l-.043.307-.01.088-.038.234-.012.073-.05.322-.054.307-.013.073-.048.249-.01.059-.023.117-.07.352-.028.117-.092.425-.023.1-.081.337-.035.132-.105.41-.025.088-.092.337-.042.147-.1.351-.018.059-.021.059-.107.337-.05.161-.1.307-.035.1-.012.029-.125.351-.057.161-.1.278-.053.132a29.019,29.019,0,0,1-14.155,15.6c-26.45,13.226-56.163,28.093-71.464,35.739a16.032,16.032,0,0,1-16.589-1.362,43.893,43.893,0,0,0,1.611-11.82c0-1.362-.062-2.695-.182-4.013l-.045-.483c-.021-.176-.04-.366-.06-.557l-.066-.542c-.025-.19-.05-.366-.073-.557l-.081-.542c-.029-.176-.057-.366-.086-.542l-.094-.542c-.034-.176-.066-.366-.1-.542l-.107-.542c-.038-.176-.075-.352-.113-.527l-.12-.542c-.041-.176-.084-.352-.126-.527l-.026-.1c-.086-.352-.177-.688-.271-1.04-.088-.322-.179-.644-.271-.952l-.157-.513c-.054-.176-.108-.337-.163-.513l-.17-.513c-.059-.176-.117-.337-.176-.513l-.183-.5c-.061-.176-.124-.337-.187-.513l-.193-.5c-.067-.161-.133-.337-.2-.5l-.205-.5-.211-.483-.218-.483c-.075-.176-.147-.322-.223-.5l-.229-.483c-.079-.146-.157-.307-.234-.469l-.24-.483c-.082-.146-.164-.308-.246-.469l-.25-.469c-.085-.146-.171-.308-.256-.469l-.262-.454c-.089-.161-.179-.307-.268-.454l-.272-.454c-.092-.161-.185-.308-.278-.454l-.283-.454-.293-.44-.293-.439-.293-.439-.223-.322c-.245-.337-.5-.688-.75-1.025l-.274-.366c-.108-.132-.215-.264-.324-.41l-.328-.41c-.111-.132-.223-.278-.334-.41l-.338-.41-.343-.4-.349-.4-.352-.4-.072-.073c-.6-.674-1.23-1.3-1.873-1.933q-.555-.549-1.131-1.055c-.393-.366-.791-.7-1.2-1.054-.253-.205-.51-.41-.768-.63l-.36-.278c-.146-.1-.278-.22-.417-.322l-.42-.322-.425-.307-.429-.322c-.146-.1-.293-.191-.439-.293l-.439-.308c-.146-.088-.293-.19-.439-.293l-.439-.278c-.146-.1-.293-.191-.448-.293l-.451-.278-.454-.264-.458-.278-.463-.264-.464-.249c-.157-.088-.312-.176-.469-.249l-.081-.044-.949-.483c-.318-.161-.639-.308-.961-.469s-.646-.293-.973-.425-.653-.293-.981-.425-.661-.264-.993-.381-.664-.249-1-.366-.669-.234-1.006-.337-.671-.22-1.009-.322-.693-.19-1.041-.293l-.5-.132-.527-.132-.53-.132c-.179-.029-.356-.073-.533-.117l-.535-.1c-.179-.044-.359-.073-.538-.117l-.539-.088c-.182-.044-.362-.073-.542-.1l-.545-.088c-.182-.029-.365-.044-.546-.073l-.548-.073c-.185-.029-.368-.044-.551-.073l-.554-.059-.554-.044-.557-.059c-.186,0-.372-.015-.56-.029l-.56-.029c-.187-.015-.375-.029-.562-.029l-.564-.015c-.189-.015-.378-.015-.567-.015h-1.072a42.278,42.278,0,0,0-5.127.352c-.369.044-.732.1-1.1.161l-1.094.176c-.365.073-.732.132-1.085.22s-.719.146-1.077.235-.71.161-1.063.249l-.778.22a16.055,16.055,0,0,1-1.359-16.6c7.65-15.292,22.507-45.011,35.732-71.464a29.068,29.068,0,0,1,15.6-14.149l.136-.059.275-.1.16-.059.352-.117.032-.015.105-.044.306-.1.154-.044.338-.1.067-.03.057-.015.352-.1.146-.044.335-.088.091-.029.407-.1.138-.029.338-.088.1-.029.419-.088.127-.029.344-.059.117-.029.054-.015.259-.044.072-.015.308-.059.313-.044.073-.015.248-.029.075-.015.312-.044h.015l.293-.044h.085l.245-.029.073-.015.311-.029h.053l.261-.029.091-.015.25-.015h.064l.311-.029h.039l.243-.015h.094l.271-.015h.044l.312-.015h.732Z" transform="translate(-189.858 -1047.169)" fill="rgba(255,197,0,0.6)" fill-rule="evenodd"></path></g><g id="Group_8" data-name="Group 8" transform="translate(68.744 0)"><path id="Path_8" data-name="Path 8" d="M155.441,1055.723a29.193,29.193,0,0,1,31.395-6.5L210.17,1057a45.846,45.846,0,0,0,28.987,0l23.334-7.778a29.217,29.217,0,0,1,31.395,6.5l.221.22.063.059.166.176.06.058.214.234.029.029.185.205.062.059.164.19.05.044.205.234.041.059.164.19.06.073.167.19.034.044.2.249.045.059.147.19.053.059.182.234.009.015.19.249.045.059.146.205.044.059.186.264.18.249.041.059.146.22.031.044.066.1.193.293.072.117.23.351.053.088.18.293.073.132.214.352.047.088.171.307.073.132.176.322.028.044.034.073.163.308.075.146.146.293.05.088.015.044.16.337.073.146.122.263.06.132a29.12,29.12,0,0,1,1.025,21.048c-9.352,28.049-19.857,59.57-25.266,75.8a16.031,16.031,0,0,1-12.7,10.766c-.16-.278-.322-.557-.491-.835q-.272-.461-.558-.923c-.19-.293-.384-.6-.586-.893q-.365-.549-.746-1.1c-.245-.337-.5-.688-.75-1.025q-.321-.418-.649-.835c-.221-.293-.439-.557-.669-.835s-.456-.542-.688-.806-.467-.542-.706-.791c-.331-.366-.666-.718-1.009-1.069-.644-.659-1.311-1.3-1.995-1.919q-1.349-1.23-2.8-2.329c-.281-.22-.564-.425-.851-.63s-.574-.425-.866-.615-.586-.41-.879-.6-.595-.381-.895-.571-.6-.366-.91-.542-.614-.366-.923-.542-.623-.337-.936-.5l-.949-.483c-.318-.161-.639-.307-.961-.469s-.646-.293-.973-.425-.653-.293-.981-.425-.659-.264-.993-.381-.663-.249-1-.366-.669-.234-1.006-.337-.671-.22-1.009-.322a44.125,44.125,0,0,0-12.516-1.8c-.381,0-.76,0-1.141.015s-.757.015-1.132.044-.753.044-1.126.073l-1.118.088a44.477,44.477,0,0,0-7.57,1.465l-1.041.307c-.346.117-.688.22-1.025.337s-.681.234-1.018.366-.672.249-1.006.381-.665.264-.995.41-.656.278-.981.425-.647.308-.967.454-.639.322-.954.483-.628.322-.939.5-.618.337-.924.513-.606.366-.905.542-.586.366-.879.557a44.475,44.475,0,0,0-6.95,5.537c-.293.278-.579.571-.863.864q-1.09,1.121-2.1,2.329c-.214.249-.423.513-.631.762a44.582,44.582,0,0,0-4.009,5.918,16.03,16.03,0,0,1-12.7-10.766c-5.409-16.229-15.914-47.75-25.266-75.8a29.119,29.119,0,0,1,1.025-21.048l.06-.132.122-.264.073-.146.16-.337.015-.044.05-.088.146-.293.075-.146.163-.307.034-.073.028-.044.176-.322.073-.132.171-.307.047-.088.214-.352.073-.132.18-.293.053-.088.23-.352.072-.117.193-.293.066-.1.031-.044.146-.219.041-.059.18-.249.186-.264.044-.059.146-.205.045-.058.19-.249.009-.015.182-.235.053-.058.146-.191.045-.058.2-.249.034-.044.167-.19.06-.073.164-.191.041-.058.205-.234.05-.044.164-.19.062-.059.185-.205.029-.029.214-.235.06-.059.165-.176.063-.059Z" transform="translate(-146.921 -1047.169)" fill="rgba(255,215,0,0.8)" fill-rule="evenodd"></path></g></g></g></g></svg> 