<?xml version="1.0" encoding="UTF-8"?> <svg xmlns="http://www.w3.org/2000/svg" xmlns:xlink="http://www.w3.org/1999/xlink" width="302.697" height="263.159" viewBox="0 0 302.697 263.159"><defs><linearGradient id="linear-gradient" x1="1.112" y1="-0.089" x2="2.112" y2="-0.089" gradientUnits="objectBoundingBox"><stop offset="0" stop-color="#183866"></stop><stop offset="1" stop-color="#1a7fc1"></stop></linearGradient><linearGradient id="linear-gradient-2" x1="0.74" y1="-0.106" x2="0.184" y2="1" gradientUnits="objectBoundingBox"><stop offset="0" stop-color="#68e1fd"></stop><stop offset="1" stop-color="#5685ec"></stop></linearGradient><linearGradient id="linear-gradient-3" x1="0.749" y1="16.557" x2="0.756" y2="12.238" gradientUnits="objectBoundingBox"><stop offset="0" stop-color="#fff" stop-opacity="0"></stop><stop offset="0.06" stop-color="#fff" stop-opacity="0.129"></stop><stop offset="0.16" stop-color="#fff" stop-opacity="0.329"></stop><stop offset="0.26" stop-color="#fff" stop-opacity="0.51"></stop><stop offset="0.37" stop-color="#fff" stop-opacity="0.659"></stop><stop offset="0.48" stop-color="#fff" stop-opacity="0.788"></stop><stop offset="0.59" stop-color="#fff" stop-opacity="0.878"></stop><stop offset="0.71" stop-color="#fff" stop-opacity="0.949"></stop><stop offset="0.84" stop-color="#fff" stop-opacity="0.988"></stop><stop offset="1" stop-color="#fff"></stop></linearGradient><filter id="Path_2494" x="38.75" y="30.537" width="236.277" height="31.217"><feOffset dy="3"></feOffset><feGaussianBlur stdDeviation="3" result="blur"></feGaussianBlur><feFlood flood-color="#2f4fff" flood-opacity="0.22"></feFlood><feComposite operator="in" in2="blur"></feComposite><feComposite in="SourceGraphic"></feComposite></filter><linearGradient id="linear-gradient-4" x1="4.556" y1="0.936" x2="5.556" y2="0.936" gradientUnits="objectBoundingBox"><stop offset="0" stop-color="#ecc4d7"></stop><stop offset="0.42" stop-color="#efd4d1"></stop><stop offset="1" stop-color="#f2eac9"></stop></linearGradient><linearGradient id="linear-gradient-5" x1="2.236" y1="-1.362" x2="1.509" y2="-0.242" xlink:href="#linear-gradient-3"></linearGradient><linearGradient id="linear-gradient-6" x1="3.283" y1="-1.888" x2="4.283" y2="-1.888" xlink:href="#linear-gradient-4"></linearGradient><linearGradient id="linear-gradient-7" x1="3.596" y1="-2.319" x2="4.596" y2="-2.319" xlink:href="#linear-gradient-4"></linearGradient><linearGradient id="linear-gradient-8" x1="4.655" y1="-28.645" x2="5.322" y2="-35.439" gradientUnits="objectBoundingBox"><stop offset="0" stop-color="#5685ec"></stop><stop offset="0.08" stop-opacity="0.188"></stop><stop offset="0.99"></stop><stop offset="1"></stop></linearGradient><linearGradient id="linear-gradient-10" x1="4.816" y1="-29.518" x2="4.979" y2="-35.264" gradientUnits="objectBoundingBox"><stop offset="0" stop-opacity="0"></stop><stop offset="0.08" stop-opacity="0.188"></stop><stop offset="0.99"></stop></linearGradient><linearGradient id="linear-gradient-11" x1="4.826" y1="-29.43" x2="4.99" y2="-35.179" xlink:href="#linear-gradient-10"></linearGradient></defs><g id="Group_615" data-name="Group 615" transform="translate(-598.361 -3003.273)"><g id="blob-shape_13_" data-name="blob-shape (13)" transform="translate(598.361 3003.273)"><path id="Path_2305" data-name="Path 2305" d="M249.644,41.926c28.212,14.787,55.366,51.187,52.9,88.369s-34.559,75-77.441,99.246S128.545,264.519,87.285,245.75C46.1,227.053,17.249,178.994,5.612,127.1-5.955,75.2-.312,19.6,28.816,4.6c29.058-15,81.673,10.664,122.58,20.048C192.233,34.035,221.5,27.139,249.644,41.926Z" transform="translate(302.697 255.3) rotate(180)" fill="#eaf0ff"></path></g><g id="mind_map" transform="translate(646.104 3039.811)"><path id="Path_2493" data-name="Path 2493" d="M153.571,319.239c-2.167-2.5-4.91-5.1-4.742-8.411.124-2.447,1.846-4.474,3.484-6.3l3.845-4.285,5.151-5.727a32.441,32.441,0,0,1,4.109-4.049,4.68,4.68,0,0,0,1.081-1,4.048,4.048,0,0,0,.428-.913,42.279,42.279,0,0,0,2.523-14.11c0-1.173,0-2.475.8-3.328a4.375,4.375,0,0,1,2.171-1.033,17.2,17.2,0,0,1,5.279-.777,6.366,6.366,0,0,1,4.7,2.207c1.3,1.69,1.314,4.005,1.27,6.132s-5.94,5.147-5.976,7.257c0,.553,4.029.637,4.538.849,2.675,1.125,4.229,5.731,4.478,6.152,4.133,6.969,5.835,9.028,9.969,16a8.577,8.577,0,0,1,1.422,3.48,7.814,7.814,0,0,1-.845,3.713,37.358,37.358,0,0,1-6.849,10.533,4.481,4.481,0,0,1-1.518,1.2c-1.65.685-3.561-.585-5.291-.148,1.7-3.769,6.188-6.06,6.917-10.133a8.306,8.306,0,0,0-2.055-6.516,24.648,24.648,0,0,0-5.411-4.462q-.757,5.259-1.518,10.517a30.12,30.12,0,0,0-.421,8.367c.132.989.244,2.247-.625,2.731a2.4,2.4,0,0,1-1.117.2q-8.531.084-17.05-.372c-1.878-.1-3.228,0-4.462-1.506C156.258,323.569,155.249,321.17,153.571,319.239Z" transform="translate(-113.296 -173.377)" opacity="0.19" fill="url(#linear-gradient)"></path><g id="Group_608" data-name="Group 608" transform="translate(0 0)"><rect id="Rectangle_423" data-name="Rectangle 423" width="218.298" height="151.617" rx="8" transform="translate(0 2.084)" fill="url(#linear-gradient-2)"></rect><g transform="matrix(1, 0, 0, 1, -47.74, -36.54)" filter="url(#Path_2494)"><path id="Path_2494-2" data-name="Path 2494" d="M278.418,44.965v3.252H60.14V44.965A9.969,9.969,0,0,1,70.1,35H268.469A9.965,9.965,0,0,1,278.418,44.965Z" transform="translate(-12.39 1.54)" fill="url(#linear-gradient-3)"></path></g></g><rect id="Rectangle_424" data-name="Rectangle 424" width="49.771" height="25.096" transform="translate(70.077 23.05)" fill="none" stroke="#fff" stroke-miterlimit="10" stroke-width="2"></rect><rect id="Rectangle_425" data-name="Rectangle 425" width="43.039" height="25.096" transform="translate(13.261 51.783)" fill="none" stroke="#fff" stroke-miterlimit="10" stroke-width="2"></rect><rect id="Rectangle_426" data-name="Rectangle 426" width="43.039" height="25.096" transform="translate(155.182 30.031)" fill="none" stroke="#fff" stroke-miterlimit="10" stroke-width="2"></rect><rect id="Rectangle_427" data-name="Rectangle 427" width="53.444" height="27.888" transform="translate(78.4 93.42)" fill="none" stroke="#fff" stroke-miterlimit="10" stroke-width="2"></rect><rect id="Rectangle_428" data-name="Rectangle 428" width="42.062" height="27.888" transform="translate(154.525 77.095)" fill="none" stroke="#fff" stroke-miterlimit="10" stroke-width="2"></rect><rect id="Rectangle_429" data-name="Rectangle 429" width="61.695" height="19.293" transform="translate(83.054 58.6)" fill="none" stroke="#fff" stroke-miterlimit="10" stroke-width="2"></rect><line id="Line_15" data-name="Line 15" x2="7.958" y2="10.862" transform="translate(93.992 48.15)" fill="none" stroke="#fff" stroke-miterlimit="10" stroke-width="2"></line><line id="Line_16" data-name="Line 16" x2="26.754" transform="translate(56.3 65.5)" fill="none" stroke="#fff" stroke-miterlimit="10" stroke-width="2"></line><line id="Line_17" data-name="Line 17" x1="24.347" y2="17.098" transform="translate(130.178 41.502)" fill="none" stroke="#fff" stroke-miterlimit="10" stroke-width="2"></line><line id="Line_18" data-name="Line 18" x1="20.606" y1="13.149" transform="translate(133.23 77.892)" fill="none" stroke="#fff" stroke-miterlimit="10" stroke-width="2"></line><line id="Line_19" data-name="Line 19" x1="6.516" y2="15.528" transform="translate(101.585 77.892)" fill="none" stroke="#fff" stroke-miterlimit="10" stroke-width="2"></line><path id="Path_2495" data-name="Path 2495" d="M195.09,266.146a45.657,45.657,0,0,1,.689,6.176,7.257,7.257,0,0,1-.136,2.315,2.567,2.567,0,0,1-1.414,1.75,6.92,6.92,0,0,0-1.33.449,1.67,1.67,0,0,0-.629.941,6.347,6.347,0,0,0,0,2.167,2.98,2.98,0,0,1-.449,2.079,2.707,2.707,0,0,1-1.342.8,7.25,7.25,0,0,1-3.757.156,1.234,1.234,0,0,1-.549-.228,1.314,1.314,0,0,1-.352-.613,35.2,35.2,0,0,1-1.1-4.237,31.836,31.836,0,0,1-.929-6.116,10.128,10.128,0,0,1,1.534-5.9,6.133,6.133,0,0,1,5.207-2.8,9.9,9.9,0,0,1,3.292,1C194.69,264.472,194.89,265.217,195.09,266.146Z" transform="translate(-134.261 -169.646)" fill="url(#linear-gradient-4)"></path><path id="Path_2496" data-name="Path 2496" d="M188.315,256.276a3.212,3.212,0,0,0-1.578-2.5,1.687,1.687,0,0,1-.4-.372,3.1,3.1,0,0,1-.256-.721,2.488,2.488,0,0,0-2.435-1.35c-.989,0-1.967.3-2.956.272a5.54,5.54,0,0,0-2.331.092,3,3,0,0,0-1.025.929,4.562,4.562,0,0,0-1.005,2c-.06.328-.056.669-.14.993a3.105,3.105,0,0,1-.529,1.005c-1.033,1.418-2.539,2.6-2.908,4.317a4.961,4.961,0,0,0,.056,3.312c5.042,9.412,6.32,9.957,6.837,9.885a3.773,3.773,0,0,0,3.681-3.809,2.15,2.15,0,0,0,.072-.749,1.341,1.341,0,0,0-.36-.521,4.383,4.383,0,0,1-.873-1.2,1.6,1.6,0,0,1,0-1.454,1.294,1.294,0,0,1,1.8-.344,1.443,1.443,0,0,1,.236.208c.336-.961-.661-2.047-.252-2.98.248-.565.937-.841,1.178-1.414.316-.757-.248-1.814.352-2.371a4.405,4.405,0,0,1,.641-.368c.34-.208.4-.493.581-.821s.212-.3.577-.489A1.858,1.858,0,0,0,188.315,256.276Z" transform="translate(-127.486 -162.608)" fill="#3f3d56"></path><path id="Path_2497" data-name="Path 2497" d="M163.7,310.5s-7.157,1.742-8.126,4.065-8.811,9.584-8.615,12.472,5.579,6.548,5.579,6.548l4.117-4.005,1.934,31.152s7.842,2,13.922,0,7.125-3.5,7.125-3.5l-1.045-28.793,4.946,6.444,6.568-5.655s-9.692-15.792-11.342-16.753-9.044-2.079-9.044-2.079S166.447,312.371,163.7,310.5Z" transform="translate(-112.174 -198.02)" fill="#68e1fd"></path><path id="Path_2498" data-name="Path 2498" d="M163.7,310.5s-7.157,1.742-8.126,4.065-8.811,9.584-8.615,12.472,5.579,6.548,5.579,6.548l4.117-4.005,1.934,31.152s7.842,2,13.922,0,7.125-3.5,7.125-3.5l-1.045-28.793,4.946,6.444,6.568-5.655s-9.692-15.792-11.342-16.753-9.044-2.079-9.044-2.079S166.447,312.371,163.7,310.5Z" transform="translate(-112.174 -198.02)" fill="url(#linear-gradient-5)"></path><path id="Path_2499" data-name="Path 2499" d="M139.109,351.94s-5.135,6.957-5.271,8.1,13.886,18.087,13.886,18.087,1.057,3.777,2.8,4.313l-.557-9.068s-7.658-12.684-8.583-12.484l2.711-2.836S139.734,355.044,139.109,351.94Z" transform="translate(-104.313 -222.923)" fill="url(#linear-gradient-6)"></path><path id="Path_2500" data-name="Path 2500" d="M228.564,364.71l1.914,2.691-6.084,12.252s-2.175,1.109-2.291,2.123,2.367,0,2.367,0l.192,5.283a31.347,31.347,0,0,0,3.9-5.283c1.222-2.359,8.411-12.816,8.723-14.114.581-2.327-3.44-7.5-3.44-7.5Z" transform="translate(-157.225 -227.85)" fill="url(#linear-gradient-7)"></path><path id="Path_2501" data-name="Path 2501" d="M176,430.84v56.472h6.5l2.976-43.131,2.611-.477,4.654,43.588H197.8l-.777-59.932A80.292,80.292,0,0,1,176,430.84Z" transform="translate(-129.589 -268.136)" fill="#25233a"></path><path id="Path_2502" data-name="Path 2502" d="M187.493,583.56a1.6,1.6,0,0,1-.028.365s-9.54.985-11.11.288-1.458-1.105-1.458-1.105l.441-6.108h6.5c4.666.709,5.539,3.961,5.663,5.743v.04a5.541,5.541,0,0,1-.012.777Z" transform="translate(-128.927 -357.844)" fill="#68e1fd"></path><path id="Path_2503" data-name="Path 2503" d="M216.808,577l-.4,6.108s-.116.4,1.458,1.105,11.11-.288,11.11-.288.861-5.936-5.643-6.925Z" transform="translate(-153.811 -357.844)" fill="#68e1fd"></path><path id="Path_2504" data-name="Path 2504" d="M187.493,583.56a1.6,1.6,0,0,1-.028.365s-9.54.985-11.11.288-1.458-1.105-1.458-1.105l.441-6.108h6.5c4.666.709,5.539,3.961,5.663,5.743v.04a5.541,5.541,0,0,1-.012.777Z" transform="translate(-128.927 -357.844)" fill="url(#linear-gradient-8)"></path><path id="Path_2505" data-name="Path 2505" d="M216.808,577l-.4,6.108s-.116.4,1.458,1.105,11.11-.288,11.11-.288.861-5.936-5.643-6.925Z" transform="translate(-153.811 -357.844)" fill="url(#linear-gradient-8)"></path><ellipse id="Ellipse_178" data-name="Ellipse 178" cx="2.259" cy="2.259" rx="2.259" ry="2.259" transform="translate(7.057 4.75)" fill="#5685ec"></ellipse><ellipse id="Ellipse_179" data-name="Ellipse 179" cx="2.259" cy="2.259" rx="2.259" ry="2.259" transform="translate(15.34 4.75)" fill="#5685ec"></ellipse><ellipse id="Ellipse_180" data-name="Ellipse 180" cx="2.259" cy="2.259" rx="2.259" ry="2.259" transform="translate(23.622 4.75)" fill="#5685ec"></ellipse><path id="Path_2506" data-name="Path 2506" d="M187.493,583.44a1.6,1.6,0,0,1-.028.365s-9.54.985-11.11.288-1.458-1.105-1.458-1.105l.441-6.108,3.3-.08v.08l-.156.521s-.869,3.665,0,4.654,8.855.581,9.04.569h0v.04Z" transform="translate(-128.927 -357.724)" fill="url(#linear-gradient-10)"></path><path id="Path_2507" data-name="Path 2507" d="M228.969,583.446a1.6,1.6,0,0,1-.028.364s-9.54.985-11.11.288-1.454-1.105-1.454-1.105l.4-6.1,3.308-.08-.024.08-.156.521s-.869,3.665,0,4.654,8.855.581,9.039.569h0v.8Z" transform="translate(-153.793 -357.73)" fill="url(#linear-gradient-11)"></path></g></g></svg> 