<?xml version="1.0" encoding="UTF-8"?> <svg xmlns="http://www.w3.org/2000/svg" xmlns:xlink="http://www.w3.org/1999/xlink" width="411.381" height="402.114" viewBox="0 0 411.381 402.114"><defs><linearGradient id="linear-gradient" x1="0.5" x2="0.5" y2="1" gradientUnits="objectBoundingBox"><stop offset="0.01" stop-color="#71bfff"></stop><stop offset="1" stop-color="#5a4dff"></stop></linearGradient><linearGradient id="linear-gradient-6" x2="-0.204" xlink:href="#linear-gradient"></linearGradient><linearGradient id="linear-gradient-13" x1="0.861" y1="0.026" x2="-0.195" y2="2.415" gradientUnits="objectBoundingBox"><stop offset="0" stop-color="#71bfff"></stop><stop offset="0.081" stop-color="#71bfff"></stop><stop offset="0.085" stop-color="#71bfff"></stop><stop offset="1" stop-color="#5a4dff"></stop></linearGradient><linearGradient id="linear-gradient-14" x1="0.714" y1="-1.911" x2="0.229" y2="6.473" gradientUnits="objectBoundingBox"><stop offset="0" stop-color="#5685ec"></stop><stop offset="1" stop-color="#00c4d8"></stop></linearGradient><linearGradient id="linear-gradient-16" x1="1.141" y1="-0.679" x2="-0.135" y2="1.387" gradientUnits="objectBoundingBox"><stop offset="0" stop-color="#7bbdff"></stop><stop offset="0.045" stop-color="#7bbdff"></stop><stop offset="0.192" stop-color="#eefbfb"></stop><stop offset="0.39" stop-color="#92baff"></stop><stop offset="0.617" stop-color="#aeb6ff"></stop><stop offset="0.864" stop-color="#d4b1ff"></stop><stop offset="0.881" stop-color="#d8b1ff"></stop><stop offset="1" stop-color="#d8b1ff"></stop></linearGradient><linearGradient id="linear-gradient-20" x1="0.5" y1="0" x2="0.5" y2="1" xlink:href="#linear-gradient-13"></linearGradient><linearGradient id="linear-gradient-23" x1="1.031" y1="0.053" x2="0.5" y2="1" xlink:href="#linear-gradient-13"></linearGradient><linearGradient id="linear-gradient-30" x1="0.5" y1="1" x2="0.5" gradientUnits="objectBoundingBox"><stop offset="0" stop-color="gray" stop-opacity="0.251"></stop><stop offset="0.54" stop-color="gray" stop-opacity="0.122"></stop><stop offset="1" stop-color="gray" stop-opacity="0.102"></stop></linearGradient><linearGradient id="linear-gradient-31" x1="0.5" y1="0" x2="0.5" y2="1" xlink:href="#linear-gradient-13"></linearGradient></defs><g id="Group_610" data-name="Group 610" transform="translate(17265.914 8175.103)"><g id="blob-shape_10_" data-name="blob-shape (10)" transform="matrix(-0.602, -0.799, 0.799, -0.602, -17105.291, -7772.989)"><path id="Path_2302" data-name="Path 2302" d="M266.853,69.14c1.516,32.35-35.471,58.4-42.038,106.813-6.567,48.486-9.5,83.149-22.21,104.15S139.282,328.28,82.789,305.118s-71.68-55.389-80.857-91.676c-9.261-36.21,15.685-96.32,55.592-136.7C97.515,36.362,138.264,2.082,181.876.075,225.4-1.932,265.337,36.79,266.853,69.14Z" transform="translate(0 0)" fill="#e2eaff" opacity="0.765"></path></g><g id="undraw_wireframing_nxyi" transform="translate(-17207.463 -8064.752)"><path id="Path_2566" data-name="Path 2566" d="M266.752,440.065s-14.34-20.692-11.9-40.22a38.143,38.143,0,0,0-4.592-23.685,64.129,64.129,0,0,0-6.745-9.6" transform="translate(-202.654 -312.468)" fill="none" stroke="#5685ec" stroke-miterlimit="10" stroke-width="2"></path><path id="Path_2567" data-name="Path 2567" d="M224.991,318.694c.931,2.808-1.461,12.64-1.461,12.64s-7.785-6.463-8.715-9.274a5.359,5.359,0,0,1,10.177-3.366Z" transform="translate(-182.674 -276.917)" fill="#6c63ff"></path><path id="Path_2568" data-name="Path 2568" d="M268.6,353.142c-.745,2.864-8.095,9.817-8.095,9.817s-3.022-9.655-2.274-12.519a5.358,5.358,0,1,1,10.37,2.7Z" transform="translate(-212.729 -298.585)" fill="#6c63ff"></path><path id="Path_2569" data-name="Path 2569" d="M292.555,433.846c-2.091,2.1-11.945,4.387-11.945,4.387s2.268-9.86,4.344-11.955a5.359,5.359,0,1,1,7.589,7.567Z" transform="translate(-228.243 -352.572)" fill="#6c63ff"></path><path id="Path_2570" data-name="Path 2570" d="M300.473,505.219c-1.707,2.417-11.033,6.342-11.033,6.342s.568-10.1,2.274-12.519a5.359,5.359,0,0,1,8.759,6.177Z" transform="translate(-234.334 -402.28)" fill="#6c63ff"></path><path id="Path_2571" data-name="Path 2571" d="M225.63,390.393c2.662,1.291,12.721.211,12.721.211s-5.386-8.563-8.067-9.857a5.358,5.358,0,0,0-4.654,9.646Z" transform="translate(-188.345 -321.939)" fill="#6c63ff"></path><path id="Path_2572" data-name="Path 2572" d="M229.754,470.681c2.929.434,12.206-3.605,12.206-3.605s-7.7-6.562-10.627-7a5.359,5.359,0,0,0-1.576,10.6Z" transform="translate(-190.015 -376.931)" fill="#6c63ff"></path><path id="Path_2573" data-name="Path 2573" d="M250.263,549.339c2.814.931,12.64-1.489,12.64-1.489s-6.485-7.757-9.308-8.687a5.359,5.359,0,1,0-3.345,10.183Z" transform="translate(-204.76 -431.333)" fill="#6c63ff"></path><path id="Path_2574" data-name="Path 2574" d="M224.991,318.694c.931,2.808-1.461,12.64-1.461,12.64s-7.785-6.463-8.715-9.274a5.359,5.359,0,0,1,10.177-3.366Z" transform="translate(-182.674 -276.917)" fill="url(#linear-gradient)"></path><path id="Path_2575" data-name="Path 2575" d="M268.6,353.142c-.745,2.864-8.095,9.817-8.095,9.817s-3.022-9.655-2.274-12.519a5.358,5.358,0,1,1,10.37,2.7Z" transform="translate(-212.729 -298.585)" fill="url(#linear-gradient)"></path><path id="Path_2576" data-name="Path 2576" d="M292.555,433.846c-2.091,2.1-11.945,4.387-11.945,4.387s2.268-9.86,4.344-11.955a5.359,5.359,0,1,1,7.589,7.567Z" transform="translate(-228.243 -352.572)" opacity="0.25"></path><path id="Path_2577" data-name="Path 2577" d="M300.473,505.219c-1.707,2.417-11.033,6.342-11.033,6.342s.568-10.1,2.274-12.519a5.359,5.359,0,0,1,8.759,6.177Z" transform="translate(-234.334 -402.28)" opacity="0.25"></path><path id="Path_2578" data-name="Path 2578" d="M225.63,390.393c2.662,1.291,12.721.211,12.721.211s-5.386-8.563-8.067-9.857a5.358,5.358,0,0,0-4.654,9.646Z" transform="translate(-188.345 -321.939)" fill="url(#linear-gradient)"></path><path id="Path_2579" data-name="Path 2579" d="M229.754,470.681c2.929.434,12.206-3.605,12.206-3.605s-7.7-6.562-10.627-7a5.359,5.359,0,0,0-1.576,10.6Z" transform="translate(-190.015 -376.931)" fill="url(#linear-gradient)"></path><path id="Path_2580" data-name="Path 2580" d="M250.263,549.339c2.814.931,12.64-1.489,12.64-1.489s-6.485-7.757-9.308-8.687a5.359,5.359,0,1,0-3.345,10.183Z" transform="translate(-204.76 -431.333)" fill="url(#linear-gradient)"></path><path id="Path_2581" data-name="Path 2581" d="M204.705,472.32s-21.5-13.106-27.185-31.957a38.163,38.163,0,0,0-13.794-19.792,64.125,64.125,0,0,0-10.056-6.041" transform="translate(-140.688 -345.555)" fill="none" stroke="#5685ec" stroke-miterlimit="10" stroke-width="2"></path><path id="Path_2582" data-name="Path 2582" d="M121.156,372.462c1.989,2.19,3.785,12.147,3.785,12.147s-9.733-2.755-11.722-4.946a5.358,5.358,0,0,1,7.937-7.2Z" transform="translate(-111.83 -315.327)" fill="url(#linear-gradient-6)"></path><path id="Path_2583" data-name="Path 2583" d="M174.869,386.319c.478,2.923-3.413,12.259-3.413,12.259s-6.683-7.6-7.164-10.527a5.359,5.359,0,0,1,10.577-1.731Z" transform="translate(-147.966 -322.998)" fill="url(#linear-gradient-6)"></path><path id="Path_2584" data-name="Path 2584" d="M235.336,447.809c-1.064,2.764-9.143,8.852-9.143,8.852s-1.924-9.928-.863-12.7a5.36,5.36,0,1,1,10.006,3.844Z" transform="translate(-189.895 -363.486)" fill="url(#linear-gradient-6)"></path><path id="Path_2585" data-name="Path 2585" d="M268.49,511.182c-.58,2.9-7.518,10.27-7.518,10.27s-3.574-9.466-2.994-12.367a5.359,5.359,0,0,1,10.512,2.1Z" transform="translate(-212.59 -407.799)" fill="url(#linear-gradient-6)"></path><path id="Path_2586" data-name="Path 2586" d="M150.375,437.713c2.96.1,11.719-4.964,11.719-4.964s-8.393-5.647-11.353-5.755a5.358,5.358,0,1,0-.366,10.71Z" transform="translate(-134.846 -354.149)" fill="url(#linear-gradient-6)"></path><path id="Path_2587" data-name="Path 2587" d="M187.1,509.6c2.854-.788,9.7-8.241,9.7-8.241s-9.7-2.889-12.544-2.088a5.358,5.358,0,1,0,2.855,10.329Z" transform="translate(-159.074 -403.905)" fill="url(#linear-gradient-6)"></path><path id="Path_2588" data-name="Path 2588" d="M237.74,573.083c2.948-.31,10.952-6.485,10.952-6.485s-9.075-4.474-12.02-4.179a5.359,5.359,0,0,0,1.067,10.664Z" transform="translate(-194.61 -447.55)" fill="url(#linear-gradient-6)"></path><ellipse id="Ellipse_193" data-name="Ellipse 193" cx="55.537" cy="3.295" rx="55.537" ry="3.295" transform="translate(96.145 180.462)" fill="#6c63ff" opacity="0.1"></ellipse><ellipse id="Ellipse_194" data-name="Ellipse 194" cx="14.539" cy="2.647" rx="14.539" ry="2.647" transform="translate(193.351 195.746)" fill="#6c63ff" opacity="0.1"></ellipse><path id="Path_2589" data-name="Path 2589" d="M552.212,687.228v1.989H493.38V687.6a19.339,19.339,0,0,0,1.331-35.718h57.114a19.351,19.351,0,0,0,.388,35.348Z" transform="translate(-374.998 -509.264)" fill="#c8cad7"></path><path id="Path_2590" data-name="Path 2590" d="M554.784,651.89a19.37,19.37,0,0,0-10.692,12.823h-35.73A19.37,19.37,0,0,0,497.67,651.89Z" transform="translate(-377.957 -509.271)" opacity="0.1"></path><path id="Path_2591" data-name="Path 2591" d="M276.21,619.22V630.39c0,6.168,4.514,11.17,10.084,11.17H459.421c5.569,0,10.084-5,10.084-11.17V619.22Z" transform="translate(-225.209 -486.737)" fill="#c8cad7"></path><path id="Path_2592" data-name="Path 2592" d="M552.212,761.265v1.989H493.38v-1.62a19.3,19.3,0,0,0,4.536-2.414h50.7A19.388,19.388,0,0,0,552.212,761.265Z" transform="translate(-374.998 -583.3)" opacity="0.1"></path><rect id="Rectangle_442" data-name="Rectangle 442" width="97.733" height="5.895" rx="2.948" transform="translate(98.937 176.541)" fill="#c8cad7"></rect><path id="Path_2593" data-name="Path 2593" d="M469.5,202.3a10.084,10.084,0,0,0-10.084-10.084H286.294A10.084,10.084,0,0,0,276.21,202.3V326.875H469.5Z" transform="translate(-225.209 -192.22)" fill="url(#linear-gradient-13)"></path><rect id="Rectangle_443" data-name="Rectangle 443" width="182.746" height="116.97" rx="3" transform="translate(56.276 9.618)" fill="#ededf4"></rect><circle id="Ellipse_195" data-name="Ellipse 195" cx="2.327" cy="2.327" r="2.327" transform="translate(145.322 2.482)" fill="#fff"></circle><circle id="Ellipse_196" data-name="Ellipse 196" cx="5.74" cy="5.74" r="5.74" transform="translate(141.909 138.378)" fill="#fff"></circle><path id="Path_2594" data-name="Path 2594" d="M475.956,228.184H293.21a4.964,4.964,0,0,1,4.964-4.964H470.992A4.964,4.964,0,0,1,475.956,228.184Z" transform="translate(-236.934 -213.602)" fill="#c8cad7"></path><circle id="Ellipse_197" data-name="Ellipse 197" cx="1.241" cy="1.241" r="1.241" transform="translate(59.999 10.859)" fill="#ededf4"></circle><circle id="Ellipse_198" data-name="Ellipse 198" cx="1.241" cy="1.241" r="1.241" transform="translate(63.722 10.859)" fill="#ededf4"></circle><circle id="Ellipse_199" data-name="Ellipse 199" cx="1.241" cy="1.241" r="1.241" transform="translate(67.445 10.859)" fill="#ededf4"></circle><rect id="Rectangle_444" data-name="Rectangle 444" width="46.85" height="2.792" transform="translate(63.102 18.771)" opacity="0.729" fill="url(#linear-gradient-14)"></rect><rect id="Rectangle_445" data-name="Rectangle 445" width="46.85" height="2.792" transform="translate(63.102 100.371)" opacity="0.729" fill="url(#linear-gradient-14)"></rect><rect id="Rectangle_446" data-name="Rectangle 446" width="86.874" height="2.792" transform="translate(63.102 106.576)" fill="#6c63ff" opacity="0.2"></rect><rect id="Rectangle_447" data-name="Rectangle 447" width="86.874" height="2.792" transform="translate(63.102 110.612)" fill="#6c63ff" opacity="0.2"></rect><rect id="Rectangle_448" data-name="Rectangle 448" width="86.874" height="2.792" transform="translate(63.102 114.646)" fill="#6c63ff" opacity="0.2"></rect><rect id="Rectangle_449" data-name="Rectangle 449" width="86.254" height="46.85" transform="translate(63.102 26.217)" opacity="0.2" fill="url(#linear-gradient-16)"></rect><rect id="Rectangle_450" data-name="Rectangle 450" width="20.167" height="18.616" transform="translate(64.033 77.411)" opacity="0.2" fill="url(#linear-gradient-16)"></rect><rect id="Rectangle_451" data-name="Rectangle 451" width="20.167" height="18.616" transform="translate(129.188 77.411)" opacity="0.2" fill="url(#linear-gradient-16)"></rect><rect id="Rectangle_452" data-name="Rectangle 452" width="20.167" height="18.616" transform="translate(96.145 77.411)" opacity="0.2" fill="url(#linear-gradient-16)"></rect><rect id="Rectangle_453" data-name="Rectangle 453" width="59.363" height="43.695" transform="translate(167.766 39.844)" opacity="0.776" fill="url(#linear-gradient-20)"></rect><rect id="Rectangle_454" data-name="Rectangle 454" width="46.85" height="2.792" transform="translate(174.021 48.712)" fill="#ededf4"></rect><rect id="Rectangle_455" data-name="Rectangle 455" width="46.85" height="2.792" transform="translate(174.021 54.504)" fill="#ededf4"></rect><rect id="Rectangle_456" data-name="Rectangle 456" width="46.85" height="2.792" transform="translate(174.021 60.297)" fill="#ededf4"></rect><rect id="Rectangle_457" data-name="Rectangle 457" width="46.85" height="2.792" transform="translate(174.021 66.086)" fill="#ededf4"></rect><rect id="Rectangle_458" data-name="Rectangle 458" width="46.85" height="2.792" transform="translate(174.021 71.879)" fill="#ededf4"></rect><rect id="Rectangle_459" data-name="Rectangle 459" width="44.886" height="7.859" transform="translate(175.005 88.503)" opacity="0.729" fill="url(#linear-gradient-14)"></rect><rect id="Rectangle_460" data-name="Rectangle 460" width="30.099" height="5.271" transform="translate(172.606 114.689)" opacity="0.729" fill="url(#linear-gradient-14)"></rect><ellipse id="Ellipse_203" data-name="Ellipse 203" cx="12.954" cy="1.083" rx="12.954" ry="1.083" transform="translate(253.629 201.796)" fill="#6c63ff" opacity="0.1"></ellipse><path id="Path_2598" data-name="Path 2598" d="M961.466,730.868a5.406,5.406,0,0,0-.707,1.334c-.044.115-.084.248-.127.375a1.386,1.386,0,0,0-.248-.087,3.413,3.413,0,0,0-1.1-.093c0-.146.016-.295.022-.456.043-1.635-.149-3.916-1.709-2.948-1.5.931-.428,2.482.537,3.475.084.087.167.167.248.245-.878.621-1.049,2.088-1.194,3.612a8.439,8.439,0,0,1-2.3,4.136l-.245.264a3.14,3.14,0,0,0-2.482-.642c-.037-.133-.074-.273-.118-.419-.692-2.51-2.135-6.857-3.978-7.809.081-.1.161-.2.245-.31.782-1.024,1.66-2.541.36-2.929s-1.415,1.316-1.343,2.594a2.667,2.667,0,0,0,.037.456,1.908,1.908,0,0,0-1.362.664l-.2-.239c-1.055-1.241-2.991-3.218-3.574-1.725-.546,1.39,1.154,3.2,2.352,4.241l.078.065c-.807,3.261,2.7,5.92,4.592,7.083l.245.149c-2.606,3.072-4.213,8.83-4.213,8.83l7.3,1.3s4.837-4.176,4.22-8.1h.05c4.834-.968,5.935-6.125,5.182-9.187l.084-.034a5.476,5.476,0,0,0,2.24-1.694A1.8,1.8,0,0,0,961.466,730.868Z" transform="translate(-684.511 -562.152)" fill="#6c63ff"></path><path id="Path_2599" data-name="Path 2599" d="M961.466,730.868a5.406,5.406,0,0,0-.707,1.334c-.044.115-.084.248-.127.375a1.386,1.386,0,0,0-.248-.087,3.413,3.413,0,0,0-1.1-.093c0-.146.016-.295.022-.456.043-1.635-.149-3.916-1.709-2.948-1.5.931-.428,2.482.537,3.475.084.087.167.167.248.245-.878.621-1.049,2.088-1.194,3.612a8.439,8.439,0,0,1-2.3,4.136l-.245.264a3.14,3.14,0,0,0-2.482-.642c-.037-.133-.074-.273-.118-.419-.692-2.51-2.135-6.857-3.978-7.809.081-.1.161-.2.245-.31.782-1.024,1.66-2.541.36-2.929s-1.415,1.316-1.343,2.594a2.667,2.667,0,0,0,.037.456,1.908,1.908,0,0,0-1.362.664l-.2-.239c-1.055-1.241-2.991-3.218-3.574-1.725-.546,1.39,1.154,3.2,2.352,4.241l.078.065c-.807,3.261,2.7,5.92,4.592,7.083l.245.149c-2.606,3.072-4.213,8.83-4.213,8.83l7.3,1.3s4.837-4.176,4.22-8.1h.05c4.834-.968,5.935-6.125,5.182-9.187l.084-.034a5.476,5.476,0,0,0,2.24-1.694A1.8,1.8,0,0,0,961.466,730.868Z" transform="translate(-684.511 -562.152)" opacity="0.1"></path><path id="Path_2600" data-name="Path 2600" d="M947.905,735.741l-.853,2.482s-.475-.335-1.073-.863c-1.195-1.046-2.9-2.851-2.352-4.241.583-1.492,2.519.478,3.574,1.725C947.623,735.356,947.905,735.741,947.905,735.741Z" transform="translate(-685.477 -564.928)" fill="url(#linear-gradient-23)"></path><path id="Path_2601" data-name="Path 2601" d="M961.24,731.527a12.557,12.557,0,0,1-.832.98,12.11,12.11,0,0,1-.152-1.315c-.071-1.278.062-2.976,1.344-2.594S962.027,730.5,961.24,731.527Z" transform="translate(-697.009 -562.141)" fill="url(#linear-gradient-23)"></path><path id="Path_2602" data-name="Path 2602" d="M993.478,732.363c-.028.822-.109,1.48-.109,1.48a10.841,10.841,0,0,1-1.064-.953c-.965-1-2.032-2.547-.537-3.475C993.329,728.448,993.521,730.728,993.478,732.363Z" transform="translate(-718.242 -562.583)" fill="url(#linear-gradient-23)"></path><path id="Path_2603" data-name="Path 2603" d="M1006.293,736.536a5.488,5.488,0,0,1-2.237,1.694,6.981,6.981,0,0,1-.751.273l-1.005-1.412a9.982,9.982,0,0,1,.413-1.371,5.413,5.413,0,0,1,.707-1.334A1.8,1.8,0,0,1,1006.293,736.536Z" transform="translate(-726.019 -565.679)" fill="url(#linear-gradient-23)"></path><path id="Path_2604" data-name="Path 2604" d="M952.662,739.92c.422.5.7.881.7.881l-.853,2.482s-.475-.335-1.074-.863a4.9,4.9,0,0,1,.962-2.194Q952.524,740.067,952.662,739.92Z" transform="translate(-690.939 -569.988)" opacity="0.1"></path><path id="Path_2605" data-name="Path 2605" d="M961.274,737.415a12.616,12.616,0,0,1-.832.98,12.086,12.086,0,0,1-.152-1.315A1.722,1.722,0,0,1,961.274,737.415Z" transform="translate(-697.043 -568.029)" opacity="0.1"></path><path id="Path_2606" data-name="Path 2606" d="M959.273,748.326l-2.122.931s-.465-.223-1.132-.639c-2.228-1.371-6.714-4.825-3.723-8.9s5.513,3.23,6.515,6.8C959.106,747.594,959.273,748.326,959.273,748.326Z" transform="translate(-690.842 -569.024)" fill="url(#linear-gradient-23)"></path><path id="Path_2607" data-name="Path 2607" d="M995.15,739.957a1.738,1.738,0,0,1,1.173-.527c-.028.822-.109,1.48-.109,1.48A10.816,10.816,0,0,1,995.15,739.957Z" transform="translate(-721.087 -569.65)" opacity="0.1"></path><path id="Path_2608" data-name="Path 2608" d="M1004.1,742.78a6.954,6.954,0,0,1-.751.273l-1.005-1.412a10.016,10.016,0,0,1,.413-1.371A3.724,3.724,0,0,1,1004.1,742.78Z" transform="translate(-726.046 -570.229)" opacity="0.1"></path><path id="Path_2609" data-name="Path 2609" d="M981.511,752.394c-.118.025-.239.047-.36.062-7.111,1.083-2.346-2.755-2.346-2.755s.31-.295.757-.779a8.354,8.354,0,0,0,2.3-4.136c.223-2.305.481-4.468,3.2-3.835S988.237,751.045,981.511,752.394Z" transform="translate(-708.735 -570.623)" fill="url(#linear-gradient-23)"></path><rect id="Rectangle_461" data-name="Rectangle 461" width="13.593" height="3.574" transform="translate(259.043 199.485)" fill="#d4dfec"></rect><rect id="Rectangle_462" data-name="Rectangle 462" width="17.76" height="12.473" transform="translate(256.881 187.868)" fill="#d4dfec"></rect><rect id="Rectangle_463" data-name="Rectangle 463" width="13.593" height="3.574" transform="translate(259.043 199.485)" opacity="0.1"></rect><rect id="Rectangle_464" data-name="Rectangle 464" width="17.76" height="12.473" transform="translate(256.881 187.868)" opacity="0.1"></rect><rect id="Rectangle_465" data-name="Rectangle 465" width="13.593" height="3.574" transform="translate(259.937 199.485)" fill="#d4dfec"></rect><path id="Path_2610" data-name="Path 2610" d="M969.282,764.32c.31,1.067.462,1.8.462,1.8l-2.122.931s-.465-.223-1.133-.639A5.461,5.461,0,0,1,969.282,764.32Z" transform="translate(-701.319 -586.818)" opacity="0.1"></path><path id="Path_2611" data-name="Path 2611" d="M981.511,770.362c-.118.025-.239.047-.36.062-7.111,1.083-2.346-2.755-2.346-2.755s.31-.295.757-.779A4.732,4.732,0,0,1,981.511,770.362Z" transform="translate(-708.735 -588.59)" opacity="0.1"></path><path id="Path_2612" data-name="Path 2612" d="M953.7,776.185s3.984-14.272,9.569-9.87S961,777.485,961,777.485Z" transform="translate(-692.497 -587.612)" fill="url(#linear-gradient-23)"></path><circle id="Ellipse_204" data-name="Ellipse 204" cx="0.447" cy="0.447" r="0.447" transform="translate(262.766 172.492)" fill="#6c63ff" opacity="0.732"></circle><circle id="Ellipse_205" data-name="Ellipse 205" cx="0.447" cy="0.447" r="0.447" transform="translate(262.729 174.577)" fill="#6c63ff" opacity="0.732"></circle><circle id="Ellipse_206" data-name="Ellipse 206" cx="0.447" cy="0.447" r="0.447" transform="translate(275.686 172.901)" fill="#6c63ff" opacity="0.732"></circle><circle id="Ellipse_207" data-name="Ellipse 207" cx="0.447" cy="0.447" r="0.447" transform="translate(265.261 183.587)" fill="#6c63ff" opacity="0.732"></circle><circle id="Ellipse_208" data-name="Ellipse 208" cx="0.447" cy="0.447" r="0.447" transform="translate(274.755 176.364)" fill="#6c63ff" opacity="0.732"></circle><circle id="Ellipse_209" data-name="Ellipse 209" cx="0.447" cy="0.447" r="0.447" transform="translate(270.138 180.98)" fill="#6c63ff" opacity="0.732"></circle><circle id="Ellipse_210" data-name="Ellipse 210" cx="0.447" cy="0.447" r="0.447" transform="translate(264.293 173.385)" fill="#6c63ff" opacity="0.732"></circle><circle id="Ellipse_211" data-name="Ellipse 211" cx="0.447" cy="0.447" r="0.447" transform="translate(274.457 174.241)" fill="#6c63ff" opacity="0.732"></circle><circle id="Ellipse_212" data-name="Ellipse 212" cx="0.447" cy="0.447" r="0.447" transform="translate(272.931 177.704)" fill="#6c63ff" opacity="0.732"></circle><circle id="Ellipse_213" data-name="Ellipse 213" cx="0.447" cy="0.447" r="0.447" transform="translate(268.239 183.252)" fill="#6c63ff" opacity="0.732"></circle><circle id="Ellipse_214" data-name="Ellipse 214" cx="0.447" cy="0.447" r="0.447" transform="translate(267.271 181.055)" fill="#6c63ff" opacity="0.732"></circle><circle id="Ellipse_215" data-name="Ellipse 215" cx="0.447" cy="0.447" r="0.447" transform="translate(264.963 176.103)" fill="#6c63ff" opacity="0.732"></circle><rect id="Rectangle_466" data-name="Rectangle 466" width="13.593" height="1.306" transform="translate(259.937 199.485)" opacity="0.1"></rect><rect id="Rectangle_467" data-name="Rectangle 467" width="17.76" height="12.473" transform="translate(257.777 187.868)" fill="#d4dfec"></rect><circle id="Ellipse_216" data-name="Ellipse 216" cx="0.447" cy="0.447" r="0.447" transform="translate(268.835 185.262)" fill="#6c63ff" opacity="0.732"></circle><circle id="Ellipse_217" data-name="Ellipse 217" cx="0.447" cy="0.447" r="0.447" transform="translate(266.154 185.821)" fill="#6c63ff" opacity="0.732"></circle><path id="Path_2613" data-name="Path 2613" d="M746.136,483.782a2.193,2.193,0,0,1-.583-1.551c0-.146-.022-.289-.028-.425a1.552,1.552,0,0,0,.431-.391c.735-1.042-1.021-4.825-1.021-4.825a5.984,5.984,0,0,0,0-3.674,8.022,8.022,0,0,0-.99-2.029s-2.3-4.716-1.955-5.274-.568-4.964-1.241-5.849a12.909,12.909,0,0,0-.906-1.1,6.387,6.387,0,0,0-.85-3.413,28.72,28.72,0,0,1-2.038-5.647,34.543,34.543,0,0,0-2.038-5.275,5.9,5.9,0,0,0-1.241-1.275c.133-.621.441-1.443-.441-6.308-.36-2,.2-3.19.664-5.166s.363-4.263-1.055-5.755-3.618-1.772-5.377-2.792c-1.551-.9-2.932-2.414-4.744-2.386a4.9,4.9,0,0,0-2.553.729c-2.119.863-4.5.6-6.655,1.316-1.936.642-4.4,2.752-3.81,4.989a2.45,2.45,0,0,0,.714,1.328,1.605,1.605,0,0,0,1.5.27.2.2,0,0,1-.022.109,5.715,5.715,0,0,0-.075.931,6.13,6.13,0,0,0,6.184,6.031c.019.071.034.146.053.22.047.2.09.4.133.6-.161.214-.329.428-.487.642a6.233,6.233,0,0,0-.931,1.654c-1.793.366-4.8.959-5.275,1.734-.62,1.042-3.171,6.205-2.888,8.554.016.13.028.31.04.5a29.714,29.714,0,0,0-1.8,3.67c-.226.878-.735,4.167-1.7,4.933s-2.944,3.236-2.662,3.723-2.662,1.1-2.662,1.1-1.979.766-1.862,1.371c.034.183-.105.357-.31.524-2.253-.742-5.122-1.241-7.347-.112-3.1,1.573,2.339,2.656,5.585,3.131.534.081,1.005.143,1.371.186.025.106.127.2.388.289.2.071.509.183.863.31l.13-.4c1.077.382,4.015,1.57,4.015,1.57s2.55.416,3.286-1.064A13.415,13.415,0,0,1,708.033,467l-.1.332-2.147,7.083s-3.4,5.274-3.227,6.413-1.077,4.058-1.359,4.344-3.1,8.607-4.589,9.156-3.456,2.467-2.792,3.072,3.413,2.575,4.654,1.917,3.413.549,3.413.549a8.243,8.243,0,0,1,4.313.54c.022.214.047.447.071.692a27.018,27.018,0,0,0,.881,5.181c.568,1.207,1.077,3.345.62,4.167s.4,16.5,1.241,19.19c.664,2.1,1.573,5.489,1.418,7.7-.093,1.343-.149,2.687-.158,4.033v.223c0,.074-.053.118-.078.18v.121a11.129,11.129,0,0,0-.493,1.43s-1.461,3.674-.968,4.632a.859.859,0,0,0,.233.27,6.733,6.733,0,0,0,3.1.711l-.028.931h.835s.022-.931.078-2.091a5.7,5.7,0,0,0,.36-2.041,8.349,8.349,0,0,1,.745-3.528s.019-.1.037-.251h0a6.227,6.227,0,0,0,.053-.965,3.411,3.411,0,0,0-.31-1.641,3.7,3.7,0,0,1,.062-1c.226-.822-.341-6.578-.341-6.578l.962-10.583s.568-8.169.341-10.307a6.792,6.792,0,0,1,.04-1.719,55.482,55.482,0,0,0,.621-7.018c0-.22,0-.437,0-.658,2.06.707,5.554.127,5.554.127s.813-.019,1.893,0c.028.223.059.444.09.658a12.279,12.279,0,0,0,.562,2.609c.565,1.207,1.077,3.345.62,4.167s.394,16.5,1.241,19.19c.667,2.1,1.576,5.485,1.421,7.7-.093,1.34-.149,2.684-.158,4.033v.248c-.028.059-.056.118-.081.18s0,.084,0,.121a11.306,11.306,0,0,0-.468,1.436s-1.464,3.677-.968,4.635a.817.817,0,0,0,.233.267,6.7,6.7,0,0,0,3.1.71l-.028.931h.835s.022-.931.078-2.091a5.7,5.7,0,0,0,.36-2.042,8.376,8.376,0,0,1,.732-3.528,6.44,6.44,0,0,0,.09-1.21,3.4,3.4,0,0,0-.326-1.651,3.815,3.815,0,0,1,.062-1c.227-.822-.338-6.581-.338-6.581l.962-10.58s.568-8.169.338-10.307a6.934,6.934,0,0,1,.043-1.719,55.306,55.306,0,0,0,.621-6.668v-.667c.2-.251.62-.45,1.769-.835,1.983-.658,5.948-3.95,7.533-4.167s3-1.263,2.547-2.085-2.944-1.371-2.718-2.631-1.53-2.029-2.321-4.111-4.251-3.723-4.306-5.275-3.264-6.292-3.264-6.292-3.224-5.361-3.937-8.638a1.155,1.155,0,0,0-.04-.211h.04a5.934,5.934,0,0,1-.118-.745,1.154,1.154,0,0,1,.028-.211h-.043v-.14a.507.507,0,0,1,.068-.043l.186-.109-.062.025a6.141,6.141,0,0,0,1.027-.838,4.562,4.562,0,0,0,1.182-1.651,8.377,8.377,0,0,0,.462-2.172l.4-.621c.391,1.635.962,3.981,1.142,4.505a45.715,45.715,0,0,1,2.042,6.813,23.142,23.142,0,0,0,2.482,6.416s2.889,3.782,5.1,3.947.965.766,1.3.878l.1.022.034.444.1,1.288s2.265,9.212,4.815,7.9S746.98,484.384,746.136,483.782Z" transform="translate(-510.196 -349.776)" fill="url(#linear-gradient-30)"></path><path id="Path_2614" data-name="Path 2614" d="M862.349,624.8c-2.451,1.309-4.629-7.837-4.629-7.837l-.093-1.281-.177-2.423,2.994.382a9.148,9.148,0,0,0,0,1.573,2.215,2.215,0,0,0,.562,1.53C861.8,617.346,864.8,623.5,862.349,624.8Z" transform="translate(-626.11 -482.626)" fill="#e2a28e"></path><path id="Path_2615" data-name="Path 2615" d="M754.21,822.248l.208-.158A1.118,1.118,0,0,1,754.21,822.248Z" transform="translate(-554.902 -626.664)" fill="#a1616a"></path><path id="Path_2616" data-name="Path 2616" d="M753.884,660.64V667.7a57.08,57.08,0,0,1-.62,6.972,6.965,6.965,0,0,0-.04,1.7c.217,2.125-.31,10.239-.31,10.239l-.931,10.509s.543,5.715.31,6.516a3.95,3.95,0,0,0-.059,1c.031.931.192,2.125.245,2.482v.109l-.034.025-4.552,3.472c.726-.661.912-2.2.909-3.627v-.465q0-2,.155-4c.149-2.194-.726-5.554-1.365-7.645-.816-2.665-1.635-18.237-1.2-19.053s-.056-2.941-.6-4.139a28.526,28.526,0,0,1-.816-5.141c-.118-1.129-.189-1.986-.189-1.986Z" transform="translate(-548.405 -515.306)" fill="#e2a28e"></path><path id="Path_2617" data-name="Path 2617" d="M805.26,817.728l.223-.167A1.33,1.33,0,0,1,805.26,817.728Z" transform="translate(-590.113 -623.539)" fill="#a1616a"></path><path id="Path_2618" data-name="Path 2618" d="M804.913,656.14v7.406a57.122,57.122,0,0,1-.6,6.624,6.966,6.966,0,0,0-.04,1.7c.217,2.125-.31,10.239-.31,10.239l-.931,10.509a54.756,54.756,0,0,1,.329,6.516,3.793,3.793,0,0,0-.059.993c.031.931.2,2.144.245,2.482a.268.268,0,0,0,.016.1l-.034.025h0l-4.558,3.472c.7-.676.887-2.2.884-3.605v-.469c0-1.334.062-2.668.152-4,.146-2.193-.726-5.551-1.365-7.642-.819-2.665-1.635-18.237-1.2-19.053s-.056-2.941-.6-4.139a12.432,12.432,0,0,1-.543-2.591c-.289-2.073-.493-4.539-.493-4.539Z" transform="translate(-583.595 -512.202)" fill="#e2a28e"></path><path id="Path_2619" data-name="Path 2619" d="M785.066,454.447l-.047.071A5.976,5.976,0,0,1,780.877,457a5.148,5.148,0,0,1-.729.05c-.019-.074-.034-.149-.053-.22-.357-1.551-.735-2.792-.735-2.792s.406-.586,1-1.334c1.61-2.035,4.576-5.253,4.344-.953a7.378,7.378,0,0,0,.31,2.578A.351.351,0,0,1,785.066,454.447Z" transform="translate(-572.249 -369.76)" opacity="0.1"></path><path id="Path_2620" data-name="Path 2620" d="M774.556,440.189a5.985,5.985,0,0,1-5.253,5.942,5.8,5.8,0,0,1-.738.047h-.044a5.988,5.988,0,1,1,6.035-5.988Z" transform="translate(-560.675 -359.122)" fill="#e2a28e"></path><path id="Path_2621" data-name="Path 2621" d="M791.911,468.269l-5.808,4.964s-6.333-9.035-5.585-10.887a6.229,6.229,0,0,0,.059-2.758c-.084-.621-.2-1.306-.341-1.952-.04-.2-.084-.4-.127-.6-.019-.074-.034-.149-.053-.22-.357-1.551-.735-2.792-.735-2.792s.406-.586,1-1.334c1.61-2.035,4.577-5.253,4.344-.953a7.371,7.371,0,0,0,.31,2.578.423.423,0,0,0,.047.146,13.353,13.353,0,0,0,4.381,5.821,17.349,17.349,0,0,0,2,1.421Z" transform="translate(-572.221 -369.753)" fill="#e3937a"></path><path id="Path_2622" data-name="Path 2622" d="M744.79,664.664l9.094-4.034v7.059a3.136,3.136,0,0,1-.59-.276c-1.8-1.111-4.033-.248-4.192-.248a4.767,4.767,0,0,1-3.866-.382c-.084-.05-.168-.1-.248-.137C744.855,665.52,744.79,664.664,744.79,664.664Z" transform="translate(-548.405 -515.299)" opacity="0.1"></path><path id="Path_2623" data-name="Path 2623" d="M804.961,656.14v7.406a3.324,3.324,0,0,0-.31.686c-.329.763-2.56,1.036-4.521.714a28.011,28.011,0,0,0-3.757-.236c-.288-2.073-.493-4.539-.493-4.539Z" transform="translate(-583.644 -512.202)" opacity="0.1"></path><path id="Path_2624" data-name="Path 2624" d="M752.218,537.622c-1.526.217-5.337,3.484-7.242,4.139s-1.688.76-2.014,1.523-2.56,1.033-4.52.711a40.562,40.562,0,0,0-5.662-.22s-4.123.714-5.932-.406-4.033-.248-4.192-.248a4.766,4.766,0,0,1-3.866-.382,7.42,7.42,0,0,0-4.465-.707s-2.069-1.2-3.267-.543-3.81-1.306-4.465-1.905,1.241-2.5,2.668-3.05,4.139-8.821,4.409-9.091a10.052,10.052,0,0,0,1.306-4.3c-.164-1.142,3.1-6.373,3.1-6.373l2.066-7.031.621-2.172.025-1.294c0-.583.028-1.331.043-2.172.056-3.475.115-8.628,0-10.958-.019-.36-.037-.652-.062-.863-.273-2.339,2.172-7.446,2.777-8.492.447-.773,3.338-1.359,5.06-1.722a11.075,11.075,0,0,0,1.216-.292,1.423,1.423,0,0,1,.478-.037c1.626.065,6.419,1.07,6.419,1.07-.434,13.121.438,10.834.438,10.834,1.415-1.089.543-10.726.543-10.726.707.326,1.43-.493,1.43-.493l2.761,1.145a27.33,27.33,0,0,1,2.436,1.648,7.344,7.344,0,0,1,1.7,1.675A34.836,34.836,0,0,1,748,492.118l-.98,1.551c-.856,1.374-2.172,3.487-3.521,5.628l-2.4,3.813c-1.07,1.7-1.942,3.081-2.305,3.643a1.359,1.359,0,0,0-.171.438,2.278,2.278,0,0,0-.04.31,4.879,4.879,0,0,0,.127,1.291c.686,3.252,3.785,8.579,3.785,8.579s3.1,4.735,3.158,6.258,3.376,3.158,4.139,5.228,2.448,2.83,2.231,4.083,2.172,1.8,2.612,2.613S753.741,537.4,752.218,537.622Z" transform="translate(-521.967 -391.906)" fill="url(#linear-gradient-31)"></path><path id="Path_2625" data-name="Path 2625" d="M860.438,615.215a4.721,4.721,0,0,1-2.811.468l-.177-2.423,2.994.382A9.148,9.148,0,0,0,860.438,615.215Z" transform="translate(-626.11 -482.626)" opacity="0.1"></path><path id="Path_2626" data-name="Path 2626" d="M823.45,510.09l2.234,1.579a28.994,28.994,0,0,0,1.958,5.606,6.482,6.482,0,0,1,.816,3.376,11.76,11.76,0,0,1,.872,1.089c.655.872,1.523,5.243,1.2,5.808s1.88,5.243,1.88,5.243a7.079,7.079,0,0,1,.953,2.014,6.216,6.216,0,0,1,0,3.649s1.688,3.757.98,4.79-3,.931-3.323.816.872-.707-1.241-.872-4.9-3.919-4.9-3.919a23.406,23.406,0,0,1-2.4-6.37,46.882,46.882,0,0,0-1.958-6.751c-.273-.816-1.471-6.1-1.471-6.1Z" transform="translate(-599.625 -411.466)" fill="url(#linear-gradient-31)"></path><path id="Path_2627" data-name="Path 2627" d="M775.608,510.09s-.165,12.631-1.688,15.135Z" transform="translate(-568.497 -411.466)" opacity="0.1"></path><path id="Path_2628" data-name="Path 2628" d="M801.689,524.48s-1.415,12.631-2.532,13.282S801.689,524.48,801.689,524.48Z" transform="translate(-585.757 -421.391)" opacity="0.1"></path><path id="Path_2629" data-name="Path 2629" d="M795.377,518.69s-.344,11.911-2.141,13.087S795.377,518.69,795.377,518.69Z" transform="translate(-581.496 -417.398)" opacity="0.1"></path><path id="Path_2630" data-name="Path 2630" d="M746.274,591.33s-2.253,6.587-2,9.308S746.274,591.33,746.274,591.33Z" transform="translate(-548.036 -467.5)" opacity="0.1"></path><path id="Path_2631" data-name="Path 2631" d="M770.633,559.928c-2.948.661-10.921,1.846-17.933-2.516,0-.583.028-1.331.044-2.172,2.662,1.464,10.139,5.274,13.946,4.207,1.9-.543,3.1-.887,3.857-1.111a4.1,4.1,0,0,0,.087,1.592Z" transform="translate(-553.861 -442.608)" opacity="0.1"></path><path id="Path_2632" data-name="Path 2632" d="M770.633,557.828c-2.948.658-10.921,1.843-17.933-2.516,0-.583.028-1.334.044-2.172,2.662,1.464,10.139,5.275,13.946,4.207,1.9-.54,3.1-.887,3.857-1.108A4.1,4.1,0,0,0,770.633,557.828Z" transform="translate(-553.861 -441.159)" opacity="0.1"></path><path id="Path_2633" data-name="Path 2633" d="M770.633,558.578c-2.948.658-10.921,1.843-17.933-2.516,0-.583.028-1.331.044-2.172,2.662,1.464,10.139,5.274,13.946,4.207,1.9-.54,3.1-.887,3.857-1.108A4.1,4.1,0,0,0,770.633,558.578Z" transform="translate(-553.861 -441.677)" fill="#605d82"></path><path id="Path_2634" data-name="Path 2634" d="M770.633,558.578c-2.948.658-10.921,1.843-17.933-2.516,0-.583.028-1.331.044-2.172,2.662,1.464,10.139,5.274,13.946,4.207,1.9-.54,3.1-.887,3.857-1.108A4.1,4.1,0,0,0,770.633,558.578Z" transform="translate(-553.861 -441.677)" opacity="0.1"></path><path id="Path_2635" data-name="Path 2635" d="M759.45,803.236a.515.515,0,0,1-.019.133l-4.552,3.472c.726-.661.912-2.2.909-3.627v-.465a9.185,9.185,0,0,1,1.682-2.687,1.4,1.4,0,0,1,1.551.351v.1a1.419,1.419,0,0,1,.161.242A4.416,4.416,0,0,1,759.45,803.236Z" transform="translate(-555.364 -611.415)" opacity="0.1"></path><path id="Path_2636" data-name="Path 2636" d="M760.835,801.959l-3.435,2.358s.022-.276.053-.683a9.4,9.4,0,0,1,1.759-2.87,1.4,1.4,0,0,1,1.551.351C760.791,801.624,760.835,801.959,760.835,801.959Z" transform="translate(-557.102 -611.9)" opacity="0.1"></path><path id="Path_2637" data-name="Path 2637" d="M757.912,804.287a8.564,8.564,0,0,0-.714,3.506,5.412,5.412,0,0,1-.729,2.827,2.432,2.432,0,0,1-.239.344s-2.386-.018-3.221-.71a.814.814,0,0,1-.23-.264c-.478-.953.931-4.6.931-4.6a10.116,10.116,0,0,1,2.24-4.316C758.629,800.372,757.912,804.287,757.912,804.287Z" transform="translate(-553.848 -612.11)" fill="#5a5773"></path><path id="Path_2638" data-name="Path 2638" d="M757.2,820.4a2.42,2.42,0,0,1-.239.345s-2.386-.019-3.221-.711c.409-1.359,1.722-5.47,2.333-4.772S757.054,819.09,757.2,820.4Z" transform="translate(-554.578 -621.901)" opacity="0.1"></path><path id="Path_2639" data-name="Path 2639" d="M763.464,815.542,763.3,821.7h.8s.127-5.4.487-6.162S763.464,815.542,763.464,815.542Z" transform="translate(-561.172 -621.915)" fill="#5a5773"></path><path id="Path_2640" data-name="Path 2640" d="M810.548,798.745l-.019.127h0L806,802.319c.7-.676.887-2.2.884-3.605v-.468a9.174,9.174,0,0,1,1.678-2.684,1.435,1.435,0,0,1,1.567.348v.1a1.3,1.3,0,0,1,.161.239A4.507,4.507,0,0,1,810.548,798.745Z" transform="translate(-590.624 -608.311)" opacity="0.1"></path><path id="Path_2641" data-name="Path 2641" d="M811.885,797.451l-3.434,2.361s.022-.276.056-.682a9.308,9.308,0,0,1,1.756-2.87,1.409,1.409,0,0,1,1.567.35C811.841,797.119,811.885,797.451,811.885,797.451Z" transform="translate(-592.314 -608.791)" opacity="0.1"></path><path id="Path_2642" data-name="Path 2642" d="M808.981,799.785a8.512,8.512,0,0,0-.717,3.506,5.412,5.412,0,0,1-.729,2.827,2.687,2.687,0,0,1-.239.344s-2.386-.019-3.22-.711a.855.855,0,0,1-.223-.267c-.475-.953.931-4.6.931-4.6a10.118,10.118,0,0,1,2.24-4.316C809.695,795.876,808.981,799.785,808.981,799.785Z" transform="translate(-589.075 -609.003)" fill="#5a5773"></path><path id="Path_2643" data-name="Path 2643" d="M808.249,815.925a2.69,2.69,0,0,1-.239.344s-2.386-.019-3.221-.71c.409-1.359,1.722-5.473,2.333-4.775S808.1,814.6,808.249,815.925Z" transform="translate(-589.789 -618.811)" opacity="0.1"></path><path id="Path_2644" data-name="Path 2644" d="M814.518,811.042l-.168,6.159h.8s.127-5.4.487-6.159S814.518,811.042,814.518,811.042Z" transform="translate(-596.383 -618.811)" fill="#5a5773"></path><path id="Path_2645" data-name="Path 2645" d="M786.129,462.572a3.853,3.853,0,0,1-2.37,3.667c-.434.133-.9.164-1.34.254a2.878,2.878,0,0,0-.621.189,3.356,3.356,0,0,0-1.62,2.553c-.068.354-.112.711-.155,1.07a7.689,7.689,0,0,1-.425,2.007,5.082,5.082,0,0,1-2.091,2.383,13.466,13.466,0,0,1-3.472,1.452,7.8,7.8,0,0,0,.931-6.485c-.2-.636-.62-1.347-1.294-1.328-.524.016-.9.481-1.291.835-1.924,1.731-4.933.959-7.369.087a15.67,15.67,0,0,0,2.932-17.186,5.674,5.674,0,0,1-.534-1.387,2.892,2.892,0,0,1,.133-1.433,6.356,6.356,0,0,1,.881-1.641c.152-.214.31-.425.472-.639.208-.282.416-.568.6-.863a4.743,4.743,0,0,0,.62-1.343,2.285,2.285,0,0,0-1.132-2.749l-.056-.022a3.626,3.626,0,0,1-2.249-1.365c-.515-.6-.807-1.551-1.688-1.728a5.072,5.072,0,0,0-2.144.344,5.991,5.991,0,1,1,10.8,4.4,13.2,13.2,0,0,0,4.428,5.966l2.761,1.145a27.316,27.316,0,0,1,2.436,1.647,35.623,35.623,0,0,0,1.756,5.675,19.988,19.988,0,0,1,.931,2.792A6.873,6.873,0,0,1,786.129,462.572Z" transform="translate(-560.862 -359.102)" opacity="0.1"></path><path id="Path_2646" data-name="Path 2646" d="M764.2,433.769a2.268,2.268,0,0,1,1.188,2.771,9.265,9.265,0,0,1-1.685,2.845,4.25,4.25,0,0,0-1.018,3.075,5.664,5.664,0,0,0,.534,1.387,15.7,15.7,0,0,1-2.932,17.186c2.435.872,5.448,1.644,7.369-.087.391-.354.766-.819,1.291-.835.667-.022,1.1.692,1.294,1.328a7.8,7.8,0,0,1-.931,6.481c2.243-.652,4.707-1.66,5.566-3.832a16.415,16.415,0,0,0,.577-3.081,3.35,3.35,0,0,1,1.62-2.55,16.157,16.157,0,0,1,1.961-.444,3.85,3.85,0,0,0,2.371-3.667,11.963,11.963,0,0,0-1.117-4.5c-3.1-8.067-.186-1.6-1.886-11.312-.348-1.983.2-3.168.639-5.129s.348-4.232-1.015-5.715-3.478-1.759-5.169-2.764c-1.5-.894-2.817-2.4-4.561-2.37a4.575,4.575,0,0,0-2.454.723c-2.039.856-4.325.6-6.4,1.306-1.862.639-4.226,2.73-3.661,4.964.76,3.006,2.845.794,4.471,1.132.881.186,1.173,1.123,1.688,1.728A3.726,3.726,0,0,0,764.2,433.769Z" transform="translate(-555.927 -351.093)" fill="#4a4347"></path><path id="Path_2647" data-name="Path 2647" d="M701.508,567.917s-.881-.093-2.066-.276c-3.1-.472-8.349-1.551-5.364-3.1,2.74-1.433,6.516-.217,8.725.757a19.347,19.347,0,0,1,1.837.931Z" transform="translate(-512.814 -448.568)" fill="#e2a28e"></path><path id="Path_2648" data-name="Path 2648" d="M757.577,499s-1.415,7.136-2.122,8.709-1.862,5.718-1.862,5.718-1.672,1.514-3.053,2.985l.621-2.172.025-1.294c0-.583.028-1.331.043-2.172.056-3.475.115-8.628,0-10.959.121-.227.2-.366.2-.366l1.1-1.747s1.8-4.79,2.83-6.153S757.577,499,757.577,499Z" transform="translate(-552.371 -398.581)" opacity="0.1"></path><path id="Path_2649" data-name="Path 2649" d="M717.182,568.695s-.158.62-.425,1.458c-.338-.136-.62-.245-.828-.31-.931-.31.164-.707-.109-1.523-.233-.7-.664-.481-1.16-.676a13.556,13.556,0,0,1,1.052-1.263Z" transform="translate(-527.623 -450.291)" opacity="0.1"></path><path id="Path_2650" data-name="Path 2650" d="M728.618,497.7l-1.1,1.747a32.947,32.947,0,0,0-1.728,3.63c-.233.859-.7,4.148-1.629,4.911s-2.833,3.211-2.56,3.7-2.56,1.089-2.56,1.089-1.905.763-1.8,1.362-1.579,1.089-.98,1.523,1.145,0,1.418.816-.819,1.2.109,1.526,3.974,1.6,3.974,1.6,2.448.413,3.155-1.058,4.738-5.116,4.738-5.116a58.821,58.821,0,0,1,1.862-5.718c.72-1.579,2.125-8.709,2.125-8.709s-1.145-8.821-2.172-7.446A42.01,42.01,0,0,0,728.618,497.7Z" transform="translate(-528.64 -398.583)" fill="url(#linear-gradient-31)"></path><path id="Path_2651" data-name="Path 2651" d="M738.915,556.94s-5.389.707-2.5,1.905,3.866,0,3.866,0Z" transform="translate(-542.04 -443.78)" opacity="0.1"></path><path id="Path_2652" data-name="Path 2652" d="M724.79,566.646s3.158-.652,3.975,0S724.79,566.646,724.79,566.646Z" transform="translate(-534.61 -450.275)" opacity="0.1"></path><path id="Path_2653" data-name="Path 2653" d="M723.74,572.021s.217-.546,1.306,0S723.74,572.021,723.74,572.021Z" transform="translate(-533.886 -454.014)" opacity="0.1"></path><path id="Path_2654" data-name="Path 2654" d="M838.58,589.32s.329,4.964,1.666,5.126S838.58,589.32,838.58,589.32Z" transform="translate(-613.095 -466.114)" opacity="0.1"></path><path id="Path_2655" data-name="Path 2655" d="M844.2,553.1a1.551,1.551,0,0,1-1.194,1.79C841.589,555.163,844.2,553.1,844.2,553.1Z" transform="translate(-615.859 -441.132)" opacity="0.1"></path><path id="Path_2656" data-name="Path 2656" d="M795.85,600.69s-.071,15.318,3.05,17.2Z" transform="translate(-583.622 -473.956)" opacity="0.1"></path><path id="Path_2657" data-name="Path 2657" d="M809.18,602.8s-.056,15.315,3.047,17.2Z" transform="translate(-592.817 -475.412)" opacity="0.1"></path><path id="Path_2658" data-name="Path 2658" d="M755.72,709.58a11.466,11.466,0,0,1,2.125,0C759.027,709.677,755.72,709.58,755.72,709.58Z" transform="translate(-555.944 -549.028)" opacity="0.1"></path><path id="Path_2659" data-name="Path 2659" d="M755.72,713.031a11.488,11.488,0,0,1,2.125,0C759.027,713.139,755.72,713.031,755.72,713.031Z" transform="translate(-555.944 -551.408)" opacity="0.1"></path><path id="Path_2660" data-name="Path 2660" d="M807.77,705.531a11.466,11.466,0,0,1,2.125,0C811.077,705.642,807.77,705.531,807.77,705.531Z" transform="translate(-591.844 -546.234)" opacity="0.1"></path><path id="Path_2661" data-name="Path 2661" d="M808.94,708.291a11.476,11.476,0,0,1,2.125,0C812.244,708.4,808.94,708.291,808.94,708.291Z" transform="translate(-592.651 -548.138)" opacity="0.1"></path><g id="Group_609" data-name="Group 609" transform="translate(199.834 73.666)" opacity="0.1"><path id="Path_2662" data-name="Path 2662" d="M761.576,465.386a15.669,15.669,0,0,0,2.932-17.186,5.669,5.669,0,0,1-.534-1.387,4.236,4.236,0,0,1,1.018-3.075,9.141,9.141,0,0,0,1.685-2.845,2.266,2.266,0,0,0-1.188-2.768,3.63,3.63,0,0,1-2.249-1.368c-.515-.6-.807-1.551-1.688-1.725-1.626-.338-3.723,1.862-4.471-1.136-.428-1.682.822-3.289,2.265-4.247-1.8.748-3.888,2.733-3.354,4.834.76,3.006,2.845.8,4.471,1.136.881.183,1.173,1.123,1.688,1.725a3.639,3.639,0,0,0,2.249,1.368,2.263,2.263,0,0,1,1.188,2.768,9.263,9.263,0,0,1-1.685,2.845,4.253,4.253,0,0,0-1.018,3.078,5.7,5.7,0,0,0,.534,1.384,15.7,15.7,0,0,1-2.932,17.186c2.346.841,5.222,1.585,7.136.1C765.808,466.708,763.512,466.078,761.576,465.386Z" transform="translate(-755.906 -429.65)"></path><path id="Path_2663" data-name="Path 2663" d="M826.931,535.6a2.139,2.139,0,0,0-.62.428c.49-.121,1.008-.137,1.489-.289a2.792,2.792,0,0,0,1.011-.565A12.324,12.324,0,0,0,826.931,535.6Z" transform="translate(-804.466 -502.431)"></path><path id="Path_2664" data-name="Path 2664" d="M802.551,548.818a17.166,17.166,0,0,1-2.358.853,7.8,7.8,0,0,0,.931-6.481c-.2-.621-.621-1.35-1.294-1.331a1.654,1.654,0,0,0-1.03.59c.621.022,1.046.711,1.241,1.328a7.8,7.8,0,0,1-.931,6.482A13.626,13.626,0,0,0,802.551,548.818Z" transform="translate(-785.492 -507.044)"></path></g></g></g></svg> 