<?xml version="1.0" encoding="UTF-8"?> <svg xmlns="http://www.w3.org/2000/svg" xmlns:xlink="http://www.w3.org/1999/xlink" width="270.547" height="227.174" viewBox="0 0 270.547 227.174"><defs><linearGradient id="linear-gradient" x1="0.5" x2="0.5" y2="1" gradientUnits="objectBoundingBox"><stop offset="0" stop-color="#71bfff"></stop><stop offset="0.081" stop-color="#71bfff"></stop><stop offset="0.085" stop-color="#71bfff"></stop><stop offset="1" stop-color="#5a4dff"></stop></linearGradient><linearGradient id="linear-gradient-2" x1="0.5" x2="0" y2="1.216" gradientUnits="objectBoundingBox"><stop offset="0" stop-color="#71bfff"></stop><stop offset="0.01" stop-color="#71bfff"></stop><stop offset="1" stop-color="#5a4dff"></stop></linearGradient><linearGradient id="linear-gradient-3" x1="0.514" y1="0.779" x2="0.461" y2="-0.279" gradientUnits="objectBoundingBox"><stop offset="0" stop-color="#fff" stop-opacity="0"></stop><stop offset="0.95" stop-color="#fff"></stop></linearGradient><linearGradient id="linear-gradient-4" x1="0.246" y1="-0.202" x2="1.176" y2="1.267" gradientUnits="objectBoundingBox"><stop offset="0.01" stop-color="#71bfff"></stop><stop offset="1" stop-color="#5a4dff"></stop></linearGradient><linearGradient id="linear-gradient-5" x1="0.489" y1="-0.969" x2="0.508" y2="1.545" gradientUnits="objectBoundingBox"><stop offset="0" stop-color="#fff" stop-opacity="0"></stop><stop offset="0.95" stop-color="#71bfff"></stop><stop offset="1" stop-color="#5a4dff"></stop></linearGradient><linearGradient id="linear-gradient-6" x1="0.871" y1="-0.163" x2="0.181" y2="1.38" xlink:href="#linear-gradient"></linearGradient><linearGradient id="linear-gradient-7" x2="-0.36" y2="1.7" xlink:href="#linear-gradient"></linearGradient><linearGradient id="linear-gradient-8" x1="0.521" y1="1.133" x2="0.467" y2="-0.473" xlink:href="#linear-gradient-3"></linearGradient><linearGradient id="linear-gradient-9" x2="-0.146" y2="1.991" xlink:href="#linear-gradient"></linearGradient><linearGradient id="linear-gradient-10" x1="2.944" y1="98.494" x2="2.889" y2="58.447" gradientUnits="objectBoundingBox"><stop offset="0" stop-color="#fff" stop-opacity="0"></stop><stop offset="0.99" stop-color="#fff"></stop></linearGradient><linearGradient id="linear-gradient-11" x1="4.508" y1="103.127" x2="4.417" y2="60.38" xlink:href="#linear-gradient-10"></linearGradient><linearGradient id="linear-gradient-12" x1="1.774" y1="101.862" x2="1.745" y2="59.469" xlink:href="#linear-gradient-10"></linearGradient><linearGradient id="linear-gradient-13" x1="2.762" y1="101.402" x2="2.711" y2="59.017" xlink:href="#linear-gradient-10"></linearGradient><linearGradient id="linear-gradient-14" x1="3.419" y1="95.688" x2="3.353" y2="55.164" xlink:href="#linear-gradient-10"></linearGradient><linearGradient id="linear-gradient-15" x1="2.952" y1="92.542" x2="2.896" y2="52.494" xlink:href="#linear-gradient-10"></linearGradient><linearGradient id="linear-gradient-16" x1="3.424" y1="83.093" x2="3.358" y2="47.036" xlink:href="#linear-gradient-10"></linearGradient><linearGradient id="linear-gradient-17" x1="3.679" y1="96.751" x2="3.607" y2="54.004" xlink:href="#linear-gradient-10"></linearGradient><linearGradient id="linear-gradient-18" x1="2.04" y1="86.878" x2="2.005" y2="48.357" xlink:href="#linear-gradient-10"></linearGradient><linearGradient id="linear-gradient-19" x1="2.944" y1="77.791" x2="2.889" y2="37.743" xlink:href="#linear-gradient-10"></linearGradient><linearGradient id="linear-gradient-20" x1="4.508" y1="81.034" x2="4.417" y2="38.283" xlink:href="#linear-gradient-10"></linearGradient><linearGradient id="linear-gradient-21" x1="1.774" y1="79.946" x2="1.745" y2="37.552" xlink:href="#linear-gradient-10"></linearGradient><linearGradient id="linear-gradient-22" x1="2.762" y1="79.494" x2="2.711" y2="37.1" xlink:href="#linear-gradient-10"></linearGradient><linearGradient id="linear-gradient-23" x1="3.419" y1="74.752" x2="3.353" y2="34.224" xlink:href="#linear-gradient-10"></linearGradient><linearGradient id="linear-gradient-24" x1="2.952" y1="71.838" x2="2.896" y2="31.791" xlink:href="#linear-gradient-10"></linearGradient><linearGradient id="linear-gradient-25" x1="3.424" y1="64.456" x2="3.358" y2="28.399" xlink:href="#linear-gradient-10"></linearGradient><linearGradient id="linear-gradient-26" x1="3.679" y1="74.654" x2="3.607" y2="31.907" xlink:href="#linear-gradient-10"></linearGradient><linearGradient id="linear-gradient-27" x1="2.04" y1="66.969" x2="2.005" y2="28.445" xlink:href="#linear-gradient-10"></linearGradient><linearGradient id="linear-gradient-28" x1="2.944" y1="57.095" x2="2.889" y2="17.051" xlink:href="#linear-gradient-10"></linearGradient><linearGradient id="linear-gradient-29" x1="4.508" y1="58.941" x2="4.417" y2="16.19" xlink:href="#linear-gradient-10"></linearGradient><linearGradient id="linear-gradient-30" x1="1.774" y1="58.038" x2="1.745" y2="15.649" xlink:href="#linear-gradient-10"></linearGradient><linearGradient id="linear-gradient-31" x1="2.762" y1="57.586" x2="2.711" y2="15.192" xlink:href="#linear-gradient-10"></linearGradient><linearGradient id="linear-gradient-32" x1="3.419" y1="53.808" x2="3.353" y2="13.28" xlink:href="#linear-gradient-10"></linearGradient><linearGradient id="linear-gradient-33" x1="2.952" y1="51.146" x2="2.896" y2="11.099" xlink:href="#linear-gradient-10"></linearGradient><linearGradient id="linear-gradient-34" x1="3.424" y1="45.822" x2="3.358" y2="9.765" xlink:href="#linear-gradient-10"></linearGradient><linearGradient id="linear-gradient-35" x1="3.679" y1="52.561" x2="3.607" y2="9.81" xlink:href="#linear-gradient-10"></linearGradient><linearGradient id="linear-gradient-36" x1="2.04" y1="47.057" x2="2.005" y2="8.532" xlink:href="#linear-gradient-10"></linearGradient><linearGradient id="linear-gradient-37" x1="0.002" y1="0.501" x2="1" y2="0.501" gradientUnits="objectBoundingBox"><stop offset="0" stop-color="#e5c6d6"></stop><stop offset="0.42" stop-color="#ead4d0"></stop><stop offset="1" stop-color="#f0e9cb"></stop></linearGradient><linearGradient id="linear-gradient-38" x1="-0.001" y1="0.5" x2="1.001" y2="0.5" xlink:href="#linear-gradient-37"></linearGradient><linearGradient id="linear-gradient-39" x1="-0.003" y1="0.499" x2="0.998" y2="0.499" xlink:href="#linear-gradient-37"></linearGradient><linearGradient id="linear-gradient-40" x1="-0.004" y1="0.498" x2="0.998" y2="0.498" xlink:href="#linear-gradient-37"></linearGradient><linearGradient id="linear-gradient-41" x1="0" y1="0.5" x2="1.001" y2="0.5" xlink:href="#linear-gradient-37"></linearGradient><linearGradient id="linear-gradient-42" y1="0.5" x2="1.001" y2="0.5" gradientUnits="objectBoundingBox"><stop offset="0" stop-color="#010101" stop-opacity="0"></stop><stop offset="0.95" stop-color="#010101"></stop></linearGradient><linearGradient id="linear-gradient-43" x1="0" y1="0.5" x2="1" y2="0.5" xlink:href="#linear-gradient-42"></linearGradient><linearGradient id="linear-gradient-45" x1="0.509" y1="-0.382" x2="0.465" y2="3.651" xlink:href="#linear-gradient-42"></linearGradient><linearGradient id="linear-gradient-46" x1="0.539" y1="-0.459" x2="0.231" y2="1.465" xlink:href="#linear-gradient"></linearGradient><linearGradient id="linear-gradient-48" x1="1" y1="-0.325" x2="0.512" y2="1.676" gradientUnits="objectBoundingBox"><stop offset="0" stop-color="#7bbdff"></stop><stop offset="0.045" stop-color="#7bbdff"></stop><stop offset="0.192" stop-color="#eefbfb"></stop><stop offset="0.39" stop-color="#92baff"></stop><stop offset="0.617" stop-color="#aeb6ff"></stop><stop offset="0.864" stop-color="#d4b1ff"></stop><stop offset="0.881" stop-color="#d8b1ff"></stop><stop offset="1" stop-color="#d8b1ff"></stop></linearGradient><linearGradient id="linear-gradient-51" x1="0.603" y1="0.096" x2="-0.102" y2="1.799" xlink:href="#linear-gradient"></linearGradient></defs><g id="Group_614" data-name="Group 614" transform="translate(-571.261 -3498.499)"><path id="Path_2696" data-name="Path 2696" d="M92.394,221.7c3.919.227,7.526,2.4,11.654,2.956a312.675,312.675,0,0,0,83.755,0c13.059-1.761,25.774-5.114,38.926-5.9,13.5-.816,27.477.575,40.478-3.928,15.538-5.386,26.786-19.488,27.415-34.374.6-14.2-7.477-27.366-11.815-41.017a80.291,80.291,0,0,1,.4-49.72c5.417-16.184,16.1-31.6,15.1-48.467-1.4-23.6-30.139-42.627-55.779-36.942-13.429,2.974-24.7,11.306-37.972,14.78-21.565,5.649-44.736-2.229-67.063,0-18.966,1.935-36.434,11.275-49.123,24.035S67.489,71.818,62.54,88.287c-4.365,14.543-6.46,29.925-14.664,43.073-6.01,9.626-15.225,17.963-17.918,28.734C26.8,172.716,17.435,217.389,92.394,221.7Z" transform="translate(543.438 3495.213)" fill="#5685ec" opacity="0.12"></path><g id="programming_code_2" transform="translate(615.953 3511.719)"><path id="Path_2666" data-name="Path 2666" d="M226.677,374.215c-.875.958.56,2.292,1.786,2.756a70.3,70.3,0,0,0,25.059,4.643l-1.458,2.482a78.225,78.225,0,0,0,41.07.214l-2.071-3.214,12.029-.6c1.911-.089,8.613.7,9.881-1,3.649-4.887-11.2-5.077-12.8-5.143q-23.767-.994-47.564-.768-6.488.06-12.976.208C237.587,373.87,227.951,372.858,226.677,374.215Z" transform="translate(-170.083 -172.994)" opacity="0.42" fill="url(#linear-gradient)"></path><path id="Path_2667" data-name="Path 2667" d="M329.035,290.606q-.482,9.524-1.149,19.083a54.372,54.372,0,0,1-1.25,9.571,27.888,27.888,0,0,1-1.976,5.423c-.363.744-.881,1.554-1.7,1.637-1.03.107-1.744-.994-2.113-1.964-1.839-4.762-1.839-9.976-1.958-15.071q-.1-3.952-.315-7.911c-.173-3.184-.518-6.631-2.673-8.988-.655-.714-1.452-1.3-2.1-2.03-2.625-2.976-1.839-7.994.988-10.8,2.2-2.173,8.571-5.042,11.649-3.244C330.1,278.446,329.208,287.172,329.035,290.606Z" transform="translate(-204.812 -133.426)" fill="#606161"></path><path id="Path_2668" data-name="Path 2668" d="M296.605,279.627a8.113,8.113,0,0,1,1.232,4.893c-.149,5.173-3.22,9.75-4.762,14.7-2.309,7.47-1.024,15.476-.792,23.315a7.31,7.31,0,0,1-.393,3.19,2.673,2.673,0,0,1-2.506,1.714,3.345,3.345,0,0,1-1.994-1.19c-3.786-4.048-3.661-10.22-4.286-15.72-.7-6.125-2.6-12.041-4.22-17.988a25.475,25.475,0,0,1-1.244-8.208,9.355,9.355,0,0,1,3.631-7.2C285.433,274.288,293.635,275.371,296.605,279.627Z" transform="translate(-190.81 -133.345)" fill="#606161"></path><rect id="Rectangle_468" data-name="Rectangle 468" width="79.486" height="87.641" rx="12.14" transform="translate(79.486 90.51) rotate(180)" opacity="0.52" fill="url(#linear-gradient-2)"></rect><rect id="Rectangle_469" data-name="Rectangle 469" width="79.486" height="87.641" rx="12.14" transform="translate(79.486 90.51) rotate(180)" fill="url(#linear-gradient-3)"></rect><rect id="Rectangle_470" data-name="Rectangle 470" width="88.331" height="54.171" rx="11.56" transform="translate(213.703 73.605) rotate(180)" fill="#68e1fd" opacity="0.52"></rect><rect id="Rectangle_471" data-name="Rectangle 471" width="88.331" height="54.171" rx="11.56" transform="translate(213.703 73.605) rotate(180)" opacity="0.58" fill="url(#linear-gradient-4)"></rect><rect id="Rectangle_473" data-name="Rectangle 473" width="55.493" height="34.035" rx="7.26" transform="translate(160.621 34.035) rotate(180)" fill="url(#linear-gradient-5)"></rect><rect id="Rectangle_472" data-name="Rectangle 472" width="55.493" height="34.035" rx="7.26" transform="translate(160.621 34.035) rotate(180)" opacity="0.52" fill="url(#linear-gradient-6)"></rect><rect id="Rectangle_474" data-name="Rectangle 474" width="134.336" height="6.44" transform="translate(169.199 137.67) rotate(180)" opacity="0.52" fill="url(#linear-gradient-7)"></rect><rect id="Rectangle_476" data-name="Rectangle 476" width="102.825" height="75.909" rx="5" transform="translate(156.431 122.944) rotate(180)" fill="url(#linear-gradient-8)"></rect><rect id="Rectangle_475" data-name="Rectangle 475" width="102.825" height="75.909" rx="5" transform="translate(156.431 122.944) rotate(180)" fill="url(#linear-gradient-9)"></rect><rect id="Rectangle_477" data-name="Rectangle 477" width="20.505" height="1.506" transform="translate(66.248 58.921)" fill="url(#linear-gradient-10)"></rect><rect id="Rectangle_478" data-name="Rectangle 478" width="12.518" height="1.411" transform="translate(66.248 61.832)" fill="url(#linear-gradient-11)"></rect><rect id="Rectangle_479" data-name="Rectangle 479" width="39.386" height="1.423" transform="translate(83.814 61.832)" fill="url(#linear-gradient-12)"></rect><rect id="Rectangle_480" data-name="Rectangle 480" width="22.166" height="1.423" transform="translate(126.884 61.832)" fill="url(#linear-gradient-13)"></rect><rect id="Rectangle_481" data-name="Rectangle 481" width="17.208" height="1.488" transform="translate(72.76 64.754)" fill="url(#linear-gradient-14)"></rect><rect id="Rectangle_482" data-name="Rectangle 482" width="20.505" height="1.506" transform="translate(78.284 67.659)" fill="url(#linear-gradient-15)"></rect><rect id="Rectangle_483" data-name="Rectangle 483" width="17.19" height="1.673" transform="translate(100.129 67.659)" fill="url(#linear-gradient-16)"></rect><rect id="Rectangle_484" data-name="Rectangle 484" width="15.833" height="1.411" transform="translate(78.254 70.57)" fill="url(#linear-gradient-17)"></rect><rect id="Rectangle_485" data-name="Rectangle 485" width="32.678" height="1.565" transform="translate(95.605 70.57)" fill="url(#linear-gradient-18)"></rect><rect id="Rectangle_486" data-name="Rectangle 486" width="20.505" height="1.506" transform="translate(66.248 74.51)" fill="url(#linear-gradient-19)"></rect><rect id="Rectangle_487" data-name="Rectangle 487" width="12.518" height="1.411" transform="translate(66.248 77.421)" fill="url(#linear-gradient-20)"></rect><rect id="Rectangle_488" data-name="Rectangle 488" width="39.386" height="1.423" transform="translate(83.814 77.421)" fill="url(#linear-gradient-21)"></rect><rect id="Rectangle_489" data-name="Rectangle 489" width="22.166" height="1.423" transform="translate(126.884 77.421)" fill="url(#linear-gradient-22)"></rect><rect id="Rectangle_490" data-name="Rectangle 490" width="17.208" height="1.488" transform="translate(72.76 80.332)" fill="url(#linear-gradient-23)"></rect><rect id="Rectangle_491" data-name="Rectangle 491" width="20.505" height="1.506" transform="translate(78.284 83.248)" fill="url(#linear-gradient-24)"></rect><rect id="Rectangle_492" data-name="Rectangle 492" width="17.19" height="1.673" transform="translate(100.129 83.248)" fill="url(#linear-gradient-25)"></rect><rect id="Rectangle_493" data-name="Rectangle 493" width="15.833" height="1.411" transform="translate(78.254 86.159)" fill="url(#linear-gradient-26)"></rect><rect id="Rectangle_494" data-name="Rectangle 494" width="32.678" height="1.565" transform="translate(95.605 86.159)" fill="url(#linear-gradient-27)"></rect><rect id="Rectangle_495" data-name="Rectangle 495" width="20.505" height="1.506" transform="translate(66.248 90.093)" fill="url(#linear-gradient-28)"></rect><rect id="Rectangle_496" data-name="Rectangle 496" width="12.518" height="1.411" transform="translate(66.248 93.004)" fill="url(#linear-gradient-29)"></rect><rect id="Rectangle_497" data-name="Rectangle 497" width="39.386" height="1.423" transform="translate(83.814 93.004)" fill="url(#linear-gradient-30)"></rect><rect id="Rectangle_498" data-name="Rectangle 498" width="22.166" height="1.423" transform="translate(126.884 93.004)" fill="url(#linear-gradient-31)"></rect><rect id="Rectangle_499" data-name="Rectangle 499" width="17.208" height="1.488" transform="translate(72.76 95.915)" fill="url(#linear-gradient-32)"></rect><rect id="Rectangle_500" data-name="Rectangle 500" width="20.505" height="1.506" transform="translate(78.284 98.825)" fill="url(#linear-gradient-33)"></rect><rect id="Rectangle_501" data-name="Rectangle 501" width="17.19" height="1.673" transform="translate(100.129 98.825)" fill="url(#linear-gradient-34)"></rect><rect id="Rectangle_502" data-name="Rectangle 502" width="15.833" height="1.411" transform="translate(78.254 101.742)" fill="url(#linear-gradient-35)"></rect><rect id="Rectangle_503" data-name="Rectangle 503" width="32.678" height="1.565" transform="translate(95.605 101.742)" fill="url(#linear-gradient-36)"></rect><g id="Group_611" data-name="Group 611" transform="translate(112.17 4.655)" opacity="0.52"><rect id="Rectangle_504" data-name="Rectangle 504" width="10.202" height="0.75" fill="#68e1fd"></rect><rect id="Rectangle_505" data-name="Rectangle 505" width="6.226" height="0.702" transform="translate(0 1.452)" fill="#68e1fd"></rect><rect id="Rectangle_506" data-name="Rectangle 506" width="19.595" height="0.708" transform="translate(8.738 1.452)" fill="#68e1fd"></rect><rect id="Rectangle_507" data-name="Rectangle 507" width="11.03" height="0.708" transform="translate(30.16 1.452)" fill="#68e1fd"></rect><rect id="Rectangle_508" data-name="Rectangle 508" width="8.559" height="0.738" transform="translate(3.238 2.899)" fill="#68e1fd"></rect><rect id="Rectangle_509" data-name="Rectangle 509" width="10.202" height="0.75" transform="translate(5.988 4.351)" fill="#68e1fd"></rect><rect id="Rectangle_510" data-name="Rectangle 510" width="8.547" height="0.833" transform="translate(16.851 4.351)" fill="#68e1fd"></rect><rect id="Rectangle_511" data-name="Rectangle 511" width="7.875" height="0.702" transform="translate(5.97 5.797)" fill="#68e1fd"></rect><rect id="Rectangle_512" data-name="Rectangle 512" width="16.256" height="0.78" transform="translate(14.607 5.797)" fill="#68e1fd"></rect><rect id="Rectangle_513" data-name="Rectangle 513" width="10.202" height="0.75" transform="translate(0 7.756)" fill="#68e1fd"></rect><rect id="Rectangle_514" data-name="Rectangle 514" width="6.226" height="0.702" transform="translate(0 9.202)" fill="#68e1fd"></rect><rect id="Rectangle_515" data-name="Rectangle 515" width="19.595" height="0.708" transform="translate(8.738 9.202)" fill="#68e1fd"></rect><rect id="Rectangle_516" data-name="Rectangle 516" width="11.03" height="0.708" transform="translate(30.16 9.202)" fill="#68e1fd"></rect><rect id="Rectangle_517" data-name="Rectangle 517" width="8.559" height="0.738" transform="translate(3.238 10.649)" fill="#68e1fd"></rect><rect id="Rectangle_518" data-name="Rectangle 518" width="10.202" height="0.75" transform="translate(5.988 12.101)" fill="#68e1fd"></rect><rect id="Rectangle_519" data-name="Rectangle 519" width="8.547" height="0.833" transform="translate(16.851 12.101)" fill="#68e1fd"></rect><rect id="Rectangle_520" data-name="Rectangle 520" width="7.875" height="0.702" transform="translate(5.97 13.547)" fill="#68e1fd"></rect><rect id="Rectangle_521" data-name="Rectangle 521" width="16.256" height="0.78" transform="translate(14.607 13.547)" fill="#68e1fd"></rect><rect id="Rectangle_522" data-name="Rectangle 522" width="10.202" height="0.75" transform="translate(0 15.506)" fill="#68e1fd"></rect><rect id="Rectangle_523" data-name="Rectangle 523" width="6.226" height="0.702" transform="translate(0 16.958)" fill="#68e1fd"></rect><rect id="Rectangle_524" data-name="Rectangle 524" width="19.595" height="0.708" transform="translate(8.738 16.958)" fill="#68e1fd"></rect><rect id="Rectangle_525" data-name="Rectangle 525" width="11.03" height="0.708" transform="translate(30.16 16.958)" fill="#68e1fd"></rect><rect id="Rectangle_526" data-name="Rectangle 526" width="8.559" height="0.738" transform="translate(3.238 18.404)" fill="#68e1fd"></rect><rect id="Rectangle_527" data-name="Rectangle 527" width="10.202" height="0.75" transform="translate(5.988 19.851)" fill="#68e1fd"></rect><rect id="Rectangle_528" data-name="Rectangle 528" width="8.547" height="0.833" transform="translate(16.851 19.851)" fill="#68e1fd"></rect><rect id="Rectangle_529" data-name="Rectangle 529" width="7.875" height="0.702" transform="translate(5.97 21.303)" fill="#68e1fd"></rect><rect id="Rectangle_530" data-name="Rectangle 530" width="16.256" height="0.78" transform="translate(14.607 21.303)" fill="#68e1fd"></rect></g><path id="Path_2669" data-name="Path 2669" d="M343.189,245.356a6.85,6.85,0,0,1,.56,3.667,3.572,3.572,0,0,1-.506,1.19c-1.19,1.845-4.012,2.131-5.952,1.024a8.281,8.281,0,0,1-3.571-5.357,5.757,5.757,0,0,1-.208-2.2,6.369,6.369,0,0,1,1.923-3.333c1.19-1.238,3.375-2.857,4.976-1.369C341.85,240.308,342.552,243.576,343.189,245.356Z" transform="translate(-213.424 -118.299)" fill="url(#linear-gradient-37)"></path><path id="Path_2670" data-name="Path 2670" d="M267.758,245.321a3.059,3.059,0,0,0-.351,1.6,2.791,2.791,0,0,0,.417,1,8.029,8.029,0,0,0,1.97,2.339,4.089,4.089,0,0,0,2.863.887,5.163,5.163,0,0,0,3.542-2.679,7.339,7.339,0,0,0,1.268-4.2,5.357,5.357,0,0,0-2.19-4.012c-1.149-.833-3.542-1.589-4.839-.637S268.407,243.785,267.758,245.321Z" transform="translate(-186.677 -118.621)" fill="url(#linear-gradient-38)"></path><path id="Path_2671" data-name="Path 2671" d="M325.11,176.011a1.44,1.44,0,0,1,1.25.22,1.661,1.661,0,0,1,.411,1.018,7.291,7.291,0,0,1,.089,2.3,3.161,3.161,0,0,1-1.053,1.97,4.56,4.56,0,0,1-1.5.726,1.7,1.7,0,0,1-1.286.048,1.482,1.482,0,0,1-.643-1.1C321.908,178.892,322.628,176.464,325.11,176.011Z" transform="translate(-208.875 -93.031)" fill="url(#linear-gradient-39)"></path><path id="Path_2672" data-name="Path 2672" d="M289.567,174.68a1.476,1.476,0,0,0-.72,0,1.494,1.494,0,0,0-.857,1.363,6.336,6.336,0,0,0,.107,1.673,4.619,4.619,0,0,0,1.083,2.494,2.024,2.024,0,0,0,2.47.429C294.18,178.888,291.8,175.168,289.567,174.68Z" transform="translate(-195.004 -92.497)" fill="url(#linear-gradient-40)"></path><path id="Path_2673" data-name="Path 2673" d="M310.977,197.787a5.28,5.28,0,0,1,.1,1.643,3.638,3.638,0,0,1-3.262,2.78,9.237,9.237,0,0,1-4.47-.887,3.571,3.571,0,0,1-1.19-.679,2.649,2.649,0,0,1-.685-1.315,9.554,9.554,0,0,1-.155-2.607l.1-3.071a3.679,3.679,0,0,1,.345-1.744c.6-1.018,1.958-1.19,3.143-1.268,1.554-.065,3.893,0,4.917,1.417S310.715,196.139,310.977,197.787Z" transform="translate(-200.39 -98.968)" fill="url(#linear-gradient-41)"></path><path id="Path_2674" data-name="Path 2674" d="M310.317,155.133a9.1,9.1,0,0,1,.476,4.048,75.806,75.806,0,0,1-.988,9.422c-.393,2.339-1.012,4.851-2.863,6.327a11.841,11.841,0,0,0-1.494,1.19c-.321.345-.548.774-.845,1.149-1.506,1.887-4.542,1.887-6.613.631s-3.4-3.411-4.613-5.506c-1.339-2.309-2.667-4.726-2.9-7.387-.2-2.107.3-4.327-.506-6.286-.6-1.44-1.827-2.6-2.1-4.125a6.946,6.946,0,0,1,.369-3.048c.482-1.732,1.22-3.732,2.976-4.2,1.28-.345,2.6.31,3.928.351,1.69.06,3.411-.887,5.018-.351,2.065.69,2.976,3.071,5.036,3.845S309.359,152.943,310.317,155.133Z" transform="translate(-194.945 -81.385)" fill="#606161"></path><path id="Path_2675" data-name="Path 2675" d="M308.872,208.788c-6.036-5.006-14.744-4.881-22.511-3.821a25.661,25.661,0,0,0-9.3,2.607c-4.726,2.679-7.524,7.857-8.994,13.095-.78,2.78-1.19,5.952.369,8.393,1.637,2.524,4.9,3.393,7.887,3.726a2.637,2.637,0,0,1,1.3.375,2.3,2.3,0,0,1,.726,1.458c.833,4.345-.857,9.226,1.375,13.041,2.161,3.684,6.988,4.655,11.244,4.982,5.506.423,11.476.268,15.946-2.976a6.471,6.471,0,0,0,1.851-1.9,8.538,8.538,0,0,0,.8-4.256c.048-3.178-1.113-9.571.435-12.375,1.3-2.333,4.994-2.345,6.292-5.012C318.746,221.056,312.568,211.848,308.872,208.788Z" transform="translate(-186.666 -104.535)" fill="#fff"></path><path id="Path_2676" data-name="Path 2676" d="M292.371,270.749l.042,6.768a1.3,1.3,0,0,1-.143.756,1.19,1.19,0,0,1-.8.434,25.035,25.035,0,0,1-5.631.191,7.464,7.464,0,0,0-5.262,1.655c2.054,1.518,4.7,1.935,7.244,2.232q5.643.673,11.309.893a29.289,29.289,0,0,0,7.327-.381,13.589,13.589,0,0,0,5.809-2.708c-1.661-1.786-4.411-1.75-6.839-1.75a62.337,62.337,0,0,1-7.071-.4,1.934,1.934,0,0,1-1.423-.6,1.886,1.886,0,0,1-.226-1.161,23.5,23.5,0,0,1,.565-4.464,2.828,2.828,0,0,1,.565-1.327,3.143,3.143,0,0,1,1.893-.75,41.276,41.276,0,0,0,8.065-2.2,9.2,9.2,0,0,0,2.946-1.625c2.345-2.131,2.244-5.8,1.7-8.928a29.946,29.946,0,0,1-14.178,4.036c-3.411.1-10.809-1.369-13.208,1.917-1.19,1.661.077,3.2,1.393,4.345C287.026,268.165,292.371,270.683,292.371,270.749Z" transform="translate(-192.011 -125.99)" fill="url(#linear-gradient-42)"></path><rect id="Rectangle_531" data-name="Rectangle 531" width="34.154" height="24.208" rx="12.104" transform="translate(88.421 114.003)" fill="#68e1fd"></rect><rect id="Rectangle_532" data-name="Rectangle 532" width="34.154" height="24.208" rx="12.104" transform="translate(88.421 114.003)" fill="url(#linear-gradient-43)"></rect><rect id="Rectangle_533" data-name="Rectangle 533" width="34.154" height="24.208" rx="12.104" transform="translate(88.421 116.23)" fill="url(#linear-gradient-7)"></rect><path id="Path_2677" data-name="Path 2677" d="M309.143,249.345a13.053,13.053,0,0,1-3.2.952c-2.976.548-6.452.429-8.6-1.732a3.821,3.821,0,0,1-.8-1.143,3.623,3.623,0,0,1,1.464-4.107,8.268,8.268,0,0,1,4.47-1.238c1.917-.1,5.559-.423,7.232.869C311.708,244.493,311.4,248.285,309.143,249.345Z" transform="translate(-198.389 -119.752)" fill="url(#linear-gradient-45)"></path><rect id="Rectangle_534" data-name="Rectangle 534" width="4.661" height="38.475" rx="2.33" transform="translate(107.259 164.353) rotate(180)" fill="#fff"></rect><path id="Path_2678" data-name="Path 2678" d="M327.979,357.313c1.19.982,1.488,2.684,2.012,4.167.726,2.024,2.071,3.863,2.25,6.006a3.357,3.357,0,0,1-.3,1.857,2.976,2.976,0,0,1-2.583,1.452,5.655,5.655,0,0,1-2.934-.893,10.291,10.291,0,0,1-3.714-3.815,6.548,6.548,0,0,1-.845-2.512C321.616,360.89,324.4,354.456,327.979,357.313Z" transform="translate(-208.714 -166.151)" fill="#68e1fd"></path><path id="Path_2679" data-name="Path 2679" d="M330.473,371.339a1.077,1.077,0,0,1,0,1.018.922.922,0,0,1-.518.28,3.333,3.333,0,0,1-2.381-.435,9.685,9.685,0,0,1-1.917-1.542,13.948,13.948,0,0,1-2.327-2.631,4.762,4.762,0,0,1-.756-3.363c.631-3.226,3.476-.333,4.524.857A17.26,17.26,0,0,1,330.473,371.339Z" transform="translate(-208.987 -168.819)" fill="#606161"></path><path id="Path_2680" data-name="Path 2680" d="M290.085,357.417c-1.19.982-1.488,2.685-2.012,4.167-.726,2.024-2.071,3.869-2.25,6.006a3.381,3.381,0,0,0,.3,1.863,2.976,2.976,0,0,0,2.583,1.446,5.6,5.6,0,0,0,2.934-.893,10.244,10.244,0,0,0,3.714-3.815,6.512,6.512,0,0,0,.845-2.512C296.442,360.994,293.656,354.536,290.085,357.417Z" transform="translate(-194.123 -166.189)" fill="#68e1fd"></path><path id="Path_2681" data-name="Path 2681" d="M288.675,371.726a1.1,1.1,0,0,0,0,1.018.94.94,0,0,0,.524.28,3.4,3.4,0,0,0,2.381-.435,9.906,9.906,0,0,0,1.911-1.542,13.827,13.827,0,0,0,2.333-2.637,4.762,4.762,0,0,0,.756-3.357c-.637-3.232-3.476-.339-4.53.857A17.334,17.334,0,0,0,288.675,371.726Z" transform="translate(-195.236 -168.974)" fill="#606161"></path><path id="Path_2682" data-name="Path 2682" d="M307.947,326.44a6.274,6.274,0,0,1-3.077.6,13.5,13.5,0,0,1-3.5-.256,2.447,2.447,0,0,1-1.059-.494,2.417,2.417,0,0,1-.6-.845c-.97-2.143-2.065-6.583-.56-8.387,1.72-2.071,8.547-2.434,10.714-.262C311.97,318.827,310.447,324.969,307.947,326.44Z" transform="translate(-199.229 -149.444)" fill="#68e1fd"></path><path id="Path_2683" data-name="Path 2683" d="M307.947,326.44a6.274,6.274,0,0,1-3.077.6,13.5,13.5,0,0,1-3.5-.256,2.447,2.447,0,0,1-1.059-.494,2.417,2.417,0,0,1-.6-.845c-.97-2.143-2.065-6.583-.56-8.387,1.72-2.071,8.547-2.434,10.714-.262C311.97,318.827,310.447,324.969,307.947,326.44Z" transform="translate(-199.229 -149.444)" fill="url(#linear-gradient-46)"></path><rect id="Rectangle_535" data-name="Rectangle 535" width="3.107" height="20.047" transform="translate(107.087 197.132) rotate(180)" fill="#fff"></rect><path id="Path_2684" data-name="Path 2684" d="M307.529,368.93a4.8,4.8,0,0,0,2.25,1.381,18.192,18.192,0,0,0,1.94-.2,3.643,3.643,0,0,1,2.292,1.03,3.875,3.875,0,0,1,1.262,1.786,3.052,3.052,0,0,1-2.69,3.607,4.336,4.336,0,0,1-4.1-2.536,5.594,5.594,0,0,0-.631-1.19,3.458,3.458,0,0,0-.851-.667,24.929,24.929,0,0,0-8.232-3.256c-.506-.1-1.125-.149-1.446.25a1.4,1.4,0,0,0-.244.774,27.213,27.213,0,0,0-.161,3.571,1.352,1.352,0,0,0,.125.667,2.381,2.381,0,0,0,.56.554,2.321,2.321,0,0,1,.31,2.768,4.238,4.238,0,0,1-2.327,1.786,3.256,3.256,0,0,1-3.434-.381,2.446,2.446,0,0,1-.446-2.524,3.779,3.779,0,0,1,1.786-1.94,1.548,1.548,0,0,0,.7-.536,1.381,1.381,0,0,0,.107-.714l-.083-2.655a1.28,1.28,0,0,0-.4-1.1,1.19,1.19,0,0,0-.774-.113,23.214,23.214,0,0,0-12.083,4.53,1.5,1.5,0,0,1-.048,2.155,3.131,3.131,0,0,1-2.274.7,4.553,4.553,0,0,1-2.542-.744,2.631,2.631,0,0,1-1.19-2.286,2.661,2.661,0,0,1,1.589-2.1,4.762,4.762,0,0,1,2.7-.292,5.493,5.493,0,0,0,1.423.113,4.3,4.3,0,0,0,1.5-.625,33.25,33.25,0,0,1,13.41-4.167C299.47,366.227,304.333,366.311,307.529,368.93Z" transform="translate(-189.711 -170.131)" fill="#fff"></path><rect id="Rectangle_536" data-name="Rectangle 536" width="50.719" height="37.612" rx="11.02" transform="translate(199.775 118.664) rotate(180)" fill="#fff"></rect><rect id="Rectangle_537" data-name="Rectangle 537" width="58.314" height="21.392" rx="10.67" transform="translate(60.469 121.777) rotate(180)" fill="#fff"></rect><path id="Path_2685" data-name="Path 2685" d="M152.62,77.553l14.839-7.643v2.214l-12.5,6.232v.071l12.5,6.262V86.9L152.62,79.261Z" transform="translate(-135.398 -50.107)" fill="#fff"></path><path id="Path_2686" data-name="Path 2686" d="M181,84.874l8.928-23.214H192.1l-8.928,23.214Z" transform="translate(-146.886 -46.767)" fill="#fff"></path><path id="Path_2687" data-name="Path 2687" d="M217.9,79.374,203.06,86.987V84.719l12.595-6.262v-.1L203.06,72.094V69.91L217.9,77.523Z" transform="translate(-155.815 -50.107)" fill="#fff"></path><rect id="Rectangle_538" data-name="Rectangle 538" width="49.683" height="15.41" rx="7.705" transform="translate(129.164 169.645) rotate(180)" fill="#68e1fd"></rect><rect id="Rectangle_539" data-name="Rectangle 539" width="49.683" height="15.41" rx="7.705" transform="translate(129.164 169.645) rotate(180)" fill="url(#linear-gradient-46)"></rect><g id="Group_612" data-name="Group 612" transform="translate(154.687 90.784)" opacity="0.52"><rect id="Rectangle_540" data-name="Rectangle 540" width="13.571" height="0.994" fill="#68e1fd"></rect><rect id="Rectangle_541" data-name="Rectangle 541" width="8.286" height="0.935" transform="translate(0 1.923)" fill="#68e1fd"></rect><rect id="Rectangle_542" data-name="Rectangle 542" width="26.065" height="0.94" transform="translate(11.625 1.923)" fill="#68e1fd"></rect><rect id="Rectangle_543" data-name="Rectangle 543" width="11.393" height="0.988" transform="translate(4.309 3.857)" fill="#68e1fd"></rect><rect id="Rectangle_544" data-name="Rectangle 544" width="13.571" height="0.994" transform="translate(7.964 5.78)" fill="#68e1fd"></rect><rect id="Rectangle_545" data-name="Rectangle 545" width="11.375" height="1.107" transform="translate(22.416 5.78)" fill="#68e1fd"></rect><rect id="Rectangle_546" data-name="Rectangle 546" width="10.482" height="0.935" transform="translate(7.94 7.708)" fill="#68e1fd"></rect><rect id="Rectangle_547" data-name="Rectangle 547" width="21.625" height="1.036" transform="translate(19.428 7.708)" fill="#68e1fd"></rect><rect id="Rectangle_548" data-name="Rectangle 548" width="13.571" height="0.994" transform="translate(0 10.315)" fill="#68e1fd"></rect><rect id="Rectangle_549" data-name="Rectangle 549" width="8.286" height="0.935" transform="translate(0 12.238)" fill="#68e1fd"></rect><rect id="Rectangle_550" data-name="Rectangle 550" width="26.065" height="0.94" transform="translate(11.625 12.238)" fill="#68e1fd"></rect><rect id="Rectangle_551" data-name="Rectangle 551" width="11.393" height="0.988" transform="translate(4.309 14.166)" fill="#68e1fd"></rect><rect id="Rectangle_552" data-name="Rectangle 552" width="13.571" height="0.994" transform="translate(7.964 16.095)" fill="#68e1fd"></rect><rect id="Rectangle_553" data-name="Rectangle 553" width="11.375" height="1.107" transform="translate(22.416 16.095)" fill="#68e1fd"></rect><rect id="Rectangle_554" data-name="Rectangle 554" width="10.482" height="0.935" transform="translate(7.94 18.023)" fill="#68e1fd"></rect><rect id="Rectangle_555" data-name="Rectangle 555" width="21.625" height="1.036" transform="translate(19.428 18.023)" fill="#68e1fd"></rect></g><g id="Group_613" data-name="Group 613" transform="translate(11.155 105.099)" opacity="0.52"><rect id="Rectangle_556" data-name="Rectangle 556" width="13.571" height="0.994" fill="#68e1fd"></rect><rect id="Rectangle_557" data-name="Rectangle 557" width="8.286" height="0.935" transform="translate(0 1.929)" fill="#68e1fd"></rect><rect id="Rectangle_558" data-name="Rectangle 558" width="26.065" height="0.94" transform="translate(11.625 1.929)" fill="#68e1fd"></rect><rect id="Rectangle_559" data-name="Rectangle 559" width="11.393" height="0.988" transform="translate(4.309 3.857)" fill="#68e1fd"></rect><rect id="Rectangle_560" data-name="Rectangle 560" width="13.571" height="0.994" transform="translate(7.964 5.786)" fill="#68e1fd"></rect><rect id="Rectangle_561" data-name="Rectangle 561" width="11.375" height="1.107" transform="translate(22.422 5.786)" fill="#68e1fd"></rect><rect id="Rectangle_562" data-name="Rectangle 562" width="10.482" height="0.935" transform="translate(7.946 7.708)" fill="#68e1fd"></rect><rect id="Rectangle_563" data-name="Rectangle 563" width="21.625" height="1.036" transform="translate(19.428 7.708)" fill="#68e1fd"></rect><rect id="Rectangle_564" data-name="Rectangle 564" width="13.571" height="0.994" transform="translate(0 10.315)" fill="#68e1fd"></rect><rect id="Rectangle_565" data-name="Rectangle 565" width="8.286" height="0.935" transform="translate(0 12.244)" fill="#68e1fd"></rect><rect id="Rectangle_566" data-name="Rectangle 566" width="26.065" height="0.94" transform="translate(11.625 12.244)" fill="#68e1fd"></rect></g><path id="Path_2688" data-name="Path 2688" d="M192.6,308.486c-1.97-3.893-4.381-7.934-3.917-12.274.28-2.625,1.607-5.006,2.9-7.309l5.845-10.363c1.786,2.321,4.726,3.732,5.9,6.411,1.893,4.3-1.786,9.065-1.589,13.762.131,3.613,2.53,6.9,2.381,10.518-.1,2.625-4.25,11.226-7.613,10.9C194.734,319.956,193.716,310.688,192.6,308.486Z" transform="translate(-154.788 -134.555)" fill="#68e1fd"></path><path id="Path_2689" data-name="Path 2689" d="M192.6,308.486c-1.97-3.893-4.381-7.934-3.917-12.274.28-2.625,1.607-5.006,2.9-7.309l5.845-10.363c1.786,2.321,4.726,3.732,5.9,6.411,1.893,4.3-1.786,9.065-1.589,13.762.131,3.613,2.53,6.9,2.381,10.518-.1,2.625-4.25,11.226-7.613,10.9C194.734,319.956,193.716,310.688,192.6,308.486Z" transform="translate(-154.788 -134.555)" fill="url(#linear-gradient-48)"></path><path id="Path_2690" data-name="Path 2690" d="M219.223,326.057c1.327,0,2.976.268,3.357,1.548.31,1.119-.673,2.149-1.607,2.839-3.256,2.381-7.333,4.208-8.928,7.916-2.649,6.155-10.149,2.208-6.268-3.119,1.607-2.2,2.976-5.161,4.976-7C213.051,326.116,216.265,326.021,219.223,326.057Z" transform="translate(-161.29 -153.787)" fill="#68e1fd"></path><path id="Path_2691" data-name="Path 2691" d="M219.223,326.057c1.327,0,2.976.268,3.357,1.548.31,1.119-.673,2.149-1.607,2.839-3.256,2.381-7.333,4.208-8.928,7.916-2.649,6.155-10.149,2.208-6.268-3.119,1.607-2.2,2.976-5.161,4.976-7C213.051,326.116,216.265,326.021,219.223,326.057Z" transform="translate(-161.29 -153.787)" fill="url(#linear-gradient-48)"></path><path id="Path_2692" data-name="Path 2692" d="M190.215,328.322c-1.494-1.7-3.714-2.542-5.833-3.327-1.006-.369-2.3-.673-2.976.137a1.869,1.869,0,0,0,0,2.161,6.749,6.749,0,0,0,1.685,1.577,10.631,10.631,0,0,1,3.125,3.625c.756,1.542.958,3.3,1.631,4.881s2.077,3.077,3.792,3.006a3.417,3.417,0,0,0,2.929-2.411c.667-2.053-.22-2.976-1.321-4.428C192.025,331.929,191.579,329.863,190.215,328.322Z" transform="translate(-151.728 -153.207)" fill="#68e1fd"></path><path id="Path_2693" data-name="Path 2693" d="M190.215,328.322c-1.494-1.7-3.714-2.542-5.833-3.327-1.006-.369-2.3-.673-2.976.137a1.869,1.869,0,0,0,0,2.161,6.749,6.749,0,0,0,1.685,1.577,10.631,10.631,0,0,1,3.125,3.625c.756,1.542.958,3.3,1.631,4.881s2.077,3.077,3.792,3.006a3.417,3.417,0,0,0,2.929-2.411c.667-2.053-.22-2.976-1.321-4.428C192.025,331.929,191.579,329.863,190.215,328.322Z" transform="translate(-151.728 -153.207)" fill="url(#linear-gradient-48)"></path><path id="Path_2694" data-name="Path 2694" d="M207.537,346.82l-2.006,18.767h-2.125c-1.637-.929-3.292-1.839-4.946-2.768l-4.821-2.7-1.708-13.3Z" transform="translate(-156.127 -162.193)" fill="#68e1fd"></path><path id="Path_2695" data-name="Path 2695" d="M207.537,346.82l-2.006,18.767h-2.125c-1.637-.929-3.292-1.839-4.946-2.768l-4.821-2.7-1.708-13.3Z" transform="translate(-156.127 -162.193)" fill="url(#linear-gradient-51)"></path></g></g></svg> 