<?xml version="1.0" encoding="UTF-8"?> <svg xmlns="http://www.w3.org/2000/svg" width="97.83" height="95.325" viewBox="0 0 97.83 95.325"><g id="analysis" transform="translate(-0.001 0)"><path id="Path_254" data-name="Path 254" d="M139.353,92.615a4.782,4.782,0,1,0-3.817-1.908l-7.849,10.968a4.764,4.764,0,0,0-4.739,1.044l-5.231-2.969a4.777,4.777,0,1,0-9.339,0l-5.231,2.969a4.77,4.77,0,1,0,1.418,2.491l5.231-2.969a4.765,4.765,0,0,0,6.5,0l5.231,2.969a4.777,4.777,0,1,0,8.486-1.865l7.849-10.968A4.762,4.762,0,0,0,139.353,92.615Zm0-6.688a1.911,1.911,0,1,1-1.911,1.911A1.913,1.913,0,0,1,139.353,85.927Zm-39.458,22.2a1.911,1.911,0,1,1,1.911-1.911A1.913,1.913,0,0,1,99.894,108.124Zm13.153-7.468a1.911,1.911,0,1,1,1.911-1.911A1.913,1.913,0,0,1,113.047,100.656Zm13.153,7.468a1.911,1.911,0,1,1,1.911-1.911A1.913,1.913,0,0,1,126.2,108.124Z" transform="translate(-76.943 -68.443)" fill="#fff"></path><path id="Path_255" data-name="Path 255" d="M80.021,104.48H4.054a1.189,1.189,0,0,1-1.188-1.188V44.17a1.189,1.189,0,0,1,1.188-1.188h6.756a1.433,1.433,0,0,0,0-2.866H4.054A4.058,4.058,0,0,0,0,44.17v59.123a4.058,4.058,0,0,0,4.054,4.054h9.881V110.5a3.262,3.262,0,0,0,3.258,3.258H31.538l-6.753,13.184a1.433,1.433,0,1,0,2.551,1.307l7.422-14.49H50.6l7.422,14.49a1.433,1.433,0,1,0,2.551-1.307l-6.753-13.184H68.167a3.262,3.262,0,0,0,3.258-3.258v-3.154h8.6a1.433,1.433,0,0,0,0-2.866ZM68.559,110.5a.393.393,0,0,1-.392.392H17.193a.393.393,0,0,1-.392-.392v-3.154H68.559Z" transform="translate(0 -33.704)" fill="#fff"></path><path id="Path_256" data-name="Path 256" d="M80.5,15.836h64.765a1.189,1.189,0,0,1,1.188,1.188V30.65a1.433,1.433,0,1,0,2.866,0V17.024a4.058,4.058,0,0,0-4.054-4.054H114.6V10.153a3.6,3.6,0,0,0-3.6-3.6h-8.716a3.6,3.6,0,0,0-3.6,3.6V12.97H80.5a1.433,1.433,0,0,0,0,2.866Zm21.051-5.683a.73.73,0,0,1,.729-.729H111a.73.73,0,0,1,.729.729V12.97H101.555V10.153Z" transform="translate(-63.963 -6.558)" fill="#fff"></path><path id="Path_257" data-name="Path 257" d="M98.835,267.576a1.433,1.433,0,0,0-1.433,1.433v12.663a1.433,1.433,0,0,0,1.433,1.433h5.814a1.433,1.433,0,0,0,1.433-1.433V269.009a1.433,1.433,0,0,0-1.433-1.433Zm4.381,12.663h-2.948v-9.8h2.948Z" transform="translate(-78.791 -217.702)" fill="#fff"></path><path id="Path_258" data-name="Path 258" d="M167.67,229.248a1.433,1.433,0,0,0-1.433,1.433v19.987a1.433,1.433,0,0,0,1.433,1.433h5.814a1.433,1.433,0,0,0,1.433-1.433V230.681a1.433,1.433,0,0,0-1.433-1.433Zm4.381,19.987H169.1V232.114h2.948Z" transform="translate(-134.473 -186.697)" fill="#fff"></path><path id="Path_259" data-name="Path 259" d="M236.506,267.576a1.433,1.433,0,0,0-1.433,1.433v12.663a1.433,1.433,0,0,0,1.433,1.433h5.814a1.433,1.433,0,0,0,1.433-1.433V269.009a1.433,1.433,0,0,0-1.433-1.433Zm4.381,12.663h-2.948v-9.8h2.948Z" transform="translate(-190.157 -217.702)" fill="#fff"></path><path id="Path_260" data-name="Path 260" d="M305.342,311.832a1.433,1.433,0,0,0-1.433,1.433v4.207a1.433,1.433,0,0,0,1.433,1.433h5.814a1.433,1.433,0,0,0,0-2.866h-4.381v-2.774A1.433,1.433,0,0,0,305.342,311.832Z" transform="translate(-245.84 -253.501)" fill="#fff"></path><path id="Path_261" data-name="Path 261" d="M336.163,190.246l-8.221-14.24a18.74,18.74,0,1,0-18.53,5.288,18.833,18.833,0,0,0,4.878.646,18.494,18.494,0,0,0,4.218-.487l8.22,14.241a5.448,5.448,0,1,0,9.436-5.448Zm-26.01-11.72a15.865,15.865,0,1,1,12.038-1.585A15.761,15.761,0,0,1,310.154,178.525Zm22.583,16.68a2.584,2.584,0,0,1-3.526-.944l-7.908-13.7a18.812,18.812,0,0,0,4.469-2.583l7.91,13.7a2.579,2.579,0,0,1-.944,3.527Z" transform="translate(-239.064 -118.122)" fill="#fff"></path><path id="Path_262" data-name="Path 262" d="M348.906,188.891a13.562,13.562,0,0,0-.678-9.824,1.433,1.433,0,1,0-2.593,1.221,10.734,10.734,0,1,1-3.236-4A1.433,1.433,0,1,0,344.128,174a13.609,13.609,0,1,0,4.778,14.887Z" transform="translate(-260.717 -139.774)" fill="#fff"></path></g></svg> 