<?xml version="1.0" encoding="UTF-8"?> <svg xmlns="http://www.w3.org/2000/svg" xmlns:xlink="http://www.w3.org/1999/xlink" width="91.715" height="91.717" viewBox="0 0 91.715 91.717"><defs><linearGradient id="linear-gradient" x1="0.5" x2="0" y2="1.82" gradientUnits="objectBoundingBox"><stop offset="0" stop-color="#71bfff"></stop><stop offset="0.081" stop-color="#71bfff"></stop><stop offset="0.085" stop-color="#71bfff"></stop><stop offset="1" stop-color="#5a4dff"></stop></linearGradient></defs><g id="coding" transform="translate(0.001 0)"><g id="Group_12" data-name="Group 12" transform="translate(0 79.487)"><g id="Group_11" data-name="Group 11"><path id="Path_263" data-name="Path 263" d="M10.7,416A10.714,10.714,0,0,0,0,426.7a1.527,1.527,0,0,0,1.529,1.529H19.872A1.527,1.527,0,0,0,21.4,426.7,10.714,10.714,0,0,0,10.7,416Zm-7.489,9.172a7.652,7.652,0,0,1,5.96-5.946v2.889h3.057v-2.889a7.655,7.655,0,0,1,5.96,5.946Z" transform="translate(0 -416)" fill="url(#linear-gradient)"></path></g></g><g id="Group_14" data-name="Group 14"><g id="Group_13" data-name="Group 13"><path id="Path_264" data-name="Path 264" d="M90.187,65.73H87.506c-.084-.212-.171-.423-.266-.636l1.9-1.9a1.527,1.527,0,0,0,0-2.161l-6.484-6.484a1.5,1.5,0,0,0-1.148-.434,7.626,7.626,0,0,0,4.1-6.73V7.643A7.652,7.652,0,0,0,77.958,0H7.643A7.652,7.652,0,0,0,0,7.643V47.387A7.652,7.652,0,0,0,7.643,55.03H27.591l-5.775,10.7H19.107a5.35,5.35,0,0,0,0,10.7H51.972A1.527,1.527,0,0,0,53.5,77.959h2.681c.084.212.171.423.266.636l-1.9,1.9a1.527,1.527,0,0,0,0,2.161l6.484,6.484a1.527,1.527,0,0,0,2.161,0l1.9-1.9c.212.095.423.182.636.266v2.681a1.527,1.527,0,0,0,1.529,1.529H76.43a1.527,1.527,0,0,0,1.529-1.529V87.507c.212-.084.423-.171.636-.266l1.9,1.9a1.527,1.527,0,0,0,2.161,0l6.484-6.484a1.527,1.527,0,0,0,0-2.161l-1.9-1.9c.095-.212.182-.423.266-.636h2.681a1.527,1.527,0,0,0,1.529-1.529V67.259A1.527,1.527,0,0,0,90.187,65.73ZM3.057,7.643A4.591,4.591,0,0,1,7.643,3.057H77.958a4.591,4.591,0,0,1,4.586,4.586v32.1H3.057Zm4.586,44.33a4.591,4.591,0,0,1-4.586-4.586V42.8H82.544v4.586a4.591,4.591,0,0,1-4.586,4.586H7.643Zm72.828,2.6-1.877,1.877c-.212-.095-.423-.182-.636-.266V55.03A7.543,7.543,0,0,0,80.471,54.571Zm-14.742.459v1.153c-.212.084-.423.171-.636.266L63.675,55.03Zm-5.174,0-1.318,1.318-.9-1.318ZM51.972,73.373H19.107a2.293,2.293,0,0,1,0-4.586H51.972ZM25.29,65.729l5.774-10.7H54.641l2.4,3.517-2.487,2.487a1.527,1.527,0,0,0,0,2.161l1.9,1.9c-.095.212-.182.423-.266.636H25.29ZM88.658,74.9h-2.23A1.529,1.529,0,0,0,84.97,75.97a13.753,13.753,0,0,1-.932,2.23,1.529,1.529,0,0,0,.275,1.788L85.9,81.572,81.573,85.9,79.99,84.312a1.532,1.532,0,0,0-1.788-.275,13.752,13.752,0,0,1-2.23.932,1.532,1.532,0,0,0-1.07,1.46v2.23H68.787v-2.23a1.529,1.529,0,0,0-1.068-1.458,13.752,13.752,0,0,1-2.23-.932,1.531,1.531,0,0,0-1.788.275L62.116,85.9l-4.323-4.323,1.584-1.584a1.529,1.529,0,0,0,.275-1.788,13.753,13.753,0,0,1-.932-2.23,1.532,1.532,0,0,0-1.46-1.07h-2.23V68.787h2.23a1.529,1.529,0,0,0,1.458-1.068,13.752,13.752,0,0,1,.932-2.23,1.529,1.529,0,0,0-.275-1.788l-1.584-1.584,4.323-4.323L63.7,59.377a1.527,1.527,0,0,0,1.788.275,13.754,13.754,0,0,1,2.23-.932,1.532,1.532,0,0,0,1.07-1.46V55.03H74.9v2.23a1.529,1.529,0,0,0,1.068,1.458,13.752,13.752,0,0,1,2.23.932,1.527,1.527,0,0,0,1.788-.275l1.584-1.584,4.323,4.323L84.311,63.7a1.529,1.529,0,0,0-.275,1.788,13.755,13.755,0,0,1,.932,2.23,1.532,1.532,0,0,0,1.46,1.07h2.23Z" fill="url(#linear-gradient)"></path></g></g><g id="Group_16" data-name="Group 16" transform="translate(62.672 62.673)"><g id="Group_15" data-name="Group 15"><path id="Path_265" data-name="Path 265" d="M337.172,328a9.172,9.172,0,1,0,9.172,9.172A9.181,9.181,0,0,0,337.172,328Zm0,15.286a6.114,6.114,0,1,1,6.114-6.114A6.121,6.121,0,0,1,337.172,343.286Z" transform="translate(-328 -328)" fill="url(#linear-gradient)"></path></g></g><g id="Group_18" data-name="Group 18" transform="translate(16.814 9.62)"><g id="Group_17" data-name="Group 17"><path id="Path_266" data-name="Path 266" d="M101.308,52.505l-2.161-2.161-10.7,10.7a1.527,1.527,0,0,0,0,2.161l10.7,10.7,2.161-2.161-9.619-9.62Z" transform="translate(-87.998 -50.344)" fill="url(#linear-gradient)"></path></g></g><g id="Group_20" data-name="Group 20" transform="translate(50.891 9.62)"><g id="Group_19" data-name="Group 19"><path id="Path_267" data-name="Path 267" d="M279.206,61.044l-10.7-10.7-2.161,2.161,9.619,9.62-9.619,9.62,2.161,2.161,10.7-10.7A1.527,1.527,0,0,0,279.206,61.044Z" transform="translate(-266.344 -50.344)" fill="url(#linear-gradient)"></path></g></g><g id="Group_22" data-name="Group 22" transform="translate(32.26 5.439)"><g id="Group_21" data-name="Group 21" transform="translate(0 0)"><rect id="Rectangle_23" data-name="Rectangle 23" width="30.755" height="3.057" transform="translate(0 27.507) rotate(-63.435)" fill="url(#linear-gradient)"></rect></g></g><g id="Group_24" data-name="Group 24" transform="translate(59.615 30.572)"><g id="Group_23" data-name="Group 23"><rect id="Rectangle_24" data-name="Rectangle 24" width="3.057" height="3.057" fill="url(#linear-gradient)"></rect></g></g><g id="Group_26" data-name="Group 26" transform="translate(65.729 30.572)"><g id="Group_25" data-name="Group 25"><rect id="Rectangle_25" data-name="Rectangle 25" width="3.057" height="3.057" fill="url(#linear-gradient)"></rect></g></g><g id="Group_28" data-name="Group 28" transform="translate(71.844 30.572)"><g id="Group_27" data-name="Group 27"><rect id="Rectangle_26" data-name="Rectangle 26" width="3.057" height="3.057" fill="url(#linear-gradient)"></rect></g></g></g></svg> 