<?xml version="1.0" encoding="UTF-8"?> <svg xmlns="http://www.w3.org/2000/svg" width="286" height="168.355" viewBox="0 0 286 168.355"><g id="Creative_Art_and_Design" data-name="Creative Art and Design" transform="translate(86.5 -8256)"><g id="Group_606" data-name="Group 606" transform="translate(-86.5 8371.556)"><g id="Group_397" data-name="Group 397" transform="translate(236.884)"><circle id="Ellipse_161" data-name="Ellipse 161" cx="5.709" cy="5.709" r="5.709" transform="translate(11.555)" fill="#6c63ff" opacity="0.4"></circle><path id="Path_1624" data-name="Path 1624" d="M890.6,681.087l-.521-.01a120.79,120.79,0,0,1,1.849-17.263c2.252-12.209,6-20.228,11.132-23.833l.3.426C891.369,648.828,890.61,680.765,890.6,681.087Z" transform="translate(-890.083 -631.523)" fill="#3f3d56"></path><path id="Path_1625" data-name="Path 1625" d="M915.6,746.4l-.521-.01c.011-.577.337-14.171,5.689-17.929l.3.426C915.935,732.491,915.606,746.259,915.6,746.4Z" transform="translate(-908.572 -696.959)" fill="#3f3d56"></path><circle id="Ellipse_162" data-name="Ellipse 162" cx="2.604" cy="2.604" r="2.604" transform="translate(13.639 3.723)" fill="#6c63ff"></circle><circle id="Ellipse_163" data-name="Ellipse 163" cx="2.604" cy="2.604" r="2.604" transform="translate(12.349 26.12)" fill="#6c63ff"></circle><path id="Path_1626" data-name="Path 1626" d="M902.606,632.463a11.569,11.569,0,0,1-.786,5.922,10.542,10.542,0,0,1-1.772-11.321A11.569,11.569,0,0,1,902.606,632.463Z" transform="translate(-896.788 -621.97)" fill="#6c63ff"></path><path id="Path_1627" data-name="Path 1627" d="M928.139,666.3a11.625,11.625,0,0,1-5.965.269,10.607,10.607,0,0,1,10.839-3.718A11.625,11.625,0,0,1,928.139,666.3Z" transform="translate(-913.817 -648.238)" fill="#3f3d56"></path><path id="Path_1628" data-name="Path 1628" d="M933.6,745.6a8.108,8.108,0,0,1-4.184.181,7.389,7.389,0,0,1,7.6-2.606A8.107,8.107,0,0,1,933.6,745.6Z" transform="translate(-919.171 -707.678)" fill="#3f3d56"></path></g><line id="Line_14" data-name="Line 14" x1="279.183" transform="translate(0 49.689)" fill="none" stroke="#000" stroke-width="1"></line></g><g id="Group_394" data-name="Group 394" transform="translate(-57.462 8256)"><g id="undraw_user_flow_vr6w" transform="translate(0 0)"><path id="Path_1568" data-name="Path 1568" d="M231.483,149.847c-15.627-.543-30.511-5.587-44.723-11.107s-28.3-11.636-43.545-14.56c-9.811-1.881-21.029-2.147-28.934,3.112-7.606,5.071-10.064,13.8-11.387,21.908-.992,6.1-1.577,12.517,1.147,18.228,1.891,3.965,5.249,7.3,7.572,11.1,8.079,13.213,2.369,29.506-6.389,42.408-4.1,6.053-8.871,11.832-12.042,18.269s-4.636,13.824-1.864,20.4c2.75,6.519,9.3,11.407,16.4,14.847,14.41,6.99,31.39,8.99,47.956,10.122,36.658,2.509,73.515,1.422,110.27.336,13.6-.4,27.268-.811,40.65-2.914,7.43-1.169,15.1-3.021,20.5-7.5,6.848-5.682,8.545-15.3,3.958-22.427-7.7-11.95-28.975-14.917-34.362-27.744-2.963-7.058.08-14.92,4.383-21.468,9.233-14.043,24.709-26.365,25.525-42.417.56-11.027-6.879-22.067-18.382-27.285-12.059-5.467-28.777-4.781-37.668,4.271C261.376,146.74,245.28,150.325,231.483,149.847Z" transform="translate(-86.122 -117.74)" fill="#5685ec" opacity="0.1"></path><path id="Path_1593" data-name="Path 1593" d="M243.76,313.24s16.419,26.078,21.973,28.492" transform="translate(-202.866 -262.084)" fill="#fff" stroke="#33313f" stroke-miterlimit="10" stroke-width="3"></path><path id="Path_1594" data-name="Path 1594" d="M277.87,313.24s-15.695,20.524-18.109,27.526" transform="translate(-215.003 -262.084)" fill="#fff" stroke="#33313f" stroke-miterlimit="10" stroke-width="3"></path><path id="Path_1595" data-name="Path 1595" d="M243.76,472.24" transform="translate(-202.866 -382.692)" fill="#fff" stroke="#33313f" stroke-miterlimit="10" stroke-width="3"></path><path id="Path_1596" data-name="Path 1596" d="M264.284,472.24H245.209c-1.449,0-1.449,6.761-1.449,6.761h20.524Z" transform="translate(-202.866 -382.692)" fill="#fff" stroke="#33313f" stroke-miterlimit="10" stroke-width="3"></path><path id="Path_1600" data-name="Path 1600" d="M544.046,372.24H518.452c-1.932,0-1.932,6.761-1.932,6.761h27.526Z" transform="translate(-409.766 -306.838)" fill="#fff" stroke="#33313f" stroke-miterlimit="10" stroke-width="3"></path><path id="Path_1601" data-name="Path 1601" d="M551.574,461.24H532.5c-1.449,0-1.449,6.761-1.449,6.761h20.524Z" transform="translate(-420.787 -374.348)" fill="#fff" stroke="#33313f" stroke-miterlimit="10" stroke-width="3"></path><path id="Path_1602" data-name="Path 1602" d="M544.046,412.885c1.944,0-23.33,2.173-25.595,0-1.193-1.142-1.932,6.761-1.932,6.761h27.526Z" transform="translate(-409.766 -337.584)" fill="#fff" stroke="#33313f" stroke-miterlimit="10" stroke-width="3"></path><path id="Path_1603" data-name="Path 1603" d="M488.87,366.533l1.449,1.449,2.656-3.622" transform="translate(-370.827 -276.382)" fill="#fff" stroke="#33313f" stroke-miterlimit="10" stroke-width="3"></path><path id="Path_1604" data-name="Path 1604" d="M755.038,269.24s33.8,4.1,40.324,0c0,0-2.656,59.4-1.69,61.331,0,0-44.863,2.514-42.256,0C757.935,324.293,755.038,269.24,755.038,269.24Z" transform="translate(-587.861 -228.708)" fill="#fff" stroke="#33313f" stroke-miterlimit="10" stroke-width="3"></path><path id="Path_1605" data-name="Path 1605" d="M786.21,312.74s4.87,7.727,6.519,8.451" transform="translate(-614.336 -261.705)" fill="#fff" stroke="#33313f" stroke-miterlimit="10" stroke-width="3"></path><path id="Path_1606" data-name="Path 1606" d="M796.363,312.74s-4.655,6.1-5.363,8.166" transform="translate(-617.97 -261.705)" fill="#fff" stroke="#33313f" stroke-miterlimit="10" stroke-width="3"></path><path id="Path_1607" data-name="Path 1607" d="M815.046,378.74H789.452c-1.932,0-1.932,3.578-1.932,3.578h27.526Z" transform="translate(-615.33 -311.769)" fill="#fff" stroke="#33313f" stroke-miterlimit="10" stroke-width="3"></path><path id="Path_1608" data-name="Path 1608" d="M843.73,422.74h13.331c1.932,0,1.932,3.578,1.932,3.578h.058" transform="translate(-657.967 -345.144)" fill="#fff" stroke="#33313f" stroke-miterlimit="10" stroke-width="3"></path><path id="Path_1609" data-name="Path 1609" d="M815.046,400.243c1.944,0-23.33,1.149-25.595,0-1.193-.6-1.932,3.576-1.932,3.576h27.526Z" transform="translate(-615.33 -328.034)" fill="#fff" stroke="#33313f" stroke-miterlimit="10" stroke-width="3"></path><path id="Path_1610" data-name="Path 1610" d="M767.6,288s37.475,2.77,39.884.93" transform="translate(-600.22 -242.939)" fill="#fff" stroke="#33313f" stroke-miterlimit="10" stroke-width="3"></path><path id="Path_1611" data-name="Path 1611" d="M913.25,280.387a4.383,4.383,0,0,1,1.557.126,1.741,1.741,0,0,0,1.485-.292" transform="translate(-710.701 -237.037)" fill="#fff" stroke="#33313f" stroke-miterlimit="10" stroke-width="2"></path><path id="Path_1612" data-name="Path 1612" d="M912.18,284.85a13.822,13.822,0,0,0,3.279.181" transform="translate(-709.889 -240.549)" fill="#fff" stroke="#33313f" stroke-miterlimit="10" stroke-width="2"></path><path id="Path_1613" data-name="Path 1613" d="M912.16,289.454a24.891,24.891,0,0,1,2.8-.314" transform="translate(-709.874 -243.803)" fill="#fff" stroke="#33313f" stroke-miterlimit="10" stroke-width="2"></path><path id="Path_1614" data-name="Path 1614" d="M774.2,276.364a3.185,3.185,0,0,0,1.449.292,1.35,1.35,0,0,0,.9-.2,1.409,1.409,0,0,0,.343-1.132.85.85,0,0,0-.053-.365.724.724,0,0,0-.258-.27,2.9,2.9,0,0,0-2.4-.3A1.063,1.063,0,0,0,774.2,276.364Z" transform="translate(-604.713 -232.51)" fill="#fff" stroke="#33313f" stroke-miterlimit="10" stroke-width="2"></path><path id="Path_1615" data-name="Path 1615" d="M787.781,306.48a22.538,22.538,0,0,0,.575,5.331,34.848,34.848,0,0,1,.43,6.761q-5.715.348-11.445.167c.355.012.266-8.074.3-8.818.043-.951-.159-2.588.944-2.946a16.648,16.648,0,0,1,4.008-.2Q785.185,306.651,787.781,306.48Z" transform="translate(-607.608 -256.957)" fill="#fff" stroke="#33313f" stroke-miterlimit="10" stroke-width="3"></path><path id="Path_1616" data-name="Path 1616" d="M411.76,381.566s9.417-.483,11.107,0" transform="translate(-330.301 -313.749)" fill="none" stroke="#33313f" stroke-miterlimit="10" stroke-width="3"></path><path id="Path_1617" data-name="Path 1617" d="M453.967,361.24s4.1,4.1,4.1,5.071-5.312,4.346-5.312,4.346" transform="translate(-361.401 -298.494)" fill="none" stroke="#33313f" stroke-miterlimit="10" stroke-width="3"></path><path id="Path_1618" data-name="Path 1618" d="M681.76,381.566s9.417-.483,11.107,0" transform="translate(-535.107 -313.749)" fill="none" stroke="#33313f" stroke-miterlimit="10" stroke-width="3"></path><path id="Path_1619" data-name="Path 1619" d="M723.967,361.24s4.1,4.1,4.1,5.071-5.312,4.346-5.312,4.346" transform="translate(-566.207 -298.494)" fill="none" stroke="#33313f" stroke-miterlimit="10" stroke-width="3"></path><circle id="Ellipse_155" data-name="Ellipse 155" cx="5.223" cy="5.223" r="5.223" transform="translate(85.885 0)" fill="#5685ec" opacity="0.1"></circle><circle id="Ellipse_156" data-name="Ellipse 156" cx="5.223" cy="5.223" r="5.223" transform="translate(165.352 7.21)" fill="#5685ec" opacity="0.1"></circle><circle id="Ellipse_157" data-name="Ellipse 157" cx="5.223" cy="5.223" r="5.223" transform="translate(221.165 84.583)" fill="#5685ec" opacity="0.1"></circle><circle id="Ellipse_158" data-name="Ellipse 158" cx="8.753" cy="8.753" r="8.753" transform="translate(239.456 41.833)" fill="#5685ec" opacity="0.1"></circle><circle id="Ellipse_159" data-name="Ellipse 159" cx="8.753" cy="8.753" r="8.753" transform="translate(224.729 100.247)" fill="#5685ec" opacity="0.1"></circle><circle id="Ellipse_160" data-name="Ellipse 160" cx="8.753" cy="8.753" r="8.753" transform="translate(0 72.877)" fill="#6c63ff" opacity="0.1"></circle><g id="flowers" transform="translate(25.171 12.477)"><path id="Path_1569" data-name="Path 1569" d="M238.378,257.893s-6.638-11.757-16.632-15.144A20.464,20.464,0,0,1,211.4,235a34.352,34.352,0,0,1-3.057-5.5" transform="translate(-201.17 -211.041)" fill="none" stroke="#535461" stroke-miterlimit="10" stroke-width="2"></path><path id="Path_1570" data-name="Path 1570" d="M179.518,205c1.137,1.106,6.442,2.248,6.442,2.248s-1.3-5.266-2.441-6.372a2.873,2.873,0,1,0-4,4.124Z" transform="translate(-178.645 -188.71)" fill="#6c63ff"></path><path id="Path_1571" data-name="Path 1571" d="M187.406,242.114c1.557.309,6.631-1.615,6.631-1.615s-3.955-3.714-5.513-4.023a2.874,2.874,0,1,0-1.118,5.638Z" transform="translate(-183.534 -216.291)" fill="#6c63ff"></path><path id="Path_1572" data-name="Path 1572" d="M227.946,285.226c1.5-.519,4.909-4.74,4.909-4.74s-5.29-1.207-6.79-.691a2.873,2.873,0,0,0,1.881,5.43Z" transform="translate(-213.148 -249.095)" fill="#6c63ff"></path><path id="Path_1573" data-name="Path 1573" d="M270.942,309.422c1.567-.258,5.641-3.844,5.641-3.844s-5.008-2.086-6.575-1.828a2.874,2.874,0,0,0,.934,5.672Z" transform="translate(-246.121 -267.346)" fill="#6c63ff"></path><path id="Path_1574" data-name="Path 1574" d="M222.407,227.221c0,1.589-2.871,6.191-2.871,6.191s-2.876-4.588-2.876-6.189a2.873,2.873,0,1,1,5.747,0Z" transform="translate(-207.481 -207.135)" fill="#6c63ff"></path><path id="Path_1575" data-name="Path 1575" d="M271.118,253.927c-.483,1.516-4.588,5.049-4.588,5.049s-1.367-5.252-.893-6.761a2.874,2.874,0,0,1,5.486,1.717Z" transform="translate(-244.556 -226.742)" fill="#6c63ff"></path><path id="Path_1576" data-name="Path 1576" d="M313.621,290.409c-.21,1.574-3.673,5.754-3.673,5.754s-2.236-4.945-2.023-6.519a2.874,2.874,0,1,1,5.7.765Z" transform="translate(-276.698 -254.773)" fill="#6c63ff"></path><path id="Path_1577" data-name="Path 1577" d="M179.518,205c1.137,1.106,6.442,2.248,6.442,2.248s-1.3-5.266-2.441-6.372a2.873,2.873,0,1,0-4,4.124Z" transform="translate(-178.645 -188.71)" fill="#0606e2"></path><path id="Path_1578" data-name="Path 1578" d="M187.406,242.114c1.557.309,6.631-1.615,6.631-1.615s-3.955-3.714-5.513-4.023a2.874,2.874,0,1,0-1.118,5.638Z" transform="translate(-183.534 -216.291)" fill="#0606e2"></path><path id="Path_1579" data-name="Path 1579" d="M227.946,285.226c1.5-.519,4.909-4.74,4.909-4.74s-5.29-1.207-6.79-.691a2.873,2.873,0,0,0,1.881,5.43Z" transform="translate(-213.148 -249.095)" fill="#0606e2"></path><path id="Path_1580" data-name="Path 1580" d="M270.942,309.422c1.567-.258,5.641-3.844,5.641-3.844s-5.008-2.086-6.575-1.828a2.874,2.874,0,0,0,.934,5.672Z" transform="translate(-246.121 -267.346)" fill="#0606e2"></path><path id="Path_1581" data-name="Path 1581" d="M222.407,227.221c0,1.589-2.871,6.191-2.871,6.191s-2.876-4.588-2.876-6.189a2.873,2.873,0,1,1,5.747,0Z" transform="translate(-207.481 -207.135)" fill="#0606e2"></path><path id="Path_1582" data-name="Path 1582" d="M271.118,253.927c-.483,1.516-4.588,5.049-4.588,5.049s-1.367-5.252-.893-6.761a2.874,2.874,0,0,1,5.486,1.717Z" transform="translate(-244.556 -226.742)" fill="#0606e2"></path><path id="Path_1583" data-name="Path 1583" d="M313.621,290.409c-.21,1.574-3.673,5.754-3.673,5.754s-2.236-4.945-2.023-6.519a2.874,2.874,0,1,1,5.7.765Z" transform="translate(-276.698 -254.773)" fill="#0606e2"></path><path id="Path_1584" data-name="Path 1584" d="M280.975,226.326s-1.3-13.44-9.069-20.587a20.466,20.466,0,0,1-6.331-11.283A34.35,34.35,0,0,1,265,188.19" transform="translate(-244.149 -179.706)" fill="none" stroke="#535461" stroke-miterlimit="10" stroke-width="2"></path><path id="Path_1585" data-name="Path 1585" d="M244.223,157c.594,1.473,4.979,4.667,4.979,4.667s.947-5.344.353-6.816A2.874,2.874,0,0,0,244.223,157Z" transform="translate(-228.23 -153.054)" fill="#5685ec"></path><path id="Path_1586" data-name="Path 1586" d="M236.414,194.12c1.3.913,6.715,1.207,6.715,1.207s-2.11-5-3.409-5.911a2.874,2.874,0,0,0-3.306,4.7Z" transform="translate(-221.539 -180.24)" fill="#5685ec"></path><path id="Path_1587" data-name="Path 1587" d="M256.03,249.9c1.582.133,6.411-2.347,6.411-2.347s-4.346-3.248-5.928-3.38a2.874,2.874,0,0,0-.483,5.727Z" transform="translate(-235.348 -222.167)" fill="#5685ec"></path><path id="Path_1588" data-name="Path 1588" d="M285.073,289.317c1.538.4,6.715-1.229,6.715-1.229s-3.735-3.936-5.271-4.346a2.873,2.873,0,1,0-1.449,5.554Z" transform="translate(-257.635 -252.085)" fill="#5685ec"></path><path id="Path_1590" data-name="Path 1590" d="M304.244,238.812C303.2,240,298,241.564,298,241.564s.876-5.353,1.932-6.546a2.874,2.874,0,1,1,4.32,3.793Z" transform="translate(-269.181 -214.485)" fill="#5685ec"></path><path id="Path_1591" data-name="Path 1591" d="M331.035,289.426c-.831,1.352-5.686,3.772-5.686,3.772s-.041-5.426.79-6.78a2.874,2.874,0,1,1,4.9,3.009Z" transform="translate(-289.926 -253.176)" fill="#5685ec"></path><path id="Path_1589" data-name="Path 1589" d="M274.4,194.707c-.642,1.449-5.133,4.5-5.133,4.5s-.765-5.37-.123-6.821a2.874,2.874,0,0,1,5.257,2.325Z" transform="translate(-247.097 -181.587)" fill="#5685ec"></path></g></g><g id="undraw_online_art_bgb4" transform="translate(4.105 49.556)"><path id="Path_1545" data-name="Path 1545" d="M251.169,110.69v91.89a64.807,64.807,0,0,0-23.79-27.442c-.11-.072-.221-.143-.333-.212a64.211,64.211,0,0,0-34.58-10.039H124.09v-54.2Z" transform="translate(-120.91 -109.694)" fill="#3f3d56"></path><path id="Path_1546" data-name="Path 1546" d="M232.54,492.556V487.58a64.543,64.543,0,0,0-58.7-37.693H105.462v42.669Z" transform="translate(-105.462 -390.983)" fill="#5685ec"></path><path id="Path_1547" data-name="Path 1547" d="M173.127,152.322h-3.773v-3.773h3.773Zm-3.168-.605h2.562v-2.562h-2.562Z" transform="translate(-158.446 -141.089)" fill="#f2f2f2"></path><path id="Path_1548" data-name="Path 1548" d="M229.883,555.714h-86V539.15h86Zm-85.735-.265h85.47V539.415h-85.47Z" transform="translate(-137.324 -465.007)" fill="#f2f2f2"></path><rect id="Rectangle_174" data-name="Rectangle 174" width="6.891" height="6.891" transform="translate(9.342 80.702)" opacity="0.1"></rect><rect id="Rectangle_175" data-name="Rectangle 175" width="56.583" height="1.723" transform="translate(29.351 77.257)" fill="#f2f2f2"></rect><rect id="Rectangle_176" data-name="Rectangle 176" width="56.583" height="1.723" transform="translate(29.351 81.63)" fill="#f2f2f2"></rect><rect id="Rectangle_177" data-name="Rectangle 177" width="56.583" height="1.723" transform="translate(29.351 86.003)" fill="#f2f2f2"></rect><path id="Path_1549" data-name="Path 1549" d="M170.008,567.215h-10.6v-10.6h10.6Zm-10.336-.265h10.071V556.879H159.672Z" transform="translate(-150.198 -479.49)" fill="#f2f2f2"></path><path id="Path_1550" data-name="Path 1550" d="M686.708,565.682a5.7,5.7,0,1,1,5.7-5.7A5.7,5.7,0,0,1,686.708,565.682Zm0-11.131a5.433,5.433,0,1,0,5.433,5.433A5.433,5.433,0,0,0,686.708,554.551Z" transform="translate(-582.753 -477.559)" fill="#f2f2f2"></path><path id="Path_1551" data-name="Path 1551" d="M594.762,463.04l-.187-.187-3.484,3.484-3.484-3.484-.187.187,3.484,3.484-3.02,3.02.187.187,3.02-3.02,3.02,3.02.187-.187-3.02-3.02Z" transform="translate(-487.135 -383.835)" fill="#f2f2f2"></path><path id="Path_1552" data-name="Path 1552" d="M314.822,124.708l-80.481,13.617,6.461,38.187h.268l-6.424-37.971L314.6,125.014l10.229,60.461-6.358,1.076c.111.069.223.14.333.212l6.331-1.071Z" transform="translate(-212.339 -121.319)" fill="none" stroke="#f2f2f2" stroke-miterlimit="10" stroke-width="2"></path><path id="Path_1553" data-name="Path 1553" d="M453.565,268.856a39.454,39.454,0,0,1,1.727,15.537,37.483,37.483,0,0,1-9.642-29.018A39.453,39.453,0,0,1,453.565,268.856Z" transform="translate(-387.441 -229.678)" fill="#5685ec"></path><path id="Path_1554" data-name="Path 1554" d="M503.856,268.856a39.453,39.453,0,0,0-1.727,15.537,37.483,37.483,0,0,0,9.642-29.018A39.453,39.453,0,0,0,503.856,268.856Z" transform="translate(-434.277 -229.678)" fill="#5685ec"></path><path id="Path_1555" data-name="Path 1555" d="M487.6,260.933a39.452,39.452,0,0,1-2.936,15.354,37.483,37.483,0,0,1-.646-30.571A39.453,39.453,0,0,1,487.6,260.933Z" transform="translate(-416.953 -221.668)" fill="#f2f2f2"></path><circle id="Ellipse_145" data-name="Ellipse 145" cx="0.826" cy="0.826" r="0.826" transform="translate(66.565 30.977)" fill="#6c63ff"></circle><circle id="Ellipse_146" data-name="Ellipse 146" cx="0.459" cy="0.459" r="0.459" transform="translate(65.326 37.956)" fill="#6c63ff"></circle><circle id="Ellipse_147" data-name="Ellipse 147" cx="0.459" cy="0.459" r="0.459" transform="translate(59.724 33.411)" fill="#3f3d56"></circle><circle id="Ellipse_148" data-name="Ellipse 148" cx="0.459" cy="0.459" r="0.459" transform="translate(75.931 28.957)" fill="#3f3d56"></circle><circle id="Ellipse_149" data-name="Ellipse 149" cx="0.459" cy="0.459" r="0.459" transform="translate(62.112 37.726)" fill="#3f3d56"></circle><circle id="Ellipse_150" data-name="Ellipse 150" cx="0.459" cy="0.459" r="0.459" transform="translate(71.753 35.063)" fill="#3f3d56"></circle><circle id="Ellipse_151" data-name="Ellipse 151" cx="0.459" cy="0.459" r="0.459" transform="translate(62.387 44.476)" fill="#3f3d56"></circle><circle id="Ellipse_152" data-name="Ellipse 152" cx="0.459" cy="0.459" r="0.459" transform="translate(72.212 41.859)" fill="#3f3d56"></circle><circle id="Ellipse_153" data-name="Ellipse 153" cx="0.459" cy="0.459" r="0.459" transform="translate(67.759 42.318)" fill="#6c63ff"></circle><path id="Path_1556" data-name="Path 1556" d="M1053.656,706.256s.512,5.122,1.366,6.829c0,0-5.122,1.2-5.292.171a38.814,38.814,0,0,1,.171-4.951Z" transform="translate(-888.485 -603.585)" fill="#a0616a"></path><path id="Path_1557" data-name="Path 1557" d="M903.719,721.256s.512,5.122,1.366,6.829c0,0-5.122,1.2-5.292.171a61.881,61.881,0,0,1,.341-6.487Z" transform="translate(-764.156 -616.024)" fill="#a0616a"></path><path id="Path_1558" data-name="Path 1558" d="M1014.815,301.909s3.585,11.95,1.366,14.17-7.512,9.731-7.512,9.731l-1.707-2.9s5.975-8.365,5.292-10.243-2.39-7-2.39-7S1012.766,301.226,1014.815,301.909Z" transform="translate(-853.058 -268.209)" fill="#a0616a"></path><circle id="Ellipse_154" data-name="Ellipse 154" cx="6.829" cy="6.829" r="6.829" transform="translate(138.198 5.532)" fill="#a0616a"></circle><path id="Path_1559" data-name="Path 1559" d="M962.257,182.256s2.732,7.341,4.268,8.024,4.268,3.927,4.268,3.927.341,8.536-1.536,8.536-12.292-12.121-12.292-12.121.512-2.39-.512-3.756S962.257,182.256,962.257,182.256Z" transform="translate(-811.085 -169.042)" fill="#a0616a"></path><path id="Path_1560" data-name="Path 1560" d="M897.115,351.061v2.049s3.073,5.292,3.244,14.853l1.536,17.072s8.024,12.975,6.829,20.486l.171,2.9-4.1,1.366-1.366-2.39s-1.366-.171-2.561-3.927l-7.341-16.56-4.439-13.487-2.732,17.584s1.2,16.218-1.878,16.731V410.3l-5.634.171v-2.39s-1.878.683-1.707-2.219,0-15.535,0-15.535l-1.024-21.681s-2.269-10.157-1.049-12.163l6.683-11.225Z" transform="translate(-743.382 -304.215)" fill="#2f2e41"></path><path id="Path_1561" data-name="Path 1561" d="M1029.235,737.893s1.707-.683,2.049.171,2.732,5.463,0,5.8a15.235,15.235,0,0,1-4.439,0,13.929,13.929,0,0,0-3.073-.171c-.854.171-4.268-.341-3.927-2.9a2.266,2.266,0,0,1,2.561-2.219s2.219-1.366,2.219-1.878.854.854.854.854S1026.162,738.747,1029.235,737.893Z" transform="translate(-863.722 -628.734)" fill="#2f2e41"></path><path id="Path_1562" data-name="Path 1562" d="M879.235,752.893s1.707-.683,2.049.171,2.732,5.463,0,5.8a15.236,15.236,0,0,1-4.439,0,13.93,13.93,0,0,0-3.073-.171c-.854.171-4.268-.341-3.926-2.9a2.266,2.266,0,0,1,2.561-2.219s2.219-1.366,2.219-1.878.854.854.854.854S876.162,753.747,879.235,752.893Z" transform="translate(-739.33 -641.174)" fill="#2f2e41"></path><path id="Path_1563" data-name="Path 1563" d="M929.741,234.213s5.8-1.327,0-8.687c0,0,4.609,1.346,5.122,4.931s.683,8.024.683,8.024-2.9-.854-4.439,3.073-3.756,5.975-3.073,10.072l-17.072-6.317s2.39-4.951,1.2-7.17.341-6.317.341-6.317,4.609-11.1,8.877-6.658S925.3,233.189,929.741,234.213Z" transform="translate(-773.447 -203.757)" fill="#d0cde1"></path><path id="Path_1564" data-name="Path 1564" d="M890.509,273.451s-.683,11.267-2.561,13.316-9.39,10.585-9.39,10.585l-.341,2.049-1.707,1.2s-1.707-4.1.171-5.8l6.487-11.609,1.536-10.926Z" transform="translate(-744.288 -243.677)" fill="#a0616a"></path><path id="Path_1565" data-name="Path 1565" d="M923.5,221.971s3.98-2.3,5.063-.211.571,10.454.571,10.454l-7.17-.854S922.474,222.142,923.5,221.971Z" transform="translate(-782.569 -201.075)" fill="#d0cde1"></path><path id="Path_1566" data-name="Path 1566" d="M895.566,116.8c-1.262-1.513-.212-1.514-.212-1.514a4.042,4.042,0,0,0,1.214,1.779,14.339,14.339,0,0,0,1.274,1.11l-.119-.415,1.111.731c.367,3.351,2.26,2.88,2.26,2.88-1.56-.978-1.128-2.605-.912-3.42s1.676-.642,1.762,1.738a3.091,3.091,0,0,0,1.7,2.974l.311,1.356.271,1.181.739-1.338.347-.628a2.26,2.26,0,0,0,2.593-1.95,11.943,11.943,0,0,0,1.513-.852c3.628-2.434,2.409-5.231,1.535-6.515a5.471,5.471,0,0,0-.569-.714l.152.029c6.96,1.3,3.431-2.716,3.431-2.716l1.746.848,3.274.408-2.644-2.392c1.895-.1,3.8,2.853,3.853,2.943-1.176-3.566-3.478-3.2-3.478-3.2l.695-.2-1.212-.553,1.408.195s-.4-.336-1.014-.91-3.532-.784-3.532-.784c2.972-1.157,5.895,1.156,5.895,1.156-1.606-3.641-5.555-2.349-7.512-1.422l-.956.111a8.058,8.058,0,0,0,.031-1.366c-.024-1.6-1.922,1.192-2.016,1.33,0-.02-.1-.13-1.393-.645-1.509-.6-.866,2.708-.847,2.8v0s.015.022-.111.005a27.155,27.155,0,0,1-3.233-.918,3.569,3.569,0,0,0-3.85.7,9.827,9.827,0,0,1-3.152,2.144c-.381.157-.722.287-.944.352-.831.239-1.267.816-2.076,2.7C892.106,115.677,895.472,116.773,895.566,116.8Z" transform="translate(-758.369 -104.855)" fill="#2f2e41"></path><path id="Path_1567" data-name="Path 1567" d="M971.132,128.153c.8,1.14,3.116,4.294,4.8,5.081a5.467,5.467,0,0,0-.569-.714l.152.029-4.27-4.4v0Z" transform="translate(-823.345 -124.17)" fill="#d0cde1"></path></g></g></g></svg> 