<?xml version="1.0" encoding="UTF-8"?> <svg xmlns="http://www.w3.org/2000/svg" xmlns:xlink="http://www.w3.org/1999/xlink" width="97.828" height="97.83" viewBox="0 0 97.828 97.83"><defs><linearGradient id="linear-gradient" x1="0.5" x2="0" y2="1.82" gradientUnits="objectBoundingBox"><stop offset="0" stop-color="#71bfff"></stop><stop offset="0.081" stop-color="#71bfff"></stop><stop offset="0.085" stop-color="#71bfff"></stop><stop offset="1" stop-color="#5a4dff"></stop></linearGradient></defs><g id="digital-marketing" transform="translate(0 0)"><g id="Group_43" data-name="Group 43" transform="translate(44.768 82.135)"><g id="Group_42" data-name="Group 42"><path id="Path_275" data-name="Path 275" d="M237.563,430.419a1.91,1.91,0,1,0,.56,1.351A1.926,1.926,0,0,0,237.563,430.419Z" transform="translate(-234.301 -429.859)" fill="url(#linear-gradient)"></path></g></g><g id="Group_45" data-name="Group 45" transform="translate(0 49.098)"><g id="Group_44" data-name="Group 44"><path id="Path_276" data-name="Path 276" d="M57.128,272.928v-14.06A1.911,1.911,0,0,0,54.5,257.1l-32.924,13.26h-10.6a10.974,10.974,0,0,0,0,21.949h1.263v11.474a1.911,1.911,0,0,0,1.911,1.911h7.8a1.911,1.911,0,0,0,1.911-1.911V293.226L54.5,305.552a1.91,1.91,0,0,0,2.624-1.773V289.72a8.61,8.61,0,0,0,0-16.792Zm-37.09,28.94H16.06V292.3h3.979v9.564Zm0-13.385H10.975a7.153,7.153,0,1,1,0-14.306h9.064Zm33.268,12.468h0L23.861,289.108V273.557l20.909-8.421V284.1a1.911,1.911,0,1,0,3.821,0V263.6l4.716-1.9Zm3.821-15.235v-8.784a4.789,4.789,0,0,1,0,8.784Z" transform="translate(-0.001 -256.958)" fill="url(#linear-gradient)"></path></g></g><g id="Group_47" data-name="Group 47" transform="translate(69.328 71.61)"><g id="Group_46" data-name="Group 46"><path id="Path_277" data-name="Path 277" d="M375.564,374.775H364.746a1.911,1.911,0,1,0,0,3.821h10.818a1.911,1.911,0,1,0,0-3.821Z" transform="translate(-362.835 -374.775)" fill="url(#linear-gradient)"></path></g></g><g id="Group_49" data-name="Group 49" transform="translate(66.191 57.049)"><g id="Group_48" data-name="Group 48"><path id="Path_278" data-name="Path 278" d="M353.412,299.129a1.911,1.911,0,0,0-2.7,0l-3.732,3.732a1.911,1.911,0,0,0,2.7,2.7l3.732-3.732A1.911,1.911,0,0,0,353.412,299.129Z" transform="translate(-346.418 -298.57)" fill="url(#linear-gradient)"></path></g></g><g id="Group_51" data-name="Group 51" transform="translate(66.206 82.136)"><g id="Group_50" data-name="Group 50"><path id="Path_279" data-name="Path 279" d="M353.618,434.28l-3.856-3.857a1.911,1.911,0,0,0-2.7,2.7l3.857,3.857a1.911,1.911,0,0,0,2.7-2.7Z" transform="translate(-346.499 -429.864)" fill="url(#linear-gradient)"></path></g></g><g id="Group_53" data-name="Group 53" transform="translate(10.318)"><g id="Group_52" data-name="Group 52"><path id="Path_280" data-name="Path 280" d="M133.87,0H98.33a7.652,7.652,0,0,0-7.643,7.643v.764h-32.1A4.591,4.591,0,0,0,54,12.993v30.19a4.591,4.591,0,0,0,4.586,4.586h1.974v5.86a1.911,1.911,0,0,0,3.262,1.351l7.211-7.211h37.954a4.591,4.591,0,0,0,4.586-4.586V37.451h20.3a7.652,7.652,0,0,0,7.643-7.643V7.643A7.652,7.652,0,0,0,133.87,0ZM109.752,43.183a.765.765,0,0,1-.764.764H70.242a1.911,1.911,0,0,0-1.351.56l-4.508,4.509V45.858a1.911,1.911,0,0,0-1.911-1.911H58.587a.765.765,0,0,1-.764-.764V12.993a.765.765,0,0,1,.764-.764h32.1V29.808a7.652,7.652,0,0,0,7.643,7.643h11.422Zm27.939-13.375a3.826,3.826,0,0,1-3.821,3.821H98.33a3.826,3.826,0,0,1-3.821-3.821V7.643A3.826,3.826,0,0,1,98.33,3.821h35.54a3.826,3.826,0,0,1,3.821,3.821Z" transform="translate(-54.001)" fill="url(#linear-gradient)"></path></g></g><g id="Group_55" data-name="Group 55" transform="translate(64.15 9.264)"><g id="Group_54" data-name="Group 54"><path id="Path_281" data-name="Path 281" d="M351.679,56.292,338.6,48.742a1.911,1.911,0,0,0-2.866,1.655V65.5a1.911,1.911,0,0,0,2.866,1.655l13.077-7.55a1.91,1.91,0,0,0,0-3.309Zm-12.122,5.9V53.706l7.345,4.241Z" transform="translate(-335.736 -48.486)" fill="url(#linear-gradient)"></path></g></g><g id="Group_57" data-name="Group 57" transform="translate(19.969 20.063)"><g id="Group_56" data-name="Group 56"><path id="Path_282" data-name="Path 282" d="M125.53,105H106.423a1.911,1.911,0,0,0,0,3.822H125.53a1.911,1.911,0,0,0,0-3.822Z" transform="translate(-104.512 -105)" fill="url(#linear-gradient)"></path></g></g><g id="Group_59" data-name="Group 59" transform="translate(39.076 30.763)"><g id="Group_58" data-name="Group 58"><path id="Path_283" data-name="Path 283" d="M207.773,161.56a1.91,1.91,0,1,0,.56,1.351A1.924,1.924,0,0,0,207.773,161.56Z" transform="translate(-204.511 -161)" fill="url(#linear-gradient)"></path></g></g><g id="Group_61" data-name="Group 61" transform="translate(19.969 30.763)"><g id="Group_60" data-name="Group 60"><path id="Path_284" data-name="Path 284" d="M118.363,161h-11.94a1.911,1.911,0,0,0,0,3.821h11.94a1.911,1.911,0,1,0,0-3.821Z" transform="translate(-104.512 -161)" fill="url(#linear-gradient)"></path></g></g></g></svg> 