<?xml version="1.0" encoding="UTF-8"?> <svg xmlns="http://www.w3.org/2000/svg" xmlns:xlink="http://www.w3.org/1999/xlink" width="1064" height="1042" viewBox="0 0 1064 1042"><defs><clipPath id="clip-path"><rect id="Rectangle_673" data-name="Rectangle 673" width="1064" height="1042" transform="translate(858 1268)" fill="#fff"></rect></clipPath><linearGradient id="linear-gradient" x1="0.549" y1="0.56" x2="0.046" y2="1.127" gradientUnits="objectBoundingBox"><stop offset="0" stop-color="#0606e2"></stop><stop offset="0.468" stop-color="#71bfff"></stop><stop offset="1" stop-color="#a7ebeb" stop-opacity="0"></stop></linearGradient><linearGradient id="linear-gradient-2" x1="-0.146" y1="1.088" x2="0.866" y2="0.167" gradientUnits="objectBoundingBox"><stop offset="0" stop-color="#5a4dff"></stop><stop offset="1" stop-color="#00c4d8"></stop></linearGradient></defs><g id="Mask_Group_33" data-name="Mask Group 33" transform="translate(-858 -1268)" clip-path="url(#clip-path)"><g id="Group_1130" data-name="Group 1130"><path id="Path_3025" data-name="Path 3025" d="M908.695,60.728c-57.433,2.388-117.294,26.961-130.9,66.6-12.1,35.27,12.6,77.132-17.786,106.337-23.411,22.52-71.28,25.767-107.693,15-36.45-10.746-64.106-32.165-90.614-52.87s-54.4-42.029-91.019-52.465c-37.863-10.793-82.834-8.191-117.734,6.829-34.932,15.045-58.917,42.124-62.856,70.949-3.806,27.844,10,55.235,14.214,83.031,4.211,27.821-5.187,60.488-39.918,73.766-29.71,11.366-65.989,4.322-98.934-.932-32.979-5.278-72.761-7.021-95.2,10.866-25.7,20.488-12.1,52.727,5.691,77.084,31.362,42.888,73.1,86.638,75.322,133.585H3.29A74.415,74.415,0,0,0,25.253,542.08c-1.381-29.922-16.507-58.6-22.8-88.189s-1.719-63.234,28.9-83.818c47.9-32.215,136.158-18.364,179.343-53.754,38.638-31.642,16.338-80.883,31.8-121.24,14.316-37.3,62.421-65.121,115.374-74.339,52.922-9.242,109.479-1.958,159.569,13.277,32.1,9.744,62.387,22.735,95.938,29.612s72.492,6.734,100.315-8.215c33.18-17.838,40.929-50.267,59.927-76.535C803.765,37.181,865.24,10.006,929.882,0V60.633Q919.322,60.31,908.695,60.728ZM687.447,202.459c-15.38-6.524-51.349-6.072-51.363,11.417-.009,14.758,31.348,24.521,48.79,24.247C717.562,237.608,707.667,211.037,687.447,202.459Zm61.413,5.17a8.9,8.9,0,0,0-5.738-4.335,15.836,15.836,0,0,0-9.136.773c-4.622,1.7-8.185,4.861-9.243,8.476a8.808,8.808,0,0,0,6.1,11.067c3.975,1.125,9.421.074,12.62-1.8a12.432,12.432,0,0,0,5.957-8.123A8.84,8.84,0,0,0,748.86,207.629Z" transform="translate(990.117 1399.416)" opacity="0.083" fill="url(#linear-gradient)"></path><path id="Union_3" data-name="Union 3" d="M25944.1,12602.04c-72.377-104.072-206.676-44.055-352.861-41.188-137.244,2.69-222.225-26.868-174.605-190.289,19.527-76.91,22.447-89.776,21.611-107.833-1.383-29.92-7.193-45.219-13.49-74.812s-1.721-63.229,28.9-83.814c47.9-32.22,136.158-18.363,179.342-53.755,38.643-31.642,16.344-80.882,31.8-121.239,14.314-37.307,62.418-65.125,115.377-74.34,52.924-9.241,109.477-1.961,159.568,13.277,32.1,9.74,62.385,22.732,95.936,29.607s72.5,6.734,100.314-8.212c33.184-17.838,40.93-50.271,59.932-76.533,30.146-41.7,65.93-104.863,292.8-85.217v594.456a1.7,1.7,0,0,1,.352,1.2,16.716,16.716,0,0,0-.352,2v.5l-.062,0c-2.654,22.915.414,152.6.414,152.6l-314.205,148.6s-57.615,28.75-119.217,28.755C26015.105,12655.8,25972.836,12643.352,25944.1,12602.04Z" transform="translate(-24427.189 -10358.613)" stroke="rgba(0,0,0,0)" stroke-width="1" opacity="0.069" fill="url(#linear-gradient-2)"></path><rect id="Rectangle_652" data-name="Rectangle 652" width="1.624" height="113.686" transform="translate(1723.508 1688.675)" fill="#f2f2f2"></rect><rect id="Rectangle_653" data-name="Rectangle 653" width="1.624" height="148.686" transform="translate(1693.508 1524.432)" fill="#f2f2f2"></rect><rect id="Rectangle_654" data-name="Rectangle 654" width="1.624" height="113.686" transform="translate(1693.508 1416.896)" fill="#f2f2f2"></rect><circle id="Ellipse_233" data-name="Ellipse 233" cx="20.301" cy="20.301" r="20.301" transform="translate(1674.019 1668.374)" fill="#f2f2f2"></circle><circle id="Ellipse_234" data-name="Ellipse 234" cx="26.166" cy="26.166" r="26.166" transform="translate(1668.154 1484.898)" fill="#f2f2f2"></circle><circle id="Ellipse_235" data-name="Ellipse 235" cx="51.159" cy="51.159" r="51.159" transform="translate(1643.162 1355.737)" fill="#f2f2f2"></circle><circle id="Ellipse_236" data-name="Ellipse 236" cx="8.12" cy="8.12" r="8.12" transform="translate(1665.899 1376.038)" fill="#d0cde1"></circle><circle id="Ellipse_237" data-name="Ellipse 237" cx="4.872" cy="4.872" r="4.872" transform="translate(1701.629 1397.151)" fill="#d0cde1"></circle><circle id="Ellipse_238" data-name="Ellipse 238" cx="4.872" cy="4.872" r="4.872" transform="translate(1689.448 1423.137)" fill="#d0cde1"></circle><path id="Path_3028" data-name="Path 3028" d="M485.194,605.592a359.891,359.891,0,0,1-136.559-26.909A289.616,289.616,0,0,1,189.7,200.844C238.086,82.174,373.515,25.2,492.185,73.59c95.019,38.746,140.638,147.183,101.892,242.2A148.8,148.8,0,0,1,400.1,397.4a119.2,119.2,0,0,1-65.371-155.39,95.635,95.635,0,0,1,124.524-52.386,76.67,76.67,0,0,1,42,99.831,61.428,61.428,0,0,1-80.076,33.687,49.305,49.305,0,0,1-27.039-64.273,39.653,39.653,0,0,1,51.63-21.72,31.884,31.884,0,0,1,17.465,41.516,25.67,25.67,0,0,1-33.424,14.062,20.7,20.7,0,0,1-11.338-26.952,16.72,16.72,0,0,1,21.772-9.159,13.54,13.54,0,0,1,7.417,17.629,11,11,0,0,1-14.315,6.022,8.958,8.958,0,0,1-4.907-11.664,7.328,7.328,0,0,1,9.543-4.015,6.026,6.026,0,0,1,3.3,7.846,4.981,4.981,0,0,1-6.488,2.73,4.149,4.149,0,0,1-2.273-5.4,3.478,3.478,0,0,1,4.534-1.907,2.947,2.947,0,0,1,1.615,3.839,2.518,2.518,0,0,1-3.283,1.381,2.176,2.176,0,0,1-1.193-2.838,1.905,1.905,0,0,1,.425-.637,1.843,1.843,0,0,0-.594.776,2.524,2.524,0,0,0,1.382,3.286,3.358,3.358,0,0,0,4.372-1.839,4.4,4.4,0,0,0-2.41-5.729,5.706,5.706,0,0,0-7.426,3.124,7.333,7.333,0,0,0,4.016,9.547,9.371,9.371,0,0,0,12.2-5.132,11.915,11.915,0,0,0-6.526-15.513,15.1,15.1,0,0,0-19.656,8.269,19.052,19.052,0,0,0,10.448,24.835,24.046,24.046,0,0,0,31.308-13.171,30.259,30.259,0,0,0-16.575-39.4,38.028,38.028,0,0,0-49.514,20.83,47.682,47.682,0,0,0,26.149,62.156,59.805,59.805,0,0,0,77.96-32.8,75.045,75.045,0,0,0-41.107-97.714,94.01,94.01,0,0,0-122.408,51.5,117.582,117.582,0,0,0,64.481,153.274A147.179,147.179,0,0,0,592.573,315.18a184.176,184.176,0,0,0-101-240.086C373.921,27.12,239.174,83.806,191.2,201.457c-60.01,147.168,10.9,315.719,158.066,375.73,184.063,75.054,394.871-13.63,469.927-197.694l1.5.614A362.528,362.528,0,0,1,489.917,605.562C488.343,605.582,486.766,605.592,485.194,605.592ZM435.957,270.671a.285.285,0,0,0-.109.022.281.281,0,0,0-.151.152.552.552,0,0,0,.3.72.9.9,0,0,0,1.166-.49,1.321,1.321,0,0,0-.585-1.655l-.519,1.271A.275.275,0,0,0,435.957,270.671Z" transform="translate(1007.506 1279.641)" fill="#3f3d56"></path><circle id="Ellipse_239" data-name="Ellipse 239" cx="40.227" cy="40.227" r="40.227" transform="translate(1532.99 1484.806)" fill="#2f2e41"></circle><path id="Path_3029" data-name="Path 3029" d="M530.61,380.894l4.872,15.429-63.339,9.744.812-16.241Z" transform="translate(1086.926 1264.336)" fill="#e3937a"></path><path id="Path_3030" data-name="Path 3030" d="M617.892,585.166,615.455,634.7s-13.8,25.173-12.181,60.9.812,36.542.812,36.542l-.812,12.993,12.993,1.624V729.71s18.677-47.1,20.3-70.648l18.677-70.648Z" transform="translate(925.749 1180.247)" fill="#e3937a"></path><path id="Path_3031" data-name="Path 3031" d="M725.66,585.166,728.1,634.7s13.8,25.173,12.181,60.9-.812,36.542-.812,36.542l.812,12.993-12.993,1.624V729.71s-18.677-47.1-20.3-70.648l-18.677-70.648Z" transform="translate(909.742 1180.247)" fill="#e3937a"></path><path id="Path_3032" data-name="Path 3032" d="M695.939,450.166s-58.467,8.932-67.4,6.5L599.306,558.168a140.648,140.648,0,0,0,59.279,7.308,28.312,28.312,0,0,1,19.489,3.248c9.744,5.684,38.978-9.744,38.978-9.744l20.3-4.06Z" transform="translate(926.47 1205.621)" fill="#2f2e41"></path><rect id="Rectangle_655" data-name="Rectangle 655" width="64.963" height="73.896" transform="translate(1578.969 1666.757)" fill="#5685ec"></rect><rect id="Rectangle_656" data-name="Rectangle 656" width="64.963" height="73.896" transform="translate(1569.215 1674.863)" fill="#f2f2f2"></rect><circle id="Ellipse_240" data-name="Ellipse 240" cx="24.361" cy="24.361" r="24.361" transform="translate(1552.167 1514.898)" fill="#e3937a"></circle><g id="income" transform="translate(1577 1688)"><g id="Group_963" data-name="Group 963" transform="translate(6.823 5.306)"><g id="Group_962" data-name="Group 962"><path id="Path_3033" data-name="Path 3033" d="M75.032,60.548a1.516,1.516,0,1,1,1.516-1.516h1.516a3.032,3.032,0,1,0-3.032,3.032,1.516,1.516,0,1,1-1.516,1.516H72a3.032,3.032,0,1,0,3.032-3.032Z" transform="translate(-72 -56)"></path></g></g><g id="Group_965" data-name="Group 965" transform="translate(9.097 3.79)"><g id="Group_964" data-name="Group 964"><rect id="Rectangle_657" data-name="Rectangle 657" width="1.516" height="2.274"></rect></g></g><g id="Group_967" data-name="Group 967" transform="translate(9.097 15.161)"><g id="Group_966" data-name="Group 966"><rect id="Rectangle_658" data-name="Rectangle 658" width="1.516" height="2.274"></rect></g></g><g id="Group_969" data-name="Group 969" transform="translate(0 42.452)"><g id="Group_968" data-name="Group 968"><path id="Path_3034" data-name="Path 3034" d="M0,448v4.548H13.645V448Zm12.129,3.032H1.516v-1.516H12.129Z" transform="translate(0 -448)"></path></g></g><g id="Group_971" data-name="Group 971" transform="translate(0 39.419)"><g id="Group_970" data-name="Group 970"><path id="Path_3035" data-name="Path 3035" d="M0,416v4.548H13.645V416Zm12.129,3.032H1.516v-1.516H12.129Z" transform="translate(0 -416)"></path></g></g><g id="Group_973" data-name="Group 973" transform="translate(0 36.387)"><g id="Group_972" data-name="Group 972"><path id="Path_3036" data-name="Path 3036" d="M0,384v4.548H13.645V384Zm12.129,3.032H1.516v-1.516H12.129Z" transform="translate(0 -384)"></path></g></g><g id="Group_975" data-name="Group 975" transform="translate(15.161 42.452)"><g id="Group_974" data-name="Group 974"><path id="Path_3037" data-name="Path 3037" d="M164.548,448v1.516h7.581v1.516H161.516v-1.516h1.516V448H160v4.548h13.645V448Z" transform="translate(-160 -448)"></path></g></g><g id="Group_977" data-name="Group 977" transform="translate(15.161 39.419)"><g id="Group_976" data-name="Group 976"><path id="Path_3038" data-name="Path 3038" d="M160,416v3.79h1.516v-2.274h10.613v2.274h1.516V416Z" transform="translate(-160 -416)"></path></g></g><g id="Group_979" data-name="Group 979" transform="translate(15.161 36.387)"><g id="Group_978" data-name="Group 978"><path id="Path_3039" data-name="Path 3039" d="M160,384v4.548h13.645V384Zm12.129,3.032H161.516v-1.516h10.613Z" transform="translate(-160 -384)"></path></g></g><g id="Group_981" data-name="Group 981" transform="translate(15.161 33.355)"><g id="Group_980" data-name="Group 980"><path id="Path_3040" data-name="Path 3040" d="M160,352v4.548h13.645V352Zm12.129,3.032H161.516v-1.516h10.613Z" transform="translate(-160 -352)"></path></g></g><g id="Group_983" data-name="Group 983" transform="translate(15.161 30.323)"><g id="Group_982" data-name="Group 982"><path id="Path_3041" data-name="Path 3041" d="M160,320v4.548h13.645V320Zm12.129,3.032H161.516v-1.516h10.613Z" transform="translate(-160 -320)"></path></g></g><g id="Group_985" data-name="Group 985" transform="translate(30.323 42.452)"><g id="Group_984" data-name="Group 984"><path id="Path_3042" data-name="Path 3042" d="M320,448v4.548h13.645V448Zm12.129,3.032H321.516v-1.516h10.613Z" transform="translate(-320 -448)"></path></g></g><g id="Group_987" data-name="Group 987" transform="translate(30.323 39.419)"><g id="Group_986" data-name="Group 986"><path id="Path_3043" data-name="Path 3043" d="M320,416v4.548h13.645V416Zm12.129,3.032H321.516v-1.516h10.613Z" transform="translate(-320 -416)"></path></g></g><g id="Group_989" data-name="Group 989" transform="translate(30.323 36.387)"><g id="Group_988" data-name="Group 988"><path id="Path_3044" data-name="Path 3044" d="M320,384v4.548h13.645V384Zm12.129,3.032H321.516v-1.516h10.613Z" transform="translate(-320 -384)"></path></g></g><g id="Group_991" data-name="Group 991" transform="translate(30.323 33.355)"><g id="Group_990" data-name="Group 990"><path id="Path_3045" data-name="Path 3045" d="M320,352v4.548h13.645V352Zm12.129,3.032H321.516v-1.516h10.613Z" transform="translate(-320 -352)"></path></g></g><g id="Group_993" data-name="Group 993" transform="translate(30.323 30.323)"><g id="Group_992" data-name="Group 992"><path id="Path_3046" data-name="Path 3046" d="M330.613,320v1.516h1.516v1.516H321.516v-1.516H329.1V320H320v4.548h13.645V320Z" transform="translate(-320 -320)"></path></g></g><g id="Group_995" data-name="Group 995" transform="translate(30.323 27.29)"><g id="Group_994" data-name="Group 994"><path id="Path_3047" data-name="Path 3047" d="M320,288v3.79h1.516v-2.274h10.613v2.274h1.516V288Z" transform="translate(-320 -288)"></path></g></g><g id="Group_997" data-name="Group 997" transform="translate(30.323 24.258)"><g id="Group_996" data-name="Group 996"><path id="Path_3048" data-name="Path 3048" d="M320,256v4.548h13.645V256Zm12.129,3.032H321.516v-1.516h10.613Z" transform="translate(-320 -256)"></path></g></g><g id="Group_999" data-name="Group 999" transform="translate(0.29)"><g id="Group_998" data-name="Group 998"><path id="Path_3049" data-name="Path 3049" d="M38.4,0a2.274,2.274,0,0,0,0,4.548h3.476L30.706,15.715l-6-3.753-21.645,17,.937,1.192L24.8,13.813l6.124,3.827L45.532,3.032H38.4a.758.758,0,0,1,0-1.516H48.25v9.855a.758.758,0,0,1-1.516,0V4.993L31.441,20.285l-6.767-3.759L5.325,32l.948,1.184L24.827,18.345,31.7,22.167,45.218,8.653v2.718a2.274,2.274,0,0,0,4.548,0V0Z" transform="translate(-3.056)"></path></g></g><g id="Group_1001" data-name="Group 1001" transform="translate(3.032 9.855)"><g id="Group_1000" data-name="Group 1000"><rect id="Rectangle_659" data-name="Rectangle 659" width="1.516" height="1.516"></rect></g></g><g id="Group_1003" data-name="Group 1003" transform="translate(15.161 9.855)"><g id="Group_1002" data-name="Group 1002"><rect id="Rectangle_660" data-name="Rectangle 660" width="1.516" height="1.516"></rect></g></g><g id="Group_1005" data-name="Group 1005" transform="translate(0 0.758)"><g id="Group_1004" data-name="Group 1004"><path id="Path_3050" data-name="Path 3050" d="M9.855,8a9.855,9.855,0,1,0,9.855,9.855A9.866,9.866,0,0,0,9.855,8Zm0,18.194a8.339,8.339,0,1,1,8.339-8.339A8.349,8.349,0,0,1,9.855,26.194Z" transform="translate(0 -8)"></path></g></g></g><path id="Path_3051" data-name="Path 3051" d="M605.118,388.79l-.812,11.369,14.617,50.347s5.684,35.73,17.053,56.843c0,0,6.5,32.482,18.677,28.421s-5.684-35.73-5.684-35.73l-12.993-48.723-15.429-64.151Z" transform="translate(925.53 1217.462)" fill="#e3937a"></path><path id="Path_3052" data-name="Path 3052" d="M636.493,324.166s7.308,21.925-7.308,25.985-29.233,12.993-25.985,27.609l1.624,3.248,101.505-24.361A22.282,22.282,0,0,0,684.4,346.091s-22.58-.6-21.035-15.322l-2.514-5.791Z" transform="translate(925.824 1229.303)" fill="#e3937a"></path><path id="Path_3053" data-name="Path 3053" d="M722.922,362.166s4.06,0,14.617,13.8A231.5,231.5,0,0,0,755.4,397.084s9.745,4.872,4.06,16.241-25.985,22.737-25.985,22.737-20.3,24.361-22.737,12.181,17.053-18.677,17.053-18.677,14.617-13.8,13.8-21.925l-33.294-27.609Z" transform="translate(905.983 1222.161)" fill="#e3937a"></path><path id="Path_3054" data-name="Path 3054" d="M601.275,381.716s100.693-23.549,103.13-23.549l5.108,7.915s-1.048,5.889-13.229,7.514a47.675,47.675,0,0,1-2.436,24.361V428s-56.843,6.5-61.715,11.369L623.387,396s-11.555-6.972-19.675-1.288C603.711,394.708,600.463,384.152,601.275,381.716Z" transform="translate(926.124 1222.913)" fill="#d0cde1"></path><path id="Path_3055" data-name="Path 3055" d="M614.113,778.93s-8.441-10.294-14.371-2.3l-7.554,15.3s-21.113,35.73.812,38.166,23.549-5.684,23.549-5.684-1.624-9.744,0-11.369,3.248-2.436,3.248-5.684S614.113,778.93,614.113,778.93Z" transform="translate(929.527 1144.831)" fill="#2f2e41"></path><path id="Path_3056" data-name="Path 3056" d="M732.99,778.93s8.441-10.294,14.371-2.3l7.554,15.3s21.113,35.73-.812,38.166-23.549-5.684-23.549-5.684,1.624-9.744,0-11.369-3.248-2.436-3.248-5.684S732.99,778.93,732.99,778.93Z" transform="translate(902.412 1144.831)" fill="#2f2e41"></path><circle id="Ellipse_241" data-name="Ellipse 241" cx="11.982" cy="11.982" r="11.982" transform="translate(1524.431 1483.95)" fill="#2f2e41"></circle><circle id="Ellipse_242" data-name="Ellipse 242" cx="11.982" cy="11.982" r="11.982" transform="translate(1598.038 1480.526)" fill="#2f2e41"></circle><path id="Path_3057" data-name="Path 3057" d="M686.641,240a11.982,11.982,0,0,1,10.7-11.911,11.983,11.983,0,1,0,0,23.823A11.982,11.982,0,0,1,686.641,240Z" transform="translate(910.541 1247.375)" fill="#2f2e41"></path><path id="Path_3058" data-name="Path 3058" d="M594.7,261.545a11.982,11.982,0,0,1-.695-16,11.982,11.982,0,1,0,16.673,17.016A11.982,11.982,0,0,1,594.7,261.545Z" transform="translate(928.327 1244.08)" fill="#2f2e41"></path><path id="Path_3059" data-name="Path 3059" d="M651.784,265.96c-14.181,0-25.677,6.706-25.677,14.978,0,3.7,2.311,7.084,6.125,9.7l4.943-3.582-1.344,5.611c.558.258,1.127.509,1.721.74l7.384-8.615v10.584a43.1,43.1,0,0,0,6.847.543c14.181,0,25.677-6.706,25.677-14.978S665.965,265.96,651.784,265.96Z" transform="translate(921.433 1240.244)" fill="#2f2e41"></path><path id="Path_3060" data-name="Path 3060" d="M688.268,249.1s-1.861,8.559,9.768,11.983" transform="translate(909.77 1243.413)" fill="#5685ec"></path><path id="Path_3061" data-name="Path 3061" d="M624.127,251.014s4.279,9.569-8.559,13.848" transform="translate(923.414 1243.053)" fill="#5685ec"></path><ellipse id="Ellipse_243" data-name="Ellipse 243" cx="2.03" cy="4.872" rx="2.03" ry="4.872" transform="translate(1549.305 1539.989) rotate(-15.639)" fill="#e3937a"></ellipse><ellipse id="Ellipse_244" data-name="Ellipse 244" cx="4.872" cy="2.03" rx="4.872" ry="2.03" transform="translate(1598.97 1544.808) rotate(-86.476)" fill="#e3937a"></ellipse><line id="Line_27" data-name="Line 27" x1="729" transform="translate(1200.5 1975.5)" fill="none" stroke="#000" stroke-width="1"></line></g></g></svg> 