<?xml version="1.0" encoding="UTF-8"?> <svg xmlns="http://www.w3.org/2000/svg" width="81.863" height="172.889" viewBox="0 0 81.863 172.889"><g id="Group_1094" data-name="Group 1094" transform="translate(-203.568 -101.419)"><g id="Group_1036" data-name="Group 1036"><g id="Group_1033" data-name="Group 1033"><g id="Group_1032" data-name="Group 1032"><path id="Path_3077" data-name="Path 3077" d="M277.247,272.222a12.782,12.782,0,0,1-5.125-1.253,12.817,12.817,0,0,1,5.125,1.253Z" fill="#263238"></path></g></g><g id="Group_1035" data-name="Group 1035"><g id="Group_1034" data-name="Group 1034"><path id="Path_3078" data-name="Path 3078" d="M285.43,274.222c-.036.147-.75.1-1.594-.107s-1.5-.493-1.463-.64.749-.1,1.594.106S285.466,274.074,285.43,274.222Z" fill="#263238"></path></g></g></g><g id="Group_1093" data-name="Group 1093"><g id="Group_1038" data-name="Group 1038"><g id="Group_1037" data-name="Group 1037"><path id="Path_3079" data-name="Path 3079" d="M251.674,102.686a17.824,17.824,0,0,1-5.137-1.192,10.022,10.022,0,0,1,5.137,1.192Z" fill="#263238"></path></g></g><g id="Group_1040" data-name="Group 1040"><g id="Group_1039" data-name="Group 1039"><path id="Path_3080" data-name="Path 3080" d="M261.35,106.838a17.827,17.827,0,0,1-4.715-2.363,5.8,5.8,0,0,1,2.516.866C260.464,106,261.427,106.709,261.35,106.838Z" fill="#263238"></path></g></g><g id="Group_1042" data-name="Group 1042"><g id="Group_1041" data-name="Group 1041"><path id="Path_3081" data-name="Path 3081" d="M269.741,113.2c-.109.108-1.024-.637-2.121-1.581s-1.966-1.744-1.875-1.868a5.746,5.746,0,0,1,2.234,1.451C269.093,112.163,269.847,113.1,269.741,113.2Z" fill="#263238"></path></g></g><g id="Group_1044" data-name="Group 1044"><g id="Group_1043" data-name="Group 1043"><path id="Path_3082" data-name="Path 3082" d="M276.139,121.55c-.135.074-.8-.9-1.6-2.1a7.919,7.919,0,0,1-1.3-2.3c.117-.093.952.768,1.761,2A5.621,5.621,0,0,1,276.139,121.55Z" fill="#263238"></path></g></g><g id="Group_1046" data-name="Group 1046"><g id="Group_1045" data-name="Group 1045"><path id="Path_3083" data-name="Path 3083" d="M279.772,131.416a7.987,7.987,0,0,1-.887-2.489,7.961,7.961,0,0,1-.549-2.584,9.477,9.477,0,0,1,1.436,5.073Z" fill="#263238"></path></g></g><g id="Group_1048" data-name="Group 1048"><g id="Group_1047" data-name="Group 1047"><path id="Path_3084" data-name="Path 3084" d="M280.309,141.917a8.023,8.023,0,0,1-.111-2.639,8.006,8.006,0,0,1,.238-2.632,9.439,9.439,0,0,1-.127,5.271Z" fill="#263238"></path></g></g><g id="Group_1050" data-name="Group 1050"><g id="Group_1049" data-name="Group 1049"><path id="Path_3085" data-name="Path 3085" d="M277.575,152.062a8.274,8.274,0,0,1,.743-2.533,8.157,8.157,0,0,1,1.046-2.425,9.131,9.131,0,0,1-1.789,4.958Z" fill="#263238"></path></g></g><g id="Group_1052" data-name="Group 1052"><g id="Group_1051" data-name="Group 1051"><path id="Path_3086" data-name="Path 3086" d="M271.473,160.6c-.1-.114.677-.994,1.623-2.08s1.713-1.979,1.841-1.891a5.35,5.35,0,0,1-1.427,2.252C272.54,159.99,271.572,160.706,271.473,160.6Z" fill="#263238"></path></g></g><g id="Group_1054" data-name="Group 1054"><g id="Group_1053" data-name="Group 1053"><path id="Path_3087" data-name="Path 3087" d="M262.648,166.283a22.2,22.2,0,0,1,4.67-2.444c.083.123-.846.888-2.154,1.569A5.472,5.472,0,0,1,262.648,166.283Z" fill="#263238"></path></g></g><g id="Group_1056" data-name="Group 1056"><g id="Group_1055" data-name="Group 1055"><path id="Path_3088" data-name="Path 3088" d="M252.385,168.488a23.219,23.219,0,0,1,5.233-.628,8.885,8.885,0,0,1-5.233.628Z" fill="#263238"></path></g></g><g id="Group_1058" data-name="Group 1058"><g id="Group_1057" data-name="Group 1057"><path id="Path_3089" data-name="Path 3089" d="M242.091,166.542a9.015,9.015,0,0,1,2.557.644,8.865,8.865,0,0,1,2.485.887,5.253,5.253,0,0,1-2.644-.361A5.2,5.2,0,0,1,242.091,166.542Z" fill="#263238"></path></g></g><g id="Group_1060" data-name="Group 1060"><g id="Group_1059" data-name="Group 1059"><path id="Path_3090" data-name="Path 3090" d="M234.789,159.3a19.683,19.683,0,0,1,1.432,2.182c.81,1.168,1.607,2.033,1.5,2.151-.092.108-1.091-.6-1.949-1.838A4.034,4.034,0,0,1,234.789,159.3Z" fill="#263238"></path></g></g><g id="Group_1062" data-name="Group 1062"><g id="Group_1061" data-name="Group 1061"><path id="Path_3091" data-name="Path 3091" d="M239.226,151.111c.043.16-1.088.505-2.222,1.324s-1.75,1.814-1.894,1.739c-.138-.041.3-1.285,1.572-2.185A3.621,3.621,0,0,1,239.226,151.111Z" fill="#263238"></path></g></g><g id="Group_1064" data-name="Group 1064"><g id="Group_1063" data-name="Group 1063"><path id="Path_3092" data-name="Path 3092" d="M248.269,154.864c-.14.078-.778-.908-1.816-1.864s-2.1-1.437-2.043-1.588a3.578,3.578,0,0,1,2.417,1.185A3.89,3.89,0,0,1,248.269,154.864Z" fill="#263238"></path></g></g><g id="Group_1066" data-name="Group 1066"><g id="Group_1065" data-name="Group 1065"><path id="Path_3093" data-name="Path 3093" d="M248.609,165.073a12.894,12.894,0,0,1,.487-2.577,12.926,12.926,0,0,1,.494-2.576,6.57,6.57,0,0,1-.981,5.153Z" fill="#263238"></path></g></g><g id="Group_1068" data-name="Group 1068"><g id="Group_1067" data-name="Group 1067"><path id="Path_3094" data-name="Path 3094" d="M241.761,172.924c-.088-.129.82-.881,1.911-1.818s1.954-1.729,2.071-1.628-.587,1.085-1.713,2.045A5.324,5.324,0,0,1,241.761,172.924Z" fill="#263238"></path></g></g><g id="Group_1070" data-name="Group 1070"><g id="Group_1069" data-name="Group 1069"><path id="Path_3095" data-name="Path 3095" d="M232.408,177.779a12.8,12.8,0,0,1,4.8-2.2,12.8,12.8,0,0,1-4.8,2.2Z" fill="#263238"></path></g></g><g id="Group_1072" data-name="Group 1072"><g id="Group_1071" data-name="Group 1071"><path id="Path_3096" data-name="Path 3096" d="M223.01,182.56c-.085-.125.869-.84,2.13-1.6a5.881,5.881,0,0,1,2.464-1c.074.151-.944.754-2.194,1.48A6.6,6.6,0,0,1,223.01,182.56Z" fill="#263238"></path></g></g><g id="Group_1074" data-name="Group 1074"><g id="Group_1073" data-name="Group 1073"><path id="Path_3097" data-name="Path 3097" d="M215.043,189.437c-.113-.1.581-1.074,1.63-2.1s2.035-1.707,2.132-1.592-.716.969-1.747,1.984S215.158,189.539,215.043,189.437Z" fill="#263238"></path></g></g><g id="Group_1076" data-name="Group 1076"><g id="Group_1075" data-name="Group 1075"><path id="Path_3098" data-name="Path 3098" d="M209,198.062a5.794,5.794,0,0,1,1.08-2.431c.768-1.252,1.56-2.15,1.682-2.062a7.623,7.623,0,0,1-1.214,2.349C209.793,197.15,209.139,198.133,209,198.062Z" fill="#263238"></path></g></g><g id="Group_1078" data-name="Group 1078"><g id="Group_1077" data-name="Group 1077"><path id="Path_3099" data-name="Path 3099" d="M205.158,207.864a10.015,10.015,0,0,1,1.632-5.015,17.872,17.872,0,0,1-1.632,5.015Z" fill="#263238"></path></g></g><g id="Group_1080" data-name="Group 1080"><g id="Group_1079" data-name="Group 1079"><path id="Path_3100" data-name="Path 3100" d="M203.783,218.3a9.834,9.834,0,0,1,.359-5.256,18.265,18.265,0,0,1-.359,5.256Z" fill="#263238"></path></g></g><g id="Group_1082" data-name="Group 1082"><g id="Group_1081" data-name="Group 1081"><path id="Path_3101" data-name="Path 3101" d="M205.16,228.73a6.53,6.53,0,0,1-.83-2.525,5.264,5.264,0,0,1-.215-2.647,8.778,8.778,0,0,1,.754,2.538A6.639,6.639,0,0,1,205.16,228.73Z" fill="#263238"></path></g></g><g id="Group_1084" data-name="Group 1084"><g id="Group_1083" data-name="Group 1083"><path id="Path_3102" data-name="Path 3102" d="M209.233,238.435a9.915,9.915,0,0,1-2.347-4.723,7.741,7.741,0,0,1,1.346,2.276A7.657,7.657,0,0,1,209.233,238.435Z" fill="#263238"></path></g></g><g id="Group_1086" data-name="Group 1086"><g id="Group_1085" data-name="Group 1085"><path id="Path_3103" data-name="Path 3103" d="M215.553,246.858c-.107.1-1.026-.662-1.975-1.783a5.791,5.791,0,0,1-1.436-2.239c.124-.091.918.781,1.856,1.884S215.663,246.751,215.553,246.858Z" fill="#263238"></path></g></g><g id="Group_1088" data-name="Group 1088"><g id="Group_1087" data-name="Group 1087"><path id="Path_3104" data-name="Path 3104" d="M223.671,253.563a5.77,5.77,0,0,1-2.338-1.27c-1.186-.865-2.017-1.727-1.92-1.841a7.63,7.63,0,0,1,2.245,1.4C222.825,252.7,223.753,253.433,223.671,253.563Z" fill="#263238"></path></g></g><g id="Group_1090" data-name="Group 1090"><g id="Group_1089" data-name="Group 1089"><path id="Path_3105" data-name="Path 3105" d="M233.167,258.1a9.843,9.843,0,0,1-4.891-1.969,7.672,7.672,0,0,1,2.517.809A7.766,7.766,0,0,1,233.167,258.1Z" fill="#263238"></path></g></g><g id="Group_1092" data-name="Group 1092"><g id="Group_1091" data-name="Group 1091"><path id="Path_3106" data-name="Path 3106" d="M238.463,259.445c-.027.15-.091.263-.143.254s-.071-.138-.044-.288.091-.262.143-.253S238.49,259.3,238.463,259.445Z" fill="#263238"></path></g></g></g></g></svg> 