<?xml version="1.0" encoding="UTF-8"?> <svg xmlns="http://www.w3.org/2000/svg" width="48.436" height="43.668" viewBox="0 0 48.436 43.668"><g id="Mail" transform="translate(-241.506 -247.056)"><g id="Group_1113" data-name="Group 1113" transform="translate(241.506 252.252)"><g id="Group_1097" data-name="Group 1097" transform="translate(0.002 0.002)"><rect id="Rectangle_669" data-name="Rectangle 669" width="42.328" height="26.333" transform="matrix(0.95, 0.312, -0.312, 0.95, 8.218, 0)" fill="#5685ec"></rect></g><g id="Group_1102" data-name="Group 1102" transform="translate(8.216)"><g id="Group_1099" data-name="Group 1099"><g id="Group_1098" data-name="Group 1098"><path id="Path_3109" data-name="Path 3109" d="M287.469,263.9a9.7,9.7,0,0,1-1.793.814l-5,1.958c-4.245,1.624-10.145,3.825-16.73,6.233l-.272.1-.176-.232-.669-.882c-4.387-5.79-8.322-11.057-11.14-14.894l-3.3-4.567a10.537,10.537,0,0,1-1.127-1.74,10.413,10.413,0,0,1,1.37,1.556l3.5,4.417c2.931,3.749,6.936,8.964,11.323,14.753.229.3.456.6.669.884l-.448-.132c6.587-2.4,12.517-4.517,16.811-6.008l5.089-1.726A9.594,9.594,0,0,1,287.469,263.9Z" transform="translate(-247.252 -250.69)" fill="#fff"></path></g></g><g id="Group_1101" data-name="Group 1101" opacity="0.2"><g id="Group_1100" data-name="Group 1100"><path id="Path_3110" data-name="Path 3110" d="M287.469,263.9a9.7,9.7,0,0,1-1.793.814l-5,1.958c-4.245,1.624-10.145,3.825-16.73,6.233l-.272.1-.176-.232-.669-.882c-4.387-5.79-8.322-11.057-11.14-14.894l-3.3-4.567a10.537,10.537,0,0,1-1.127-1.74,10.413,10.413,0,0,1,1.37,1.556l3.5,4.417c2.931,3.749,6.936,8.964,11.323,14.753.229.3.456.6.669.884l-.448-.132c6.587-2.4,12.517-4.517,16.811-6.008l5.089-1.726A9.594,9.594,0,0,1,287.469,263.9Z" transform="translate(-247.252 -250.69)" fill="#fff"></path></g></g></g><g id="Group_1107" data-name="Group 1107" transform="translate(0 15.322)"><g id="Group_1104" data-name="Group 1104"><g id="Group_1103" data-name="Group 1103"><path id="Path_3111" data-name="Path 3111" d="M261.343,261.419c.1.2-4.268,2.521-9.745,5.195s-9.995,4.684-10.091,4.49,4.268-2.521,9.746-5.2S261.248,261.224,261.343,261.419Z" transform="translate(-241.506 -261.406)" fill="#fff"></path></g></g><g id="Group_1106" data-name="Group 1106" opacity="0.2"><g id="Group_1105" data-name="Group 1105"><path id="Path_3112" data-name="Path 3112" d="M261.343,261.419c.1.2-4.268,2.521-9.745,5.195s-9.995,4.684-10.091,4.49,4.268-2.521,9.746-5.2S261.248,261.224,261.343,261.419Z" transform="translate(-241.506 -261.406)" fill="#fff"></path></g></g></g><g id="Group_1112" data-name="Group 1112" transform="translate(32.476 19.029)"><g id="Group_1109" data-name="Group 1109"><g id="Group_1108" data-name="Group 1108"><path id="Path_3113" data-name="Path 3113" d="M272.691,283.439c-.2.087-2.253-4.2-4.59-9.562s-4.067-9.792-3.868-9.878,2.253,4.194,4.588,9.563S272.89,283.353,272.691,283.439Z" transform="translate(-264.218 -263.998)" fill="#fff"></path></g></g><g id="Group_1111" data-name="Group 1111" opacity="0.2"><g id="Group_1110" data-name="Group 1110"><path id="Path_3114" data-name="Path 3114" d="M272.691,283.439c-.2.087-2.253-4.2-4.59-9.562s-4.067-9.792-3.868-9.878,2.253,4.194,4.588,9.563S272.89,283.353,272.691,283.439Z" transform="translate(-264.218 -263.998)" fill="#fff"></path></g></g></g></g><g id="Group_1119" data-name="Group 1119" transform="translate(241.939 247.056)"><g id="Group_1115" data-name="Group 1115"><g id="Group_1114" data-name="Group 1114"><path id="Path_3115" data-name="Path 3115" d="M251.81,258.4a6.282,6.282,0,1,1,1.344-8.782A6.281,6.281,0,0,1,251.81,258.4Z" transform="translate(-241.809 -247.056)" fill="#263238"></path></g></g><g id="Group_1118" data-name="Group 1118" transform="translate(3.008 4.832)"><g id="Group_1117" data-name="Group 1117"><g id="Group_1116" data-name="Group 1116"><path id="Path_3116" data-name="Path 3116" d="M251.149,250.737a28.959,28.959,0,0,1-4.217,2.612l-1.008.559-.182.1-.1-.177a20.126,20.126,0,0,1-1.724-3.395A20.01,20.01,0,0,1,246,253.625l-.28-.077c.325-.184.658-.373,1-.571A29.164,29.164,0,0,1,251.149,250.737Z" transform="translate(-243.912 -250.435)" fill="#fff"></path></g></g></g></g></g></svg> 