<?xml version="1.0" encoding="UTF-8"?> <svg xmlns="http://www.w3.org/2000/svg" xmlns:xlink="http://www.w3.org/1999/xlink" width="473" height="1323" viewBox="0 0 473 1323"><defs><clipPath id="clip-path"><rect id="Rectangle_193" data-name="Rectangle 193" width="473" height="1323" transform="translate(0 685)" fill="none" stroke="#707070" stroke-width="1"></rect></clipPath><linearGradient id="linear-gradient" x1="0.066" y1="-0.011" x2="1.55" y2="1.683" gradientUnits="objectBoundingBox"><stop offset="0" stop-color="#71bfff"></stop><stop offset="0.081" stop-color="#71bfff"></stop><stop offset="0.085" stop-color="#71bfff"></stop><stop offset="1" stop-color="#5a4dff"></stop></linearGradient><linearGradient id="linear-gradient-2" x1="1.213" y1="11.24" x2="2.229" y2="11.24" gradientUnits="objectBoundingBox"><stop offset="0" stop-color="#7bbdff"></stop><stop offset="0.045" stop-color="#7bbdff"></stop><stop offset="0.192" stop-color="#eefbfb"></stop><stop offset="0.39" stop-color="#92baff"></stop><stop offset="0.617" stop-color="#aeb6ff"></stop><stop offset="0.864" stop-color="#d4b1ff"></stop><stop offset="0.881" stop-color="#d8b1ff"></stop><stop offset="1" stop-color="#d8b1ff"></stop></linearGradient><linearGradient id="linear-gradient-3" x1="0.626" y1="1.399" x2="0.962" y2="-0.96" gradientUnits="objectBoundingBox"><stop offset="0" stop-color="#7bbdff"></stop><stop offset="0.065" stop-color="#7bbdff"></stop><stop offset="0.175" stop-color="#7bbdff"></stop><stop offset="0.333" stop-color="#eefbfb"></stop><stop offset="0.526" stop-color="#92baff"></stop><stop offset="0.635" stop-color="#a4b7ff"></stop><stop offset="0.715" stop-color="#aeb6ff"></stop><stop offset="0.864" stop-color="#d4b1ff"></stop><stop offset="0.881" stop-color="#d8b1ff"></stop><stop offset="1" stop-color="#d8b1ff"></stop></linearGradient><linearGradient id="linear-gradient-5" x1="0.173" y1="-0.591" x2="0.871" y2="1.738" xlink:href="#linear-gradient-2"></linearGradient></defs><g id="Mask_Group_11" data-name="Mask Group 11" transform="translate(0 -685)" clip-path="url(#clip-path)"><g id="Group_599" data-name="Group 599"><g id="Group_598" data-name="Group 598"><path id="Path_886" data-name="Path 886" d="M912.2,388.541C602.449,202.035,299.216,70.832,183.916,127.611s190.854,246.476,28.159,260.93C65.842,401.531-78.874,416.287,49.748,534.412c117.943,108.362,333.577,191.7,632.887,175.521C901.129,698.121,1040.787,603.253,1014.24,501,1004.448,463.288,971.9,424.5,912.2,388.541Z" transform="translate(-656.318 508.022)" opacity="0.757" fill="url(#linear-gradient)"></path><path id="Path_2285" data-name="Path 2285" d="M676.039,475.161c-30.975-9.2-57.156-31.4-67.085-59.124-10.49-29.3-1.561-63.849,23.6-84.888,37.852-31.645,104.223-35.244,151.758-22.6,59.9,15.925,79.7,70.783,124.426,104.083,18.224,13.568,40.071,22.653,59.44,34.9,71.916,45.46,80.9,175.967,5.973,223.177-43.288,27.275-120.714,27.16-147.8-19.452-13.285-22.862-8.906-50.247-6.328-75.89,4.781-47.573-10.612-83.835-67.981-91.181-23.523-3.013-47.769-1.968-70.687-7.577Q678.674,475.944,676.039,475.161Z" transform="translate(-626.375 402.039)" opacity="0.166" fill="url(#linear-gradient-2)"></path><path id="Path_2293" data-name="Path 2293" d="M213.2,350.623a184.636,184.636,0,0,1,47.582,3.218c30.411,6.086,61.8-2.7,85.984-22.118a183.808,183.808,0,0,1,169.629-32.059c26.868,8.4,55.73,5.1,80.72-7.867A152.662,152.662,0,0,1,819.891,427.347c0,84.159-55.261,122.184-100.238,139.162-27.622,10.423-44.476,39.084-39.6,68.2a210.683,210.683,0,0,1,2.608,45.13C677.386,787.194,589.609,873.909,482.2,877.929A208.746,208.746,0,0,1,283.9,755.243a64.343,64.343,0,0,0-58.775-37.664h-.469A183.655,183.655,0,0,1,41.128,527.132C44.51,433.433,119.609,356.336,213.2,350.623Z" transform="translate(-544.012 586.689)" opacity="0.424" fill="url(#linear-gradient-3)"></path><path id="Path_313" data-name="Path 313" d="M180.745,79.072c-10.756,2.616-20.2,9.888-24.242,19.42a27.684,27.684,0,0,0,5.975,30.26c12.107,11.855,34.592,14.434,51.063,10.94,20.756-4.4,28.812-23.263,44.828-34.063,6.526-4.4,14.175-7.156,21.058-11.07,25.555-14.528,31.765-60.153,7.424-78.207-14.061-10.43-40.394-11.924-50.734,3.9-5.07,7.76-4.243,17.458-3.986,26.508.476,16.791-5.634,29.212-25.322,30.654-8.072.591-16.293-.256-24.221,1.258Q181.661,78.85,180.745,79.072Z" transform="translate(-95.93 1443.084)" opacity="0.101" fill="url(#linear-gradient-2)"></path><circle id="Ellipse_170" data-name="Ellipse 170" cx="51.157" cy="51.157" r="51.157" transform="translate(370.596 1039.002)" fill="url(#linear-gradient-5)"></circle></g><path id="Path_312" data-name="Path 312" d="M676.039,475.161c-30.975-9.2-57.156-31.4-67.085-59.124-10.49-29.3-1.561-63.849,23.6-84.888,37.852-31.645,104.223-35.244,151.758-22.6,59.9,15.925,79.7,70.783,124.426,104.083,18.224,13.568,40.071,22.653,59.44,34.9,71.916,45.46,80.9,175.967,5.973,223.177-43.288,27.275-120.714,27.16-147.8-19.452-13.285-22.862-8.906-50.247-6.328-75.89,4.781-47.573-10.612-83.835-67.981-91.181-23.523-3.013-47.769-1.968-70.687-7.577Q678.674,475.944,676.039,475.161Z" transform="translate(-693.254 1319.039)" opacity="0.065" fill="url(#linear-gradient-2)"></path></g></g></svg> 