<?xml version="1.0" encoding="UTF-8"?> <svg xmlns="http://www.w3.org/2000/svg" xmlns:xlink="http://www.w3.org/1999/xlink" width="416" height="802" viewBox="0 0 416 802"><defs><clipPath id="clip-path"><rect id="Rectangle_205" data-name="Rectangle 205" width="416" height="802" transform="translate(1504 9205)" fill="#fff"></rect></clipPath><linearGradient id="linear-gradient" x1="0.651" y1="0.416" x2="-0.404" y2="0.416" gradientUnits="objectBoundingBox"><stop offset="0" stop-color="#71bfff"></stop><stop offset="0.081" stop-color="#71bfff"></stop><stop offset="0.085" stop-color="#71bfff"></stop><stop offset="1" stop-color="#5a4dff"></stop></linearGradient><linearGradient id="linear-gradient-2" x1="0.349" y1="0.416" x2="1.404" y2="0.416" gradientUnits="objectBoundingBox"><stop offset="0" stop-color="#5685ec"></stop><stop offset="1" stop-color="#00c4d8"></stop></linearGradient></defs><g id="Mask_Group_22" data-name="Mask Group 22" transform="translate(-1504 -9205)" clip-path="url(#clip-path)"><g id="Group_605" data-name="Group 605"><path id="Path_1510" data-name="Path 1510" d="M753.709,674.395a367.381,367.381,0,0,1-53.157-35.789c-39.655-32.332-90.89-40.317-121.692-18.965-48.443,33.492-130.6,57.98-249.513-11.768-93.381-54.756-157.077-148.32-159.958-234.965-1.048-34.667-25.913-72.193-62.913-94.949l-1.844-1.15C38.325,235.088-5.6,167.189-6.518,104.981S34.822-1.394,100.431-6.792,241.973,22.255,292.592,80.374c27.267,31.4,68.444,49.714,103.523,46.052C481.558,117.994,581.274,160.3,650.829,234.5c25.817,27.905,62.376,45.148,95.564,45.071,97.309-.974,204.936,58.7,266.671,147.86s63.564,187.557,4.53,243.807-165.528,57.579-263.863,3.294Z" transform="translate(2553.316 9021.903) rotate(98)" opacity="0.041" fill="url(#linear-gradient)"></path><path id="Path_1509" data-name="Path 1509" d="M426.92,430.593a397.786,397.786,0,0,0,59.234-19.009c43.024-18.075,105.6-18.075,148.619,0,67.645,28.365,175.689,54.138,310.328,18.741,105.733-27.785,166.235-85.59,151.936-145.162-5.852-23.846,17.559-47.1,59.234-58.845l2.073-.6c74.491-21.694,115.51-63.89,103.807-106.784s-73.807-77.971-157.163-88.768S933.571,35,882.135,69.715C854.446,88.477,806.617,96.7,761.889,90.393,653.045,75.362,536.8,93.862,464.948,137.648c-26.593,16.506-68.856,24.484-110.472,20.857C232.3,147.35,109.727,177,50.772,231.972S9.865,354.752,95.49,399.986s219.388,57.623,331.429,30.7Z" transform="translate(2891.622 9019.347) rotate(138)" opacity="0.071" fill="url(#linear-gradient-2)"></path></g></g></svg> 