<?xml version="1.0" encoding="UTF-8"?> <svg xmlns="http://www.w3.org/2000/svg" xmlns:xlink="http://www.w3.org/1999/xlink" width="1920" height="873" viewBox="0 0 1920 873"><defs><clipPath id="clip-path"><rect id="Rectangle_196" data-name="Rectangle 196" width="1920" height="873" transform="translate(0 2083)" fill="#fff"></rect></clipPath><linearGradient id="linear-gradient" x1="4.367" y1="1.021" x2="5.355" y2="1.021" gradientUnits="objectBoundingBox"><stop offset="0" stop-color="#7bbdff"></stop><stop offset="0.045" stop-color="#7bbdff"></stop><stop offset="0.192" stop-color="#81bcff"></stop><stop offset="0.39" stop-color="#92baff"></stop><stop offset="0.617" stop-color="#aeb6ff"></stop><stop offset="0.864" stop-color="#d4b1ff"></stop><stop offset="0.881" stop-color="#d8b1ff"></stop><stop offset="0.956" stop-color="#d8b1ff"></stop><stop offset="1" stop-color="#d8b1ff"></stop></linearGradient><linearGradient id="linear-gradient-2" x1="0.173" y1="-0.591" x2="0.871" y2="1.738" gradientUnits="objectBoundingBox"><stop offset="0" stop-color="#7bbdff"></stop><stop offset="0.045" stop-color="#7bbdff"></stop><stop offset="0.192" stop-color="#eefbfb"></stop><stop offset="0.39" stop-color="#92baff"></stop><stop offset="0.617" stop-color="#aeb6ff"></stop><stop offset="0.864" stop-color="#d4b1ff"></stop><stop offset="0.881" stop-color="#d8b1ff"></stop><stop offset="1" stop-color="#d8b1ff"></stop></linearGradient><linearGradient id="linear-gradient-3" x1="1" y1="-0.102" x2="-0.878" y2="1.669" gradientUnits="objectBoundingBox"><stop offset="0" stop-color="#7bbdff"></stop><stop offset="0.153" stop-color="#7bbdff"></stop><stop offset="0.264" stop-color="#eefbfb"></stop><stop offset="0.526" stop-color="#92baff"></stop><stop offset="0.635" stop-color="#a4b7ff"></stop><stop offset="0.715" stop-color="#aeb6ff"></stop><stop offset="0.864" stop-color="#d4b1ff"></stop><stop offset="0.881" stop-color="#d8b1ff"></stop><stop offset="1" stop-color="#d8b1ff"></stop></linearGradient></defs><g id="Mask_Group_14" data-name="Mask Group 14" transform="translate(0 -2083)" clip-path="url(#clip-path)"><g id="Group_603" data-name="Group 603"><path id="Path_308" data-name="Path 308" d="M180.745,79.072c-10.756,2.616-20.2,9.888-24.242,19.42a27.684,27.684,0,0,0,5.975,30.26c12.107,11.855,34.592,14.434,51.063,10.94,20.756-4.4,28.812-23.263,44.828-34.063,6.526-4.4,14.175-7.156,21.058-11.07,25.555-14.528,31.765-60.153,7.424-78.207-14.061-10.43-40.394-11.924-50.734,3.9-5.07,7.76-4.243,17.458-3.986,26.508.476,16.791-5.634,29.212-25.322,30.654-8.072.591-16.293-.256-24.221,1.258Q181.661,78.85,180.745,79.072Z" transform="translate(1617.805 2688.084)" opacity="0.055" fill="url(#linear-gradient)"></path><circle id="Ellipse_138" data-name="Ellipse 138" cx="51.157" cy="51.157" r="51.157" transform="translate(262 2628.002)" opacity="0.242" fill="url(#linear-gradient-2)"></circle><path id="Path_1506" data-name="Path 1506" d="M213.2,350.623a184.636,184.636,0,0,1,47.582,3.218c30.411,6.086,61.8-2.7,85.984-22.118a183.808,183.808,0,0,1,169.629-32.059c26.868,8.4,55.73,5.1,80.72-7.867A152.662,152.662,0,0,1,819.891,427.347c0,84.159-55.261,122.184-100.238,139.162-27.622,10.423-44.476,39.084-39.6,68.2a210.683,210.683,0,0,1,2.608,45.13C677.386,787.194,589.609,873.909,482.2,877.929A208.746,208.746,0,0,1,283.9,755.243a64.343,64.343,0,0,0-58.775-37.664h-.469A183.655,183.655,0,0,1,41.128,527.132C44.51,433.433,119.609,356.336,213.2,350.623Z" transform="translate(-403.891 1844.689)" opacity="0.229" fill="url(#linear-gradient-3)"></path></g></g></svg> 