<?xml version="1.0" encoding="UTF-8"?> <svg xmlns="http://www.w3.org/2000/svg" xmlns:xlink="http://www.w3.org/1999/xlink" width="1920" height="1109" viewBox="0 0 1920 1109"><defs><clipPath id="clip-path"><rect id="Rectangle_194" data-name="Rectangle 194" width="1920" height="1109" transform="translate(0 1621)" fill="#fff" stroke="#707070" stroke-width="1"></rect></clipPath><linearGradient id="linear-gradient" x1="1.213" y1="11.24" x2="2.229" y2="11.24" gradientUnits="objectBoundingBox"><stop offset="0" stop-color="#7bbdff"></stop><stop offset="0.045" stop-color="#7bbdff"></stop><stop offset="0.192" stop-color="#eefbfb"></stop><stop offset="0.39" stop-color="#92baff"></stop><stop offset="0.617" stop-color="#aeb6ff"></stop><stop offset="0.864" stop-color="#d4b1ff"></stop><stop offset="0.881" stop-color="#d8b1ff"></stop><stop offset="1" stop-color="#d8b1ff"></stop></linearGradient><linearGradient id="linear-gradient-2" x1="0.173" y1="-0.591" x2="0.871" y2="1.738" xlink:href="#linear-gradient"></linearGradient><linearGradient id="linear-gradient-3" x1="1" y1="-0.102" x2="-0.878" y2="1.669" gradientUnits="objectBoundingBox"><stop offset="0" stop-color="#7bbdff"></stop><stop offset="0.153" stop-color="#7bbdff"></stop><stop offset="0.264" stop-color="#eefbfb"></stop><stop offset="0.526" stop-color="#92baff"></stop><stop offset="0.635" stop-color="#a4b7ff"></stop><stop offset="0.715" stop-color="#aeb6ff"></stop><stop offset="0.864" stop-color="#d4b1ff"></stop><stop offset="0.881" stop-color="#d8b1ff"></stop><stop offset="1" stop-color="#d8b1ff"></stop></linearGradient></defs><g id="Mask_Group_12" data-name="Mask Group 12" transform="translate(0 -1621)" clip-path="url(#clip-path)"><g id="Group_597" data-name="Group 597"><path id="Path_312" data-name="Path 312" d="M676.039,475.161c-30.975-9.2-57.156-31.4-67.085-59.124-10.49-29.3-1.561-63.849,23.6-84.888,37.852-31.645,104.223-35.244,151.758-22.6,59.9,15.925,79.7,70.783,124.426,104.083,18.224,13.568,40.071,22.653,59.44,34.9,71.916,45.46,80.9,175.967,5.973,223.177-43.288,27.275-120.714,27.16-147.8-19.452-13.285-22.862-8.906-50.247-6.328-75.89,4.781-47.573-10.612-83.835-67.981-91.181-23.523-3.013-47.769-1.968-70.687-7.577Q678.674,475.944,676.039,475.161Z" transform="translate(-693.254 1319.039)" opacity="0.065" fill="url(#linear-gradient)"></path><circle id="Ellipse_138" data-name="Ellipse 138" cx="51.157" cy="51.157" r="51.157" transform="translate(262 2628.002)" opacity="0.319" fill="url(#linear-gradient-2)"></circle><path id="Path_1506" data-name="Path 1506" d="M213.2,350.623a184.636,184.636,0,0,1,47.582,3.218c30.411,6.086,61.8-2.7,85.984-22.118a183.808,183.808,0,0,1,169.629-32.059c26.868,8.4,55.73,5.1,80.72-7.867A152.662,152.662,0,0,1,819.891,427.347c0,84.159-55.261,122.184-100.238,139.162-27.622,10.423-44.476,39.084-39.6,68.2a210.683,210.683,0,0,1,2.608,45.13C677.386,787.194,589.609,873.909,482.2,877.929A208.746,208.746,0,0,1,283.9,755.243a64.343,64.343,0,0,0-58.775-37.664h-.469A183.655,183.655,0,0,1,41.128,527.132C44.51,433.433,119.609,356.336,213.2,350.623Z" transform="translate(-403.891 1844.69)" opacity="0.229" fill="url(#linear-gradient-3)"></path></g></g></svg> 