<?xml version="1.0" encoding="UTF-8"?> <svg xmlns="http://www.w3.org/2000/svg" xmlns:xlink="http://www.w3.org/1999/xlink" width="836" height="588" viewBox="0 0 836 588"><defs><clipPath id="clip-path"><rect id="Rectangle_204" data-name="Rectangle 204" width="836" height="588" transform="translate(0 8902)" fill="#fff"></rect></clipPath><linearGradient id="linear-gradient" x1="0.349" y1="0.416" x2="1.404" y2="0.416" gradientUnits="objectBoundingBox"><stop offset="0" stop-color="#71bfff"></stop><stop offset="0.081" stop-color="#71bfff"></stop><stop offset="0.085" stop-color="#71bfff"></stop><stop offset="1" stop-color="#5a4dff"></stop></linearGradient><linearGradient id="linear-gradient-2" x1="0.651" y1="0.416" x2="-0.404" y2="0.416" gradientUnits="objectBoundingBox"><stop offset="0" stop-color="#4a00e0"></stop><stop offset="1" stop-color="#8e2de2"></stop></linearGradient></defs><g id="Mask_Group_21" data-name="Mask Group 21" transform="translate(0 -8902)" clip-path="url(#clip-path)"><g id="Group_391" data-name="Group 391" transform="translate(-325 1325)"><path id="Path_1509" data-name="Path 1509" d="M426.92,430.593a397.786,397.786,0,0,0,59.234-19.009c43.024-18.075,105.6-18.075,148.619,0,67.645,28.365,175.689,54.138,310.328,18.741,105.733-27.785,166.235-85.59,151.936-145.162-5.852-23.846,17.559-47.1,59.234-58.845l2.073-.6c74.491-21.694,115.51-63.89,103.807-106.784s-73.807-77.971-157.163-88.768S933.571,35,882.135,69.715C854.446,88.477,806.617,96.7,761.889,90.393,653.045,75.362,536.8,93.862,464.948,137.648c-26.593,16.506-68.856,24.484-110.472,20.857C232.3,147.35,109.727,177,50.772,231.972S9.865,354.752,95.49,399.986s219.388,57.623,331.429,30.7Z" transform="translate(-408.371 7685.404)" opacity="0.127" fill="url(#linear-gradient)"></path></g><path id="Path_1510" data-name="Path 1510" d="M850.465,759.151a452.7,452.7,0,0,1-56.815-39.365c-42.765-35-95.729-46.446-125.8-27.2-47.3,30.187-129.7,49.092-256.1-28.663C312.5,602.885,240.986,505.071,232.168,418.291c-3.421-34.714-31.4-73.9-70.8-99.144l-1.964-1.274C88.728,271.687,39.188,200.861,34.031,138.634s35.092-103.5,101.858-104.45S282.682,72.8,338.411,134.307c30.026,33.221,73.4,54.316,109.044,53.033C534.309,184.7,639.2,233.735,715.4,312.589,743.7,342.224,782.28,361.931,816.232,364.1c99.5,5.619,213.666,72.544,282.873,165.823s77.744,191.733,21.151,243.944S954.79,820.195,850.5,759.285Z" transform="translate(-527.942 9233.029) rotate(-40)" opacity="0.032" fill="url(#linear-gradient-2)"></path></g></svg> 