<?xml version="1.0" encoding="UTF-8"?> <svg xmlns="http://www.w3.org/2000/svg" xmlns:xlink="http://www.w3.org/1999/xlink" width="350" height="387" viewBox="0 0 350 387"><defs><clipPath id="clip-path"><rect id="Rectangle_674" data-name="Rectangle 674" width="350" height="387" transform="translate(0 1621)" fill="#fff"></rect></clipPath><linearGradient id="linear-gradient" x1="1.213" y1="11.24" x2="2.229" y2="11.24" gradientUnits="objectBoundingBox"><stop offset="0" stop-color="#7bbdff"></stop><stop offset="0.045" stop-color="#7bbdff"></stop><stop offset="0.192" stop-color="#eefbfb"></stop><stop offset="0.39" stop-color="#92baff"></stop><stop offset="0.617" stop-color="#aeb6ff"></stop><stop offset="0.864" stop-color="#d4b1ff"></stop><stop offset="0.881" stop-color="#d8b1ff"></stop><stop offset="1" stop-color="#d8b1ff"></stop></linearGradient></defs><g id="Mask_Group_34" data-name="Mask Group 34" transform="translate(0 -1621)" clip-path="url(#clip-path)"><path id="Path_3129" data-name="Path 3129" d="M676.039,475.161c-30.975-9.2-57.156-31.4-67.085-59.124-10.49-29.3-1.561-63.849,23.6-84.888,37.852-31.645,104.223-35.244,151.758-22.6,59.9,15.925,79.7,70.783,124.426,104.083,18.224,13.568,40.071,22.653,59.44,34.9,71.916,45.46,80.9,175.967,5.973,223.177-43.288,27.275-120.714,27.16-147.8-19.452-13.285-22.862-8.906-50.247-6.328-75.89,4.781-47.573-10.612-83.835-67.981-91.181-23.523-3.013-47.769-1.968-70.687-7.577Q678.674,475.944,676.039,475.161Z" transform="translate(-693.254 1319.039)" opacity="0.065" fill="url(#linear-gradient)"></path></g></svg> 