<?xml version="1.0" encoding="UTF-8"?> <svg xmlns="http://www.w3.org/2000/svg" xmlns:xlink="http://www.w3.org/1999/xlink" width="1920" height="711" viewBox="0 0 1920 711"><defs><clipPath id="clip-path"><rect id="Rectangle_195" data-name="Rectangle 195" width="1920" height="711" transform="translate(0 3333)" fill="#fff"></rect></clipPath><linearGradient id="linear-gradient" x1="0.105" y1="0.461" x2="0.899" y2="0.461" gradientUnits="objectBoundingBox"><stop offset="0" stop-color="#7bbdff"></stop><stop offset="0.045" stop-color="#7bbdff"></stop><stop offset="0.192" stop-color="#eefbfb"></stop><stop offset="0.39" stop-color="#92baff"></stop><stop offset="0.617" stop-color="#aeb6ff"></stop><stop offset="0.864" stop-color="#d4b1ff"></stop><stop offset="0.881" stop-color="#d8b1ff"></stop><stop offset="1" stop-color="#d8b1ff"></stop></linearGradient><linearGradient id="linear-gradient-2" x1="1.213" y1="11.24" x2="2.229" y2="11.24" gradientUnits="objectBoundingBox"><stop offset="0.045" stop-color="#7bbdff"></stop><stop offset="0.192" stop-color="#81bcff"></stop><stop offset="0.39" stop-color="#92baff"></stop><stop offset="0.617" stop-color="#aeb6ff"></stop><stop offset="0.864" stop-color="#d4b1ff"></stop><stop offset="0.881" stop-color="#d8b1ff"></stop></linearGradient><linearGradient id="linear-gradient-3" x1="-0.213" y1="11.24" x2="-1.229" y2="11.24" xlink:href="#linear-gradient-2"></linearGradient></defs><g id="Mask_Group_13" data-name="Mask Group 13" transform="translate(0 -3333)" clip-path="url(#clip-path)"><g id="Group_602" data-name="Group 602"><path id="Path_746" data-name="Path 746" d="M408.22,18.659s-9.745,111.494-124.434,118.212S155.323,235.908,91.211,316.694-38.877,434.313-159.166,335.425s83.4-445.07,91.751-449.2S139.93-214.53,148.541-208.625,369.808-155.4,369.808-155.4Z" transform="matrix(0.438, -0.899, 0.899, 0.438, -201.031, 3693.873)" opacity="0.125" fill="url(#linear-gradient)"></path><path id="Path_641" data-name="Path 641" d="M654.792,438.4c-21.758-7.251-40.148-24.744-47.122-46.589-7.369-23.085-1.1-50.313,16.578-66.891,26.588-24.936,73.209-27.772,106.6-17.812,42.078,12.548,55.98,55.776,87.4,82.016,12.8,10.691,28.147,17.851,41.752,27.5,50.516,35.822,56.828,138.66,4.2,175.861-30.407,21.492-84.793,21.4-103.821-15.328-9.332-18.015-6.256-39.594-4.445-59.8,3.358-37.487-7.454-66.061-47.752-71.85-16.523-2.374-33.554-1.551-49.652-5.971Q656.644,439.013,654.792,438.4Z" transform="translate(1122.445 3180.192)" opacity="0.066" fill="url(#linear-gradient-2)"></path><path id="Path_642" data-name="Path 642" d="M729,370.8c11-3.664,20.289-12.5,23.813-23.543,3.724-11.666.554-25.425-8.378-33.8-13.436-12.6-37-14.034-53.869-9C669.3,310.8,662.274,332.64,646.4,345.9c-6.469,5.4-14.224,9.021-21.1,13.9-25.528,18.1-28.718,70.071-2.12,88.87,15.366,10.861,42.85,10.815,52.465-7.746,4.716-9.1,3.161-20.009,2.246-30.22-1.7-18.944,3.767-33.384,24.131-36.309,8.35-1.2,16.956-.784,25.092-3.017Q728.062,371.113,729,370.8Z" transform="translate(901.658 3564.459)" opacity="0.066" fill="url(#linear-gradient-3)"></path></g></g></svg> 