<?xml version="1.0" encoding="UTF-8"?> <svg xmlns="http://www.w3.org/2000/svg" xmlns:xlink="http://www.w3.org/1999/xlink" width="879" height="688" viewBox="0 0 879 688"><defs><clipPath id="clip-path"><rect id="Rectangle_203" data-name="Rectangle 203" width="879" height="688" transform="translate(0 6714)" fill="#fff" stroke="#707070" stroke-width="1"></rect></clipPath></defs><g id="Mask_Group_23" data-name="Mask Group 23" transform="translate(0 -6714)" clip-path="url(#clip-path)"><g id="Group_607" data-name="Group 607"><path id="Path_584" data-name="Path 584" d="M1084.613,602.265a20.812,20.812,0,1,0,8.339-39.133l-.986,10.679-3.731-9.8a20.734,20.734,0,0,0-12.221,10.109,20.41,20.41,0,0,0-1.974,5.406,20.809,20.809,0,0,0,10.574,22.738Z" transform="translate(-312.556 6629.625)" fill="#57b894"></path><path id="Path_585" data-name="Path 585" d="M1092.029,728.8c-.495-9.271,8.313-16.181,16.631-20.306s17.9-7.978,21.735-16.433c5.513-12.151-3.919-25.329-11.121-36.561a125.3,125.3,0,0,1-12.919-26.631c-1.3-3.751-2.429-7.641-2.348-11.61.116-5.716,2.713-11.052,5.29-16.155q12.88-25.5,26.954-50.369" transform="translate(-312.556 6629.625)" fill="none" stroke="#3f3d56" stroke-miterlimit="10" stroke-width="1"></path><path id="Path_586" data-name="Path 586" d="M1085.848,599.655a20.813,20.813,0,1,0,8.339-39.133l-.986,10.68-3.731-9.8a20.734,20.734,0,0,0-12.221,10.109,20.411,20.411,0,0,0-1.974,5.406A20.808,20.808,0,0,0,1085.848,599.655Z" transform="translate(-312.556 6629.625)" fill="none" stroke="#3f3d56" stroke-miterlimit="10" stroke-width="1"></path><path id="Path_587" data-name="Path 587" d="M1115.608,544.074a20.788,20.788,0,0,1,16.682-10.968l.269,10.323,4.645-10.145a20.81,20.81,0,1,1-21.6,10.789Z" transform="translate(-312.556 6629.625)" fill="#57b894"></path><path id="Path_588" data-name="Path 588" d="M1117.255,540.593a20.788,20.788,0,0,1,16.682-10.968l.269,10.323,4.645-10.145a20.81,20.81,0,1,1-21.6,10.789Z" transform="translate(-312.556 6629.625)" fill="none" stroke="#3f3d56" stroke-miterlimit="10" stroke-width="1"></path><path id="Path_589" data-name="Path 589" d="M1115.628,655.189a20.81,20.81,0,0,0,23.426-34.076l-3.569,7.8-.27-10.445a.365.365,0,0,0-.05-.027,20.811,20.811,0,0,0-19.538,36.752Z" transform="translate(-312.556 6629.625)" fill="#57b894"></path><path id="Path_590" data-name="Path 590" d="M1117.131,651.64a20.81,20.81,0,0,0,23.426-34.076l-3.569,7.8-.27-10.445a.357.357,0,0,0-.05-.027,20.811,20.811,0,1,0-19.538,36.752Z" transform="translate(-312.556 6629.625)" fill="none" stroke="#3f3d56" stroke-miterlimit="10" stroke-width="1"></path><path id="Path_591" data-name="Path 591" d="M1089.331,686.374a20.8,20.8,0,1,0,6.255-15.574l7.225,15.118-11.507-9.11a20.617,20.617,0,0,0-1.974,9.566Z" transform="translate(-312.556 6629.625)" fill="#57b894"></path><path id="Path_592" data-name="Path 592" d="M1090.566,683.763a20.8,20.8,0,1,0,6.255-15.574l7.225,15.118-11.507-9.11a20.617,20.617,0,0,0-1.974,9.566Z" transform="translate(-312.556 6629.625)" fill="none" stroke="#3f3d56" stroke-miterlimit="10" stroke-width="1"></path><path id="Path_378" data-name="Path 378" d="M614.786,666.325c-2.774,0-5.577-.044-8.328-.13l.063-2c3.95.123,7.981.157,11.95.1l.027,2Q616.645,666.324,614.786,666.325Zm15.745-.464-.117-2c3.956-.233,7.963-.562,11.909-.975l.209,1.988C638.556,665.3,634.519,665.626,630.531,665.861Zm-36.1-.312c-3.989-.306-8.021-.706-11.982-1.192l.244-1.984c3.932.481,7.932.88,11.891,1.183Zm60.039-2.2-.3-1.977c3.931-.6,7.892-1.289,11.77-2.06l.39,1.961C662.426,662.051,658.436,662.75,654.475,663.35Zm-83.935-.731c-3.941-.668-7.919-1.436-11.823-2.283l.424-1.955c3.875.842,7.822,1.6,11.733,2.266Zm107.548-3.962-.48-1.941c3.858-.954,7.738-2.009,11.532-3.134l.568,1.918C685.885,656.633,681.976,657.7,678.088,658.657ZM547.012,657.51c-3.866-1.028-7.756-2.159-11.562-3.363l.6-1.906c3.778,1.194,7.638,2.316,11.474,3.336Zm154.158-5.7-.656-1.889c3.744-1.3,7.51-2.709,11.194-4.184l.742,1.857C708.738,649.08,704.943,650.5,701.17,651.809Zm-177.146-1.566c-3.754-1.38-7.532-2.869-11.228-4.426l.776-1.844c3.667,1.545,7.416,3.022,11.142,4.393ZM723.5,642.875l-.828-1.82c3.6-1.634,7.21-3.378,10.742-5.184l.91,1.781C730.764,639.471,727.122,641.228,723.5,642.875Zm-221.71-1.994c-3.609-1.72-7.231-3.549-10.766-5.437l.942-1.764c3.508,1.874,7.1,3.689,10.684,5.4ZM744.9,631.936l-.99-1.736c3.448-1.968,6.891-4.036,10.229-6.148l1.068,1.689C751.841,627.87,748.373,629.955,744.9,631.936Zm-264.376-2.418c-3.433-2.042-6.87-4.2-10.216-6.4l1.1-1.67c3.32,2.188,6.731,4.324,10.138,6.351Zm284.7-10.439-1.144-1.639c3.247-2.269,6.487-4.645,9.631-7.061l1.219,1.586c-3.167,2.435-6.433,4.828-9.705,7.113ZM460.4,616.262c-3.228-2.345-6.453-4.8-9.585-7.3l1.248-1.562c3.108,2.481,6.309,4.919,9.512,7.245Zm323.9-11.846-1.289-1.529c3.026-2.554,6.038-5.215,8.953-7.91l1.357,1.469c-2.936,2.716-5.972,5.4-9.021,7.971ZM441.57,601.231c-3.006-2.633-5.993-5.371-8.877-8.14l1.385-1.443c2.862,2.748,5.826,5.466,8.81,8.079Zm360.4-13.161-1.424-1.4c2.79-2.827,5.55-5.753,8.2-8.7l1.486,1.338c-2.672,2.966-5.452,5.913-8.264,8.762ZM424.2,584.558c-2.758-2.9-5.482-5.9-8.1-8.91l1.511-1.311c2.594,2.989,5.3,5.964,8.035,8.842Zm393.893-14.38-1.545-1.27c2.521-3.067,5-6.232,7.378-9.409l1.6,1.2C823.132,563.9,820.631,567.088,818.091,570.178Zm-409.671-3.8c-2.477-3.13-4.916-6.361-7.25-9.6l1.623-1.168c2.316,3.218,4.736,6.425,7.195,9.532Zm424.1-15.5-1.654-1.123c2.23-3.284,4.415-6.664,6.492-10.048l1.705,1.047c-2.095,3.409-4.3,6.815-6.543,10.124Zm-438.151-4.029c-2.179-3.341-4.312-6.778-6.34-10.22l1.723-1.016c2.013,3.415,4.129,6.827,6.292,10.142Zm450.766-16.511-1.75-.967c1.92-3.475,3.785-7.043,5.546-10.606l1.793.887C848.95,523.248,847.069,526.843,845.135,530.344Zm-462.971-4.205c-1.865-3.525-3.674-7.143-5.375-10.75l1.809-.854c1.689,3.58,3.483,7.17,5.334,10.668Zm473.651-17.416-1.832-.8c1.594-3.64,3.124-7.367,4.549-11.078l1.867.717c-1.436,3.74-2.979,7.5-4.584,11.164Zm-483.9-4.315c-1.533-3.68-3-7.444-4.364-11.19l1.88-.684c1.352,3.718,2.809,7.453,4.33,11.1Zm492.551-18.216-1.9-.629c1.248-3.761,2.426-7.6,3.5-11.426l1.926.541c-1.083,3.851-2.271,7.725-3.527,11.514ZM363.7,481.809c-1.19-3.812-2.308-7.705-3.323-11.574l1.935-.508c1.007,3.84,2.117,7.7,3.3,11.486Zm507.286-18.795-1.948-.453c.9-3.854,1.714-7.791,2.434-11.7l1.967.361c-.725,3.938-1.55,7.9-2.452,11.79ZM357.588,458.52c-.834-3.906-1.589-7.886-2.243-11.83l1.973-.328c.65,3.915,1.4,7.864,2.227,11.74Zm517.752-19.184-1.982-.271c.538-3.917.992-7.911,1.351-11.872l1.992.18c-.361,3.992-.819,8.017-1.36,11.964ZM353.647,434.77c-.472-3.959-.859-7.991-1.151-11.984l2-.146c.29,3.964.674,7.965,1.143,11.895Zm523.869-19.409-2-.09c.178-3.963.269-7.982.269-11.946h2c0,3.994-.091,8.044-.27,12.036Zm-525.626-4.6c-.068-2.452-.1-4.954-.1-7.435q0-2.309.04-4.608l2,.035q-.04,2.282-.04,4.573c0,2.462.035,4.945.1,7.38Zm523.882-10.225c-.041-3.965-.174-7.984-.394-11.946l2-.111c.222,3.992.355,8.042.4,12.036ZM354.3,386.812l-2-.125c.25-4,.594-8.032,1.023-12l1.988.215C354.89,378.84,354.548,382.845,354.3,386.812Zm520.142-10.135c-.4-3.943-.9-7.932-1.477-11.858l1.979-.292c.584,3.956,1.085,7.975,1.488,11.948ZM356.873,363.059l-1.977-.306c.613-3.957,1.325-7.944,2.116-11.854l1.96.4C358.188,355.175,357.481,359.133,356.873,363.059Zm514.074-10.016c-.763-3.9-1.623-7.829-2.559-11.672l1.943-.473c.942,3.873,1.81,7.831,2.578,11.761Zm-509.337-13.4-1.94-.486c.971-3.874,2.047-7.779,3.2-11.609l1.915.575C363.642,331.922,362.574,335.8,361.61,339.642Zm503.685-9.814c-1.115-3.808-2.334-7.639-3.622-11.387l1.891-.65c1.3,3.777,2.527,7.638,3.651,11.475Zm-496.8-13.1-1.887-.663c1.329-3.781,2.764-7.58,4.265-11.291l1.854.75C371.238,309.207,369.814,312.977,368.5,316.728Zm489.033-9.495c-1.459-3.681-3.021-7.375-4.645-10.979l1.824-.821c1.636,3.633,3.21,7.355,4.68,11.063Zm-480.057-12.7-1.817-.835c1.67-3.638,3.448-7.286,5.284-10.842l1.777.917C380.894,287.3,379.129,290.92,377.472,294.531ZM847.74,285.5c-1.79-3.531-3.687-7.069-5.637-10.515l1.74-.985c1.966,3.473,3.876,7.038,5.68,10.6Zm-459.291-12.23-1.733-1c2-3.464,4.1-6.932,6.254-10.306l1.686,1.076C392.517,266.386,390.428,269.828,388.449,273.266ZM835.99,264.73c-2.113-3.364-4.326-6.716-6.577-9.962l1.643-1.14c2.269,3.271,4.5,6.648,6.628,10.038ZM401.322,253.107l-1.635-1.152c2.306-3.27,4.716-6.529,7.167-9.687l1.58,1.226C406,246.627,403.609,249.862,401.322,253.107Zm421.064-7.992c-2.41-3.157-4.92-6.295-7.462-9.327l1.533-1.285c2.561,3.056,5.09,6.217,7.519,9.4Zm-406.411-10.9-1.522-1.3c2.587-3.039,5.284-6.064,8.015-8.991l1.462,1.364C421.22,228.2,418.543,231.2,415.975,234.216Zm391.07-7.408c-2.687-2.924-5.474-5.823-8.282-8.614l1.41-1.419c2.83,2.813,5.638,5.733,8.345,8.679ZM432.28,216.744l-1.4-1.43c2.86-2.8,5.819-5.564,8.8-8.221l1.332,1.492c-2.954,2.637-5.891,5.382-8.729,8.159Zm357.818-6.78c-2.944-2.67-5.984-5.3-9.035-7.828l1.275-1.541c3.073,2.543,6.137,5.2,9.1,7.888Zm-340-9.132-1.263-1.551c3.093-2.519,6.29-5,9.5-7.384l1.191,1.606c-3.188,2.363-6.361,4.829-9.431,7.329Zm321.582-6.107c-3.177-2.392-6.445-4.739-9.715-6.976l1.129-1.65c3.295,2.253,6.588,4.618,9.789,7.029Zm-302.4-8.11-1.116-1.659c3.311-2.228,6.719-4.409,10.13-6.484l1.039,1.709c-3.385,2.06-6.767,4.225-10.053,6.435Zm282.659-5.391c-3.38-2.092-6.851-4.131-10.315-6.062l.973-1.747c3.492,1.945,6.989,4,10.4,6.107Zm-262.271-7.01-.96-1.755c3.5-1.917,7.094-3.776,10.674-5.527l.879,1.8C496.708,170.466,493.144,172.311,489.668,174.213Zm241.37-4.634c-3.559-1.773-7.2-3.486-10.835-5.091l.809-1.829c3.659,1.617,7.333,3.343,10.919,5.13ZM511.09,163.735l-.795-1.835c3.66-1.586,7.4-3.108,11.128-4.522l.71,1.87c-3.7,1.4-7.411,2.913-11.043,4.487ZM709.142,159.9c-3.7-1.436-7.493-2.806-11.266-4.072l.637-1.9c3.8,1.276,7.62,2.656,11.352,4.1ZM533.4,155.264l-.623-1.9c3.8-1.246,7.679-2.419,11.525-3.486l.535,1.927c-3.817,1.059-7.666,2.223-11.437,3.46Zm153.064-2.974c-3.814-1.087-7.705-2.1-11.563-3.01l.459-1.946c3.889.917,7.809,1.937,11.653,3.032ZM556.42,148.875l-.445-1.95c3.9-.89,7.866-1.7,11.8-2.41l.355,1.968C564.226,147.187,560.287,147.992,556.42,148.875Zm106.788-2.067c-3.895-.731-7.861-1.381-11.791-1.933l.277-1.98c3.96.556,7.958,1.211,11.883,1.948Zm-83.275-2.176-.265-1.982c3.959-.528,7.985-.973,11.967-1.319l.174,1.992c-3.951.345-7.946.785-11.876,1.31Zm59.616-1.147c-3.939-.371-7.949-.657-11.919-.849l.1-2c4,.194,8.039.482,12.009.856Zm-35.814-.929-.084-2c3.676-.153,7.422-.231,11.136-.232h.905l-.006,2h-.9c-3.686,0-7.4.079-11.052.23Z" transform="translate(-104.967 6600.675)" fill="#3f3d56"></path><path id="Path_379" data-name="Path 379" d="M870.967,621.6a12,12,0,1,1,12-12,12,12,0,0,1-12,12Zm0-22a10,10,0,1,0,10,10,10,10,0,0,0-10-10Z" transform="translate(-104.967 6600.675)" fill="#2f2e41"></path><path id="Path_380" data-name="Path 380" d="M551.769,313.734v65.68a2.3,2.3,0,0,1-2.29,2.29h-1.63v342.15a35.7,35.7,0,0,1-35.7,35.7H298.359a35.693,35.693,0,0,1-35.69-35.7V393.7h-1.18a1.618,1.618,0,0,1-1.62-1.61v-37.38a1.62,1.62,0,0,1,1.62-1.62h1.18v-14.08h-1.19a1.7,1.7,0,0,1-1.69-1.7v-36.87a1.694,1.694,0,0,1,1.69-1.69h1.19v-19.22h-1.21a1.5,1.5,0,0,1-1.5-1.5v-20.12a1.507,1.507,0,0,1,1.5-1.51h1.21v-40.74a35.691,35.691,0,0,1,35.689-35.69H512.149a35.7,35.7,0,0,1,35.7,35.69v95.78h1.63a2.3,2.3,0,0,1,2.29,2.29Z" transform="translate(-104.967 6600.675)" fill="#3f3d56"></path><rect id="Rectangle_54" data-name="Rectangle 54" width="39.823" height="8.086" rx="2.542" transform="translate(273.306 6798.956)" fill="#e6e8ec"></rect><circle id="Ellipse_30" data-name="Ellipse 30" cx="4.587" cy="4.587" r="4.587" transform="translate(319.151 6798.412)" fill="#e6e8ec"></circle><path id="Path_381" data-name="Path 381" d="M530.754,222.724v504.09a22.65,22.65,0,0,1-22.65,22.64H303.454a22.611,22.611,0,0,1-22.65-22.64V222.724a22.649,22.649,0,0,1,22.651-22.65h30.629V204a18.65,18.65,0,0,0,18.65,18.65h104.08A18.65,18.65,0,0,0,475.464,204v-3.93H508.1a22.643,22.643,0,0,1,22.65,22.65Z" transform="translate(-104.967 6600.675)" fill="#5685ec"></path><rect id="Rectangle_55" data-name="Rectangle 55" width="232" height="113" transform="translate(185.828 6966)" opacity="0.2"></rect><rect id="Rectangle_56" data-name="Rectangle 56" width="232" height="113" transform="translate(509.828 6797)" fill="#f2f2f2"></rect><rect id="Rectangle_57" data-name="Rectangle 57" width="232" height="113" transform="translate(185.828 7137.279)" fill="#3f3d56"></rect><circle id="Ellipse_31" data-name="Ellipse 31" cx="20" cy="20" r="20" transform="translate(373.828 6842.279)" fill="#fff"></circle><path id="Path_382" data-name="Path 382" d="M442.828,120.636H434.47v-8.357h-1.285v8.357h-8.357v1.286h8.357v8.357h1.285v-8.357h8.358Z" transform="translate(-40 6741)" fill="#3f3d56"></path><rect id="Rectangle_58" data-name="Rectangle 58" width="232" height="113" transform="translate(483.828 6782)" fill="#3f3d56"></rect><path id="Path_383" data-name="Path 383" d="M732.361,297.195c6.073,22.45,26.875,36.354,26.875,36.354s10.955-22.495,4.882-44.945-26.875-36.354-26.875-36.354S726.288,274.745,732.361,297.195Z" transform="translate(-144.967 6560.675)" fill="#fff"></path><path id="Path_384" data-name="Path 384" d="M741.285,292.37c16.665,16.223,18.7,41.16,18.7,41.16S735,332.166,718.337,315.944s-18.7-41.16-18.7-41.16S724.62,276.148,741.285,292.37Z" transform="translate(-144.967 6560.675)" fill="#5685ec"></path><path id="Path_385" data-name="Path 385" d="M384.2,614.195c6.073,22.45,26.875,36.354,26.875,36.354s10.955-22.495,4.882-44.945-26.875-36.354-26.875-36.354S378.13,591.745,384.2,614.195Z" transform="translate(-104.967 6600.675)" fill="#fff"></path><path id="Path_386" data-name="Path 386" d="M393.127,609.37c16.665,16.223,18.7,41.16,18.7,41.16s-24.984-1.364-41.648-17.587-18.7-41.16-18.7-41.16S376.462,593.148,393.127,609.37Z" transform="translate(-104.967 6600.675)" fill="#2f4fff"></path><path id="Path_387" data-name="Path 387" d="M439.452,614.195c-6.073,22.45-26.875,36.354-26.875,36.354s-10.955-22.495-4.882-44.945,26.875-36.354,26.875-36.354S445.525,591.745,439.452,614.195Z" transform="translate(-104.967 6600.675)" fill="#fff"></path><path id="Path_388" data-name="Path 388" d="M430.528,609.37c-16.665,16.223-18.7,41.16-18.7,41.16s24.984-1.364,41.648-17.587,18.7-41.16,18.7-41.16S447.192,593.148,430.528,609.37Z" transform="translate(-104.967 6600.675)" fill="#2f4fff"></path><path id="Path_389" data-name="Path 389" d="M680.794,476.886H661.053V457.145h19.741Zm-18.223-1.519h16.7v-16.7h-16.7Z" transform="translate(-104.967 6600.675)" fill="#3f3d56"></path><path id="Path_390" data-name="Path 390" d="M162.438,598.966,148.973,584.53l14.436-13.465L176.874,585.5ZM151.119,584.6l11.394,12.215,12.215-11.394-11.394-12.215Z" transform="translate(-104.967 6600.675)" fill="#2f2e41"></path><circle id="Ellipse_32" data-name="Ellipse 32" cx="10.079" cy="10.079" r="10.079" transform="translate(58.059 6868.878)" fill="#3f3d56"></circle><path id="Path_391" data-name="Path 391" d="M173.1,307.4a29.116,29.116,0,1,1,29.116-29.116A29.116,29.116,0,0,1,173.1,307.4Zm0-55.992a26.876,26.876,0,1,0,26.876,26.876A26.876,26.876,0,0,0,173.1,251.4Z" transform="translate(-104.967 6600.675)" fill="#2f2e41"></path><rect id="Rectangle_59" data-name="Rectangle 59" width="1156.828" height="2" transform="translate(-320 7358.311)" fill="#3f3d56"></rect><rect id="Rectangle_60" data-name="Rectangle 60" width="232" height="113" transform="translate(235.828 6948)" fill="#3f3d56"></rect><rect id="Rectangle_61" data-name="Rectangle 61" width="2" height="74.411" transform="translate(350.975 6986.744)" fill="#fff"></rect><circle id="Ellipse_33" data-name="Ellipse 33" cx="10.523" cy="10.523" r="10.523" transform="translate(341.453 6977.221)" fill="#5685ec"></circle><path id="Path_392" data-name="Path 392" d="M456.942,431.93s-1.5-32.332-32.32-28.574" transform="translate(-104.967 6600.675)" fill="#fff"></path><path id="Path_394" data-name="Path 394" d="M514.78,411.3a3.126,3.126,0,0,1-2.9,1.761,4.593,4.593,0,0,1-1.179-.158c-2.674-.719-5.773-3.652-8.088-7.657-2.258-3.911-3.185-7.844-2.66-10.454a8.363,8.363,0,0,1,1.114-.475,5.153,5.153,0,0,1,.611-.18c-.927,1.819-.374,5.953,2.186,10.389,2.092,3.631,4.925,6.377,7.2,6.981a1.957,1.957,0,0,0,2.7-1.56l.18.237.64.856Z" transform="translate(-104.967 6600.675)" fill="#3f3d56"></path><path id="Path_395" data-name="Path 395" d="M489.689,593.631l-.086-.057-1.273-.8c.007-2.049-1.546-5.406-4.975-8.778-2.9-2.825-6.262-4.68-8.584-4.767a7.693,7.693,0,0,1,.906-.906h.007c.144-.122.295-.244.453-.359a18.745,18.745,0,0,1,8.225,5C488.129,586.672,490.2,590.892,489.689,593.631Z" transform="translate(-104.967 6600.675)" fill="#3f3d56"></path><g id="Group_150" data-name="Group 150" transform="translate(-310.521 6753.5)"><path id="Path_598" data-name="Path 598" d="M974.123,360.062a20.527,20.527,0,0,0,1.2,3.143,52.964,52.964,0,0,1,.653,39.866c3.588-.225,7.171.356,10.756.633s7.295.232,10.628-1.171,6.233-4.409,6.719-8.117c.656-5.007-2.988-9.374-6.187-13.174-3.26-3.872-6.409-8.143-7.374-13.193-1.06-5.551.449-12.061-3.058-16.386a3.389,3.389,0,0,0-1.166-.994c-1.884-.863-6.788-.836-8.684.233C974.693,352.548,973.406,356.888,974.123,360.062Z" transform="translate(-43.056 -143.875)" fill="#3f3d56"></path><path id="Path_599" data-name="Path 599" d="M1073.427,722.2a25.2,25.2,0,0,1-1.178,4.907s-3.633,8.362-18.577,6.107c-9.762-1.474-9.7-6.05-8.078-9.592a22.85,22.85,0,0,1,2.665-4.148c1.453-1.963,1.309-9.452,1.819-16.283s3.594-7.184,3.594-7.184l.183,7.69c5.819-7.633,9.888,1.309,9.888,1.309s8.274.172,7.263-4.07c-1.078-4.518-2.687-11.672-2.687-11.672s4,1.858,4.728,3.167-.144,18.83-.8,20.5,0,6.181.947,7.489A2.854,2.854,0,0,1,1073.427,722.2Z" transform="translate(-43.056 -143.875)" fill="#3f3d56"></path><path id="Path_600" data-name="Path 600" d="M1070.666,700.489a8.148,8.148,0,0,1-5.7,7.764,10.973,10.973,0,0,1-9.583-1.461,5.625,5.625,0,0,1-2.369-5.273l.231-1.932.838-7.044,1.151-9.705s12.383-6.307,11.559-3.926c-.31.89.375,4.894,1.357,9.561.7,3.337,1.544,7.01,2.29,10.124a8.065,8.065,0,0,1,.222,1.893Z" transform="translate(-43.056 -143.875)" fill="#fbbebe"></path><path id="Path_601" data-name="Path 601" d="M1052.258,699.957s10.723-12.595,19.5,1.145l-1.472,8.8h-18.029Z" transform="translate(-43.056 -143.875)" opacity="0.1"></path><path id="Path_602" data-name="Path 602" d="M1052.258,700.83s10.723-12.595,19.5,1.145l-1.472,8.8h-18.029Z" transform="translate(-43.056 -143.875)" fill="#3f3d56"></path><circle id="Ellipse_74" data-name="Ellipse 74" cx="1.09" cy="1.09" r="1.09" transform="translate(1022.05 562.54)" fill="#f2f2f2"></circle><circle id="Ellipse_75" data-name="Ellipse 75" cx="1.09" cy="1.09" r="1.09" transform="translate(1008.111 560.793)" fill="#f2f2f2"></circle><circle id="Ellipse_76" data-name="Ellipse 76" cx="1.09" cy="1.09" r="1.09" transform="translate(1018.289 569.931)" fill="#f2f2f2"></circle><circle id="Ellipse_77" data-name="Ellipse 77" cx="1.09" cy="1.09" r="1.09" transform="translate(1008.771 568.65)" fill="#f2f2f2"></circle><circle id="Ellipse_78" data-name="Ellipse 78" cx="1.09" cy="1.09" r="1.09" transform="translate(1020.397 566.469)" fill="#f2f2f2"></circle><circle id="Ellipse_79" data-name="Ellipse 79" cx="1.09" cy="1.09" r="1.09" transform="translate(1008.111 564.721)" fill="#f2f2f2"></circle><circle id="Ellipse_80" data-name="Ellipse 80" cx="1.09" cy="1.09" r="1.09" transform="translate(1017.198 573.987)" fill="#f2f2f2"></circle><circle id="Ellipse_81" data-name="Ellipse 81" cx="1.091" cy="1.091" r="1.091" transform="translate(1008.771 572.578)" fill="#f2f2f2"></circle><path id="Path_603" data-name="Path 603" d="M980.432,735.4l-14.83,5.016s-7.851-7.851-5.67-10.25c.929-1.025,1.74-4.427,2.36-8,.2-1.125.379-2.273.536-3.363.515-3.546.811-6.525.811-6.525s17.229-8.288,14.394,0a20.41,20.41,0,0,0-.816,7.249,48.109,48.109,0,0,0,.92,7.258,69.135,69.135,0,0,0,2.294,8.61Z" transform="translate(-43.056 -143.875)" fill="#fbbebe"></path><path id="Path_604" data-name="Path 604" d="M980.432,735.4l-14.83,5.016s-7.851-7.851-5.67-10.25c.929-1.025,1.74-4.427,2.36-8A15.5,15.5,0,0,1,964.022,727c12.811,7.036,13.029,2.835,13.029,2.835a7.789,7.789,0,0,1,1.086-3.049,69.13,69.13,0,0,0,2.294,8.61Z" transform="translate(-43.056 -143.875)" opacity="0.1"></path><path id="Path_605" data-name="Path 605" d="M983.7,746.848s-2.565,1.906-10.085,2.181a39.643,39.643,0,0,0-5.866.661,73.288,73.288,0,0,1-24.058.65,52.214,52.214,0,0,1-6.118-1.2c-7.742-2.129-1.854-7.031-1.854-7.031s.371-.323,1.012-.807c1.64-1.23,5.042-3.5,8.532-4.048,4.85-.763,9.321-9.378,9.321-9.378l3.053-5.509c4.741-4.087,6.381,5.509,6.381,5.509,12.811,7.036,13.029,2.835,13.029,2.835.711-3.764,2.02-3.764,2.02-3.764s3.193,8.6,4.349,10.743a2.122,2.122,0,0,0,.284.436C984.466,738.887,983.7,746.848,983.7,746.848Z" transform="translate(-43.056 -143.875)" fill="#3f3d56"></path><circle id="Ellipse_82" data-name="Ellipse 82" cx="1.09" cy="1.09" r="1.09" transform="translate(919.819 586.506)" fill="#f2f2f2"></circle><circle id="Ellipse_83" data-name="Ellipse 83" cx="1.09" cy="1.09" r="1.09" transform="translate(913.573 589.56)" fill="#f2f2f2"></circle><circle id="Ellipse_84" data-name="Ellipse 84" cx="1.09" cy="1.09" r="1.09" transform="translate(916.931 587.996)" fill="#f2f2f2"></circle><circle id="Ellipse_85" data-name="Ellipse 85" cx="1.09" cy="1.09" r="1.09" transform="translate(910.059 591.359)" fill="#f2f2f2"></circle><path id="Path_606" data-name="Path 606" d="M978.033,712.28a20.409,20.409,0,0,0-.816,7.249c-3.869-1.3-10.207-1.073-14.39-.724.515-3.546.811-6.525.811-6.525S980.868,703.992,978.033,712.28Z" transform="translate(-43.056 -143.875)" opacity="0.1"></path><path id="Path_607" data-name="Path 607" d="M1068.154,688.472c-5.361,5.256-10.486,5.583-14.067,4.07l1.151-9.705s12.383-6.307,11.559-3.926C1066.488,679.8,1067.172,683.805,1068.154,688.472Z" transform="translate(-43.056 -143.875)" opacity="0.1"></path><path id="Path_608" data-name="Path 608" d="M974.108,509.451s-8.507,4.8-10.033,14.176-4.144,21.373-6.107,23.554-8.07,9.16-5.67,12.868,2.835,16.357,2.835,16.357-.872,11.341,1.527,15.049,4.362,27.262-.872,34.241c0,0-1.745,16.139-1.09,17.666s-2.835,5.452-1.745,8.724,6.325,63.466,5.67,65.865c0,0,16.575-2.4,20.937,1.527,0,0,.872-6.543,0-11.123s.654-22.682,2.617-27.262,2.4-22.028,1.745-23.772c0,0,3.49-15.485,2.181-18.538s5.67-31.188,5.67-31.188,3.49-6.761,2.617-7.633c0,0,5.67-3.708,5.016-6.543s5.234-6.107,5.234-6.107,5.234,12.868,6.979,14.83,1.813,14.612,3.96,17.229,4.982,16.357,7.817,20.065,14.176,13.522,15.921,24.645c0,0,10.25,15.921,9.814,20.937s11.559,14.176,23.118-2.835a15.113,15.113,0,0,1-6.107-12.431c0-8.506-9.16-35.768-9.16-35.768s-5.234-7.633-3.271-11.341.218-14.612.218-14.612l4.144-6.761s.654-6.543,1.309-13.3-3.926-14.176-1.745-17.448-.872-19.617-.872-19.617-2.714-28.175-6.761-29.891S974.108,509.451,974.108,509.451Z" transform="translate(-43.056 -143.875)" fill="#3f3d56"></path><path id="Path_609" data-name="Path 609" d="M993.98,469.976s-4.48.51-9.919,1.025c-7.869.742-17.749,1.492-18.926.72-1.989-1.309,0-17.884,0-17.884s.685-18.1.031-30.751c-.532-10.264,6.264-17.8,8.842-20.278.6-.576.973-.877.973-.877l2.181,1.745,12.431,21.155Z" transform="translate(-43.056 -143.875)" fill="#fbbebe"></path><path id="Path_610" data-name="Path 610" d="M1042.589,400.4l-12.213,7.415-20.065,15.267s-20.719-10.9-15.485-17.229a9.8,9.8,0,0,0,1.915-4.279c1.575-7.284-1.915-17.749-1.915-17.749s27.3-36.862,25.735-8.288c-.628,11.481,2.8,17.749,7.136,21.142C1034.149,401.734,1042.589,400.4,1042.589,400.4Z" transform="translate(-43.056 -143.875)" fill="#fbbebe"></path><path id="Path_611" data-name="Path 611" d="M1042.589,400.4l-12.213,7.415-20.065,15.267s-20.719-10.9-15.485-17.229a9.8,9.8,0,0,0,1.915-4.279c1.575-7.284-1.915-17.749-1.915-17.749s27.3-36.862,25.735-8.288c-.628,11.481,2.8,17.749,7.136,21.142C1034.149,401.734,1042.589,400.4,1042.589,400.4Z" transform="translate(-43.056 -143.875)" opacity="0.1"></path><ellipse id="Ellipse_86" data-name="Ellipse 86" cx="25.258" cy="26.76" rx="25.258" ry="26.76" transform="translate(936.802 196.989)" opacity="0.1"></ellipse><ellipse id="Ellipse_87" data-name="Ellipse 87" cx="25.258" cy="26.76" rx="25.258" ry="26.76" transform="translate(936.802 196.117)" fill="#fbbebe"></ellipse><path id="Path_612" data-name="Path 612" d="M1042.589,400.4l-12.213,7.415-20.065,15.267s-20.719-10.9-15.485-17.229a9.8,9.8,0,0,0,1.915-4.279c22.856,19.541,29.8-.685,30.956-4.894C1034.149,401.734,1042.589,400.4,1042.589,400.4Z" transform="translate(-43.056 -143.875)" opacity="0.1"></path><path id="Path_613" data-name="Path 613" d="M993.98,469.976s-4.48.51-9.919,1.025c-.214-4.693-.925-10-.794-13.238.218-5.452.218-6.107-1.527-9.16s-1.527-5.452-1.309-9.378c.209-3.76-.785-4.519-4.323-10.525l-.475-.816c-1.736-2.992-2.233-8.405-2.251-13.518a.124.124,0,0,0,0-.057c0-1.217.017-2.417.061-3.559,0-.048,0-.1,0-.144.127-3.455.41-6.4.558-7.8.6-.576.973-.877.973-.877l2.181,1.745,12.431,21.155Z" transform="translate(-43.056 -143.875)" opacity="0.1"></path><path id="Path_614" data-name="Path 614" d="M1058.458,403.625c-.017-.009,2.634,2,2.617,1.991-7.9-3.407-12.375,13.753-13.574,19.153-.222.995-.332,1.588-.332,1.588s.14,1.448.314,3.751c.589,7.712,1.6,24.981-.75,29.181a6.517,6.517,0,0,0-.563,1.4c-.742,2.552-.654,6.386-.271,10.111a101.292,101.292,0,0,0,1.924,11.389s5.234,13.3,3.053,22.028a32.358,32.358,0,0,0-.637,9.893,58.516,58.516,0,0,0,1.383,9.025c.2.868.344,1.365.344,1.365q-4.933,1.688-9.644,2.8a93.545,93.545,0,0,1-18.651,2.526c-29.491.938-49.128-13.195-53.765-17.046-.366-.305-.641-.545-.816-.711-3.053-2.835,2.835-5.016,2.181-6.979s2.984-6.325,2.984-6.325-.8-7.2,2.469-8.724,5.67-6.761,7.516-11.123-.318-15.7-.1-21.155.218-6.107-1.527-9.16-1.527-5.452-1.309-9.378c.209-3.76-.785-4.519-4.323-10.525l-.475-.816c-1.736-2.992.969-8.147.952-13.259,0-.017,1,.017,1,0,0-1.217-2.044-2.857-2-4,0-.048-1-.952-1-1a32.4,32.4,0,0,0-.479-7.695c17.448-8.942,21.591.375,21.591.375,25.517,21.962,31.31-5.483,31.31-5.483,13.888-4.746,32.156,8.039,33.2,8.781C1061.109,405.625,1058.458,403.625,1058.458,403.625Z" transform="translate(-43.056 -143.875)" fill="#55536e"></path><path id="Path_615" data-name="Path 615" d="M964.838,467.753s-2.183,11.647,4.13,18.146a7.1,7.1,0,0,0,8.213,1.411c2.1-1.031,4.442-2.561,5.322-4.523C984.238,478.918,978.8,460.01,964.838,467.753Z" transform="translate(-43.056 -143.875)" fill="#fbbebe"></path><path id="Path_616" data-name="Path 616" d="M1046.733,459.289a6.517,6.517,0,0,0-.563,1.4l1-25.5.314-5.082C1048.072,437.82,1049.084,455.089,1046.733,459.289Z" transform="translate(-43.056 -143.875)" opacity="0.1"></path><path id="Path_617" data-name="Path 617" d="M1050.876,504.217a32.359,32.359,0,0,0-.637,9.893c-1.413,2.56-2.621,4.733-3.407,6.146-.615,1.1-.973,1.736-.973,1.736a41.2,41.2,0,0,0-3.538,5.308,10.264,10.264,0,0,0-1.479,4.314c0,3.354-3.38,25.709-19.41,20.148-10.351-3.59-3.742-14.591,2.238-21.936a82.148,82.148,0,0,1,6.377-6.962s1.849-2.355,3.625-4.82a29.271,29.271,0,0,0,3.136-4.994c.763-2.181,5.8-11.777,5.8-11.777s5-10.578,3.908-15.485c-.611-2.748-.676-9.539-.615-14.987a101.239,101.239,0,0,0,1.924,11.389S1053.057,495.493,1050.876,504.217Z" transform="translate(-43.056 -143.875)" opacity="0.1"></path><path id="Path_618" data-name="Path 618" d="M1061.127,405.638s7.851,5.452,7.633,19.629-2.835,38.712-2.835,38.712l-1.636,15.267s-2.072,6.216-1.745,8.07-17.12,32.932-17.12,32.932-5.016,6.272-5.016,9.624-3.38,25.707-19.41,20.146,8.615-28.9,8.615-28.9,6-7.633,6.761-9.814,5.8-11.777,5.8-11.777,5-10.578,3.906-15.485-.436-22.723-.436-22.723l1.09-27.875.436-7.088S1051.2,402.8,1061.127,405.638Z" transform="translate(-43.056 -143.875)" fill="#fbbebe"></path><path id="Path_619" data-name="Path 619" d="M977.842,457.674l11.9-4.323a5.633,5.633,0,0,1,5.791,1.2l15.794,14.917s.872,2.394-.291,2.288-18.175-17.118-18.175-17.118L976,460.307h0a2.8,2.8,0,0,1,1.845-2.633Z" transform="translate(-43.056 -143.875)" fill="#6c63ff"></path><path id="Path_620" data-name="Path 620" d="M951.624,333.807l16.357-5.927-18.174-17.118-16.866,5.67Z" fill="#4b4b5b"></path><circle id="Ellipse_88" data-name="Ellipse 88" cx="1.454" cy="1.454" r="1.454" transform="translate(925.598 379.898)" fill="#f2f2f2"></circle><circle id="Ellipse_89" data-name="Ellipse 89" cx="1.454" cy="1.454" r="1.454" transform="translate(915.711 398.58)" fill="#f2f2f2"></circle><circle id="Ellipse_90" data-name="Ellipse 90" cx="1.454" cy="1.454" r="1.454" transform="translate(994.692 405.372)" fill="#f2f2f2"></circle><circle id="Ellipse_91" data-name="Ellipse 91" cx="1.454" cy="1.454" r="1.454" transform="translate(1002.916 431.765)" fill="#f2f2f2"></circle><circle id="Ellipse_92" data-name="Ellipse 92" cx="1.454" cy="1.454" r="1.454" transform="translate(999.713 424.337)" fill="#f2f2f2"></circle><circle id="Ellipse_93" data-name="Ellipse 93" cx="1.454" cy="1.454" r="1.454" transform="translate(996.933 414.854)" fill="#f2f2f2"></circle><circle id="Ellipse_94" data-name="Ellipse 94" cx="1.454" cy="1.454" r="1.454" transform="translate(920.327 388.742)" fill="#f2f2f2"></circle><circle id="Ellipse_95" data-name="Ellipse 95" cx="1.454" cy="1.454" r="1.454" transform="translate(909.944 408.28)" fill="#f2f2f2"></circle><path id="Path_621" data-name="Path 621" d="M1061.079,405.6l0,.013c-7.9-3.407-12.375,13.753-13.574,19.153l-12.4-17.749s-5.086,8.139-21.517,9.378-20.427-12.506-20.427-12.506c-2.255-.174-12.466,18.207-16.174,24.806l-.475-.816c-1.736-2.992-2.233-8.405-2.251-13.518a.124.124,0,0,0,0-.057c.013-1.186.035-2.377.061-3.559,0-.048,0-.1,0-.144.179-4.842.659-8.676.659-8.676,17.448-8.942,21.591.375,21.591.375,25.517,21.962,31.31-5.483,31.31-5.483C1041.769,392.077,1060.036,404.862,1061.079,405.6Z" transform="translate(-43.056 -143.875)" fill="#6c63ff"></path><path id="Path_622" data-name="Path 622" d="M964.293,565.065c.218.545,18.538,21.7,25.3,22.791S964.293,565.065,964.293,565.065Z" transform="translate(-43.056 -143.875)" opacity="0.1"></path><path id="Path_623" data-name="Path 623" d="M977.411,532.617s.186,14.916-4.394,18.284S977.411,532.617,977.411,532.617Z" transform="translate(-43.056 -143.875)" opacity="0.1"></path><path id="Path_624" data-name="Path 624" d="M985.884,537.913s-.436,17.557,6.107,21.7C991.991,559.613,980,547.945,985.884,537.913Z" transform="translate(-43.056 -143.875)" opacity="0.1"></path><path id="Path_625" data-name="Path 625" d="M977.815,628.095s-12.213,9.051-15.594,9.705S977.815,628.095,977.815,628.095Z" transform="translate(-43.056 -143.875)" opacity="0.1"></path><path id="Path_626" data-name="Path 626" d="M974.766,351.146c-2.631,2.217-1.684,6.82,1,8.968s6.364,2.477,9.8,2.566c6.621.171,13.349-.213,19.769,1.415a16.027,16.027,0,0,1,7.583,3.885,17.066,17.066,0,0,1,3.941,7.84,42.938,42.938,0,0,1,1.348,13.143c-.156,2.974-.622,5.966-.2,8.913a28.512,28.512,0,0,0,2.782,7.929,329.455,329.455,0,0,0,16.848,31.254,5.818,5.818,0,0,0,2.195,2.4c1.575.76,3.427-.01,5-.775a37.538,37.538,0,0,1-1.543-9.471,4.234,4.234,0,0,0,4.475-1.563,12.419,12.419,0,0,0,2.039-4.583l2.935-10.111c.907-3.127,2.253-6.715,5.376-7.636a19.467,19.467,0,0,0,3.3-.769,4.222,4.222,0,0,0,2.037-4.16,8.984,8.984,0,0,0-1.969-4.44c-4.415-5.94-11.777-9.463-15.224-16.013-2.96-5.625-2.446-12.394-1.469-18.674s2.335-12.737.833-18.913a25.058,25.058,0,0,0-9.726-13.932,39.231,39.231,0,0,0-15.907-6.54,15.883,15.883,0,0,0-8.04.055c-1.983.67-3.681,1.993-5.617,2.79-4.4,1.81-9.466.729-14.08,1.881a18.934,18.934,0,0,0-10.414,7.524,39.939,39.939,0,0,0-5.454,11.861c-.849,2.773.513,3.882-1.964,5.39" transform="translate(-43.056 -143.875)" opacity="0.1"></path><path id="Path_627" data-name="Path 627" d="M975.2,350.274c-2.631,2.217-1.684,6.82,1,8.968s6.364,2.477,9.8,2.566c6.621.171,13.349-.213,19.769,1.415a16.026,16.026,0,0,1,7.583,3.885,17.067,17.067,0,0,1,3.941,7.84,42.936,42.936,0,0,1,1.348,13.143c-.156,2.974-.622,5.966-.2,8.913a28.508,28.508,0,0,0,2.782,7.929,329.452,329.452,0,0,0,16.847,31.254,5.818,5.818,0,0,0,2.195,2.4c1.575.76,3.427-.011,5-.775a37.538,37.538,0,0,1-1.543-9.471,4.234,4.234,0,0,0,4.475-1.563,12.418,12.418,0,0,0,2.038-4.583l2.935-10.111c.907-3.127,2.253-6.715,5.376-7.636a19.467,19.467,0,0,0,3.3-.769,4.222,4.222,0,0,0,2.037-4.16,8.985,8.985,0,0,0-1.969-4.44c-4.415-5.94-11.777-9.463-15.224-16.013-2.96-5.625-2.446-12.394-1.469-18.674s2.335-12.737.833-18.913a25.058,25.058,0,0,0-9.726-13.932,39.231,39.231,0,0,0-15.907-6.54,15.882,15.882,0,0,0-8.04.055c-1.983.67-3.681,1.993-5.617,2.79-4.4,1.81-9.466.729-14.08,1.881a18.934,18.934,0,0,0-10.414,7.524,39.941,39.941,0,0,0-5.453,11.861c-.85,2.773.513,3.882-1.964,5.39" transform="translate(-43.056 -143.875)" fill="#3f3d56"></path><path id="Path_628" data-name="Path 628" d="M972.471,469.1s19.956-13.3,25.626-5.125-17.557,18.211-17.557,18.211Z" transform="translate(-43.056 -143.875)" fill="#fbbebe"></path><path id="Path_629" data-name="Path 629" d="M978.994,405.884c-.073,1.283-.319,2.855-1.034,3.088,1.862-.044,3.7,1.326,5.546.916,1.376-.3,2.67-1.64,3.5-3.61a1.683,1.683,0,0,1,.469-.77c.194-.114.4,0,.6.114a58.215,58.215,0,0,1,10.038,7.578c1.022.952,2.157,1.984,3.277,1.486a25.025,25.025,0,0,0-2.142-10.494,13.41,13.41,0,0,0-5.717-6.254,17.51,17.51,0,0,0-6.723-1.75,6.735,6.735,0,0,1-2.9-.721c-.991-.583-4.157-4.365-4.867-1.611-.343,1.33.1,4.163.11,5.634C979.168,401.625,979.115,403.76,978.994,405.884Z" transform="translate(-43.056 -143.875)" fill="#3f3d56"></path><path id="Path_636" data-name="Path 636" d="M982.816,490.477s2.671,4.144,16.173,5.889S982.816,490.477,982.816,490.477Z" transform="translate(-43.056 -143.875)" opacity="0.1"></path><path id="Path_637" data-name="Path 637" d="M977.96,505.962s12.145,10.687,31.626,6.761S977.96,505.962,977.96,505.962Z" transform="translate(-43.056 -143.875)" opacity="0.1"></path><path id="Path_635" data-name="Path 635" d="M967.644,466.508s5.262-2.13,8.353-1.657" transform="translate(-43.056 -143.875)" opacity="0.1"></path><g id="Group_103" data-name="Group 103" opacity="0.1"><path id="Path_630" data-name="Path 630" d="M1042.148,436.409a5.818,5.818,0,0,1-2.195-2.4,329.453,329.453,0,0,1-16.847-31.254,28.5,28.5,0,0,1-2.782-7.93c-.427-2.947.039-5.939.2-8.913a42.934,42.934,0,0,0-1.348-13.143,17.067,17.067,0,0,0-3.941-7.84,16.027,16.027,0,0,0-7.583-3.885c-6.42-1.629-13.148-1.245-19.769-1.415-3.44-.089-7.116-.418-9.8-2.566a6.774,6.774,0,0,1-2.24-7.185,4.325,4.325,0,0,1-.557.445c-2.567,2.234-1.618,6.787,1.053,8.921,2.688,2.148,6.364,2.477,9.8,2.566,6.621.171,13.349-.213,19.769,1.415a16.027,16.027,0,0,1,7.583,3.885,17.067,17.067,0,0,1,3.941,7.84,42.934,42.934,0,0,1,1.348,13.143c-.156,2.974-.622,5.966-.2,8.913a28.506,28.506,0,0,0,2.782,7.929,329.483,329.483,0,0,0,16.848,31.254,5.817,5.817,0,0,0,2.195,2.4c1.575.76,3.427-.011,5-.775-.131-.439-.251-.88-.366-1.323a3.984,3.984,0,0,1-2.889-.083Z" transform="translate(-43.056 -143.875)"></path><path id="Path_631" data-name="Path 631" d="M974.989,350.511c.106-.064.2-.127.287-.19.017-.015.031-.032.048-.047Z" transform="translate(-43.056 -143.875)"></path><path id="Path_632" data-name="Path 632" d="M977.021,348.14c-.092.063-.182.126-.287.19l.335-.237c-.017.015-.031.032-.048.047,2.069-1.415.864-2.545,1.677-5.2a40.348,40.348,0,0,1,5.323-11.668,23.14,23.14,0,0,0-1.614,1.988,39.944,39.944,0,0,0-5.453,11.861,18.564,18.564,0,0,0-.427,3.535,4.169,4.169,0,0,1,.494-.515Z" transform="translate(-43.056 -143.875)"></path><path id="Path_633" data-name="Path 633" d="M1063.728,401.5a19.468,19.468,0,0,1-3.3.769,6.36,6.36,0,0,0-3.649,3.221,5.237,5.237,0,0,1,1.9-1.04,19.467,19.467,0,0,0,3.3-.769,3.72,3.72,0,0,0,1.808-2.216C1063.769,401.477,1063.749,401.49,1063.728,401.5Z" transform="translate(-43.056 -143.875)"></path><path id="Path_634" data-name="Path 634" d="M1045.605,426.163q.038,1.134.146,2.264a4.912,4.912,0,0,0,2.584-1.647,7.27,7.27,0,0,0,.867-1.349,3.888,3.888,0,0,1-3.6.731Z" transform="translate(-43.056 -143.875)"></path></g></g></g></g></svg> 