<?xml version="1.0" encoding="UTF-8"?> <svg xmlns="http://www.w3.org/2000/svg" xmlns:xlink="http://www.w3.org/1999/xlink" width="228" height="180" viewBox="0 0 228 180"><defs><clipPath id="clip-path"><rect id="Rectangle_203" data-name="Rectangle 203" width="228" height="180" transform="translate(0.488 -0.813)" fill="#fff" stroke="#707070" stroke-width="1"></rect></clipPath></defs><g id="Mask_Group_23" data-name="Mask Group 23" transform="translate(-0.488 0.813)" clip-path="url(#clip-path)"><g id="Group_607" data-name="Group 607" transform="translate(-83.123 6.975)"><path id="Path_584" data-name="Path 584" d="M1076.443,573.265a5.409,5.409,0,1,0,2.167-10.17l-.256,2.776-.97-2.547a5.388,5.388,0,0,0-3.176,2.627,5.3,5.3,0,0,0-.513,1.405,5.408,5.408,0,0,0,2.748,5.909Z" transform="translate(-792.626 -445.687)" fill="#57b894"></path><path id="Path_585" data-name="Path 585" d="M1092.014,597.01c-.129-2.409,2.161-4.205,4.322-5.277s4.652-2.073,5.649-4.271c1.433-3.158-1.018-6.583-2.89-9.5a32.562,32.562,0,0,1-3.358-6.921,8.782,8.782,0,0,1-.61-3.017,10.016,10.016,0,0,1,1.375-4.2q3.348-6.627,7.005-13.091" transform="translate(-806.27 -436.546)" fill="none" stroke="#3f3d56" stroke-miterlimit="10" stroke-width="1"></path><path id="Path_586" data-name="Path 586" d="M1077.678,570.655a5.409,5.409,0,1,0,2.167-10.17l-.256,2.776-.97-2.547a5.388,5.388,0,0,0-3.176,2.627,5.3,5.3,0,0,0-.513,1.405A5.408,5.408,0,0,0,1077.678,570.655Z" transform="translate(-793.54 -443.755)" fill="none" stroke="#3f3d56" stroke-miterlimit="10" stroke-width="1"></path><path id="Path_587" data-name="Path 587" d="M1113.805,535.956a5.4,5.4,0,0,1,4.335-2.85l.07,2.683,1.207-2.637a5.408,5.408,0,1,1-5.613,2.8Z" transform="translate(-821.933 -423.501)" fill="#57b894"></path><path id="Path_588" data-name="Path 588" d="M1115.452,532.475a5.4,5.4,0,0,1,4.335-2.85l.07,2.683,1.207-2.637a5.408,5.408,0,1,1-5.613,2.8Z" transform="translate(-823.152 -420.925)" fill="none" stroke="#3f3d56" stroke-miterlimit="10" stroke-width="1"></path><path id="Path_589" data-name="Path 589" d="M1107.453,626.184a5.408,5.408,0,0,0,6.088-8.856l-.928,2.026-.07-2.715-.013-.007a5.409,5.409,0,0,0-5.078,9.552Z" transform="translate(-815.575 -484.85)" fill="#57b894"></path><path id="Path_590" data-name="Path 590" d="M1108.955,622.635a5.408,5.408,0,0,0,6.088-8.856l-.927,2.026-.07-2.714-.013-.007a5.409,5.409,0,1,0-5.078,9.551Z" transform="translate(-816.687 -482.224)" fill="none" stroke="#3f3d56" stroke-miterlimit="10" stroke-width="1"></path><path id="Path_591" data-name="Path 591" d="M1089.321,670.465a5.406,5.406,0,1,0,1.626-4.048l1.878,3.929-2.99-2.368A5.356,5.356,0,0,0,1089.321,670.465Z" transform="translate(-804.278 -521.027)" fill="#57b894"></path><path id="Path_592" data-name="Path 592" d="M1090.556,667.855a5.406,5.406,0,1,0,1.626-4.048l1.878,3.929-2.99-2.368A5.358,5.358,0,0,0,1090.556,667.855Z" transform="translate(-805.192 -519.095)" fill="none" stroke="#3f3d56" stroke-miterlimit="10" stroke-width="1"></path><path id="Path_378" data-name="Path 378" d="M420.138,277.028c-.721,0-1.449-.011-2.164-.034l.016-.519c1.027.032,2.074.041,3.106.027l.007.52Q420.621,277.028,420.138,277.028Zm4.092-.121-.03-.519c1.028-.061,2.069-.146,3.1-.253l.054.517C426.315,276.761,425.266,276.847,424.23,276.908Zm-9.381-.081c-1.037-.079-2.084-.184-3.114-.31L411.8,276c1.022.125,2.061.229,3.09.307Zm15.6-.572-.078-.514c1.022-.155,2.051-.335,3.059-.535l.1.51C432.519,275.917,431.482,276.1,430.453,276.255Zm-21.814-.19c-1.024-.174-2.058-.373-3.073-.593l.11-.508c1.007.219,2.033.417,3.049.589Zm27.951-1.03-.125-.5c1-.248,2.011-.522,3-.814l.148.5C438.616,274.509,437.6,274.785,436.589,275.035Zm-34.066-.3c-1-.267-2.016-.561-3.005-.874l.157-.5c.982.31,1.985.6,2.982.867Zm40.065-1.482-.171-.491c.973-.338,1.952-.7,2.909-1.087l.193.483C444.555,272.546,443.569,272.915,442.588,273.256Zm-46.039-.407c-.976-.359-1.958-.746-2.918-1.15l.2-.479c.953.4,1.927.785,2.9,1.142Zm51.842-1.915-.215-.473c.934-.425,1.874-.878,2.792-1.347l.237.463C450.279,270.049,449.333,270.506,448.391,270.934Zm-57.621-.518c-.938-.447-1.879-.922-2.8-1.413l.245-.458c.912.487,1.846.959,2.777,1.4Zm63.182-2.325-.257-.451c.9-.511,1.791-1.049,2.659-1.6l.278.439C455.757,267.034,454.856,267.576,453.953,268.091Zm-68.709-.628c-.892-.531-1.785-1.09-2.655-1.663l.286-.434c.863.569,1.749,1.124,2.635,1.65Zm73.991-2.713-.3-.426c.844-.59,1.686-1.207,2.5-1.835l.317.412c-.823.633-1.672,1.255-2.522,1.849Zm-79.222-.732c-.839-.609-1.677-1.248-2.491-1.9l.324-.406c.808.645,1.64,1.278,2.472,1.883Zm84.18-3.079-.335-.4c.786-.664,1.569-1.355,2.327-2.056l.353.382c-.763.706-1.552,1.4-2.345,2.072Zm-89.072-.828c-.781-.684-1.558-1.4-2.307-2.115l.36-.375c.744.714,1.514,1.421,2.29,2.1Zm93.665-3.42-.37-.365c.725-.735,1.442-1.5,2.131-2.26l.386.348C470.239,255.184,469.516,255.95,468.786,256.69Zm-98.18-.913c-.717-.754-1.425-1.533-2.1-2.316l.393-.341c.674.777,1.377,1.55,2.088,2.3Zm102.37-3.737-.4-.33c.655-.8,1.3-1.62,1.917-2.445l.416.311C474.285,250.408,473.635,251.237,472.975,252.04Zm-106.47-.987c-.644-.813-1.278-1.653-1.884-2.5l.422-.3c.6.836,1.231,1.67,1.87,2.477Zm110.22-4.028-.43-.292c.58-.854,1.147-1.732,1.687-2.611l.443.272C477.881,245.281,477.309,246.166,476.725,247.026Zm-113.872-1.047c-.566-.868-1.121-1.762-1.648-2.656l.448-.264c.523.888,1.073,1.774,1.635,2.636ZM480,241.688l-.455-.251c.5-.9.984-1.83,1.441-2.757l.466.23C481,239.843,480.506,240.778,480,241.688Zm-120.323-1.093c-.485-.916-.955-1.856-1.4-2.794l.47-.222c.439.93.905,1.863,1.386,2.773Zm123.1-4.526-.476-.209c.414-.946.812-1.915,1.182-2.879l.485.186c-.373.972-.774,1.948-1.191,2.9Zm-125.762-1.122c-.4-.956-.78-1.935-1.134-2.908l.489-.178c.351.966.73,1.937,1.125,2.886Zm128.01-4.734-.493-.163c.324-.977.63-1.976.91-2.969l.5.141C485.662,228.221,485.354,229.228,485.027,230.213Zm-130.146-1.139c-.309-.991-.6-2-.864-3.008l.5-.132c.262,1,.55,2,.857,2.985Zm131.84-4.885-.506-.118c.233-1,.445-2.025.632-3.04l.511.094c-.188,1.024-.4,2.054-.637,3.064Zm-133.427-1.168c-.217-1.015-.413-2.049-.583-3.075l.513-.085c.169,1.017.364,2.044.579,3.051Zm134.56-4.986-.515-.071c.14-1.018.258-2.056.351-3.085l.518.047C488.114,215.964,487.995,217.01,487.854,218.036ZM352.27,216.849c-.123-1.029-.223-2.077-.3-3.115l.519-.038c.075,1.03.175,2.07.3,3.091ZM488.419,211.8l-.519-.023c.046-1.03.07-2.075.07-3.1h.52c0,1.038-.024,2.091-.07,3.128Zm-136.606-1.2c-.018-.637-.027-1.288-.027-1.932q0-.6.01-1.2l.52.009q-.01.593-.01,1.189c0,.64.009,1.285.027,1.918Zm136.153-2.657c-.011-1.031-.045-2.075-.1-3.1l.519-.029c.058,1.038.092,2.09.1,3.128ZM352.44,204.385l-.519-.033c.065-1.039.154-2.088.266-3.118l.517.056C352.593,202.313,352.5,203.354,352.44,204.385Zm135.181-2.634c-.1-1.025-.233-2.062-.384-3.082l.514-.076c.152,1.028.282,2.073.387,3.105Zm-134.512-3.539-.514-.079c.159-1.028.344-2.065.55-3.081l.509.1C353.45,196.163,353.266,197.191,353.108,198.212Zm133.6-2.6c-.2-1.014-.422-2.035-.665-3.034l.505-.123c.245,1.007.47,2.035.67,3.057Zm-132.373-3.483-.5-.126c.252-1.007.532-2.022.831-3.017l.5.149C354.867,190.119,354.59,191.127,354.339,192.126Zm130.9-2.55c-.29-.99-.607-1.985-.941-2.959l.491-.169c.338.982.657,1.985.949,2.982Zm-129.114-3.4-.49-.172c.345-.983.718-1.97,1.108-2.934l.482.195C356.842,184.216,356.471,185.2,356.129,186.171Zm127.1-2.468c-.379-.957-.785-1.917-1.207-2.854l.474-.213c.425.944.834,1.912,1.216,2.875Zm-124.763-3.3-.472-.217c.434-.945.9-1.893,1.373-2.818l.462.238C359.351,178.523,358.892,179.463,358.462,180.4Zm122.219-2.348c-.465-.918-.958-1.837-1.465-2.733l.452-.256c.511.9,1.007,1.829,1.476,2.754Zm-119.366-3.178-.45-.259c.518-.9,1.065-1.8,1.625-2.678l.438.28C362.372,173.087,361.829,173.982,361.314,174.875Zm116.313-2.218c-.549-.874-1.124-1.745-1.709-2.589l.427-.3c.59.85,1.169,1.728,1.723,2.609ZM364.66,169.636l-.425-.3c.6-.85,1.226-1.7,1.863-2.518l.411.319C365.877,167.952,365.255,168.793,364.66,169.636Zm109.431-2.077c-.626-.82-1.279-1.636-1.939-2.424l.4-.334c.665.794,1.323,1.616,1.954,2.442Zm-105.623-2.833-.4-.337c.672-.79,1.373-1.576,2.083-2.337l.38.355C369.831,163.162,369.136,163.942,368.468,164.726ZM470.1,162.8c-.7-.76-1.423-1.513-2.152-2.239l.367-.369c.735.731,1.465,1.49,2.169,2.256Zm-97.4-2.616-.363-.372c.743-.727,1.512-1.446,2.286-2.137l.346.388c-.768.685-1.531,1.4-2.269,2.12Zm92.994-1.762c-.765-.694-1.555-1.379-2.348-2.034l.331-.4c.8.661,1.595,1.351,2.366,2.05Zm-88.363-2.373-.328-.4c.8-.655,1.635-1.3,2.47-1.919l.31.417c-.829.614-1.653,1.255-2.451,1.9Zm83.577-1.587c-.826-.622-1.675-1.232-2.525-1.813l.293-.429c.856.586,1.712,1.2,2.544,1.827Zm-78.591-2.108-.29-.431c.86-.579,1.746-1.146,2.633-1.685l.27.444c-.88.535-1.759,1.1-2.613,1.672Zm73.461-1.4c-.878-.544-1.78-1.074-2.681-1.575l.253-.454c.908.506,1.816,1.04,2.7,1.587Zm-68.162-1.822-.25-.456c.91-.5,1.844-.981,2.774-1.437l.228.467C389.45,148.158,388.524,148.638,387.621,149.132Zm62.73-1.2c-.925-.461-1.872-.906-2.816-1.323l.21-.475c.951.42,1.906.869,2.838,1.333Zm-57.163-1.519-.207-.477c.951-.412,1.924-.808,2.892-1.175l.185.486C395.1,145.607,394.132,146,393.188,146.409Zm51.472-1c-.962-.373-1.947-.729-2.928-1.058l.165-.493c.988.332,1.98.69,2.95,1.067Zm-45.674-1.205-.162-.494c.988-.324,2-.629,3-.906l.139.5c-.992.275-1.992.578-2.972.9Zm39.78-.773c-.991-.283-2-.546-3.005-.782l.119-.506c1.011.238,2.029.5,3.029.788Zm-33.8-.888-.116-.507c1.013-.231,2.044-.442,3.066-.626l.092.511C407,142.108,405.974,142.317,404.969,142.547Zm27.753-.537c-1.012-.19-2.043-.359-3.064-.5l.072-.515c1.029.145,2.068.315,3.088.506Zm-21.643-.566-.069-.515c1.029-.137,2.075-.253,3.11-.343l.045.518C413.139,141.193,412.1,141.308,411.08,141.444Zm15.494-.3c-1.024-.1-2.066-.171-3.1-.221l.025-.519c1.039.05,2.089.125,3.121.222Zm-9.308-.241-.022-.519c.955-.04,1.929-.06,2.894-.06h.235l0,.52h-.234C419.18,140.845,418.214,140.865,417.266,140.9Z" transform="translate(-204.474 -140.325)" fill="#3f3d56"></path><path id="Path_379" data-name="Path 379" d="M862.085,603.834a3.119,3.119,0,1,1,3.119-3.119,3.119,3.119,0,0,1-3.119,3.119Zm0-5.718a2.6,2.6,0,1,0,2.6,2.6A2.6,2.6,0,0,0,862.085,598.116Z" transform="translate(-579.842 -478.755)" fill="#2f2e41"></path><path id="Path_380" data-name="Path 380" d="M335.673,214.737v17.07a.6.6,0,0,1-.6.6h-.424v88.922a9.279,9.279,0,0,1-9.278,9.278H269.813a9.276,9.276,0,0,1-9.276-9.277v-85.8h-.307a.42.42,0,0,1-.421-.418v-9.715a.421.421,0,0,1,.421-.421h.307v-3.659h-.309a.441.441,0,0,1-.439-.442v-9.582a.44.44,0,0,1,.439-.439h.309v-5h-.314a.389.389,0,0,1-.39-.39V200.23a.392.392,0,0,1,.39-.392h.314V189.25a9.276,9.276,0,0,1,9.275-9.276h55.563a9.278,9.278,0,0,1,9.278,9.276v24.892h.424a.6.6,0,0,1,.6.6Z" transform="translate(-136.386 -169.67)" fill="#3f3d56"></path><rect id="Rectangle_54" data-name="Rectangle 54" width="10.35" height="2.102" rx="1.051" transform="translate(154.196 15.062)" fill="#e6e8ec"></rect><circle id="Ellipse_30" data-name="Ellipse 30" cx="1.192" cy="1.192" r="1.192" transform="translate(166.11 14.921)" fill="#e6e8ec"></circle><path id="Path_381" data-name="Path 381" d="M345.764,205.961V336.97a5.887,5.887,0,0,1-5.887,5.884H286.691a5.876,5.876,0,0,1-5.887-5.884V205.961a5.886,5.886,0,0,1,5.887-5.887h7.96V201.1a4.847,4.847,0,0,0,4.847,4.847h27.05a4.847,4.847,0,0,0,4.847-4.847v-1.021h8.483A5.885,5.885,0,0,1,345.764,205.961Z" transform="translate(-151.94 -184.546)" fill="#5685ec"></path><rect id="Rectangle_55" data-name="Rectangle 55" width="60.295" height="29.368" transform="translate(131.461 58.476)" opacity="0.2"></rect><rect id="Rectangle_56" data-name="Rectangle 56" width="60.295" height="29.368" transform="translate(215.666 14.554)" fill="#f2f2f2"></rect><rect id="Rectangle_57" data-name="Rectangle 57" width="60.295" height="29.368" transform="translate(131.461 102.99)" fill="#3f3d56"></rect><circle id="Ellipse_31" data-name="Ellipse 31" cx="5.198" cy="5.198" r="5.198" transform="translate(180.32 26.322)" fill="#fff"></circle><path id="Path_382" data-name="Path 382" d="M429.506,114.451h-2.172v-2.172H427v2.172h-2.172v.334H427v2.172h.334v-2.172h2.172Z" transform="translate(-241.649 -83.098)" fill="#3f3d56"></path><rect id="Rectangle_58" data-name="Rectangle 58" width="60.295" height="29.368" transform="translate(208.909 10.656)" fill="#3f3d56"></rect><path id="Path_383" data-name="Path 383" d="M731,263.931c1.578,5.835,6.985,9.448,6.985,9.448s2.847-5.846,1.269-11.681-6.985-9.448-6.985-9.448S729.425,258.1,731,263.931Z" transform="translate(-495.179 -233.557)" fill="#fff"></path><path id="Path_384" data-name="Path 384" d="M710.46,279.354c4.331,4.216,4.86,10.7,4.86,10.7s-6.493-.355-10.824-4.571-4.86-10.7-4.86-10.7S706.129,275.138,710.46,279.354Z" transform="translate(-472.316 -250.234)" fill="#5685ec"></path><path id="Path_385" data-name="Path 385" d="M382.845,580.931c1.578,5.835,6.985,9.448,6.985,9.448s2.847-5.846,1.269-11.681-6.985-9.448-6.985-9.448S381.267,575.1,382.845,580.931Z" transform="translate(-227.109 -457.776)" fill="#fff"></path><path id="Path_386" data-name="Path 386" d="M362.3,596.354c4.331,4.216,4.86,10.7,4.86,10.7s-6.493-.355-10.824-4.571-4.86-10.7-4.86-10.7S357.972,592.138,362.3,596.354Z" transform="translate(-204.246 -474.453)" fill="#2f4fff"></path><path id="Path_387" data-name="Path 387" d="M414.59,580.931c-1.578,5.835-6.985,9.448-6.985,9.448s-2.847-5.846-1.269-11.681,6.985-9.448,6.985-9.448S416.169,575.1,414.59,580.931Z" transform="translate(-244.495 -457.776)" fill="#fff"></path><path id="Path_388" data-name="Path 388" d="M416.687,596.354c-4.331,4.216-4.86,10.7-4.86,10.7s6.493-.355,10.824-4.571,4.86-10.7,4.86-10.7S421.018,592.138,416.687,596.354Z" transform="translate(-248.911 -474.453)" fill="#2f4fff"></path><path id="Path_389" data-name="Path 389" d="M666.184,462.275h-5.131v-5.131h5.131Zm-4.736-.395h4.341V457.54h-4.341Z" transform="translate(-433.365 -374.806)" fill="#3f3d56"></path><path id="Path_390" data-name="Path 390" d="M152.472,578.316l-3.5-3.752,3.752-3.5,3.5,3.752Zm-2.942-3.732,2.961,3.175,3.175-2.961-2.961-3.175Z" transform="translate(-54.371 -459.119)" fill="#2f2e41"></path><circle id="Ellipse_32" data-name="Ellipse 32" cx="2.619" cy="2.619" r="2.619" transform="translate(98.255 33.235)" fill="#3f3d56"></circle><path id="Path_391" data-name="Path 391" d="M151.555,264.3a7.567,7.567,0,1,1,7.567-7.567A7.567,7.567,0,0,1,151.555,264.3Zm0-14.552a6.985,6.985,0,1,0,6.985,6.985,6.985,6.985,0,0,0-6.985-6.985Z" transform="translate(-50.681 -220.878)" fill="#2f2e41"></path><rect id="Rectangle_59" data-name="Rectangle 59" width="300.651" height="0.52" transform="translate(0 160.434)" fill="#3f3d56"></rect><rect id="Rectangle_60" data-name="Rectangle 60" width="60.295" height="29.368" transform="translate(144.455 53.798)" fill="#3f3d56"></rect><rect id="Rectangle_61" data-name="Rectangle 61" width="0.52" height="19.339" transform="translate(174.381 63.867)" fill="#fff"></rect><circle id="Ellipse_33" data-name="Ellipse 33" cx="2.735" cy="2.735" r="2.735" transform="translate(171.906 61.392)" fill="#5685ec"></circle><path id="Path_392" data-name="Path 392" d="M433.022,410.557s-.391-8.4-8.4-7.426" transform="translate(-258.38 -334.771)" fill="#fff"></path><path id="Path_394" data-name="Path 394" d="M503.7,398.6a.812.812,0,0,1-.753.458,1.2,1.2,0,0,1-.306-.041,4.14,4.14,0,0,1-2.1-1.99,4.285,4.285,0,0,1-.691-2.717,2.178,2.178,0,0,1,.29-.123,1.342,1.342,0,0,1,.159-.047,3.371,3.371,0,0,0,.568,2.7,3.819,3.819,0,0,0,1.872,1.814.509.509,0,0,0,.7-.405l.047.062.166.222Z" transform="translate(-314.03 -328.174)" fill="#3f3d56"></path><path id="Path_395" data-name="Path 395" d="M478.648,582.037l-.022-.015-.331-.207A3.728,3.728,0,0,0,477,579.533a3.977,3.977,0,0,0-2.231-1.239,1.99,1.99,0,0,1,.235-.235h0c.037-.032.077-.064.118-.094a4.873,4.873,0,0,1,2.138,1.3A3.689,3.689,0,0,1,478.648,582.037Z" transform="translate(-295.496 -464.226)" fill="#3f3d56"></path><g id="Group_150" data-name="Group 150" transform="translate(233.903 49.157)"><path id="Path_598" data-name="Path 598" d="M973.979,352.658a5.334,5.334,0,0,0,.312.817,13.765,13.765,0,0,1,.17,10.361,20.085,20.085,0,0,1,2.8.164,5.915,5.915,0,0,0,2.762-.3,2.8,2.8,0,0,0,1.746-2.109c.17-1.3-.777-2.436-1.608-3.424a7.8,7.8,0,0,1-1.917-3.429c-.276-1.443.117-3.134-.795-4.258a.88.88,0,0,0-.3-.258,3.479,3.479,0,0,0-2.257.061A2.3,2.3,0,0,0,973.979,352.658Z" transform="translate(-963.442 -342.381)" fill="#3f3d56"></path><path id="Path_599" data-name="Path 599" d="M1052.225,697.826a6.551,6.551,0,0,1-.306,1.275s-.944,2.173-4.828,1.587c-2.537-.383-2.52-1.572-2.1-2.493a5.937,5.937,0,0,1,.693-1.078c.378-.51.34-2.457.473-4.232s.934-1.867.934-1.867l.048,2c1.512-1.984,2.57.34,2.57.34s2.151.045,1.887-1.058c-.28-1.174-.7-3.034-.7-3.034s1.041.483,1.229.823a26.74,26.74,0,0,1-.207,5.328,3.1,3.1,0,0,0,.246,1.946A.742.742,0,0,1,1052.225,697.826Z" transform="translate(-1015.88 -593.432)" fill="#3f3d56"></path><path id="Path_600" data-name="Path 600" d="M1057.576,684.121a2.118,2.118,0,0,1-1.481,2.018,2.852,2.852,0,0,1-2.49-.38,1.462,1.462,0,0,1-.616-1.371l.06-.5.218-1.831.3-2.522s3.218-1.639,3-1.02a9.846,9.846,0,0,0,.353,2.485c.181.867.4,1.822.6,2.631a2.094,2.094,0,0,1,.058.492Z" transform="translate(-1021.948 -585.37)" fill="#fbbebe"></path><path id="Path_601" data-name="Path 601" d="M1052.258,696.054s2.787-3.273,5.068.3l-.383,2.288h-4.686Z" transform="translate(-1021.414 -597.441)" opacity="0.1"></path><path id="Path_602" data-name="Path 602" d="M1052.258,696.927s2.787-3.273,5.068.3l-.383,2.288h-4.686Z" transform="translate(-1021.414 -598.087)" fill="#3f3d56"></path><circle id="Ellipse_74" data-name="Ellipse 74" cx="0.283" cy="0.283" r="0.283" transform="translate(34.183 100.291)" fill="#f2f2f2"></circle><circle id="Ellipse_75" data-name="Ellipse 75" cx="0.283" cy="0.283" r="0.283" transform="translate(30.56 99.837)" fill="#f2f2f2"></circle><circle id="Ellipse_76" data-name="Ellipse 76" cx="0.283" cy="0.283" r="0.283" transform="translate(33.205 102.212)" fill="#f2f2f2"></circle><circle id="Ellipse_77" data-name="Ellipse 77" cx="0.283" cy="0.283" r="0.283" transform="translate(30.732 101.879)" fill="#f2f2f2"></circle><circle id="Ellipse_78" data-name="Ellipse 78" cx="0.283" cy="0.283" r="0.283" transform="translate(33.753 101.312)" fill="#f2f2f2"></circle><circle id="Ellipse_79" data-name="Ellipse 79" cx="0.283" cy="0.283" r="0.283" transform="translate(30.56 100.858)" fill="#f2f2f2"></circle><circle id="Ellipse_80" data-name="Ellipse 80" cx="0.283" cy="0.283" r="0.283" transform="translate(32.922 103.266)" fill="#f2f2f2"></circle><circle id="Ellipse_81" data-name="Ellipse 81" cx="0.283" cy="0.283" r="0.283" transform="translate(30.732 102.9)" fill="#f2f2f2"></circle><path id="Path_603" data-name="Path 603" d="M964.976,715.562l-3.854,1.3s-2.041-2.041-1.474-2.664a5.71,5.71,0,0,0,.613-2.078c.052-.292.1-.591.14-.874.134-.922.211-1.7.211-1.7s4.478-2.154,3.741,0a5.3,5.3,0,0,0-.212,1.884,12.5,12.5,0,0,0,.239,1.886A17.974,17.974,0,0,0,964.976,715.562Z" transform="translate(-952.799 -607.738)" fill="#fbbebe"></path><path id="Path_604" data-name="Path 604" d="M964.976,725.606l-3.854,1.3s-2.041-2.041-1.474-2.664a5.711,5.711,0,0,0,.613-2.078,4.026,4.026,0,0,1,.45,1.256c3.329,1.829,3.386.737,3.386.737a2.023,2.023,0,0,1,.282-.792A17.972,17.972,0,0,0,964.976,725.606Z" transform="translate(-952.799 -617.783)" opacity="0.1"></path><path id="Path_605" data-name="Path 605" d="M946.606,727.977a5.074,5.074,0,0,1-2.621.567,10.308,10.308,0,0,0-1.525.172,19.047,19.047,0,0,1-6.252.169,13.572,13.572,0,0,1-1.59-.312c-2.012-.553-.482-1.827-.482-1.827s.1-.084.263-.21a5.494,5.494,0,0,1,2.217-1.052c1.261-.2,2.422-2.437,2.422-2.437l.794-1.432c1.232-1.062,1.659,1.432,1.659,1.432,3.329,1.828,3.386.737,3.386.737.185-.978.525-.978.525-.978s.83,2.234,1.13,2.792a.552.552,0,0,0,.074.113A8.635,8.635,0,0,1,946.606,727.977Z" transform="translate(-933.579 -617.178)" fill="#3f3d56"></path><circle id="Ellipse_82" data-name="Ellipse 82" cx="0.283" cy="0.283" r="0.283" transform="translate(7.614 106.52)" fill="#f2f2f2"></circle><circle id="Ellipse_83" data-name="Ellipse 83" cx="0.283" cy="0.283" r="0.283" transform="translate(5.991 107.314)" fill="#f2f2f2"></circle><circle id="Ellipse_84" data-name="Ellipse 84" cx="0.283" cy="0.283" r="0.283" transform="translate(6.863 106.907)" fill="#f2f2f2"></circle><circle id="Ellipse_85" data-name="Ellipse 85" cx="0.283" cy="0.283" r="0.283" transform="translate(5.077 107.781)" fill="#f2f2f2"></circle><path id="Path_606" data-name="Path 606" d="M966.779,709.553a5.3,5.3,0,0,0-.212,1.884,10.9,10.9,0,0,0-3.74-.188c.134-.922.211-1.7.211-1.7S967.516,707.4,966.779,709.553Z" transform="translate(-955.226 -607.738)" opacity="0.1"></path><path id="Path_607" data-name="Path 607" d="M1057.743,681c-1.393,1.366-2.725,1.451-3.656,1.058l.3-2.522s3.218-1.639,3-1.02A9.843,9.843,0,0,0,1057.743,681Z" transform="translate(-1022.768 -585.37)" opacity="0.1"></path><path id="Path_608" data-name="Path 608" d="M957.559,509.451a5.677,5.677,0,0,0-2.608,3.684c-.4,2.437-1.077,5.555-1.587,6.122s-2.1,2.381-1.474,3.344.737,4.251.737,4.251-.227,2.947.4,3.911,1.134,7.085-.227,8.9a36.218,36.218,0,0,0-.283,4.591c.17.4-.737,1.417-.453,2.267s1.644,16.494,1.474,17.118c0,0,4.308-.623,5.441.4a11.167,11.167,0,0,0,0-2.891,23.157,23.157,0,0,1,.68-7.085,20.423,20.423,0,0,0,.453-6.178s.907-4.024.567-4.818,1.474-8.105,1.474-8.105.907-1.757.68-1.984c0,0,1.474-.964,1.3-1.7s1.36-1.587,1.36-1.587a30.952,30.952,0,0,0,1.814,3.854c.453.51.471,3.8,1.029,4.478s1.295,4.251,2.032,5.215,3.684,3.514,4.138,6.4c0,0,2.664,4.138,2.551,5.441s3,3.684,6.008-.737a3.928,3.928,0,0,1-1.587-3.231c0-2.211-2.381-9.3-2.381-9.3s-1.36-1.984-.85-2.947.057-3.8.057-3.8l1.077-1.757s.17-1.7.34-3.458-1.02-3.684-.453-4.534-.227-5.1-.227-5.1-.705-7.322-1.757-7.768S957.559,509.451,957.559,509.451Z" transform="translate(-947.025 -460.349)" fill="#3f3d56"></path><path id="Path_609" data-name="Path 609" d="M971.977,419.615s-1.164.133-2.578.266c-2.045.193-4.613.388-4.919.187-.517-.34,0-4.648,0-4.648s.178-4.7.008-7.992a7.14,7.14,0,0,1,2.3-5.27c.156-.15.253-.228.253-.228l.567.453,3.231,5.5Z" transform="translate(-956.279 -380.772)" fill="#fbbebe"></path><path id="Path_610" data-name="Path 610" d="M1006.612,373.967l-3.174,1.927-5.215,3.968s-5.385-2.834-4.024-4.478a2.548,2.548,0,0,0,.5-1.112,10.861,10.861,0,0,0-.5-4.613s7.094-9.58,6.688-2.154c-.163,2.984.729,4.613,1.855,5.495A5.51,5.51,0,0,0,1006.612,373.967Z" transform="translate(-978.281 -353.205)" fill="#fbbebe"></path><path id="Path_611" data-name="Path 611" d="M1006.612,373.967l-3.174,1.927-5.215,3.968s-5.385-2.834-4.024-4.478a2.548,2.548,0,0,0,.5-1.112,10.861,10.861,0,0,0-.5-4.613s7.094-9.58,6.688-2.154c-.163,2.984.729,4.613,1.855,5.495A5.51,5.51,0,0,0,1006.612,373.967Z" transform="translate(-978.281 -353.205)" opacity="0.1"></path><ellipse id="Ellipse_86" data-name="Ellipse 86" cx="6.564" cy="6.955" rx="6.564" ry="6.955" transform="translate(12.028 5.287)" opacity="0.1"></ellipse><ellipse id="Ellipse_87" data-name="Ellipse 87" cx="6.564" cy="6.955" rx="6.564" ry="6.955" transform="translate(12.028 5.061)" fill="#fbbebe"></ellipse><path id="Path_612" data-name="Path 612" d="M1006.612,397.65l-3.174,1.927-5.215,3.968s-5.385-2.834-4.024-4.478a2.548,2.548,0,0,0,.5-1.112c5.94,5.079,7.745-.178,8.045-1.272A5.51,5.51,0,0,0,1006.612,397.65Z" transform="translate(-978.281 -376.889)" opacity="0.1"></path><path id="Path_613" data-name="Path 613" d="M978.736,419.615s-1.164.133-2.578.266c-.056-1.22-.24-2.6-.206-3.441.057-1.417.057-1.587-.4-2.381a3.855,3.855,0,0,1-.34-2.437c.054-.977-.2-1.174-1.123-2.735l-.124-.212a7.984,7.984,0,0,1-.585-3.513.032.032,0,0,0,0-.015c0-.316,0-.628.016-.925,0-.012,0-.025,0-.037.033-.9.107-1.663.145-2.027.156-.15.253-.228.253-.228l.567.453,3.231,5.5Z" transform="translate(-963.038 -380.772)" opacity="0.1"></path><path id="Path_614" data-name="Path 614" d="M991.662,397.811s.685.519.68.517c-2.052-.885-3.216,3.574-3.528,4.978-.058.258-.086.413-.086.413s.036.376.082.975c.153,2,.416,6.492-.195,7.584a1.7,1.7,0,0,0-.146.364,7.666,7.666,0,0,0-.07,2.628,26.336,26.336,0,0,0,.5,2.96s1.36,3.458.794,5.725a8.412,8.412,0,0,0-.166,2.571,15.2,15.2,0,0,0,.359,2.345c.053.226.09.355.09.355q-1.282.439-2.506.728a24.313,24.313,0,0,1-4.847.656,21.521,21.521,0,0,1-13.973-4.43c-.1-.079-.167-.142-.212-.185-.794-.737.737-1.3.567-1.814s.775-1.644.775-1.644-.209-1.87.642-2.267,1.474-1.757,1.953-2.891-.083-4.081-.026-5.5.057-1.587-.4-2.381a3.855,3.855,0,0,1-.34-2.437c.054-.977-.2-1.174-1.123-2.735l-.124-.212c-.451-.778.252-2.117.247-3.446,0,0,.261,0,.26,0,0-.316-.531-.743-.52-1.04,0-.012-.26-.247-.26-.26a8.417,8.417,0,0,0-.124-2c4.534-2.324,5.611.1,5.611.1,6.632,5.708,8.137-1.425,8.137-1.425,3.609-1.233,8.357,2.089,8.628,2.282Z" transform="translate(-959.207 -376.212)" fill="#55536e"></path><path id="Path_615" data-name="Path 615" d="M964.568,466.388s-.567,3.027,1.073,4.716a1.845,1.845,0,0,0,2.135.367,2.892,2.892,0,0,0,1.383-1.176C969.61,469.29,968.2,464.376,964.568,466.388Z" transform="translate(-956.444 -428.123)" fill="#fbbebe"></path><path id="Path_616" data-name="Path 616" d="M1046.316,437.692a1.7,1.7,0,0,0-.146.364l.26-6.627.081-1.321C1046.664,432.113,1046.927,436.6,1046.316,437.692Z" transform="translate(-1016.908 -401.627)" opacity="0.1"></path><path id="Path_617" data-name="Path 617" d="M1025.076,479.485a8.4,8.4,0,0,0-.166,2.571c-.367.665-.681,1.23-.885,1.6l-.253.451a10.713,10.713,0,0,0-.919,1.38,2.667,2.667,0,0,0-.384,1.121c0,.872-.879,6.682-5.045,5.236-2.69-.933-.973-3.792.581-5.7a21.347,21.347,0,0,1,1.657-1.809s.481-.612.942-1.253a7.61,7.61,0,0,0,.815-1.3c.2-.567,1.507-3.061,1.507-3.061s1.3-2.749,1.016-4.024a24.53,24.53,0,0,1-.16-3.9,26.268,26.268,0,0,0,.5,2.96S1025.642,477.218,1025.076,479.485Z" transform="translate(-994.591 -431.743)" opacity="0.1"></path><path id="Path_618" data-name="Path 618" d="M1027.417,405.463s2.041,1.417,1.984,5.1-.737,10.061-.737,10.061l-.425,3.968a8.131,8.131,0,0,0-.453,2.1c.085.482-4.449,8.559-4.449,8.559a6.389,6.389,0,0,0-1.3,2.5c0,.871-.879,6.681-5.045,5.236s2.239-7.51,2.239-7.51a19.855,19.855,0,0,0,1.757-2.551c.2-.567,1.507-3.061,1.507-3.061s1.3-2.749,1.015-4.024a43.778,43.778,0,0,1-.113-5.906l.283-7.245.113-1.842S1024.838,404.726,1027.417,405.463Z" transform="translate(-994.268 -383.341)" fill="#fbbebe"></path><path id="Path_619" data-name="Path 619" d="M976.477,454.224l3.093-1.124a1.464,1.464,0,0,1,1.505.312l4.1,3.877s.227.622-.076.595-4.723-4.449-4.723-4.449L976,454.908h0A.728.728,0,0,1,976.477,454.224Z" transform="translate(-964.973 -418.579)" fill="#6c63ff"></path><path id="Path_620" data-name="Path 620" d="M937.8,316.751l4.251-1.54-4.723-4.449-4.383,1.474Z" transform="translate(-921.917 -275.906)" fill="#4b4b5b"></path><circle id="Ellipse_88" data-name="Ellipse 88" cx="0.378" cy="0.378" r="0.378" transform="translate(9.116 52.824)" fill="#f2f2f2"></circle><circle id="Ellipse_89" data-name="Ellipse 89" cx="0.378" cy="0.378" r="0.378" transform="translate(6.546 57.679)" fill="#f2f2f2"></circle><circle id="Ellipse_90" data-name="Ellipse 90" cx="0.378" cy="0.378" r="0.378" transform="translate(27.073 59.445)" fill="#f2f2f2"></circle><circle id="Ellipse_91" data-name="Ellipse 91" cx="0.378" cy="0.378" r="0.378" transform="translate(29.21 66.304)" fill="#f2f2f2"></circle><circle id="Ellipse_92" data-name="Ellipse 92" cx="0.378" cy="0.378" r="0.378" transform="translate(28.378 64.373)" fill="#f2f2f2"></circle><circle id="Ellipse_93" data-name="Ellipse 93" cx="0.378" cy="0.378" r="0.378" transform="translate(27.655 61.909)" fill="#f2f2f2"></circle><circle id="Ellipse_94" data-name="Ellipse 94" cx="0.378" cy="0.378" r="0.378" transform="translate(7.746 55.123)" fill="#f2f2f2"></circle><circle id="Ellipse_95" data-name="Ellipse 95" cx="0.378" cy="0.378" r="0.378" transform="translate(5.048 60.2)" fill="#f2f2f2"></circle><path id="Path_621" data-name="Path 621" d="M996.82,398.325v0c-2.052-.885-3.216,3.574-3.528,4.978l-3.223-4.613s-1.322,2.115-5.592,2.437a4.9,4.9,0,0,1-5.309-3.25c-.586-.045-3.24,4.732-4.2,6.447l-.124-.212a7.985,7.985,0,0,1-.585-3.513.03.03,0,0,0,0-.015c0-.308.009-.618.016-.925,0-.012,0-.025,0-.037.046-1.258.171-2.255.171-2.255,4.534-2.324,5.611.1,5.611.1,6.632,5.708,8.137-1.425,8.137-1.425C991.8,394.81,996.549,398.132,996.82,398.325Z" transform="translate(-963.684 -376.212)" fill="#6c63ff"></path><path id="Path_622" data-name="Path 622" d="M964.293,565.065c.057.142,4.818,5.64,6.575,5.923S964.293,565.065,964.293,565.065Z" transform="translate(-956.31 -501.51)" opacity="0.1"></path><path id="Path_623" data-name="Path 623" d="M973.195,532.617s.048,3.876-1.142,4.752S973.195,532.617,973.195,532.617Z" transform="translate(-961.803 -477.495)" opacity="0.1"></path><path id="Path_624" data-name="Path 624" d="M984.68,537.913s-.113,4.563,1.587,5.64C986.268,543.552,983.15,540.52,984.68,537.913Z" transform="translate(-971.087 -481.414)" opacity="0.1"></path><path id="Path_625" data-name="Path 625" d="M965.975,628.095s-3.174,2.352-4.053,2.522S965.975,628.095,965.975,628.095Z" transform="translate(-954.478 -548.158)" opacity="0.1"></path><path id="Path_626" data-name="Path 626" d="M973.612,329.125a1.589,1.589,0,0,0,.261,2.331,4.183,4.183,0,0,0,2.548.667,23.244,23.244,0,0,1,5.138.368,4.166,4.166,0,0,1,1.971,1.01,4.434,4.434,0,0,1,1.024,2.038,11.156,11.156,0,0,1,.35,3.416,11.847,11.847,0,0,0-.051,2.316,7.412,7.412,0,0,0,.723,2.061,85.651,85.651,0,0,0,4.379,8.123,1.513,1.513,0,0,0,.571.624,1.543,1.543,0,0,0,1.3-.2,9.757,9.757,0,0,1-.4-2.461,1.1,1.1,0,0,0,1.163-.406,3.228,3.228,0,0,0,.53-1.191l.763-2.628c.236-.813.586-1.745,1.4-1.984a5.058,5.058,0,0,0,.857-.2,1.1,1.1,0,0,0,.529-1.081,2.335,2.335,0,0,0-.512-1.154c-1.147-1.544-3.061-2.459-3.956-4.162a7.839,7.839,0,0,1-.382-4.853,12.684,12.684,0,0,0,.216-4.915,6.512,6.512,0,0,0-2.528-3.621,10.2,10.2,0,0,0-4.134-1.7,4.128,4.128,0,0,0-2.089.014c-.515.174-.957.518-1.46.725-1.143.471-2.46.189-3.659.489a4.921,4.921,0,0,0-2.706,1.955,10.377,10.377,0,0,0-1.417,3.082c-.221.721.133,1.009-.51,1.4" transform="translate(-962.908 -321.165)" opacity="0.1"></path><path id="Path_627" data-name="Path 627" d="M974.048,328.252a1.589,1.589,0,0,0,.261,2.331,4.183,4.183,0,0,0,2.548.667,23.243,23.243,0,0,1,5.138.368,4.165,4.165,0,0,1,1.971,1.01,4.435,4.435,0,0,1,1.024,2.038,11.16,11.16,0,0,1,.35,3.416,11.851,11.851,0,0,0-.051,2.316,7.411,7.411,0,0,0,.723,2.061,85.643,85.643,0,0,0,4.379,8.123,1.513,1.513,0,0,0,.57.624,1.543,1.543,0,0,0,1.3-.2,9.754,9.754,0,0,1-.4-2.461,1.1,1.1,0,0,0,1.163-.406,3.227,3.227,0,0,0,.53-1.191l.763-2.628c.236-.813.586-1.745,1.4-1.984a5.061,5.061,0,0,0,.857-.2,1.1,1.1,0,0,0,.529-1.081,2.336,2.336,0,0,0-.512-1.154c-1.147-1.544-3.061-2.459-3.956-4.162a7.839,7.839,0,0,1-.382-4.853,12.681,12.681,0,0,0,.216-4.915,6.513,6.513,0,0,0-2.528-3.621,10.2,10.2,0,0,0-4.134-1.7,4.127,4.127,0,0,0-2.089.014c-.515.174-.957.518-1.46.725-1.143.471-2.46.189-3.659.489a4.921,4.921,0,0,0-2.707,1.956,10.378,10.378,0,0,0-1.417,3.082c-.221.721.133,1.009-.511,1.4" transform="translate(-963.231 -320.519)" fill="#3f3d56"></path><path id="Path_628" data-name="Path 628" d="M972.471,463.343s5.186-3.458,6.66-1.332-4.563,4.733-4.563,4.733Z" transform="translate(-962.363 -424.727)" fill="#fbbebe"></path><path id="Path_629" data-name="Path 629" d="M978.229,396.247c-.019.333-.083.742-.269.8.484-.012.961.345,1.441.238a1.469,1.469,0,0,0,.91-.938.437.437,0,0,1,.122-.2c.05-.03.105,0,.156.03a15.13,15.13,0,0,1,2.609,1.969c.266.247.561.516.852.386a6.5,6.5,0,0,0-.557-2.727,3.485,3.485,0,0,0-1.486-1.625,4.551,4.551,0,0,0-1.747-.455,1.751,1.751,0,0,1-.753-.187c-.258-.151-1.08-1.134-1.265-.419a7.853,7.853,0,0,0,.029,1.464C978.274,395.14,978.26,395.695,978.229,396.247Z" transform="translate(-966.426 -374.061)" fill="#3f3d56"></path><path id="Path_636" data-name="Path 636" d="M982.816,490.477s.694,1.077,4.2,1.53S982.816,490.477,982.816,490.477Z" transform="translate(-970.019 -446.306)" opacity="0.1"></path><path id="Path_637" data-name="Path 637" d="M977.96,505.962a9.951,9.951,0,0,0,8.219,1.757C991.242,506.7,977.96,505.962,977.96,505.962Z" transform="translate(-966.426 -457.767)" opacity="0.1"></path><path id="Path_635" data-name="Path 635" d="M967.644,465.231a5.561,5.561,0,0,1,2.171-.431" transform="translate(-958.791 -427.289)" opacity="0.1"></path><g id="Group_103" data-name="Group 103" transform="translate(10.445 2.795)" opacity="0.1"><path id="Path_630" data-name="Path 630" d="M991.54,372.365a1.512,1.512,0,0,1-.57-.624,85.622,85.622,0,0,1-4.378-8.123,7.406,7.406,0,0,1-.723-2.061,11.847,11.847,0,0,1,.051-2.316,11.158,11.158,0,0,0-.35-3.416,4.435,4.435,0,0,0-1.024-2.038,4.165,4.165,0,0,0-1.971-1.01,23.245,23.245,0,0,0-5.138-.368,4.183,4.183,0,0,1-2.548-.667,1.761,1.761,0,0,1-.582-1.867,1.122,1.122,0,0,1-.145.116,1.593,1.593,0,0,0,.273,2.318,4.183,4.183,0,0,0,2.548.667,23.244,23.244,0,0,1,5.138.368,4.165,4.165,0,0,1,1.971,1.01,4.436,4.436,0,0,1,1.024,2.038,11.158,11.158,0,0,1,.35,3.416,11.847,11.847,0,0,0-.051,2.316,7.409,7.409,0,0,0,.723,2.061,85.627,85.627,0,0,0,4.379,8.123,1.512,1.512,0,0,0,.57.624,1.543,1.543,0,0,0,1.3-.2c-.034-.114-.065-.229-.1-.344a1.036,1.036,0,0,1-.751-.022Z" transform="translate(-973.769 -345.041)"></path><path id="Path_631" data-name="Path 631" d="M974.989,350.335c.027-.017.051-.033.075-.049l.013-.012Z" transform="translate(-974.672 -345.335)"></path><path id="Path_632" data-name="Path 632" d="M976.655,335.656c-.024.016-.047.033-.075.049l.087-.062-.012.012c.538-.368.224-.662.436-1.352a10.485,10.485,0,0,1,1.383-3.032,6.009,6.009,0,0,0-.419.517,10.383,10.383,0,0,0-1.417,3.083,4.827,4.827,0,0,0-.111.919A1.077,1.077,0,0,1,976.655,335.656Z" transform="translate(-975.81 -331.272)"></path><path id="Path_633" data-name="Path 633" d="M1058.587,401.475a5.068,5.068,0,0,1-.857.2,1.653,1.653,0,0,0-.948.837,1.361,1.361,0,0,1,.495-.27,5.059,5.059,0,0,0,.857-.2.966.966,0,0,0,.47-.576Z" transform="translate(-1035.207 -383.223)"></path><path id="Path_634" data-name="Path 634" d="M1045.605,425.622q.01.295.038.588a1.276,1.276,0,0,0,.672-.428,1.889,1.889,0,0,0,.225-.35A1.01,1.01,0,0,1,1045.605,425.622Z" transform="translate(-1026.936 -400.96)"></path></g></g></g></g></svg> 