<?xml version="1.0" encoding="UTF-8"?> <svg xmlns="http://www.w3.org/2000/svg" width="64.623" height="40.13" viewBox="0 0 64.623 40.13"><g id="Group_1132" data-name="Group 1132" transform="translate(23497.166 10893.765)"><g id="Group_1027" data-name="Group 1027" transform="translate(-23497.166 -10893.765)"><path id="Path_3072" data-name="Path 3072" d="M261.872,84.985l-15.045,11.46.732,21.888L233.778,107.39l-7.608,6.515L197.249,78.2Z" transform="translate(-197.249 -78.203)" fill="#5684ec"></path></g><g id="Group_1030" data-name="Group 1030" transform="translate(-23460.639 -10870.862)"><g id="Group_1028" data-name="Group 1028" transform="translate(0 0)"><path id="Path_3073" data-name="Path 3073" d="M228.641,93.25c.023.67,6.39,17.227,6.39,17.227L221.248,99.535Z" transform="translate(-221.248 -93.25)" fill="#5684ec"></path></g><g id="Group_1029" data-name="Group 1029" transform="translate(0 0)" opacity="0.3"><path id="Path_3074" data-name="Path 3074" d="M228.641,93.25c.023.67,6.39,17.227,6.39,17.227L221.248,99.535Z" transform="translate(-221.248 -93.25)" fill="#fff"></path></g></g><g id="Group_1031" data-name="Group 1031" transform="translate(-23497.166 -10893.765)"><path id="Path_3075" data-name="Path 3075" d="M197.249,78.2l43.921,22.9,6.39,17.227-.732-21.888Z" transform="translate(-197.249 -78.203)" fill="#5684ec"></path><path id="Path_3076" data-name="Path 3076" d="M197.249,78.2l43.921,22.9,6.39,17.227-.732-21.888Z" transform="translate(-197.249 -78.203)" fill="#0437a8" opacity="0.285"></path></g></g></svg> 