<?xml version="1.0" encoding="UTF-8"?> <svg xmlns="http://www.w3.org/2000/svg" width="97.238" height="97.247" viewBox="0 0 97.238 97.247"><g id="development" transform="translate(-0.02 -0.001)"><path id="Path_2826" data-name="Path 2826" d="M237.545,19.78a1.643,1.643,0,0,0-.066-.17,1.582,1.582,0,0,0-.089-.214,1.28,1.28,0,0,0-.108-.151,1.343,1.343,0,0,0-.139-.181,1.634,1.634,0,0,0-.15-.127c-.046-.043-.093-.082-.143-.12L207.676.255A1.62,1.62,0,0,0,205.958.24L176.786,18.153a1.594,1.594,0,0,0-.162.13,1.689,1.689,0,0,0-.145.116,1.462,1.462,0,0,0-.144.184c-.036.051-.078.094-.108.148a1.593,1.593,0,0,0-.1.243c-.021.046-.04.093-.057.141a1.568,1.568,0,0,0-.056.42V38.9h3.241V22.44l25.931,15.921V69.7a1.621,1.621,0,0,0,2.445,1.394L236.8,53.83a1.619,1.619,0,0,0,.8-1.394V20.185c0-.05-.011-.1-.02-.15A1.638,1.638,0,0,0,237.545,19.78ZM206.822,35.562l-.82-.5L180.73,19.54l26.06-16,26.093,16.6Zm27.536,15.949L208.427,66.854V38.379l25.931-15.345Zm0,0" transform="translate(-140.339 0)" fill="#fff"></path><path id="Path_2827" data-name="Path 2827" d="M58.364,221.62H8.123a4.862,4.862,0,1,1,0-9.724h3.241a1.621,1.621,0,0,0,1.621-1.621V173H48.64v8.1a1.621,1.621,0,0,0,1.621,1.621h8.1v17.827H61.6V181.1c0-.036-.018-.066-.021-.1a1.53,1.53,0,0,0-.082-.416c-.018-.052-.031-.1-.054-.153a1.6,1.6,0,0,0-.324-.475L51.4,170.234a1.607,1.607,0,0,0-.476-.324c-.047-.021-.1-.034-.146-.052a1.616,1.616,0,0,0-.433-.085c-.025,0-.051-.013-.084-.013H12.985v-8.1a1.621,1.621,0,0,0-1.621-1.621H8.123a8.113,8.113,0,0,0-8.1,8.1v48.62a8.112,8.112,0,0,0,8.1,8.1H59.984a1.621,1.621,0,0,0,1.621-1.621V220H58.364Zm-6.483-46.328,4.191,4.191H51.881ZM3.261,171.38v-3.241a4.862,4.862,0,0,1,4.862-4.862H9.744v45.379H8.123a8.057,8.057,0,0,0-4.862,1.621Zm0,0" transform="translate(0 -127.614)" fill="#fff"></path><path id="Path_2828" data-name="Path 2828" d="M280.536,376.035h-38.9a1.621,1.621,0,0,0-1.621,1.621v9.724A1.621,1.621,0,0,0,241.64,389h38.9a1.621,1.621,0,0,0,1.621-1.621v-9.724A1.621,1.621,0,0,0,280.536,376.035Zm-1.621,9.724H243.261v-6.483H246.5v3.241h3.241v-3.241h3.241v3.241h3.241v-3.241h3.241v3.241h3.241v-3.241h3.241v3.241h3.241v-3.241h3.241v3.241h3.241v-3.241h3.241Zm0,0" transform="translate(-191.38 -299.856)" fill="#fff"></path><path id="Path_2829" data-name="Path 2829" d="M109.192,274.064c0-.047-.015-.091-.018-.138a1.89,1.89,0,0,0-.036-.267,12.131,12.131,0,0,0-.156-.379,1.732,1.732,0,0,0-.112-.162,1.849,1.849,0,0,0-.133-.17,1.418,1.418,0,0,0-.162-.138,1.266,1.266,0,0,0-.123-.1l-12.965-8.4a1.621,1.621,0,0,0-1.739-.014l-12.965,8.1c-.051.032-.092.078-.141.115a1.478,1.478,0,0,0-.154.128,1.376,1.376,0,0,0-.146.186,1.331,1.331,0,0,0-.105.143,1.845,1.845,0,0,0-.105.248c-.017.045-.04.088-.054.136a1.606,1.606,0,0,0-.058.416v12.965a1.62,1.62,0,0,0,.761,1.375l12.965,8.1.026.011a.339.339,0,0,0,.036.026,1.551,1.551,0,0,0,.255.1c.04.013.076.036.116.046a1.556,1.556,0,0,0,.843,0c.042-.012.082-.034.125-.049a1.713,1.713,0,0,0,.245-.1l.026-.019.024-.012,12.965-7.808a1.621,1.621,0,0,0,.785-1.384ZM92.985,291.92l-9.724-6.077V276.7l9.724,6.078Zm1.636-11.941-9.923-6.21,9.886-6.181,9.923,6.425-6.424,3.87Zm11.329,6.133-9.724,5.857v-9.181l8.5-5.119,1.223-.738Zm0,0" transform="translate(-63.793 -210.555)" fill="#fff"></path><path id="Path_2830" data-name="Path 2830" d="M240.02,312.035H246.5v3.241H240.02Zm0,0" transform="translate(-191.38 -248.821)" fill="#fff"></path><path id="Path_2831" data-name="Path 2831" d="M240.02,344.035H246.5v3.241H240.02Zm0,0" transform="translate(-191.38 -274.339)" fill="#fff"></path><path id="Path_2832" data-name="Path 2832" d="M80.02,424.035h3.241v3.241H80.02Zm0,0" transform="translate(-63.793 -338.132)" fill="#fff"></path><path id="Path_2833" data-name="Path 2833" d="M80.02,248.035h3.241v3.241H80.02Zm0,0" transform="translate(-63.793 -197.787)" fill="#fff"></path><path id="Path_2834" data-name="Path 2834" d="M251.781,62.115l7.779-4.861L261.277,60,253.5,64.863Zm0,0" transform="translate(-200.759 -45.655)" fill="#fff"></path><path id="Path_2835" data-name="Path 2835" d="M302.977,42.871l2.593-1.621L307.287,44l-2.593,1.621Zm0,0" transform="translate(-241.583 -32.893)" fill="#fff"></path><path id="Path_2836" data-name="Path 2836" d="M208.02,152.035h3.241v8.1H208.02Zm0,0" transform="translate(-165.863 -121.235)" fill="#fff"></path><path id="Path_2837" data-name="Path 2837" d="M208.02,424.035h3.241v3.241H208.02Zm0,0" transform="translate(-165.863 -338.132)" fill="#fff"></path><path id="Path_2838" data-name="Path 2838" d="M208.02,248.035h3.241v3.241H208.02Zm0,0" transform="translate(-165.863 -197.787)" fill="#fff"></path></g></svg> 