<?xml version="1.0" encoding="UTF-8"?> <svg xmlns="http://www.w3.org/2000/svg" xmlns:xlink="http://www.w3.org/1999/xlink" width="97.83" height="97.83" viewBox="0 0 97.83 97.83"><defs><linearGradient id="linear-gradient" x1="0.5" x2="0" y2="1.82" gradientUnits="objectBoundingBox"><stop offset="0" stop-color="#71bfff"></stop><stop offset="0.081" stop-color="#71bfff"></stop><stop offset="0.085" stop-color="#71bfff"></stop><stop offset="1" stop-color="#5a4dff"></stop></linearGradient></defs><g id="qa" transform="translate(0 0)"><g id="Group_63" data-name="Group 63" transform="translate(67.163 22.165)"><g id="Group_62" data-name="Group 62"><path id="Path_285" data-name="Path 285" d="M354.761,116.56a1.909,1.909,0,1,0,.56,1.351A1.925,1.925,0,0,0,354.761,116.56Z" transform="translate(-351.5 -116)" fill="url(#linear-gradient)"></path></g></g><g id="Group_65" data-name="Group 65" transform="translate(35.54 22.165)"><g id="Group_64" data-name="Group 64"><path id="Path_286" data-name="Path 286" d="M238.737,116H226.556a1.911,1.911,0,0,0,0,3.822h12.181a5.739,5.739,0,0,1,5.732,5.732v27.515a5.739,5.739,0,0,1-5.732,5.732h-2.675a1.911,1.911,0,0,0-1.351.56l-6.292,6.292-6.292-6.292a1.911,1.911,0,0,0-1.351-.56H195.554a5.739,5.739,0,0,1-5.732-5.732V146.19a1.911,1.911,0,0,0-3.822,0v6.879a9.565,9.565,0,0,0,9.554,9.554h24.43l7.083,7.083a1.911,1.911,0,0,0,2.7,0l7.084-7.083h1.883a9.565,9.565,0,0,0,9.554-9.554V125.554A9.565,9.565,0,0,0,238.737,116Z" transform="translate(-186 -116)" fill="url(#linear-gradient)"></path></g></g><g id="Group_67" data-name="Group 67" transform="translate(0.005)"><g id="Group_66" data-name="Group 66"><path id="Path_287" data-name="Path 287" d="M52.762,0H9.579A9.565,9.565,0,0,0,.025,9.554V37.069a9.564,9.564,0,0,0,9.554,9.554h4.013l7.083,7.083a1.911,1.911,0,0,0,2.7,0l7.084-7.083h22.3a9.565,9.565,0,0,0,9.554-9.554V9.554A9.565,9.565,0,0,0,52.762,0Zm5.732,37.069A5.739,5.739,0,0,1,52.761,42.8H29.669a1.911,1.911,0,0,0-1.351.56l-6.292,6.292-6.292-6.292a1.911,1.911,0,0,0-1.351-.56h-4.8a5.739,5.739,0,0,1-5.732-5.732V9.554A5.739,5.739,0,0,1,9.579,3.822H52.761a5.739,5.739,0,0,1,5.732,5.732Z" transform="translate(-0.025)" fill="url(#linear-gradient)"></path></g></g><g id="Group_69" data-name="Group 69" transform="translate(60.386 35.54)"><g id="Group_68" data-name="Group 68"><path id="Path_288" data-name="Path 288" d="M333.259,203.218l-6.776-16.05a1.911,1.911,0,0,0-3.521,0l-6.776,16.05a1.911,1.911,0,1,0,3.521,1.486l.958-2.269h8.116l.958,2.269a1.911,1.911,0,1,0,3.521-1.486Zm-10.981-4.6,2.444-5.79,2.445,5.79Z" transform="translate(-316.035 -186)" fill="url(#linear-gradient)"></path></g></g><g id="Group_71" data-name="Group 71" transform="translate(21.501 12.993)"><g id="Group_70" data-name="Group 70"><path id="Path_289" data-name="Path 289" d="M131.046,85l-1.813-1.335a8.738,8.738,0,0,0,.871-3.814V76.79a8.789,8.789,0,1,0-17.579,0v3.057A8.784,8.784,0,0,0,126.86,86.66l1.92,1.414A1.911,1.911,0,1,0,131.046,85Zm-4.763-5.149a4.955,4.955,0,0,1-.224,1.476l-2.019-1.486a1.911,1.911,0,0,0-2.266,3.077l1.824,1.343a4.964,4.964,0,0,1-7.251-4.41V76.79h0a4.968,4.968,0,1,1,9.936,0Z" transform="translate(-112.525 -68.001)" fill="url(#linear-gradient)"></path></g></g><g id="Group_73" data-name="Group 73" transform="translate(0 76.237)"><g id="Group_72" data-name="Group 72"><path id="Path_290" data-name="Path 290" d="M74.276,408.1l-16.56-8.886a1.911,1.911,0,0,0-.9-.227H6.742A6.75,6.75,0,0,0,0,405.732v8.108a6.75,6.75,0,0,0,6.742,6.743H56.813a1.913,1.913,0,0,0,.9-.227l16.56-8.886a1.911,1.911,0,0,0,0-3.367Zm-61.808,8.659H6.742a2.924,2.924,0,0,1-2.921-2.921v-8.108a2.924,2.924,0,0,1,2.921-2.921h5.726Zm42.434,0H16.29v-5.215H40.6a1.911,1.911,0,0,0,0-3.822H16.29v-4.914H54.9Zm3.821-1.283V404.094l10.608,5.692Z" transform="translate(0 -398.99)" fill="url(#linear-gradient)"></path></g></g><g id="Group_75" data-name="Group 75" transform="translate(46.049 84.973)"><g id="Group_74" data-name="Group 74"><path id="Path_291" data-name="Path 291" d="M244.261,445.268a1.909,1.909,0,1,0,.56,1.351A1.923,1.923,0,0,0,244.261,445.268Z" transform="translate(-241 -444.71)" fill="url(#linear-gradient)"></path></g></g></g></svg> 