<?xml version="1.0" encoding="UTF-8"?> <svg xmlns="http://www.w3.org/2000/svg" xmlns:xlink="http://www.w3.org/1999/xlink" width="318.904" height="256.303" viewBox="0 0 318.904 256.303"><defs><linearGradient id="linear-gradient" x1="3.966" y1="4.531" x2="3.366" y2="3.661" gradientUnits="objectBoundingBox"><stop offset="0" stop-opacity="0"></stop><stop offset="0.95"></stop></linearGradient><linearGradient id="linear-gradient-2" x1="4.26" y1="6.243" x2="5.234" y2="6.243" xlink:href="#linear-gradient"></linearGradient><linearGradient id="linear-gradient-3" x1="1.483" y1="2.341" x2="1.278" y2="1.849" gradientUnits="objectBoundingBox"><stop offset="0.02" stop-color="#fff" stop-opacity="0"></stop><stop offset="0.32" stop-color="#fff" stop-opacity="0.388"></stop><stop offset="0.68" stop-color="#fff" stop-opacity="0.678"></stop><stop offset="1" stop-color="#fff"></stop></linearGradient><linearGradient id="linear-gradient-4" x1="2.752" y1="3.696" x2="2.149" y2="5.415" xlink:href="#linear-gradient-3"></linearGradient><linearGradient id="linear-gradient-5" x1="0" y1="0.5" x2="1" y2="0.5" xlink:href="#linear-gradient-3"></linearGradient><linearGradient id="linear-gradient-6" x1="0.745" y1="0.737" x2="0.078" y2="0.023" xlink:href="#linear-gradient-3"></linearGradient><linearGradient id="linear-gradient-7" x1="9.9" y1="10.649" x2="9.654" y2="8.141" xlink:href="#linear-gradient-3"></linearGradient><linearGradient id="linear-gradient-8" x1="11.728" y1="12.422" x2="11.483" y2="9.913" xlink:href="#linear-gradient-3"></linearGradient><linearGradient id="linear-gradient-9" x1="0.589" y1="0.7" x2="0.308" y2="-0.052" xlink:href="#linear-gradient-3"></linearGradient><linearGradient id="linear-gradient-10" x1="0.407" y1="0.761" x2="0.896" y2="0.022" gradientUnits="objectBoundingBox"><stop offset="0.02" stop-color="#fff" stop-opacity="0"></stop><stop offset="0.32" stop-color="#fff" stop-opacity="0.388"></stop><stop offset="0.66" stop-color="#fff" stop-opacity="0.678"></stop><stop offset="1" stop-color="#fff"></stop></linearGradient><linearGradient id="linear-gradient-11" x1="0.5" x2="0.5" y2="1" gradientUnits="objectBoundingBox"><stop offset="0" stop-color="#71bfff"></stop><stop offset="0.081" stop-color="#71bfff"></stop><stop offset="0.085" stop-color="#71bfff"></stop><stop offset="1" stop-color="#5a4dff"></stop></linearGradient><linearGradient id="linear-gradient-16" xlink:href="#linear-gradient-11"></linearGradient><linearGradient id="linear-gradient-18" x1="2.1" y1="-2.36" x2="0.5" y2="1" gradientUnits="objectBoundingBox"><stop offset="0" stop-color="#71bfff"></stop><stop offset="0.391" stop-color="#71bfff"></stop><stop offset="0.693" stop-color="#71bfff"></stop><stop offset="1" stop-color="#5a4dff"></stop></linearGradient><linearGradient id="linear-gradient-23" x1="0.947" y1="-0.519" x2="0.5" y2="1" gradientUnits="objectBoundingBox"><stop offset="0" stop-color="#71bfff"></stop><stop offset="0.28" stop-color="#71bfff"></stop><stop offset="1" stop-color="#5a4dff"></stop></linearGradient><linearGradient id="linear-gradient-24" x1="1" y1="-0.946" x2="-0.057" y2="1.358" gradientUnits="objectBoundingBox"><stop offset="0" stop-color="#7bbdff"></stop><stop offset="0.045" stop-color="#7bbdff"></stop><stop offset="0.192" stop-color="#eefbfb"></stop><stop offset="0.39" stop-color="#92baff"></stop><stop offset="0.617" stop-color="#aeb6ff"></stop><stop offset="0.864" stop-color="#d4b1ff"></stop><stop offset="0.881" stop-color="#d8b1ff"></stop><stop offset="1" stop-color="#d8b1ff"></stop></linearGradient><linearGradient id="linear-gradient-25" x1="0.568" y1="-3.619" x2="0.42" y2="2.292" xlink:href="#linear-gradient-11"></linearGradient><linearGradient id="linear-gradient-27" x1="1" x2="0.42" y2="2.292" xlink:href="#linear-gradient-11"></linearGradient><linearGradient id="linear-gradient-32" x1="0.7" y1="-10.246" x2="0.468" y2="2.439" gradientUnits="objectBoundingBox"><stop offset="0" stop-color="#71bfff"></stop><stop offset="0.675" stop-color="#71bfff"></stop><stop offset="1" stop-color="#5a4dff"></stop></linearGradient><linearGradient id="linear-gradient-39" x1="0.5" x2="0.165" y2="1" gradientUnits="objectBoundingBox"><stop offset="0" stop-color="#71bfff"></stop><stop offset="0.277" stop-color="#6ca7ff"></stop><stop offset="1" stop-color="#5a4dff"></stop></linearGradient></defs><g id="Group_713" data-name="Group 713" transform="translate(-1026.633 -4324.093)"><g id="rocket_launch_2" transform="translate(1063.104 4289.044)"><path id="Path_2839" data-name="Path 2839" d="M325.641,249.051c-5.293,14-42.437,4.948-53.42,4.262q-15.464-.964-30.945-1.434c-28.32-.876-56.7-.55-84.987.98q-10.059.534-20.109,1.283c-13.349.98-26.87,2.239-40.071.422-1.045-.143-2.1-.3-3.151-.494-12.027-2.127-23.908-7.521-31.308-16.309a33.406,33.406,0,0,1-3.566-5.123c-7.046-12.548-4.671-27.694-7.978-41.486-2.953-12.317-10.361-23.3-14.911-35.2a79.452,79.452,0,0,1,4.9-67.406C51.7,67.655,72.116,52.093,96.54,45.519c22.656-6.111,47.221-4.087,69.765-10.5,23.8-6.788,43.611-22.476,67.2-29.877a103.839,103.839,0,0,1,63.954.868c23.995,8.246,45.7,31.2,38.034,53.747-3.177,9.322-10.991,17.265-12.027,26.993-2.012,18.978,21.724,32.411,24.953,51.246,3.644,21.265-18.866,37.367-32.922,54.552-3.877,4.725-7.287,10.023-8.306,15.871C304.5,223.9,329.6,238.614,325.641,249.051Z" transform="translate(-66.377 34.53)" fill="#6891fd" opacity="0.24"></path><path id="Path_2840" data-name="Path 2840" d="M223.368,121.719s7.121,1.846,6.34,3.825-4.057,4-8.608,6.34l.162,2.261s12.024-3.642,13.447-8.551a9.7,9.7,0,0,0-1.564-8.453Z" transform="translate(-86.527 -34.943)" fill="#6891fd"></path><path id="Path_2841" data-name="Path 2841" d="M223.368,121.719s7.121,1.846,6.34,3.825-4.057,4-8.608,6.34l.162,2.261s12.024-3.642,13.447-8.551a9.7,9.7,0,0,0-1.564-8.453Z" transform="translate(-86.527 -34.943)" fill="url(#linear-gradient)"></path><path id="Path_2842" data-name="Path 2842" d="M219.112,112.9s-4.86,2.874-5.635,3.522-.761,2.761,1.078,4.987c2.768,3.339,5.058,2.487,5.058,2.487l4.684-4.86Z" transform="translate(-84.13 -33.69)" fill="#6891fd"></path><path id="Path_2843" data-name="Path 2843" d="M219.112,112.9s-4.86,2.874-5.635,3.522-.761,2.761,1.078,4.987c2.768,3.339,5.058,2.487,5.058,2.487l4.684-4.86Z" transform="translate(-84.13 -33.69)" fill="url(#linear-gradient-2)"></path><path id="Path_2844" data-name="Path 2844" d="M216.21,103.605a63.692,63.692,0,0,1,17.279-18.934c11.778-8.657,29.176-15.074,34.98-13.243s-1.557,15.6-25.711,28.8c-.514.275-3.98,2.184-4.515,2.416l-16.8,7.044S218.288,109.536,216.21,103.605Z" transform="translate(-85.081 -21.338)" fill="#6891fd"></path><path id="Path_2845" data-name="Path 2845" d="M216.21,103.605a63.692,63.692,0,0,1,17.279-18.934c11.778-8.657,29.176-15.074,34.98-13.243s-1.557,15.6-25.711,28.8c-.514.275-3.98,2.184-4.515,2.416l-16.8,7.044S218.288,109.536,216.21,103.605Z" transform="translate(-85.081 -21.338)" fill="url(#linear-gradient-3)"></path><path id="Path_2846" data-name="Path 2846" d="M219.48,98.134s-5.22-5.177-11.073-2.613-14.257,15.067-14.257,15.067l2.9.162s9.686-9.2,11.432-8.453,1.888,7.093,1.888,7.093,4.05-.521,6.931-5.248S219.48,98.134,219.48,98.134Z" transform="translate(-78.56 -28.342)" fill="#6891fd"></path><path id="Path_2847" data-name="Path 2847" d="M219.48,98.134s-5.22-5.177-11.073-2.613-14.257,15.067-14.257,15.067l2.9.162s9.686-9.2,11.432-8.453,1.888,7.093,1.888,7.093,4.05-.521,6.931-5.248S219.48,98.134,219.48,98.134Z" transform="translate(-78.56 -28.342)" fill="url(#linear-gradient-4)"></path><path id="Path_2848" data-name="Path 2848" d="M213.213,257.153c-23.1-.775-46.258-.486-69.334.866q-8.206.472-16.405,1.134c-10.89.866-21.921,1.979-32.691.373-.852-.127-1.712-.268-2.571-.437-9.812-1.881-19.5-6.65-25.542-14.419,2.93-33.149,21.872-54.549,30.007-65.249,13.665-17.948,68.756-60.346,74.378-61.945h0c5.572-1.571,4.191.7,4.191.7l1.106,6.9h0c-1.1.754-87.627,60.529-47.336,97.848C150.212,242.565,183.452,252.335,213.213,257.153Z" transform="translate(-40.877 -34.88)" fill="url(#linear-gradient-5)"></path><path id="Path_2849" data-name="Path 2849" d="M109.962,205.869c-10.658,26.175,11,41.524,42.3,52.393q-8.206.472-16.405,1.134c-10.89.866-21.921,1.979-32.691.373-5.917-13.236-8.453-25.358-8.108-33.938,1.782-47.244,83.119-107.181,84.38-108.111h0l5.3,7.586h0C183.811,125.616,135.736,142.522,109.962,205.869Z" transform="translate(-49.259 -35.115)" fill="url(#linear-gradient-6)"></path><circle id="Ellipse_229" data-name="Ellipse 229" cx="3.895" cy="3.895" r="3.895" transform="translate(167.539 57.775)" fill="url(#linear-gradient-7)"></circle><circle id="Ellipse_230" data-name="Ellipse 230" cx="3.254" cy="3.254" r="3.254" transform="translate(168.18 58.416)" fill="url(#linear-gradient-8)"></circle><path id="Path_2850" data-name="Path 2850" d="M292.8,159.013c-7.044-3.275-15.229-4.325-22.654-2.113s-13.891,7.974-16.258,15.356c-.655,2.043-1.028,4.226-2.289,5.987-1.627,2.24-4.4,3.283-6.565,5.022-6.734,5.417-5.558,17,.881,22.773s16.145,6.495,24.5,4.283a35.344,35.344,0,0,0,36.009,10c2.451,3.712,7.819,4.515,12.01,3.015s7.481-4.748,10.622-7.9l9.587-9.615c5.36-5.375,10.777-10.834,14.574-17.406s5.825-14.511,3.888-21.836a21.836,21.836,0,0,0-33.839-12.151c-1.226-7.854-7.748-8.967-15.222-7.41C306.188,147.4,289.846,157.632,292.8,159.013Z" transform="translate(-92.264 -43.596)" fill="url(#linear-gradient-9)"></path><path id="Path_2851" data-name="Path 2851" d="M76.382,105.192c3.6-1.979,7.748-3.4,11.792-2.571s7.657,4.5,7.255,8.594a7.854,7.854,0,0,1,4.79,14.588c4.3,3.219,4.128,10.291.592,14.327s-9.354,5.389-14.708,4.994-10.46-2.289-15.624-3.754a8.889,8.889,0,0,0-4.318-.444c-1.578.366-2.818,1.522-4.114,2.515A25.6,25.6,0,0,1,41.3,148.209a13.7,13.7,0,0,1-6.34-2.916c-2.458-2.2-3.578-5.565-3.952-8.847-1.007-8.84,3.522-18.561,11.827-21.836,0,0,1.113-4.614,1.409-5.149a13.961,13.961,0,0,1,3.79-4.522c2.818-2.191,6.473-3.346,9.819-4.431C64.351,98.38,74.523,95.4,76.382,105.192Z" transform="translate(-30.296 -29.391)" fill="url(#linear-gradient-10)"></path></g><g id="Group_712" data-name="Group 712" transform="translate(-11 -16)"><g id="Group_710" data-name="Group 710" transform="translate(1047.125 4374.323)"><ellipse id="Ellipse_231" data-name="Ellipse 231" cx="147.814" cy="9.352" rx="147.814" ry="9.352" transform="translate(0 187.368)" fill="#ccf"></ellipse><g id="Group_636" data-name="Group 636" transform="translate(0.497 0)"><g id="Group_628" data-name="Group 628" transform="translate(239.979 22.721)"><g id="Group_625" data-name="Group 625" transform="translate(13.713)"><path id="Path_2852" data-name="Path 2852" d="M403.181,189.834l1.533.282.813.149,2.3.423s29.163-31.07,18.574-45.727c-3.26-4.512-11.045-3.132-13.193,13.75C411.221,174.36,403.181,189.834,403.181,189.834Z" transform="translate(-403.181 -142.75)" fill="url(#linear-gradient-11)"></path><g id="Group_624" data-name="Group 624" transform="translate(1.533 10.757)"><path id="Path_2853" data-name="Path 2853" d="M405.475,195.461l.813.149a103.314,103.314,0,0,0,11.992-23.09,116.276,116.276,0,0,0,4.179-13.21.374.374,0,0,0-.728-.17,115.279,115.279,0,0,1-4.154,13.128A102.1,102.1,0,0,1,405.475,195.461Z" transform="translate(-405.475 -158.851)" fill="#6c63ff"></path></g></g><g id="Group_627" data-name="Group 627" transform="translate(0 12.295)"><path id="Path_2854" data-name="Path 2854" d="M382.655,211.356l1.828,1.323.97.7,2.748,1.988s57.464-22.445,52.753-48.2c-1.45-7.927-12.485-10.972-25.806,9.755C402.8,196.139,382.655,211.356,382.655,211.356Z" transform="translate(-382.655 -161.153)" fill="url(#linear-gradient-11)"></path><g id="Group_626" data-name="Group 626" transform="translate(1.828 13.976)"><path id="Path_2855" data-name="Path 2855" d="M385.391,219.623l.97.7c12.256-6.748,22.975-15.921,30.052-22.71A168.009,168.009,0,0,0,430.1,182.951a.541.541,0,0,0-.845-.675,167.078,167.078,0,0,1-13.605,14.569C408.538,203.666,397.726,212.911,385.391,219.623Z" transform="translate(-385.391 -182.073)" fill="#6c63ff"></path></g></g></g><g id="Group_633" data-name="Group 633" transform="translate(0 80.173)"><g id="Group_630" data-name="Group 630" transform="translate(19.321)"><path id="Path_2856" data-name="Path 2856" d="M77.9,275.831l-1.533.282-.814.149-2.3.423s-29.163-31.07-18.574-45.727c3.26-4.512,11.045-3.132,13.193,13.75C69.862,260.357,77.9,275.831,77.9,275.831Z" transform="translate(-52.362 -228.747)" fill="url(#linear-gradient-11)"></path><g id="Group_629" data-name="Group 629" transform="translate(7.013 10.757)"><path id="Path_2857" data-name="Path 2857" d="M79.854,281.458l-.814.149a103.336,103.336,0,0,1-11.991-23.09,116.166,116.166,0,0,1-4.179-13.21.374.374,0,0,1,.728-.17,115.216,115.216,0,0,0,4.154,13.128A102.085,102.085,0,0,0,79.854,281.458Z" transform="translate(-62.86 -244.848)" fill="url(#linear-gradient-11)"></path></g></g><g id="Group_632" data-name="Group 632" transform="translate(0 12.295)"><path id="Path_2858" data-name="Path 2858" d="M82.015,297.353l-1.828,1.323-.97.7-2.748,1.987s-57.464-22.444-52.753-48.195c1.45-7.927,12.484-10.972,25.806,9.755C61.871,282.136,82.015,297.353,82.015,297.353Z" transform="translate(-23.442 -247.15)" fill="url(#linear-gradient-11)"></path><g id="Group_631" data-name="Group 631" transform="translate(11.916 13.976)"><path id="Path_2859" data-name="Path 2859" d="M86.107,305.62l-.97.7c-12.256-6.748-22.975-15.921-30.052-22.71A168.063,168.063,0,0,1,41.4,268.948a.541.541,0,0,1,.846-.675,167.1,167.1,0,0,0,13.605,14.569C62.961,289.663,73.772,298.908,86.107,305.62Z" transform="translate(-41.278 -268.07)" fill="url(#linear-gradient-16)"></path></g></g></g><g id="Group_635" data-name="Group 635" transform="translate(61.189)"><g id="Group_634" data-name="Group 634" transform="translate(6.153 7.072)"><path id="Path_2860" data-name="Path 2860" d="M161.621,166.218c-10.372-8.28-18.722-15.976-24.852-22.916-8.009-9.066-12.223-16.866-12.526-23.182a.759.759,0,0,1,1.517-.073c.53,11.041,14.177,27.314,39.487,47.1Z" transform="translate(-124.242 -119.325)" fill="url(#linear-gradient-16)"></path></g><path id="Path_2861" data-name="Path 2861" d="M127.246,139.832s-4.288,4.676-12.214-3.185C115.032,136.647,123.626,131.352,127.246,139.832Z" transform="translate(-115.032 -117.46)" fill="url(#linear-gradient-18)"></path><path id="Path_2862" data-name="Path 2862" d="M138.325,142.462s-4.907-4.022,2.5-12.373C140.826,130.089,146.591,138.375,138.325,142.462Z" transform="translate(-122.235 -115.826)" fill="url(#linear-gradient-18)"></path><path id="Path_2863" data-name="Path 2863" d="M125.111,121.237s-5.967-2.155-1.767-12.5C123.344,108.739,131.542,114.629,125.111,121.237Z" transform="translate(-117.294 -108.739)" fill="url(#linear-gradient-18)"></path><path id="Path_2864" data-name="Path 2864" d="M144.149,160.451s-2.454,5.85-12.572,1.134C131.577,161.585,137.874,153.7,144.149,160.451Z" transform="translate(-120.524 -124.996)" fill="url(#linear-gradient-18)"></path><path id="Path_2865" data-name="Path 2865" d="M156.116,161.147s-5.529-3.112.323-12.618C156.44,148.529,163.551,155.693,156.116,161.147Z" transform="translate(-127.884 -121.946)" fill="url(#linear-gradient-18)"></path><path id="Path_2866" data-name="Path 2866" d="M159.736,174.725s-2.343,5.9-12.548,1.372C147.188,176.1,153.333,168.089,159.736,174.725Z" transform="translate(-125.706 -129.768)" fill="#ccf"></path></g></g><g id="Group_654" data-name="Group 654" transform="translate(16.756 42.104)"><g id="Group_653" data-name="Group 653"><g id="Group_650" data-name="Group 650" transform="translate(21.229)"><rect id="Rectangle_607" data-name="Rectangle 607" width="227.267" height="140.919" rx="13.7" fill="url(#linear-gradient-23)"></rect><path id="Path_2867" data-name="Path 2867" d="M301.744,191.877V302.024a5.869,5.869,0,0,1-5.868,5.869H100.538a5.848,5.848,0,0,1-3.628-1.255,5.955,5.955,0,0,1-.737-.691,5.832,5.832,0,0,1-1.5-3.922V191.877a5.87,5.87,0,0,1,5.87-5.869H295.876a5.824,5.824,0,0,1,2.968.806,5.9,5.9,0,0,1,2.013,1.96A5.835,5.835,0,0,1,301.744,191.877Z" transform="translate(-84.572 -176.491)" fill="#fff"></path><g id="Group_646" data-name="Group 646" transform="translate(52.542 33.366)"><g id="Group_640" data-name="Group 640"><g id="Group_639" data-name="Group 639"><g id="Group_638" data-name="Group 638"><rect id="Rectangle_608" data-name="Rectangle 608" width="125.436" height="71.172" opacity="0.322" fill="url(#linear-gradient-24)"></rect><rect id="Rectangle_609" data-name="Rectangle 609" width="125.436" height="6.11" fill="url(#linear-gradient-25)"></rect><g id="Group_637" data-name="Group 637" transform="translate(111.101 1.788)"><path id="Path_2868" data-name="Path 2868" d="M327.04,225.649a1.268,1.268,0,1,1-1.267-1.267A1.268,1.268,0,0,1,327.04,225.649Z" transform="translate(-324.505 -224.382)" fill="#5f46f1"></path><path id="Path_2869" data-name="Path 2869" d="M333.19,225.649a1.268,1.268,0,1,1-1.268-1.267A1.268,1.268,0,0,1,333.19,225.649Z" transform="translate(-326.546 -224.382)" fill="#5f46f1"></path><path id="Path_2870" data-name="Path 2870" d="M339.042,225.649a1.268,1.268,0,1,1-1.267-1.267A1.268,1.268,0,0,1,339.042,225.649Z" transform="translate(-328.489 -224.382)" fill="#8380f9"></path></g></g></g></g><g id="Group_643" data-name="Group 643" transform="translate(13.188 9.468)"><g id="Group_642" data-name="Group 642" transform="translate(0.622 0.472)"><g id="Group_641" data-name="Group 641"><path id="Path_2871" data-name="Path 2871" d="M179.174,293.384a.3.3,0,0,1-.3-.3v-56.2a.3.3,0,1,1,.6,0v56.2A.3.3,0,0,1,179.174,293.384Z" transform="translate(-178.875 -236.585)" fill="#2a3554"></path></g></g><path id="Path_2872" data-name="Path 2872" d="M179.758,236.785a.907.907,0,1,1-.907-.907A.907.907,0,0,1,179.758,236.785Z" transform="translate(-177.944 -235.878)" fill="#2a3554"></path><path id="Path_2873" data-name="Path 2873" d="M179.758,320.707a.907.907,0,1,1-.907-.907A.907.907,0,0,1,179.758,320.707Z" transform="translate(-177.944 -263.734)" fill="#2a3554"></path></g><g id="Group_645" data-name="Group 645" transform="translate(110.194 9.468)"><g id="Group_644" data-name="Group 644" transform="translate(0.622 0.472)"><path id="Path_2874" data-name="Path 2874" d="M324.377,293.384a.3.3,0,0,1-.3-.3v-56.2a.3.3,0,1,1,.6,0v56.2A.3.3,0,0,1,324.377,293.384Z" transform="translate(-324.078 -236.585)" fill="#2a3554"></path></g><path id="Path_2875" data-name="Path 2875" d="M324.961,236.785a.907.907,0,1,1-.907-.907A.907.907,0,0,1,324.961,236.785Z" transform="translate(-323.147 -235.878)" fill="#2a3554"></path><path id="Path_2876" data-name="Path 2876" d="M324.961,320.707a.907.907,0,1,1-.907-.907A.907.907,0,0,1,324.961,320.707Z" transform="translate(-323.147 -263.734)" fill="#2a3554"></path></g></g><g id="Group_647" data-name="Group 647" transform="translate(23.834 33.366)"><rect id="Rectangle_610" data-name="Rectangle 610" width="15.625" height="70.79" opacity="0.322" fill="url(#linear-gradient-24)"></rect><rect id="Rectangle_611" data-name="Rectangle 611" width="15.625" height="4.698" fill="url(#linear-gradient-27)"></rect></g><g id="Group_648" data-name="Group 648" transform="translate(188.605 69.329)"><rect id="Rectangle_612" data-name="Rectangle 612" width="15.624" height="34.826" opacity="0.322" fill="url(#linear-gradient-24)"></rect><rect id="Rectangle_613" data-name="Rectangle 613" width="15.624" height="4.996" fill="url(#linear-gradient-27)"></rect></g><g id="Group_649" data-name="Group 649" transform="translate(188.963 33.61)"><rect id="Rectangle_614" data-name="Rectangle 614" width="15.624" height="20.299" opacity="0.322" fill="url(#linear-gradient-24)"></rect><rect id="Rectangle_615" data-name="Rectangle 615" width="15.624" height="4.996" fill="url(#linear-gradient-27)"></rect></g></g><path id="Path_2877" data-name="Path 2877" d="M317.5,375.362v.784a17.833,17.833,0,0,1-17.835,17.835H65.615A17.833,17.833,0,0,1,47.78,376.146v-.784Z" transform="translate(-47.78 -239.343)" fill="url(#linear-gradient-32)"></path><path id="Path_2878" data-name="Path 2878" d="M204.4,375.362v.179a2.367,2.367,0,0,0,2.112,2.557h55.063a2.367,2.367,0,0,0,2.112-2.557v-.179Z" transform="translate(-99.766 -239.343)" fill="#445279"></path><g id="Group_652" data-name="Group 652" transform="translate(31.325 9.516)"><path id="Path_2879" data-name="Path 2879" d="M301.743,191.877v6.5H94.669v-6.5a5.875,5.875,0,0,1,5.869-5.87H295.876a5.875,5.875,0,0,1,5.867,5.87Z" transform="translate(-94.669 -186.007)" fill="#e3e3ff"></path><g id="Group_651" data-name="Group 651" transform="translate(187.741 5.39)"><path id="Path_2880" data-name="Path 2880" d="M379.055,195.758a1.683,1.683,0,1,1-1.683-1.683A1.683,1.683,0,0,1,379.055,195.758Z" transform="translate(-375.689 -194.075)" fill="#5f46f1"></path><path id="Path_2881" data-name="Path 2881" d="M387.218,195.758a1.683,1.683,0,1,1-1.683-1.683A1.683,1.683,0,0,1,387.218,195.758Z" transform="translate(-378.399 -194.075)" fill="#5f46f1"></path><path id="Path_2882" data-name="Path 2882" d="M394.987,195.758a1.683,1.683,0,1,1-1.683-1.683A1.683,1.683,0,0,1,394.987,195.758Z" transform="translate(-380.978 -194.075)" fill="#8380f9"></path></g><rect id="Rectangle_616" data-name="Rectangle 616" width="110.847" height="3.286" rx="0.754" transform="translate(46.715 4.858)" fill="#fff"></rect><path id="Path_2883" data-name="Path 2883" d="M123.475,194.907v1.218a.454.454,0,0,1-.681.393l-1.054-.609-1.055-.609a.453.453,0,0,1,0-.786l1.055-.609,1.054-.609a.454.454,0,0,1,.681.393Z" transform="translate(-103.229 -188.406)" fill="#2a3554"></path><path id="Path_2884" data-name="Path 2884" d="M133.189,194.907v1.218a.454.454,0,0,0,.68.393l1.055-.609,1.055-.609a.454.454,0,0,0,0-.786l-1.055-.609-1.055-.609a.453.453,0,0,0-.68.393Z" transform="translate(-107.455 -188.406)" fill="#2a3554"></path></g><path id="Path_2885" data-name="Path 2885" d="M301.211,188.518H96.253a5.852,5.852,0,0,1,4.811-2.511H296.4A5.845,5.845,0,0,1,301.211,188.518Z" transform="translate(-63.87 -176.491)" fill="#ccf"></path><path id="Path_2886" data-name="Path 2886" d="M276.824,349.968H151.735a4.429,4.429,0,0,1-4.429-4.429h0a4.429,4.429,0,0,1,4.429-4.429h125.09a4.429,4.429,0,0,1,4.429,4.429h0A4.429,4.429,0,0,1,276.824,349.968Z" transform="translate(-80.816 -227.975)" opacity="0.322" fill="url(#linear-gradient-24)"></path></g></g><g id="Group_709" data-name="Group 709" transform="translate(12.842 4.524)"><g id="Group_673" data-name="Group 673" transform="translate(259.807 119.784)"><g id="Group_672" data-name="Group 672" transform="translate(0 0)"><g id="Group_655" data-name="Group 655" transform="translate(0 26.526)"><path id="Path_2887" data-name="Path 2887" d="M437.777,338a3.482,3.482,0,1,1-3.481-3.482A3.486,3.486,0,0,1,437.777,338Zm-5.871,0a2.389,2.389,0,1,0,2.39-2.39A2.392,2.392,0,0,0,431.906,338Z" transform="translate(-430.814 -334.514)" fill="#8380f9"></path></g><g id="Group_656" data-name="Group 656" transform="translate(3.542 8.83)"><path id="Path_2888" data-name="Path 2888" d="M443.079,311.508a3.482,3.482,0,1,1-3.481-3.482A3.486,3.486,0,0,1,443.079,311.508Zm-5.871,0a2.389,2.389,0,1,0,2.39-2.389A2.392,2.392,0,0,0,437.208,311.508Z" transform="translate(-436.116 -308.026)" fill="#5f46f1"></path></g><g id="Group_663" data-name="Group 663" transform="translate(14.114)"><g id="Group_659" data-name="Group 659" transform="translate(0 3.381)"><g id="Group_657" data-name="Group 657"><path id="Path_2889" data-name="Path 2889" d="M455.441,300.416a.546.546,0,0,1-.546.546h-2.408a.546.546,0,1,1,0-1.092h2.408A.546.546,0,0,1,455.441,300.416Z" transform="translate(-451.94 -299.87)" fill="#5f46f1"></path></g><g id="Group_658" data-name="Group 658" transform="translate(4.215)"><path id="Path_2890" data-name="Path 2890" d="M461.75,300.416a.546.546,0,0,1-.547.546H458.8a.546.546,0,1,1,0-1.092H461.2A.546.546,0,0,1,461.75,300.416Z" transform="translate(-458.249 -299.87)" fill="#5f46f1"></path></g></g><g id="Group_662" data-name="Group 662" transform="translate(3.312)"><g id="Group_660" data-name="Group 660"><path id="Path_2891" data-name="Path 2891" d="M457.99,295.356v2.163a.546.546,0,1,1-1.093,0v-2.163a.546.546,0,1,1,1.093,0Z" transform="translate(-456.897 -294.809)" fill="#5f46f1"></path></g><g id="Group_661" data-name="Group 661" transform="translate(0 4.598)"><path id="Path_2892" data-name="Path 2892" d="M457.99,302.238V304.4a.546.546,0,0,1-1.093,0v-2.164a.546.546,0,0,1,1.093,0Z" transform="translate(-456.897 -301.692)" fill="#5f46f1"></path></g></g></g><g id="Group_671" data-name="Group 671" transform="translate(10.186 18.596)"><g id="Group_670" data-name="Group 670"><g id="Group_666" data-name="Group 666" transform="translate(0 3.381)"><g id="Group_664" data-name="Group 664"><path id="Path_2893" data-name="Path 2893" d="M449.562,328.252a.546.546,0,0,1-.546.546h-2.408a.546.546,0,1,1,0-1.092h2.408A.546.546,0,0,1,449.562,328.252Z" transform="translate(-446.061 -327.706)" fill="#3c3cc2"></path></g><g id="Group_665" data-name="Group 665" transform="translate(4.215)"><path id="Path_2894" data-name="Path 2894" d="M455.871,328.252a.546.546,0,0,1-.546.546h-2.408a.546.546,0,1,1,0-1.092h2.408A.546.546,0,0,1,455.871,328.252Z" transform="translate(-452.37 -327.706)" fill="#3c3cc2"></path></g></g><g id="Group_669" data-name="Group 669" transform="translate(3.312)"><g id="Group_667" data-name="Group 667"><path id="Path_2895" data-name="Path 2895" d="M452.111,323.192v2.163a.546.546,0,1,1-1.092,0v-2.163a.546.546,0,1,1,1.092,0Z" transform="translate(-451.019 -322.645)" fill="#3c3cc2"></path></g><g id="Group_668" data-name="Group 668" transform="translate(0 4.598)"><path id="Path_2896" data-name="Path 2896" d="M452.111,330.074v2.164a.546.546,0,0,1-1.092,0v-2.164a.546.546,0,1,1,1.092,0Z" transform="translate(-451.019 -329.527)" fill="#3c3cc2"></path></g></g></g></g></g></g><g id="Group_693" data-name="Group 693" transform="translate(1.548 9.791)"><g id="Group_692" data-name="Group 692"><g id="Group_674" data-name="Group 674" transform="translate(0 20.378)"><path id="Path_2897" data-name="Path 2897" d="M51.2,164.151a3.482,3.482,0,1,1-3.482-3.482A3.486,3.486,0,0,1,51.2,164.151Zm-1.092,0a2.389,2.389,0,1,0-2.39,2.389A2.392,2.392,0,0,0,50.111,164.151Z" transform="translate(-44.239 -160.669)" fill="#5f46f1"></path></g><g id="Group_676" data-name="Group 676" transform="translate(14.213 15.681)"><g id="Group_675" data-name="Group 675"><path id="Path_2898" data-name="Path 2898" d="M72.477,157.12A3.482,3.482,0,1,1,69,153.638,3.486,3.486,0,0,1,72.477,157.12Zm-1.092,0A2.389,2.389,0,1,0,69,159.509,2.392,2.392,0,0,0,71.385,157.12Z" transform="translate(-65.514 -153.638)" fill="#8380f9"></path></g></g><g id="Group_683" data-name="Group 683" transform="translate(17.694)"><g id="Group_679" data-name="Group 679" transform="translate(3.381)"><g id="Group_677" data-name="Group 677" transform="translate(0 4.215)"><path id="Path_2899" data-name="Path 2899" d="M76.332,136.475a.546.546,0,0,0-.546.546v2.408a.546.546,0,1,0,1.092,0v-2.408A.546.546,0,0,0,76.332,136.475Z" transform="translate(-75.786 -136.475)" fill="#3c3cc2"></path></g><g id="Group_678" data-name="Group 678"><path id="Path_2900" data-name="Path 2900" d="M76.332,130.166a.546.546,0,0,0-.546.547v2.408a.546.546,0,1,0,1.092,0v-2.408A.546.546,0,0,0,76.332,130.166Z" transform="translate(-75.786 -130.166)" fill="#3c3cc2"></path></g></g><g id="Group_682" data-name="Group 682" transform="translate(0 3.312)"><g id="Group_680" data-name="Group 680" transform="translate(4.598)"><path id="Path_2901" data-name="Path 2901" d="M80.318,135.123H78.154a.546.546,0,0,0,0,1.092h2.164a.546.546,0,0,0,0-1.092Z" transform="translate(-77.608 -135.123)" fill="#3c3cc2"></path></g><g id="Group_681" data-name="Group 681"><path id="Path_2902" data-name="Path 2902" d="M73.435,135.123H71.271a.546.546,0,1,0,0,1.092h2.163a.546.546,0,1,0,0-1.092Z" transform="translate(-70.725 -135.123)" fill="#3c3cc2"></path></g></g></g><g id="Group_691" data-name="Group 691" transform="translate(2.936 3.858)"><g id="Group_690" data-name="Group 690"><g id="Group_686" data-name="Group 686" transform="translate(3.38)"><g id="Group_684" data-name="Group 684" transform="translate(0 4.215)"><path id="Path_2903" data-name="Path 2903" d="M54.24,142.25a.546.546,0,0,0-.546.546V145.2a.546.546,0,0,0,1.092,0V142.8A.546.546,0,0,0,54.24,142.25Z" transform="translate(-53.694 -142.25)" fill="#5f46f1"></path></g><g id="Group_685" data-name="Group 685"><path id="Path_2904" data-name="Path 2904" d="M54.24,135.941a.546.546,0,0,0-.546.547V138.9a.546.546,0,0,0,1.092,0v-2.408A.546.546,0,0,0,54.24,135.941Z" transform="translate(-53.694 -135.941)" fill="#5f46f1"></path></g></g><g id="Group_689" data-name="Group 689" transform="translate(0 3.312)"><g id="Group_687" data-name="Group 687" transform="translate(4.598)"><path id="Path_2905" data-name="Path 2905" d="M58.226,140.9H56.062a.546.546,0,0,0,0,1.092h2.164a.546.546,0,0,0,0-1.092Z" transform="translate(-55.516 -140.898)" fill="#5f46f1"></path></g><g id="Group_688" data-name="Group 688"><path id="Path_2906" data-name="Path 2906" d="M51.344,140.9H49.18a.546.546,0,0,0,0,1.092h2.164a.546.546,0,0,0,0-1.092Z" transform="translate(-48.634 -140.898)" fill="#5f46f1"></path></g></g></g></g></g></g><g id="Group_699" data-name="Group 699" transform="translate(168.097)"><g id="Group_696" data-name="Group 696" transform="translate(0 8.058)"><g id="Group_694" data-name="Group 694" transform="translate(23.668)"><path id="Path_2907" data-name="Path 2907" d="M329.326,128.817a.412.412,0,0,0,.2-.029c.69-.291,1.094-.427,1.1-.428a.4.4,0,1,0-.255-.766c-.018.005-.434.145-1.157.45a.4.4,0,0,0,.115.774Z" transform="translate(-328.965 -127.573)" fill="#ccf"></path></g><g id="Group_695" data-name="Group 695" transform="translate(0 1.454)"><path id="Path_2908" data-name="Path 2908" d="M297.948,161.565c-.275.732-.531,1.487-.764,2.245a.4.4,0,0,1-.428.283.459.459,0,0,1-.077-.015.4.4,0,0,1-.267-.5c.238-.773.5-1.543.78-2.291a.4.4,0,0,1,.756.283Z" transform="translate(-294.486 -140.129)" fill="#ccf"></path><path id="Path_2909" data-name="Path 2909" d="M295.99,168.37c-.185.758-.352,1.539-.5,2.32a.4.4,0,0,1-.439.328l-.031,0a.4.4,0,0,1-.323-.47c.148-.8.318-1.591.506-2.364a.4.4,0,0,1,.784.191Z" transform="translate(-293.921 -142.403)" fill="#ccf"></path><path id="Path_2910" data-name="Path 2910" d="M293.9,185.27a.4.4,0,0,1-.361-.395c-.012-.81-.007-1.623.017-2.415a.4.4,0,0,1,.807.024c-.023.781-.029,1.581-.017,2.378a.4.4,0,0,1-.4.41A.4.4,0,0,1,293.9,185.27Z" transform="translate(-293.538 -147.116)" fill="#ccf"></path><path id="Path_2911" data-name="Path 2911" d="M294.47,174.922a.4.4,0,0,1,.348.453c-.047.365-.091.733-.129,1.095-.044.418-.084.845-.116,1.268a.4.4,0,0,1-.434.371h-.011a.4.4,0,0,1-.36-.433c.034-.43.074-.864.119-1.289.039-.369.083-.744.131-1.115a.4.4,0,0,1,.442-.349Z" transform="translate(-293.614 -144.743)" fill="#ccf"></path><path id="Path_2912" data-name="Path 2912" d="M299.684,157.2a.4.4,0,0,1-.411.236.425.425,0,0,1-.122-.033.4.4,0,0,1-.2-.534c.329-.735.685-1.467,1.058-2.177a.4.4,0,1,1,.714.375C300.354,155.764,300.006,156.481,299.684,157.2Z" transform="translate(-295.322 -137.958)" fill="#ccf"></path><path id="Path_2913" data-name="Path 2913" d="M325.26,130.513c-.693.354-1.392.74-2.078,1.146a.4.4,0,1,1-.412-.694c.7-.415,1.415-.809,2.123-1.17a.4.4,0,1,1,.367.719Z" transform="translate(-303.175 -129.75)" fill="#ccf"></path><path id="Path_2914" data-name="Path 2914" d="M317.271,135.525a.4.4,0,1,1-.49-.641c.639-.488,1.3-.963,1.967-1.412a.4.4,0,1,1,.452.669C318.546,134.581,317.9,135.047,317.271,135.525Z" transform="translate(-301.2 -130.962)" fill="#ccf"></path><path id="Path_2915" data-name="Path 2915" d="M307.086,145.238a.4.4,0,1,1-.63-.5c.5-.626,1.03-1.246,1.572-1.842a.4.4,0,1,1,.6.542C308.095,144.019,307.577,144.626,307.086,145.238Z" transform="translate(-297.796 -134.068)" fill="#ccf"></path><path id="Path_2916" data-name="Path 2916" d="M311.875,140.069a.4.4,0,0,1-.563-.579c.574-.559,1.174-1.109,1.786-1.635a.4.4,0,0,1,.526.611C313.026,138.983,312.436,139.522,311.875,140.069Z" transform="translate(-299.397 -132.408)" fill="#ccf"></path><path id="Path_2917" data-name="Path 2917" d="M303,150.976a.4.4,0,1,1-.688-.42c.418-.686.865-1.368,1.327-2.026a.4.4,0,0,1,.661.464C303.844,149.638,303.407,150.3,303,150.976Z" transform="translate(-296.429 -135.926)" fill="#ccf"></path></g></g><g id="Group_698" data-name="Group 698" transform="translate(22.271)"><g id="Group_697" data-name="Group 697"><path id="Path_2918" data-name="Path 2918" d="M328.641,122.052l-1.766-6.541,21.64.186Z" transform="translate(-326.875 -115.511)" fill="url(#linear-gradient-11)"></path><path id="Path_2919" data-name="Path 2919" d="M349.393,115.788l-18.824,7.935-.05.022-.81,1.341-.191-2.942Z" transform="translate(-327.752 -115.603)" fill="url(#linear-gradient-11)"></path><path id="Path_2920" data-name="Path 2920" d="M329.8,129.039l1.755-.277-.945-1.065Z" transform="translate(-327.847 -119.556)" fill="#3c3cc2"></path><path id="Path_2921" data-name="Path 2921" d="M333.384,122.746l-2.369,1,4.879,5.5,14-13.452Z" transform="translate(-328.249 -115.603)" fill="url(#linear-gradient-11)"></path></g></g></g><g id="Group_701" data-name="Group 701" transform="translate(256.072 86.861)"><g id="Group_700" data-name="Group 700"><rect id="Rectangle_617" data-name="Rectangle 617" width="28.136" height="20.137" fill="url(#linear-gradient-16)"></rect><path id="Path_2922" data-name="Path 2922" d="M459.9,262.758l-1.368-2.3-4.531-7.632-9.063,15.263H459.9Z" transform="translate(-431.769 -247.95)" fill="#161642"></path><path id="Path_2923" data-name="Path 2923" d="M436.522,266.625h-11.3l5.649-9.1,5.649-9.1,5.649,9.1,5.649,9.1Z" transform="translate(-425.224 -246.488)" fill="#2a3554"></path><path id="Path_2924" data-name="Path 2924" d="M436.653,254.32l3.662,2.741,3.662-2.741-3.662-5.9Z" transform="translate(-429.018 -246.488)" fill="#fff"></path><path id="Path_2925" data-name="Path 2925" d="M453.891,258.018l3.085,2.437,3.085-2.437-3.085-5.2Z" transform="translate(-434.739 -247.95)" fill="#fff"></path></g></g><g id="Group_704" data-name="Group 704" transform="translate(0 50.374)"><g id="Group_702" data-name="Group 702"><path id="Path_2926" data-name="Path 2926" d="M58.622,192.478v13.564a1.564,1.564,0,0,1-1.565,1.566H43.487a1.568,1.568,0,0,1-1.378-.815,1.076,1.076,0,0,1-.069-.161c-.027-.08-.053-.161-.08-.246,0-.011-.005-.016-.005-.027s-.005-.027-.005-.038a1.581,1.581,0,0,1-.027-.279V192.478a1.568,1.568,0,0,1,1.4-1.56c.053,0,.113-.005.166-.005H57.056a1.458,1.458,0,0,1,.461.069h.005A1.561,1.561,0,0,1,58.622,192.478Z" transform="translate(-41.922 -190.913)" fill="url(#linear-gradient-16)"></path></g><g id="Group_703" data-name="Group 703" transform="translate(4.476 2.026)"><path id="Path_2927" data-name="Path 2927" d="M56.37,200.912a77.318,77.318,0,0,1-3.626-6.967v3.727a.853.853,0,1,1-.5,0v-3.727c-1.071,2.575-2,3.6-3.625,6.967l2.586,2.614h2.539Z" transform="translate(-48.622 -193.945)" fill="#fff"></path><rect id="Rectangle_618" data-name="Rectangle 618" width="2.542" height="1.393" transform="translate(2.577 10.408)" fill="#fff"></rect></g></g><g id="Group_708" data-name="Group 708" transform="translate(220.9 10.676)"><g id="Group_705" data-name="Group 705"><path id="Path_2928" data-name="Path 2928" d="M388.314,132.967V145.75a1.474,1.474,0,0,1-1.475,1.475H374.051a1.475,1.475,0,0,1-1.3-.768.981.981,0,0,1-.065-.151c-.025-.076-.051-.152-.076-.232,0-.01,0-.015,0-.025s-.005-.025-.005-.035a1.533,1.533,0,0,1-.025-.263V132.967a1.478,1.478,0,0,1,1.318-1.47c.051,0,.106-.005.157-.005h12.788a1.355,1.355,0,0,1,.434.066h.005A1.47,1.47,0,0,1,388.314,132.967Z" transform="translate(-372.576 -131.491)" fill="url(#linear-gradient-39)"></path></g><g id="Group_707" data-name="Group 707" transform="translate(4.618 2.175)"><g id="Group_706" data-name="Group 706"><path id="Path_2929" data-name="Path 2929" d="M382.753,134.746h-.094a3.252,3.252,0,0,0-2.73,4.889c.45.769.877,1.551,1.265,2.353l.351.726h2.386l.24-.5c.426-.883.894-1.746,1.385-2.595a3.252,3.252,0,0,0-2.8-4.875Z" transform="translate(-379.488 -134.746)" fill="#fff"></path><path id="Path_2930" data-name="Path 2930" d="M384.96,148.029h-2.4v.8a1.2,1.2,0,0,0,1.2,1.2h0a1.2,1.2,0,0,0,1.2-1.2Z" transform="translate(-380.509 -139.155)" fill="#fff"></path></g></g></g></g></g><g id="Group_711" data-name="Group 711" transform="translate(1166.052 4464.462)"><text id="www" transform="translate(42.357 20.253)" fill="#5685ec" font-size="8" font-family="Roboto-Black, Roboto" font-weight="800" letter-spacing="0.05em"><tspan x="0" y="0">www</tspan></text><path id="Path_2931" data-name="Path 2931" d="M297.466,297.4H264.681a17.622,17.622,0,0,0-31.86,2.839,1.141,1.141,0,0,0-.056.159,17.631,17.631,0,0,0,0,11.6,1.3,1.3,0,0,0,.056.159A17.622,17.622,0,0,0,264.681,315h32.785a8.8,8.8,0,1,0,0-17.595Zm-33.544,12.989h-7.969c.118-1.376.178-2.784.178-4.192s-.059-2.816-.178-4.191h7.969a15.131,15.131,0,0,1,0,8.383Zm-.987-10.91h-7.271a24.272,24.272,0,0,0-2.3-7.859A15.17,15.17,0,0,1,262.935,299.482ZM253.6,306.2c0,1.439-.064,2.844-.185,4.192h-8.012c-.122-1.347-.186-2.753-.186-4.192s.064-2.844.186-4.191h8.012C253.54,303.357,253.6,304.762,253.6,306.2Zm-6.85-11.172c.9-2.715,1.987-3.93,2.658-3.93s1.754,1.215,2.659,3.93a27.607,27.607,0,0,1,1.041,4.454h-7.4A27.548,27.548,0,0,1,246.754,295.029Zm-1.29-3.4a24.273,24.273,0,0,0-2.3,7.859h-7.271A15.169,15.169,0,0,1,245.464,291.624ZM234.311,306.2a15.039,15.039,0,0,1,.592-4.191h7.969c-.118,1.375-.178,2.784-.178,4.191s.06,2.816.178,4.192H234.9A15.048,15.048,0,0,1,234.311,306.2Zm1.58,6.719h7.271a24.268,24.268,0,0,0,2.3,7.859A15.17,15.17,0,0,1,235.891,312.92Zm16.181,4.454c-.9,2.714-1.987,3.929-2.659,3.929s-1.754-1.215-2.658-3.929a27.637,27.637,0,0,1-1.041-4.454h7.4A27.638,27.638,0,0,1,252.071,317.374Zm1.29,3.4a24.267,24.267,0,0,0,2.3-7.859h7.271A15.171,15.171,0,0,1,253.361,320.778Zm44.105-7.845H265.7c.106-.255.208-.512.3-.773a1.14,1.14,0,0,0,.056-.159,17.632,17.632,0,0,0,0-11.6,1.143,1.143,0,0,0-.056-.159c-.094-.261-.2-.518-.3-.773h31.764a6.732,6.732,0,1,1,0,13.464Z" transform="translate(-231.784 -288.572)" fill="url(#linear-gradient-11)"></path><path id="Path_2932" data-name="Path 2932" d="M370.071,378.515l-15.8-6.657,6.067,16.034L363,383.13l4.537,4.708,2.212-2.131L365.213,381Z" transform="translate(-311.757 -342.95)" fill="url(#linear-gradient-11)"></path></g></g></g></svg> 