<?xml version="1.0" encoding="UTF-8"?> <svg xmlns="http://www.w3.org/2000/svg" width="46.863" height="46.863" viewBox="0 0 46.863 46.863"><g id="Security" transform="translate(-1439.84 -1656.841)"><rect id="Rectangle_671" data-name="Rectangle 671" width="46.864" height="46.864" transform="translate(1439.84 1656.841)" fill="#5685ec"></rect><g id="quality-assurance" transform="translate(1445.648 1665.177)"><path id="Path_3119" data-name="Path 3119" d="M51.162,49.538l1.247,3.742,1.345-2.242,1.82.455-1.248-4.576A14.713,14.713,0,0,1,51.162,49.538Z" transform="translate(-22.53 -20.809)" fill="#fff"></path><path id="Path_3120" data-name="Path 3120" d="M32.662,46.918l-1.248,4.576,1.82-.455,1.345,2.242,1.247-3.742A14.777,14.777,0,0,1,32.662,46.918Z" transform="translate(-14.522 -20.809)" fill="#fff"></path><path id="Path_3121" data-name="Path 3121" d="M14.945,9A5.945,5.945,0,1,0,19.7,18.5V14.35h1.159A5.953,5.953,0,0,0,14.945,9Zm0,9.512a3.567,3.567,0,1,1,3.567-3.567A3.571,3.571,0,0,1,14.945,18.512Z" transform="translate(-5.433 -5.433)" fill="#fff"></path><path id="Path_3122" data-name="Path 3122" d="M46.342,18.456a14.619,14.619,0,0,1-7.831-2.264,14.632,14.632,0,0,1-7.829,2.264H29v6.111a13.562,13.562,0,0,0,9.512,12.886,13.562,13.562,0,0,0,9.512-12.886V18.456Zm.493,6.111a12.338,12.338,0,0,1-8.12,11.565l-.2.073-.2-.073a12.338,12.338,0,0,1-8.12-11.565V19.648l.591,0a15.889,15.889,0,0,0,7.449-1.909l.284-.154.284.154a15.893,15.893,0,0,0,7.448,1.909l.591,0Z" transform="translate(-13.543 -8.349)" fill="#fff"></path><path id="Path_3123" data-name="Path 3123" d="M40.357,31.981l-.943.943,2.132,2.132,5.7-5.7-.943-.943L41.546,33.17Z" transform="translate(-17.766 -13.306)" fill="#fff"></path><path id="Path_3124" data-name="Path 3124" d="M17.268,17.822a7.132,7.132,0,1,1,2.348-5.9h.523a13.525,13.525,0,0,0,1.885-.135V11.2l-1.351-.318-.087-.354a8.251,8.251,0,0,0-.961-2.32L19.435,7.9l.731-1.181L18.309,4.858l-1.181.731L16.818,5.4a8.251,8.251,0,0,0-2.32-.961l-.354-.087L13.824,3H11.2l-.318,1.351-.354.087a8.251,8.251,0,0,0-2.32.961L7.9,5.588,6.714,4.858,4.858,6.714,5.588,7.9,5.4,8.206a8.251,8.251,0,0,0-.961,2.32l-.087.354L3,11.2v2.625l1.351.318.087.354a8.251,8.251,0,0,0,.961,2.32l.189.311-.731,1.181,1.857,1.857L7.9,19.435l.311.189a8.251,8.251,0,0,0,2.32.961l.354.087.319,1.352h2.625l.318-1.351.354-.087a8.251,8.251,0,0,0,2.32-.961l.311-.189.152.095c0-.1-.012-.207-.012-.312Z" transform="translate(-3 -3)" fill="#fff"></path><path id="Path_3125" data-name="Path 3125" d="M33,22.688v3.748a11.146,11.146,0,0,0,7.134,10.371,11.147,11.147,0,0,0,7.134-10.371V22.688A17.093,17.093,0,0,1,40.134,20.8,17.092,17.092,0,0,1,33,22.688Zm5.708.045.417,1.113c-.4.149-.8.285-1.2.4l-.344-1.138C37.957,23,38.336,22.873,38.708,22.733Zm-4.519,3.7V23.8l.517-.068c.572-.075,1.153-.181,1.726-.313l.268,1.159c-.439.1-.882.187-1.323.259v1.6q0,.209.011.416l-1.188.061q-.012-.238-.011-.477Zm12.136-.166-7.38,7.38-3.813-3.813,2.624-2.624L38.945,28.4,43.7,23.645Z" transform="translate(-15.165 -10.218)" fill="#fff"></path><circle id="Ellipse_246" data-name="Ellipse 246" cx="2.5" cy="2.5" r="2.5" transform="translate(7.352 6.823)" fill="#fff"></circle></g></g></svg> 