<?xml version="1.0" encoding="UTF-8"?> <svg xmlns="http://www.w3.org/2000/svg" width="24.875" height="24.875" viewBox="0 0 24.875 24.875"><g id="Setting" transform="translate(-87.511 -106.625)"><g id="Group_1020" data-name="Group 1020" transform="translate(87.509 106.625)"><rect id="Rectangle_668" data-name="Rectangle 668" width="24.875" height="24.875" fill="#5685ec"></rect></g><g id="Group_1024" data-name="Group 1024" transform="translate(92.995 112.133)"><g id="Group_1023" data-name="Group 1023"><g id="Group_1022" data-name="Group 1022"><g id="Group_1021" data-name="Group 1021"><path id="Path_3070" data-name="Path 3070" d="M114.168,125.918l-.347-1.767a.205.205,0,0,0-.241-.162l-1.627.32a5.13,5.13,0,0,0-1.006-1.511l.925-1.377a.2.2,0,0,0-.056-.284l-1.5-1a.2.2,0,0,0-.285.056l-.925,1.377a5.13,5.13,0,0,0-1.779-.359l-.315-1.605a.206.206,0,0,0-.241-.162l-1.767.347a.2.2,0,0,0-.162.241l.315,1.6a5.136,5.136,0,0,0-1.511,1.006l-1.377-.925a.2.2,0,0,0-.285.056l-1,1.5a.206.206,0,0,0,.056.285l1.377.925a5.12,5.12,0,0,0-.359,1.779l-1.627.32a.2.2,0,0,0-.162.24l.347,1.768a.2.2,0,0,0,.24.161l1.627-.319a5.12,5.12,0,0,0,1.005,1.511l-.925,1.377a.206.206,0,0,0,.056.285l1.5,1a.2.2,0,0,0,.284-.056l.925-1.377a5.134,5.134,0,0,0,1.779.359l.316,1.6a.2.2,0,0,0,.241.162l1.767-.347a.2.2,0,0,0,.162-.24l-.316-1.605a5.128,5.128,0,0,0,1.511-1.005l1.377.925a.2.2,0,0,0,.284-.056l1-1.5a.2.2,0,0,0-.056-.284l-1.377-.925a5.122,5.122,0,0,0,.359-1.779l1.627-.32A.205.205,0,0,0,114.168,125.918Zm-6.887,3.055a2.613,2.613,0,1,1,2.613-2.613A2.613,2.613,0,0,1,107.282,128.973Z" transform="translate(-100.269 -119.436)" fill="#fff"></path></g></g></g></g><g id="Group_1025" data-name="Group 1025" transform="translate(87.509 106.625)" opacity="0.05"><path id="Path_3071" data-name="Path 3071" d="M112.384,131.5H87.509l24.875-24.875Z" transform="translate(-87.509 -106.625)" fill="#fff"></path></g></g></svg> 