<?xml version="1.0" encoding="UTF-8"?> <svg xmlns="http://www.w3.org/2000/svg" width="46.982" height="46.982" viewBox="0 0 46.982 46.982"><g id="Support" transform="translate(-1310.84 -1523.841)"><rect id="Rectangle_672" data-name="Rectangle 672" width="46.982" height="46.982" transform="translate(1310.84 1523.841)" fill="#5685ec"></rect><g id="support-2" data-name="support" transform="translate(1322.734 1534.08)"><g id="Group_1124" data-name="Group 1124" transform="translate(17.025 20.43)"><g id="Group_1123" data-name="Group 1123"><path id="Path_3126" data-name="Path 3126" d="M356.516,396a.516.516,0,1,0,.516.516A.516.516,0,0,0,356.516,396Z" transform="translate(-356 -396)" fill="#fff"></path></g></g><g id="Group_1126" data-name="Group 1126"><g id="Group_1125" data-name="Group 1125" transform="translate(0)"><path id="Path_3127" data-name="Path 3127" d="M44.811,18.762l-2.452-.817-.88-1.761a5.651,5.651,0,0,0,1.529-2.989l.11-.658h.939A1.549,1.549,0,0,0,45.6,10.989V7.739a7.739,7.739,0,1,0-15.477,0v3.25a1.55,1.55,0,0,0,1.032,1.459v.6A1.549,1.549,0,0,0,32.707,14.6h.453a5.6,5.6,0,0,0,.865,1.34c.073.084.149.165.227.245l-.88,1.76-2.452.817A7.6,7.6,0,0,0,26,25.9a.516.516,0,0,0,.516.516h22.7a.516.516,0,0,0,.516-.516A7.6,7.6,0,0,0,44.811,18.762Zm-.238-7.773a.516.516,0,0,1-.516.516H43.27c.131-1.016.219-2.1.254-3.162,0-.03,0-.059,0-.089h1.047Zm-12.9.516a.516.516,0,0,1-.516-.516V8.255h1.047q0,.081.006.162v.006h0c.036,1.036.122,2.088.251,3.082h-.788Zm1.032,2.064a.516.516,0,0,1-.516-.516v-.516h.423l.11.658c.021.125.047.25.076.374Zm-.515-6.346H31.179a6.707,6.707,0,0,1,13.374,0H43.54a5.225,5.225,0,0,0-5.212-5.159H37.4A5.225,5.225,0,0,0,32.192,7.223ZM37.4,3.1h.923a4.2,4.2,0,0,1,4.181,4.2c0,.162,0,.3,0,.432,0,0,0,0,0,.005l-.645-.092A8.29,8.29,0,0,1,37.2,5.31a.516.516,0,0,0-.365-.151,4.667,4.667,0,0,0-3.589,1.7A4.194,4.194,0,0,1,37.4,3.1ZM33.87,13.569a29.489,29.489,0,0,1-.619-5.007l.694-.926A3.631,3.631,0,0,1,36.63,6.2a9.332,9.332,0,0,0,5.084,2.465l.76.109c-.051,1.077-.155,2.159-.3,3.153h0c-.047.32-.085.525-.18,1.1a4.382,4.382,0,0,1-3.11,3.524A4.059,4.059,0,0,1,34.323,14.6h1.052a1.55,1.55,0,0,0,1.459,1.032h1.032a1.548,1.548,0,1,0,0-3.1H36.834a1.548,1.548,0,0,0-1.46,1.032Zm2.921,4.025a5.175,5.175,0,0,0,1.919.043L37.8,18.6Zm.3,1.757-1.636,1.73A19.657,19.657,0,0,1,34.3,18.4l.615-1.229ZM40.733,17l.7,1.4a19.65,19.65,0,0,1-1.155,2.679l-1.751-1.751Zm-4.414-2.915a.516.516,0,0,1,.516-.516h1.032a.516.516,0,1,1,0,1.032H36.834A.516.516,0,0,1,36.318,14.084Zm-9.266,11.3a6.52,6.52,0,0,1,4.194-5.642l2.172-.724A20.682,20.682,0,0,0,34.887,22.2l0,.005h0A20.688,20.688,0,0,0,36.3,24.364l.635,1.019Zm10.814-.46-.7-1.123q-.012-.019-.025-.037a19.673,19.673,0,0,1-1.162-1.737l1.84-1.946,1.939,1.939a19.65,19.65,0,0,1-1.167,1.744C38.566,23.8,38.6,23.744,37.866,24.923Zm.929.46.635-1.019a20.677,20.677,0,0,0,1.422-2.174l.008-.014v0a20.666,20.666,0,0,0,1.453-3.158l2.172.724a6.52,6.52,0,0,1,4.195,5.642H38.8Z" transform="translate(-26)" fill="#fff"></path></g></g><g id="Group_1128" data-name="Group 1128" transform="translate(18.838 21.415)"><g id="Group_1127" data-name="Group 1127"><path id="Path_3128" data-name="Path 3128" d="M393.43,416.969a5.158,5.158,0,0,0-1.46-1.773.516.516,0,0,0-.629.818,4.12,4.12,0,0,1,1.167,1.416.516.516,0,0,0,.923-.461Z" transform="translate(-391.139 -415.089)" fill="#fff"></path></g></g></g></g></svg> 