<?xml version="1.0" encoding="UTF-8"?> <svg xmlns="http://www.w3.org/2000/svg" xmlns:xlink="http://www.w3.org/1999/xlink" width="1920" height="1053" viewBox="0 0 1920 1053"><defs><clipPath id="clip-path"><rect id="Rectangle_185" data-name="Rectangle 185" width="1920" height="1053" transform="translate(0 9982)" fill="#fff"></rect></clipPath><linearGradient id="linear-gradient" x1="1.1" y1="-0.293" x2="-0.038" y2="1.567" gradientUnits="objectBoundingBox"><stop offset="0" stop-color="#71bfff"></stop><stop offset="0.081" stop-color="#71bfff"></stop><stop offset="0.085" stop-color="#71bfff"></stop><stop offset="1" stop-color="#5a4dff"></stop></linearGradient><linearGradient id="linear-gradient-2" x1="1.344" y1="-0.387" x2="0" y2="1.192" gradientUnits="objectBoundingBox"><stop offset="0" stop-color="#71bfff"></stop><stop offset="0.081" stop-color="#71bfff"></stop><stop offset="0.131" stop-color="#71bfff"></stop><stop offset="1" stop-color="#5a4dff"></stop></linearGradient><linearGradient id="linear-gradient-3" x1="-0.446" y1="-0.003" x2="0.542" y2="-0.003" xlink:href="#linear-gradient"></linearGradient><linearGradient id="linear-gradient-4" x1="0" y1="0.5" x2="1" y2="0.5" xlink:href="#linear-gradient"></linearGradient></defs><g id="Mask_Group_3" data-name="Mask Group 3" transform="translate(0 -9982)" clip-path="url(#clip-path)"><g id="Group_594" data-name="Group 594"><g id="Group_551" data-name="Group 551" transform="translate(-1342.631 -218.578)" opacity="0.467"><g id="Group_567" data-name="Group 567" transform="translate(889.809 10352.047)"><path id="Path_748" data-name="Path 748" d="M521.05,984.984h0a26.1,26.1,0,0,1,36.339,3.113c45.5,53.88,179.6,177.323,337.525,47.055A233.478,233.478,0,0,0,951.488,743.9a25.323,25.323,0,0,1,15.446-36.4,161.639,161.639,0,0,0,10.117-308.43,140.805,140.805,0,0,1-73.995-56.454,238.875,238.875,0,0,0-29.933-37.775,233.478,233.478,0,0,0-385.777,80.4,97.4,97.4,0,0,1-107.759,60.764,319.625,319.625,0,0,0-241.141,59.567C3.208,605.972-21.816,794.91,78.221,930.626a307.053,307.053,0,0,0,442.83,54.358Z" transform="translate(-17.221 -234.187)" opacity="0.295" fill="url(#linear-gradient)"></path></g><path id="Path_750" data-name="Path 750" d="M919.656,347.66a272.931,272.931,0,0,0-71,4.849A156.969,156.969,0,0,1,720.3,319.463,274.487,274.487,0,0,0,467.188,271.57,158.465,158.465,0,0,1,346.737,259.6,227.791,227.791,0,0,0,14.3,462.184C14.3,587.9,96.8,644.477,163.966,669.8a93.032,93.032,0,0,1,59.088,101.772C196.4,926.291,289.123,1076.645,439.34,1122.285s310.912-27.719,374.832-171.115a95.787,95.787,0,0,1,87.7-56.214h.718c147.952,0,269.221-117.513,273.876-265.447,4.627-147.99-109.039-272.872-256.754-282.149Z" transform="translate(858.025 10117.61)" opacity="0.174" fill="url(#linear-gradient-2)"></path><path id="Path_751" data-name="Path 751" d="M978.207,1024.361l7.723-.838,9.4-.958c3.772-.419,7.962-1.5,12.811-2.395,2.395-.479,4.969-.958,7.6-1.616l8.322-2.454,9.1-2.754,9.519-3.891a193.194,193.194,0,0,0,42.625-23.947,195.941,195.941,0,0,0,42.565-43.164,200.547,200.547,0,0,0,31.609-63.877,198.4,198.4,0,0,0,5.987-80.64,195.161,195.161,0,0,0-31.13-83.812,203.542,203.542,0,0,0-71.42-65.853,210.188,210.188,0,0,0-100.934-24.9,25.683,25.683,0,0,1-20.953-17.241,49.092,49.092,0,0,1-1.377-14.009c0-4.61-.3-9.219-.419-13.889a406.323,406.323,0,0,0-7.244-55.676,368.22,368.22,0,0,0-341.6-292.027l-15.685-.359c-5.089,0-10.477,0-15.685.419l-15.745.6c-5.268.3-10.417,1.2-15.625,1.8l-15.565,1.856L496.7,237.9c-5.089,1.078-10.3,1.976-15.386,3.293l-15.086,4.37a369.075,369.075,0,0,0-112.01,55.5,373.742,373.742,0,0,0-86.028,89.44l-8.381,12.752c-2.694,4.43-5.148,8.98-7.723,13.41s-5.148,8.86-7.483,13.41l-6.525,13.889a283.277,283.277,0,0,0-11.674,28.257c-3.712,9.459-6.765,19.217-10.716,28.736a275.687,275.687,0,0,1-68.427,99.079c-7.364,6.825-15.206,12.752-22.749,18.978s-14.727,12.692-21.731,19.217a301.607,301.607,0,0,0-36.459,43.942,284.484,284.484,0,0,0-44.78,205.161A280,280,0,0,0,53.335,979.1a289.87,289.87,0,0,0,55.017,70.522c5.388,4.67,10.417,9.638,15.924,13.949l16.4,12.333a305.643,305.643,0,0,0,33.884,20.295l8.381,4.37c2.814,1.317,5.987,2.395,8.561,3.592,5.987,2.275,11.255,4.789,16.822,6.705a303.371,303.371,0,0,0,33.046,9.279c5.388,1.018,10.6,2.574,15.864,3.173l15.326,1.916,7.364.9,7.364.479c4.849,0,9.459.419,14.009.359A283.882,283.882,0,0,0,385.114,1115c9.339-2.814,16.343-5.508,21.073-7.244l7.124-2.874h0a3.007,3.007,0,0,1,2.275,5.568h0l-7.3,2.933c-4.789,1.8-11.973,4.49-21.552,7.3a287.778,287.778,0,0,1-85.249,11.973,228.405,228.405,0,0,1-29.334-1.856l-15.685-1.976c-5.328-.658-10.6-2.215-16.1-3.293a287.019,287.019,0,0,1-33.7-9.519c-5.987-1.916-11.315-4.55-17.122-6.884-2.933-1.2-5.987-2.335-8.74-3.652l-8.561-4.49a307.918,307.918,0,0,1-34.483-20.414l-16.7-12.632c-5.568-4.37-10.716-9.4-16.164-14.188a295.022,295.022,0,0,1-55.915-71.839,289.752,289.752,0,0,1,13.29-302.324,307.83,307.83,0,0,1,37.3-44.361c7.184-6.7,14.368-13.53,22.15-19.456a279.4,279.4,0,0,0,22.57-18.738,271.072,271.072,0,0,0,67.29-97.7c3.891-9.279,6.944-18.918,10.716-28.556a274.924,274.924,0,0,1,11.973-28.5l6.645-14.068c2.335-4.61,5.089-9.04,7.6-13.53s5.089-9.1,7.783-13.53l8.74-12.931a378.235,378.235,0,0,1,86.986-90.1,372.723,372.723,0,0,1,113.207-55.8l15.266-4.43c5.148-1.317,10.357-2.155,15.505-3.293l15.565-3.113,15.8-1.916c5.268-.539,10.536-1.437,15.8-1.736l15.745-.6c5.268,0,10.417-.659,15.8-.419l15.8.419a372.163,372.163,0,0,1,343.811,295.14,409.648,409.648,0,0,1,7.184,56.095c0,4.669,0,9.279.419,13.889a46.275,46.275,0,0,0,1.257,13.35,23.467,23.467,0,0,0,19.037,15.8A211.569,211.569,0,0,1,1064,646.665a206.477,206.477,0,0,1,71.839,66.571,197.857,197.857,0,0,1,31.25,84.71,200.13,200.13,0,0,1-5.987,81.238,204.112,204.112,0,0,1-118.056,131.406l-9.639,3.891-9.16,2.754-8.321,2.515-7.723,1.557c-4.849.9-9.1,1.975-12.871,2.395l-9.459.958-7.663.778a.543.543,0,1,1,0-1.078Z" transform="translate(850.18 10080.878)" fill="#fff"></path></g><g id="Group_552" data-name="Group 552" transform="translate(712.527 -191.646)" opacity="0.488"><g id="Group_566" data-name="Group 566" transform="translate(881.373 10329.762)"><path id="Path_748-2" data-name="Path 748" d="M363.058,749.547h0A17.917,17.917,0,0,1,388,751.684c31.231,36.984,123.279,121.718,231.683,32.3a160.263,160.263,0,0,0,38.833-199.918,17.382,17.382,0,0,1,10.6-24.984,110.951,110.951,0,0,0,6.945-211.712,96.651,96.651,0,0,1-50.791-38.751,163.967,163.967,0,0,0-20.547-25.93,160.263,160.263,0,0,0-264.8,55.188,66.858,66.858,0,0,1-73.968,41.71,219.4,219.4,0,0,0-165.523,40.888C7.6,489.386-9.575,619.076,59.092,712.234a210.766,210.766,0,0,0,303.966,37.312Z" transform="translate(-17.221 -234.187)" opacity="0.261" fill="url(#linear-gradient-3)"></path></g><path id="Path_750-2" data-name="Path 750" d="M635.751,312.061a187.344,187.344,0,0,0-48.736,3.329,107.747,107.747,0,0,1-88.1-22.684,188.412,188.412,0,0,0-173.742-32.874,108.773,108.773,0,0,1-82.679-8.219A156.359,156.359,0,0,0,14.3,390.672c0,86.3,56.626,125.129,102.733,142.511a63.859,63.859,0,0,1,40.559,69.858A213.684,213.684,0,0,0,563.345,726.321a65.749,65.749,0,0,1,60.2-38.586h.493a188.124,188.124,0,0,0,11.753-375.879Z" transform="translate(855.071 10095.419)" fill="url(#linear-gradient-4)"></path><path id="Path_751-2" data-name="Path 751" d="M675.448,774.25l5.3-.575,6.452-.658c2.589-.288,5.465-1.027,8.794-1.644,1.644-.329,3.411-.658,5.219-1.11l5.712-1.685,6.246-1.89,6.534-2.671a132.615,132.615,0,0,0,29.258-16.437,134.5,134.5,0,0,0,29.217-29.628,137.658,137.658,0,0,0,21.7-43.846,136.182,136.182,0,0,0,4.109-55.352,133.961,133.961,0,0,0-21.368-57.53,139.715,139.715,0,0,0-49.024-45.2,144.276,144.276,0,0,0-69.283-17.095,17.629,17.629,0,0,1-14.383-11.835,33.7,33.7,0,0,1-.945-9.616c0-3.164-.206-6.328-.288-9.534a278.917,278.917,0,0,0-4.972-38.217A252.752,252.752,0,0,0,409.247,229.273l-10.766-.247c-3.493,0-7.191,0-10.766.288l-10.807.411c-3.616.205-7.15.822-10.725,1.233L355.5,232.232l-10.561,2.178c-3.493.74-7.068,1.356-10.561,2.26l-10.355,3a253.339,253.339,0,0,0-76.885,38.093,256.543,256.543,0,0,0-59.051,61.393l-5.753,8.753c-1.849,3.041-3.534,6.164-5.3,9.2s-3.534,6.082-5.137,9.2l-4.479,9.534a194.447,194.447,0,0,0-8.013,19.4c-2.548,6.493-4.644,13.191-7.356,19.725a189.236,189.236,0,0,1-46.969,68.009c-5.054,4.685-10.438,8.753-15.615,13.027S79.352,504.72,74.544,509.2a207.031,207.031,0,0,0-25.026,30.162A195.275,195.275,0,0,0,18.781,680.188a192.193,192.193,0,0,0,21.82,63,198.971,198.971,0,0,0,37.765,48.408c3.7,3.205,7.15,6.616,10.931,9.575l11.26,8.465a209.8,209.8,0,0,0,23.259,13.931l5.753,3c1.931.9,4.109,1.644,5.876,2.466,4.109,1.562,7.726,3.287,11.547,4.6A208.234,208.234,0,0,0,169.675,840c3.7.7,7.273,1.767,10.89,2.178l10.52,1.315,5.054.616,5.054.329c3.329,0,6.493.288,9.616.247a194.861,194.861,0,0,0,57.53-8.218c6.41-1.931,11.218-3.781,14.465-4.972l4.89-1.972h0a2.064,2.064,0,0,1,1.562,3.822h0l-5.013,2.013c-3.287,1.233-8.219,3.082-14.794,5.013a197.536,197.536,0,0,1-58.517,8.219,156.784,156.784,0,0,1-20.136-1.274l-10.766-1.356c-3.657-.452-7.273-1.52-11.054-2.26a197,197,0,0,1-23.135-6.534c-4.109-1.315-7.767-3.123-11.753-4.726-2.014-.822-4.109-1.6-6-2.507l-5.876-3.082a211.355,211.355,0,0,1-23.67-14.013l-11.465-8.671c-3.822-3-7.356-6.452-11.1-9.739A202.507,202.507,0,0,1,37.6,745.115a198.89,198.89,0,0,1,9.123-207.52,211.3,211.3,0,0,1,25.6-30.45c4.931-4.6,9.862-9.287,15.2-13.355a191.778,191.778,0,0,0,15.492-12.862,186.069,186.069,0,0,0,46.189-67.064c2.671-6.369,4.767-12.985,7.356-19.6a188.711,188.711,0,0,1,8.219-19.561l4.561-9.657c1.6-3.164,3.493-6.205,5.219-9.287s3.493-6.246,5.342-9.287l6-8.876a259.627,259.627,0,0,1,59.708-61.845,255.844,255.844,0,0,1,77.707-38.3l10.479-3.041c3.534-.9,7.109-1.479,10.643-2.26l10.684-2.137,10.849-1.315c3.616-.37,7.232-.986,10.849-1.192l10.807-.411c3.616,0,7.15-.452,10.849-.288l10.849.288a255.459,255.459,0,0,1,236,202.589,281.18,281.18,0,0,1,4.931,38.5c0,3.205,0,6.369.288,9.534a31.762,31.762,0,0,0,.863,9.164,16.108,16.108,0,0,0,13.068,10.849,145.225,145.225,0,0,1,69.858,17.259,141.729,141.729,0,0,1,49.312,45.7A135.812,135.812,0,0,1,805.1,618.836a137.372,137.372,0,0,1-4.109,55.763,140.105,140.105,0,0,1-81.036,90.2l-6.616,2.671-6.287,1.89-5.712,1.726-5.3,1.068c-3.328.616-6.246,1.356-8.835,1.644l-6.493.658-5.26.534a.372.372,0,1,1,0-.74Z" transform="translate(850.18 10072.515)" fill="#fff"></path></g></g></g></svg> 