<?xml version="1.0" encoding="UTF-8"?> <svg xmlns="http://www.w3.org/2000/svg" xmlns:xlink="http://www.w3.org/1999/xlink" width="91.715" height="91.715" viewBox="0 0 91.715 91.715"><defs><linearGradient id="linear-gradient" x1="0.5" x2="0" y2="1.82" gradientUnits="objectBoundingBox"><stop offset="0" stop-color="#71bfff"></stop><stop offset="0.081" stop-color="#71bfff"></stop><stop offset="0.085" stop-color="#71bfff"></stop><stop offset="1" stop-color="#5a4dff"></stop></linearGradient></defs><g id="ui" transform="translate(0 0)"><path id="Path_292" data-name="Path 292" d="M165.738,368h-3.057v6.114H135.166v3.057h27.515v4.586a4.586,4.586,0,0,1-4.586,4.586H124.466a4.6,4.6,0,0,1-3.975-2.293l-2.647,1.529a7.674,7.674,0,0,0,6.622,3.821h33.629a7.652,7.652,0,0,0,7.643-7.643Zm0,0" transform="translate(-95.422 -297.686)" fill="url(#linear-gradient)"></path><path id="Path_293" data-name="Path 293" d="M232.5,432h3.057v3.057H232.5Zm0,0" transform="translate(-188.171 -349.457)" fill="url(#linear-gradient)"></path><path id="Path_294" data-name="Path 294" d="M73.415,41.271V38.214H68.752A19.874,19.874,0,0,0,50.486,19.949V15.286H47.429v4.663a19.867,19.867,0,0,0-3.057.477v-8.2H68.829V9.171H44.372V7.643a4.586,4.586,0,0,1,4.586-4.586H82.587A4.584,4.584,0,0,1,85.619,4.2l2.023-2.293A7.633,7.633,0,0,0,82.587,0H48.958a7.652,7.652,0,0,0-7.643,7.643V21.4A19.9,19.9,0,0,0,29.163,38.214H24.5v3.057h4.667A19.783,19.783,0,0,0,47.429,59.544V64.2h3.057V59.544A19.783,19.783,0,0,0,68.748,41.271ZM47.429,53.5v2.987a16.751,16.751,0,0,1-6.114-1.764V51.971a7.643,7.643,0,0,1,15.286,0v2.751a16.768,16.768,0,0,1-6.114,1.769V53.5ZM44.372,36.686a4.586,4.586,0,1,1,4.586,4.586A4.586,4.586,0,0,1,44.372,36.686ZM60.167,52.277c-.165.152-.341.275-.509.416v-.722a10.7,10.7,0,0,0-5.776-9.489,7.643,7.643,0,1,0-9.848,0,10.7,10.7,0,0,0-5.776,9.489V52.7c-.169-.139-.346-.269-.509-.416a16.823,16.823,0,0,1-5.524-11.013H35.2V38.214h-2.98A16.831,16.831,0,0,1,47.429,23.006v2.98h3.057v-2.98A16.831,16.831,0,0,1,65.694,38.214h-2.98v3.057h2.976a16.823,16.823,0,0,1-5.524,11.013Zm0,0" transform="translate(-19.914 0)" fill="url(#linear-gradient)"></path><path id="Path_295" data-name="Path 295" d="M307.658,53.4a1.529,1.529,0,0,0,1.529-1.529V33.529A1.529,1.529,0,0,0,307.658,32H274.029a1.529,1.529,0,0,0-1.529,1.529V51.871a1.529,1.529,0,0,0,1.529,1.529Zm-32.1-18.343h30.572V50.343H275.557Zm0,0" transform="translate(-220.528 -25.886)" fill="url(#linear-gradient)"></path><path id="Path_296" data-name="Path 296" d="M304.5,64h6.114v3.057H304.5Zm0,0" transform="translate(-246.413 -51.771)" fill="url(#linear-gradient)"></path><path id="Path_297" data-name="Path 297" d="M352.5,64h15.286v3.057H352.5Zm0,0" transform="translate(-285.242 -51.771)" fill="url(#linear-gradient)"></path><path id="Path_298" data-name="Path 298" d="M304.5,96h24.457v3.057H304.5Zm0,0" transform="translate(-246.413 -77.657)" fill="url(#linear-gradient)"></path><path id="Path_299" data-name="Path 299" d="M281.5,160a4.846,4.846,0,0,0-3.21,1.223l-13.334,11.755V160h-3.057v15.286h.442l-8.7,7.673a10.7,10.7,0,0,0-10.089,10.669v2.7a3.974,3.974,0,0,1-2.212,3.578,1.529,1.529,0,0,0,.683,2.9h10.7a10.7,10.7,0,0,0,10.67-10.089l21.746-24.644A4.856,4.856,0,0,0,281.5,160Zm-28.773,39.743h-6.991a7.051,7.051,0,0,0,.876-3.418v-2.7a7.653,7.653,0,0,1,7.032-7.618l6.7,6.7A7.652,7.652,0,0,1,252.723,199.743Zm30.123-33.7-21.02,23.823-5.343-5.341,23.823-21.021a1.8,1.8,0,0,1,2.539,2.539Zm0,0" transform="translate(-194.636 -129.429)" fill="url(#linear-gradient)"></path><path id="Path_300" data-name="Path 300" d="M2.029,342.929H35.658a1.529,1.529,0,0,0,1.529-1.529V329.171a1.529,1.529,0,0,0-1.529-1.529h-10.7V320H21.9v7.643H2.029A1.529,1.529,0,0,0,.5,329.171V341.4A1.529,1.529,0,0,0,2.029,342.929ZM3.557,330.7H34.129v9.171H3.557Zm0,0" transform="translate(-0.5 -258.857)" fill="url(#linear-gradient)"></path><path id="Path_301" data-name="Path 301" d="M32.5,392h7.643v3.057H32.5Zm0,0" transform="translate(-26.386 -317.1)" fill="url(#linear-gradient)"></path><path id="Path_302" data-name="Path 302" d="M88.5,392h13.757v3.057H88.5Zm0,0" transform="translate(-71.685 -317.1)" fill="url(#linear-gradient)"></path><path id="Path_303" data-name="Path 303" d="M2.029,47.286H17.315a1.529,1.529,0,0,0,1.529-1.529V33.529A1.529,1.529,0,0,0,17.315,32H2.029A1.529,1.529,0,0,0,.5,33.529V45.757A1.529,1.529,0,0,0,2.029,47.286ZM3.557,35.057H15.786v9.171H3.557Zm0,0" transform="translate(-0.5 -25.886)" fill="url(#linear-gradient)"></path><path id="Path_304" data-name="Path 304" d="M32.5,64h6.114v3.057H32.5Zm0,0" transform="translate(-26.386 -51.771)" fill="url(#linear-gradient)"></path></g></svg> 