<?xml version="1.0" encoding="UTF-8"?> <svg xmlns="http://www.w3.org/2000/svg" xmlns:xlink="http://www.w3.org/1999/xlink" width="935.883" height="690.876" viewBox="0 0 935.883 690.876"><defs><linearGradient id="linear-gradient" x1="0.5" y1="1" x2="0.5" gradientUnits="objectBoundingBox"><stop offset="0" stop-color="gray" stop-opacity="0.251"></stop><stop offset="0.54" stop-color="gray" stop-opacity="0.122"></stop><stop offset="1" stop-color="gray" stop-opacity="0.102"></stop></linearGradient><linearGradient id="linear-gradient-2" y2="0" xlink:href="#linear-gradient"></linearGradient><linearGradient id="linear-gradient-4" x1="16.117" x2="16.117" y2="0" xlink:href="#linear-gradient"></linearGradient></defs><g id="undraw_organize_resume_utk5" transform="translate(-0.006 -0.011)"><path id="Path_463" data-name="Path 463" d="M125.514,514.378c-11.221,1.823-25.295,7.041-25.164,19.17.065,6.153,4.152,11.4,8.126,15.9a302.04,302.04,0,0,0,57.35,50.655c10.118,6.854,20.993,13.409,27.717,24s8.416,24.079,8.949,36.909a283.691,283.691,0,0,1-10.6,90c32.944,6.275,69.684,11.773,97.139-8.042C305.466,731.108,316.584,711.228,334.9,703c12.231-5.5,26.08-5.012,39.415-4.311q94.68,4.984,188.892,18.7c26.3,3.834,53.114,8.173,79.138,3.217s51.627-21.124,61.222-47.335c1.477-4.04,2.805-8.547,6.116-10.978,2.992-2.169,6.91-2.123,10.548-1.992l219.825,7.556c12.044.411,24.509.748,35.534-4.208,10.688-4.8,18.908-14.027,26.819-23.069,18.094-20.628,37.554-46.007,32.233-74-4.255-22.443-23.275-38.124-42.136-49.1s-39.667-19.965-53.526-37.517C917.9,453.241,918.729,415,917.42,380.34a553.368,553.368,0,0,0-11.548-93.352c-5.714-27.015-13.671-54.068-28.549-76.885s-37.629-41.089-63.363-44.436c-33.608-4.376-67.393,16.589-100.272,7.687-27.773-7.481-46.886-34.066-69.9-52.488-40.874-32.729-94.511-39.583-145.222-40.21-53.769-.683-108.959,4.76-156.883,30.008-10.978,5.779-21.713,12.774-29.316,22.985-11.651,15.663-14.475,36.7-22.1,55.012-30.718,73.724-130.625,89.621-163.055,162.559-11.511,25.874-11.4,56.05-3.011,83.225,9.024,29.241,34.421,45.39,44.492,70.881C157.859,512.3,138.652,512.237,125.514,514.378Z" transform="translate(-99.648 -80.59)" fill="#5685ec" opacity="0.1"></path><g id="Group_97" data-name="Group 97" transform="translate(806.09 138.655)" opacity="0.2"><path id="Path_464" data-name="Path 464" d="M985.15,439.684s4.488-59.632,38.19-92.033a90.612,90.612,0,0,0,26.959-50.58,152.431,152.431,0,0,0,1.87-27.8" transform="translate(-963.154 -231.488)" fill="none" stroke="#535461" stroke-miterlimit="10" stroke-width="2"></path><path id="Path_465" data-name="Path 465" d="M1077.738,246.1c-2.487,6.546-21.6,21.143-21.6,21.143s-4.676-23.574-2.207-30.148a12.731,12.731,0,1,1,23.817,9.005Z" transform="translate(-967.571 -228.866)" fill="#5685ec"></path><path id="Path_466" data-name="Path 466" d="M1083.7,292.615c-5.657,4.171-29.624,6-29.624,6s8.874-22.34,14.531-26.51a12.727,12.727,0,0,1,15.093,20.5Z" transform="translate(-967.627 -231.512)" fill="#5685ec"></path><path id="Path_467" data-name="Path 467" d="M1057.685,358.668c-6.995.739-28.6-9.772-28.6-9.772s18.936-14.8,25.921-15.551a12.732,12.732,0,0,1,2.684,25.323Z" transform="translate(-966.005 -235.642)" fill="#5685ec"></path><path id="Path_468" data-name="Path 468" d="M1026.579,404.356c-6.77,1.87-29.849-4.8-29.849-4.8s16.159-17.767,22.929-19.7a12.729,12.729,0,0,1,6.92,24.5Z" transform="translate(-963.906 -238.633)" fill="#5685ec"></path><path id="Path_469" data-name="Path 469" d="M1026.746,290.631c2.983,6.368,23.163,19.422,23.163,19.422s2.871-23.864-.112-30.232a12.73,12.73,0,0,0-23.05,10.81Z" transform="translate(-965.775 -231.698)" fill="#5685ec"></path><path id="Path_470" data-name="Path 470" d="M990.987,344.27c4.75,5.181,27.913,11.6,27.913,11.6s-4.4-23.63-9.155-28.811a12.731,12.731,0,0,0-18.768,17.206Z" transform="translate(-963.315 -234.971)" fill="#5685ec"></path><path id="Path_471" data-name="Path 471" d="M963.659,401.479c3.806,5.91,25.557,16.149,25.557,16.149s-.346-24.032-4.152-29.923a12.732,12.732,0,0,0-21.4,13.793Z" transform="translate(-961.628 -238.795)" fill="#6c63ff"></path></g><path id="Path_472" data-name="Path 472" d="M164.14,87.83V518.915H856.868V87.83Z" transform="translate(-10.651 -5.699)" fill="url(#linear-gradient)"></path><rect id="Rectangle_71" data-name="Rectangle 71" width="678.094" height="32.925" transform="translate(160.811 86.685)" fill="#f6f7f9"></rect><g id="Group_98" data-name="Group 98" transform="translate(160.811 86.685)" opacity="0.2"><rect id="Rectangle_72" data-name="Rectangle 72" width="678.094" height="32.925" fill="#5685ec"></rect></g><rect id="Rectangle_73" data-name="Rectangle 73" width="678.094" height="389.052" transform="translate(160.811 119.61)" fill="#f6f7f9"></rect><circle id="Ellipse_54" data-name="Ellipse 54" cx="7.322" cy="7.322" r="7.322" transform="translate(169.751 95.625)" fill="#f6f7f9"></circle><circle id="Ellipse_55" data-name="Ellipse 55" cx="7.322" cy="7.322" r="7.322" transform="translate(189.257 95.625)" fill="#f6f7f9"></circle><circle id="Ellipse_56" data-name="Ellipse 56" cx="7.322" cy="7.322" r="7.322" transform="translate(208.773 95.625)" fill="#f6f7f9"></circle><g id="Group_99" data-name="Group 99" transform="translate(184.385 167.993)" opacity="0.2"><rect id="Rectangle_74" data-name="Rectangle 74" width="348.805" height="25.201" fill="#5685ec"></rect></g><g id="Group_100" data-name="Group 100" transform="translate(622.624 167.993)" opacity="0.2"><rect id="Rectangle_75" data-name="Rectangle 75" width="182.935" height="25.201" fill="#5685ec"></rect></g><g id="Group_101" data-name="Group 101" transform="translate(252.274 290.763)" opacity="0.2"><rect id="Rectangle_76" data-name="Rectangle 76" width="24.388" height="80.494" transform="translate(0 115.458)" fill="#5685ec"></rect><rect id="Rectangle_77" data-name="Rectangle 77" width="24.388" height="138.218" transform="translate(47.158 57.724)" fill="#5685ec"></rect><rect id="Rectangle_78" data-name="Rectangle 78" width="24.388" height="195.943" transform="translate(94.315)" fill="#5685ec"></rect><rect id="Rectangle_79" data-name="Rectangle 79" width="24.388" height="177.25" transform="translate(141.473 18.702)" fill="#5685ec"></rect><rect id="Rectangle_80" data-name="Rectangle 80" width="24.388" height="121.957" transform="translate(188.63 73.986)" fill="#5685ec"></rect></g><g id="Group_102" data-name="Group 102" transform="translate(622.222 248.487)" opacity="0.2"><rect id="Rectangle_81" data-name="Rectangle 81" width="182.935" height="224.809" fill="#5685ec"></rect></g><path id="Path_473" data-name="Path 473" d="M1088.5,510.252c-1.169-5.947-3.413-11.764-3.469-17.823-.084-9.837,5.152-21.264-1.73-28.53-1.571-1.655-3.675-2.889-4.844-4.825a10.62,10.62,0,0,1-1.216-5.442c-.112-11.474,6.209-23.125,2.422-34a11.558,11.558,0,0,0-4.339-6.05c-2.188-1.421-4.676-1.693-7.359-1.646-2.422,0-4.975.271-7.481.318a16.167,16.167,0,0,1-4.2-.552c-2.9-.823-5.358-2.721-8.229-3.656a13.447,13.447,0,0,0-4.676-.645c-6.284-.206-12.026,3.974-16.5,8.023a61.6,61.6,0,0,1-7.06,5.134c.374-.262-8.725,5.985-5.3,6.05a11.914,11.914,0,0,1,6.77,2.356,18.291,18.291,0,0,0,.935,21.208c-1.487-1.459-3.132-3.058-4.816-4.676-5.012-4.928-12.016-11.539-15.308-13.344-5.414-2.908-13.148-9.229-13.148-9.229s-10.052,5.611-6.957,13.4a31.281,31.281,0,0,1,4.311,1.693,8.071,8.071,0,0,0,.589,3.02,33.291,33.291,0,0,1,8.93,4.376,15.242,15.242,0,0,1,.86,1.337c1.337,2.338,5.5,6.592,10.585,11.324,3.572,3.581,8.276,7.864,12.961,11.988-1.412,2.805-2.9,5.611-3.161,8.416a10.376,10.376,0,0,1-1.057-.486c-6.957-3.74-23.191-3.348-23.191-3.348s-13.531-7.069-16.233-23.069c0,0-2.7-9.678-1.936-12.278h-.047l.346-.075,3.245-5.882a2.6,2.6,0,0,0-2.132-3.815c-15.822-1.421-16.57,13.092-16.57,13.092h.14l-.047.122c1.936,9.3,3.479,8.556,3.1,16l6.181,16.374s.383,5.611,11.6,13.026,23.967,18.983,23.967,18.983-6.761,3.535-4.255,19.721c3.067,19.787-1.543,48.008-1.543,48.008v18.235l.86-.234c-.112.608-.215,1.253-.327,1.954a102.678,102.678,0,0,0-.533,27.688c2.319,19.357,11.6,45.82,11.6,45.82s3.479,9.3,4.255,16.748a15.437,15.437,0,0,0,.991,4.3,33.822,33.822,0,0,1,2.712,12.914,90.927,90.927,0,0,0,5.957,32.645c3.918,9.949,5.377,15.785,5.807,19.188-2.805,3.628-6.415,7.584-9.286,7.977-5.414.748-15.85,1.487-8.893,10.417a6.358,6.358,0,0,0,.8.851c-5.283.842-11.09,2.693-5.442,9.94,6.957,8.93,47.924,4.835,47.924,4.835s.262-4.965,0-10.417c2.871-.2,4.676-.374,4.676-.374s1.16-21.582-3.862-24.191a10.852,10.852,0,0,0-2.712.655c-.542-2.983-.935-6.7-1.216-9.435l1.992-.15v-.15h.122V711.543s-2.319-20.1-10.819-28.988a18.069,18.069,0,0,1-2.805-3.74l-.112-.234c.056-2.543.056-5.975,0-9.912l.122-.215c.15-.243.3-.458.439-.655a8.109,8.109,0,0,1,.636-.748l.121-.159h0s4.676-5.611,20.488-40.939c9.66-21.564,7.107-33.664,3.647-39.9-.729-2.805-2.254-9.089-4.161-19.852a77.831,77.831,0,0,1-1.113-13.83,27.809,27.809,0,0,0,7.331.823,24.892,24.892,0,0,0,11.221-2.394c-2.525-3.684-5.162-8-3.89-12.241,1.44-4.825,7.144-7.041,10.436-10.931C1089.564,522.923,1089.667,516.208,1088.5,510.252Z" transform="translate(-155.4 -101.796)" fill="url(#linear-gradient-2)"></path><path id="Path_474" data-name="Path 474" d="M992.21,428.25s-9.594,5.536-6.639,13.288c0,0,9.968,2.955,14.027,10.333s35.431,33.954,35.431,33.954l22.91-11.436s-7.958-10.623-33.131-18.048c0,0-14.84-15.9-20.011-18.861S992.21,428.25,992.21,428.25Z" transform="translate(-157.055 -103.149)" fill="#797c9c"></path><path id="Path_475" data-name="Path 475" d="M997.21,433.25s-9.594,5.536-6.639,13.288c0,0,9.968,2.955,14.027,10.333s35.431,33.954,35.431,33.954l22.91-11.436s-7.958-10.623-33.131-18.048c0,0-14.84-15.9-20.011-18.861S997.21,433.25,997.21,433.25Z" transform="translate(-157.379 -103.474)" opacity="0.05"></path><path id="Path_476" data-name="Path 476" d="M114.207,724.088s-53.918,32.532,45.474,82.617c0,0,21.9-40.659-2.31-73.808a32.645,32.645,0,0,0-42.351-9.276Z" transform="translate(-99.6 -122.046)" fill="#5685ec"></path><path id="Path_477" data-name="Path 477" d="M115.88,723.67s46.148,35.3,44.885,83.3" transform="translate(-100.656 -122.32)" fill="none" stroke="#535461" stroke-miterlimit="10" stroke-width="1"></path><path id="Path_478" data-name="Path 478" d="M166.178,800.683s-16.9-57.406,3.142-99.589a90.612,90.612,0,0,0,7.331-56.845A152.423,152.423,0,0,0,168.6,617.57" transform="translate(-103.488 -115.435)" fill="none" stroke="#535461" stroke-miterlimit="10" stroke-width="2"></path><path id="Path_479" data-name="Path 479" d="M180.844,588.117c0,7.032-12.727,27.417-12.727,27.417s-12.727-20.385-12.727-27.417a12.732,12.732,0,0,1,25.463,0Z" transform="translate(-103.22 -112.697)" fill="#6c63ff"></path><path id="Path_480" data-name="Path 480" d="M203.335,629.317c-3.825,5.9-25.585,16.093-25.585,16.093s.393-24.032,4.217-29.924a12.729,12.729,0,0,1,21.367,13.84Z" transform="translate(-104.671 -114.922)" fill="#6c63ff"></path><path id="Path_481" data-name="Path 481" d="M202.033,700.164c-6.275,3.17-30.213.935-30.213.935s12.474-20.572,18.749-23.714a12.73,12.73,0,1,1,11.464,22.732Z" transform="translate(-104.286 -119.228)" fill="#6c63ff"></path><path id="Path_482" data-name="Path 482" d="M189.2,753.926C183.594,758.106,159.59,760,159.59,760s8.818-22.358,14.475-26.538a12.73,12.73,0,0,1,15.139,20.47Z" transform="translate(-103.492 -122.793)" fill="#6c63ff"></path><path id="Path_483" data-name="Path 483" d="M148.9,647.832c5.04,4.9,28.54,9.978,28.54,9.978s-5.751-23.378-10.8-28.24a12.74,12.74,0,1,0-17.767,18.263Z" transform="translate(-102.547 -115.979)" fill="#6c63ff"></path><path id="Path_484" data-name="Path 484" d="M134.424,710.644c6.275,3.17,30.213.935,30.213.935s-12.474-20.572-18.749-23.714A12.73,12.73,0,0,0,134.424,710.6Z" transform="translate(-101.405 -119.908)" fill="#6c63ff"></path><path id="Path_485" data-name="Path 485" d="M129.1,773.826c5.611,4.18,29.615,6.069,29.615,6.069s-8.818-22.358-14.475-26.538a12.73,12.73,0,0,0-15.139,20.47Z" transform="translate(-101.179 -124.084)" fill="#6c63ff"></path><path id="Path_486" data-name="Path 486" d="M180.844,588.117c0,7.032-12.727,27.417-12.727,27.417s-12.727-20.385-12.727-27.417a12.732,12.732,0,0,1,25.463,0Z" transform="translate(-103.22 -112.697)" fill="#0606e2" opacity="0.25"></path><path id="Path_487" data-name="Path 487" d="M203.335,629.317c-3.825,5.9-25.585,16.093-25.585,16.093s.393-24.032,4.217-29.924a12.729,12.729,0,0,1,21.367,13.84Z" transform="translate(-104.671 -114.922)" fill="#0606e2" opacity="0.25"></path><path id="Path_488" data-name="Path 488" d="M202.033,700.164c-6.275,3.17-30.213.935-30.213.935s12.474-20.572,18.749-23.714a12.73,12.73,0,1,1,11.464,22.732Z" transform="translate(-104.286 -119.228)" fill="#0606e2" opacity="0.25"></path><path id="Path_489" data-name="Path 489" d="M189.2,753.926C183.594,758.106,159.59,760,159.59,760s8.818-22.358,14.475-26.538a12.73,12.73,0,0,1,15.139,20.47Z" transform="translate(-103.492 -122.793)" fill="#0606e2" opacity="0.25"></path><path id="Path_490" data-name="Path 490" d="M148.9,647.832c5.04,4.9,28.54,9.978,28.54,9.978s-5.751-23.378-10.8-28.24a12.74,12.74,0,1,0-17.767,18.263Z" transform="translate(-102.547 -115.979)" fill="#0606e2" opacity="0.25"></path><path id="Path_491" data-name="Path 491" d="M134.424,710.644c6.275,3.17,30.213.935,30.213.935s-12.474-20.572-18.749-23.714A12.73,12.73,0,0,0,134.424,710.6Z" transform="translate(-101.405 -119.908)" fill="#0606e2" opacity="0.25"></path><path id="Path_492" data-name="Path 492" d="M129.1,773.826c5.611,4.18,29.615,6.069,29.615,6.069s-8.818-22.358-14.475-26.538a12.73,12.73,0,0,0-15.139,20.47Z" transform="translate(-101.179 -124.084)" fill="#524bf8"></path><path id="Path_493" data-name="Path 493" d="M207.988,801.853s-16.9-57.369,3.17-99.589a90.612,90.612,0,0,0,7.331-56.845,152.421,152.421,0,0,0-8.051-26.679" transform="translate(-106.201 -115.511)" fill="none" stroke="#535461" stroke-miterlimit="10" stroke-width="2"></path><path id="Path_494" data-name="Path 494" d="M222.654,589.317c0,7.032-12.727,27.417-12.727,27.417S197.2,596.349,197.2,589.317a12.732,12.732,0,0,1,25.463,0Z" transform="translate(-105.933 -112.775)" fill="#5685ec"></path><path id="Path_495" data-name="Path 495" d="M245.155,630.477c-3.825,5.9-25.585,16.093-25.585,16.093s.393-24.032,4.217-29.923a12.729,12.729,0,1,1,21.367,13.84Z" transform="translate(-107.385 -114.998)" fill="#5685ec"></path><path id="Path_496" data-name="Path 496" d="M243.843,701.325c-6.275,3.17-30.213.935-30.213.935s12.474-20.572,18.749-23.714a12.751,12.751,0,1,1,11.464,22.779Z" transform="translate(-106.999 -119.303)" fill="#5685ec"></path><path id="Path_497" data-name="Path 497" d="M231.015,755.1c-5.611,4.18-29.615,6.069-29.615,6.069s8.818-22.358,14.475-26.538a12.73,12.73,0,0,1,15.139,20.47Z" transform="translate(-106.206 -122.869)" fill="#5685ec"></path><path id="Path_498" data-name="Path 498" d="M190.73,648.992c5.04,4.9,28.54,9.978,28.54,9.978s-5.751-23.378-10.8-28.24A12.74,12.74,0,1,0,190.7,648.992Z" transform="translate(-105.261 -116.055)" fill="#5685ec"></path><path id="Path_499" data-name="Path 499" d="M176.234,711.8c6.275,3.17,30.213.935,30.213.935s-12.474-20.572-18.749-23.714a12.73,12.73,0,1,0-11.464,22.732Z" transform="translate(-104.118 -119.983)" fill="#5685ec"></path><path id="Path_500" data-name="Path 500" d="M170.912,775c5.611,4.18,29.615,6.069,29.615,6.069s-8.818-22.358-14.475-26.538A12.73,12.73,0,0,0,170.912,775Z" transform="translate(-103.892 -124.16)" fill="#5685ec"></path><rect id="Rectangle_82" data-name="Rectangle 82" width="891.158" height="6.546" transform="translate(22.948 684.341)" fill="#5685ec"></rect><rect id="Rectangle_83" data-name="Rectangle 83" width="188.864" height="232.094" transform="translate(652.921 318.714)" fill="url(#linear-gradient)"></rect><rect id="Rectangle_84" data-name="Rectangle 84" width="182.935" height="224.809" transform="translate(655.885 322.361)" fill="#5685ec"></rect><rect id="Rectangle_85" data-name="Rectangle 85" width="37.404" height="37.404" transform="translate(668.173 342.091)" fill="#e8eaf1"></rect><rect id="Rectangle_86" data-name="Rectangle 86" width="132.785" height="7.481" transform="translate(686.875 401.938)" fill="#e8eaf1"></rect><rect id="Rectangle_87" data-name="Rectangle 87" width="132.785" height="7.481" transform="translate(686.875 417.835)" fill="#e8eaf1"></rect><rect id="Rectangle_88" data-name="Rectangle 88" width="132.785" height="7.481" transform="translate(686.875 433.732)" fill="#e8eaf1"></rect><rect id="Rectangle_89" data-name="Rectangle 89" width="132.785" height="7.481" transform="translate(686.875 449.629)" fill="#e8eaf1"></rect><rect id="Rectangle_90" data-name="Rectangle 90" width="132.785" height="7.481" transform="translate(686.875 465.526)" fill="#e8eaf1"></rect><rect id="Rectangle_91" data-name="Rectangle 91" width="132.785" height="7.481" transform="translate(686.875 481.423)" fill="#e8eaf1"></rect><rect id="Rectangle_92" data-name="Rectangle 92" width="132.785" height="7.481" transform="translate(686.875 497.319)" fill="#e8eaf1"></rect><path id="Path_501" data-name="Path 501" d="M1055.7,764.89s1.1,16.233,2.955,18.085-16.608,2.955-16.608,2.955l2.581-21.04Z" transform="translate(-160.757 -124.995)" fill="#ffb9b9"></path><path id="Path_502" data-name="Path 502" d="M1055.7,764.89s1.1,16.233,2.955,18.085-16.608,2.955-16.608,2.955l2.581-21.04Z" transform="translate(-160.757 -124.995)" opacity="0.05"></path><path id="Path_503" data-name="Path 503" d="M1057.927,777.951s-2.581,0-11.81,4.8c0,0-6.275-1.1-8.855-9.968,0,0-7.752,13.288-12.914,14.027s-15.13,1.477-8.491,10.333,45.764,4.8,45.764,4.8S1062.715,780.532,1057.927,777.951Z" transform="translate(-158.914 -125.507)" fill="#e4e2f3"></path><path id="Path_504" data-name="Path 504" d="M1057.927,777.951s-2.581,0-11.81,4.8c0,0-6.275-1.1-8.855-9.968,0,0-7.752,13.288-12.914,14.027s-15.13,1.477-8.491,10.333,45.764,4.8,45.764,4.8S1062.715,780.532,1057.927,777.951Z" transform="translate(-158.914 -125.507)" opacity="0.05"></path><path id="Path_505" data-name="Path 505" d="M1053.713,790.795l-2.581,7.013-16.972-4.8.935-6.957.234-1.683.645-4.676s14.391-3.694,14.391-1.87a28.63,28.63,0,0,0,.935,4.5c.589,2.272,1.328,4.853,1.87,6.546C1053.489,790.056,1053.713,790.795,1053.713,790.795Z" transform="translate(-160.245 -125.801)" fill="#ffb9b9"></path><path id="Path_506" data-name="Path 506" d="M1043.79,682.751a10.09,10.09,0,0,0,0,10.286,17.875,17.875,0,0,0,2.656,3.675c8.117,8.855,10.333,28.783,10.333,28.783v32.1l-5.536.421-8.855.683-13.288-54.62s-7.752-39.854-4.058-46.868,7.013-50.926,7.013-50.926l3.067-3.17,7.266-7.528h21.04a14.149,14.149,0,0,1,4.1,4.573c3.535,5.844,6.7,18-2.983,40.443-15.13,35.057-19.562,40.593-19.562,40.593a8.5,8.5,0,0,0-1.188,1.552Z" transform="translate(-159.588 -114.008)" fill="#4c4c78"></path><path id="Path_507" data-name="Path 507" d="M1043.92,682.582a10.09,10.09,0,0,0,0,10.286,17.88,17.88,0,0,0,2.656,3.675c8.117,8.855,10.333,28.783,10.333,28.783v32.1l-5.536.421-8.855.683-13.288-54.62s-7.752-39.854-4.058-46.868,7.013-50.926,7.013-50.926l3.067-3.17,7.266-7.528h21.04a14.148,14.148,0,0,1,4.1,4.573c3.535,5.844,6.7,18-2.983,40.443-15.13,35.057-19.563,40.593-19.563,40.593A8.5,8.5,0,0,0,1043.92,682.582Z" transform="translate(-159.597 -113.997)" opacity="0.05"></path><path id="Path_508" data-name="Path 508" d="M1051.421,782.37l-15.981,2,.645-4.676s14.391-3.694,14.391-1.87a28.648,28.648,0,0,0,.944,4.545Z" transform="translate(-160.328 -125.801)" opacity="0.1"></path><path id="Path_509" data-name="Path 509" d="M1041.267,635.061s.935,29.054,1.066,47.307v10.286a22.752,22.752,0,0,1-.3,4.049c-1.1,3.32,1.1,10.7,1.1,10.7a106.516,106.516,0,0,1,6.639,45.764V769.4l-17.711,2.216s2.955-2.216-5.171-23.621a93.288,93.288,0,0,1-5.695-32.373,34.645,34.645,0,0,0-2.59-12.811,15.807,15.807,0,0,1-.935-4.264c-.739-7.378-4.058-16.608-4.058-16.608s-8.855-26.183-11.072-45.39a105.668,105.668,0,0,1,.514-27.455,68.518,68.518,0,0,1,1.328-6.864s36.076-22.7,49.7-7.013a17.767,17.767,0,0,1,3.077,5.171,34.107,34.107,0,0,1,1.74,5.751C1063.139,626.945,1041.267,635.061,1041.267,635.061Z" transform="translate(-158.15 -113.626)" fill="#4c4c78"></path><circle id="Ellipse_57" data-name="Ellipse 57" cx="18.824" cy="18.824" r="18.824" transform="translate(863.199 322.155)" fill="#ffb9b9"></circle><path id="Path_510" data-name="Path 510" d="M1031.7,457.053s7.752,21.769,0,33.215,24.724,7.752,24.724,7.752l12.549-15.13s-14.765,0-15.5-25.837S1031.7,457.053,1031.7,457.053Z" transform="translate(-160.007 -104.273)" fill="#ffb9b9"></path><path id="Path_511" data-name="Path 511" d="M1067.194,604.062a48.439,48.439,0,0,1-8.22,2.057c-4.591.711-10.015.739-13.185-2.057-1.87-1.655-6.546-1.87-12.072-1.328-11.717,1.122-27.567,5.489-30.6,6.349a68.575,68.575,0,0,1,1.328-6.864s36.076-22.7,49.7-7.013h7.874a14.147,14.147,0,0,1,4.1,4.573C1066.8,602.715,1067.194,604.062,1067.194,604.062Z" transform="translate(-158.23 -113.625)" opacity="0.1"></path><path id="Path_512" data-name="Path 512" d="M1053.713,791.4l-2.581,7.013-16.972-4.8.935-6.957c2.917,6.452,7.892,7.331,7.892,7.331a60.206,60.206,0,0,1,10.155-4.451C1053.489,790.662,1053.713,791.4,1053.713,791.4Z" transform="translate(-160.245 -126.407)" opacity="0.1"></path><path id="Path_513" data-name="Path 513" d="M1053.177,789.4s-2.581,0-11.81,4.8c0,0-6.275-1.1-8.855-9.968,0,0-7.752,13.288-12.914,14.027s-15.13,1.477-8.491,10.333,45.764,4.8,45.764,4.8S1057.974,791.982,1053.177,789.4Z" transform="translate(-158.606 -126.25)" fill="#e4e2f3"></path><path id="Path_514" data-name="Path 514" d="M962.62,448.173s.72-14.373,15.822-12.97a2.581,2.581,0,0,1,2.039,3.74l-3.1,5.826Z" transform="translate(-155.602 -103.594)" fill="#ffb9b9"></path><path id="Path_515" data-name="Path 515" d="M1049.814,487.069s-18.085-2.955-22.882-6.639c0,0-3.694,7.013-10.333,3.32s-22.143-3.32-22.143-3.32a33.468,33.468,0,0,1-15.5-22.882s-2.581-9.594-1.87-12.156c0,0-9.594-9.968-14.391,3.32,1.87,9.23,3.32,8.491,2.955,15.9l5.9,16.233s.365,5.536,11.072,12.914,22.882,18.824,22.882,18.824-6.462,3.507-4.058,19.562c2.936,19.637-1.477,47.606-1.477,47.606v18.085s36.909-10.7,43.174-5.171,21.4,0,21.4,0-1.87-6.275-4.432-21.4.365-29.923.365-29.923,9.594-25.463,14.027-35.8-3.32-24.313-11.072-29.521-10.632-2.067-10.632-2.067S1066.422,483.749,1049.814,487.069Z" transform="translate(-155.607 -104.029)" fill="#797c9c"></path><path id="Path_516" data-name="Path 516" d="M1005.15,546.979s2.946-.711,17.7-2.927,40.593,2.955,40.593,2.955" transform="translate(-158.362 -110.628)" opacity="0.05"></path><path id="Path_517" data-name="Path 517" d="M1018.739,430.862c8.416.178,14.644,10.557,10.913,18.048-1.636,3.292-4.807,6.19-4.479,9.847.15,1.664,1.038,3.17,1.421,4.8,1.767,7.481-7.182,14.485-5.134,21.872a15.8,15.8,0,0,0,3.2,5.358l15.542,19.581a14.705,14.705,0,0,1,2.319,3.591,15.142,15.142,0,0,1,.673,5.751c-.075,9.351.533,19.385,6.05,26.969,6.63,9.108,20.142,12.381,30.195,7.3-2.413-3.656-4.928-7.939-3.74-12.156,1.375-4.778,6.817-6.985,9.959-10.838,3.8-4.676,3.89-11.315,2.805-17.215s-3.264-11.67-3.31-17.674c-.075-9.753,4.919-21.087-1.655-28.287-1.505-1.646-3.507-2.861-4.629-4.788a10.878,10.878,0,0,1-1.16-5.4c-.1-11.371,5.929-22.938,2.31-33.72a11.454,11.454,0,0,0-4.143-6c-5.124-3.451-12.231-.1-18.16-1.87-2.805-.814-5.115-2.7-7.855-3.628-7.387-2.5-14.223,2.515-19.329,7.322a58.89,58.89,0,0,1-6.742,5.087C1024.153,424.607,1015.466,430.8,1018.739,430.862Z" transform="translate(-159.196 -102.077)" opacity="0.1"></path><path id="Path_518" data-name="Path 518" d="M1019.739,430.862c8.416.178,14.644,10.557,10.913,18.048-1.636,3.292-4.807,6.19-4.479,9.847.15,1.664,1.038,3.17,1.421,4.8,1.767,7.481-7.182,14.485-5.134,21.872a15.793,15.793,0,0,0,3.2,5.358l15.542,19.581a14.705,14.705,0,0,1,2.319,3.591,15.14,15.14,0,0,1,.673,5.751c-.075,9.351.533,19.385,6.05,26.969,6.63,9.108,20.142,12.381,30.195,7.3-2.413-3.656-4.928-7.939-3.74-12.156,1.375-4.778,6.817-6.985,9.959-10.838,3.8-4.676,3.89-11.315,2.805-17.215s-3.264-11.67-3.31-17.674c-.075-9.753,4.919-21.087-1.655-28.287-1.506-1.646-3.507-2.861-4.629-4.788a10.878,10.878,0,0,1-1.16-5.4c-.1-11.371,5.929-22.938,2.31-33.72a11.456,11.456,0,0,0-4.143-6c-5.124-3.451-12.231-.1-18.16-1.87-2.805-.814-5.115-2.7-7.855-3.628-7.387-2.5-14.223,2.515-19.329,7.322a58.89,58.89,0,0,1-6.742,5.087C1025.153,424.607,1016.466,430.8,1019.739,430.862Z" transform="translate(-159.261 -102.077)" fill="#b36362"></path><path id="Path_519" data-name="Path 519" d="M711.312,609.6a32.434,32.434,0,0,1-5.526-6.78c-3.236-5.087-8.65-7.827-12.362-9.192v-1.655h.224l-.1-1.534h.1l-.262-4.058h0l-1.318-20.273s-4.769-13.587,3.647-26.024.524-24.369-7.387-29.035c0,0-3.74-19.7-.524-24.369a135.852,135.852,0,0,0-13.279-6.761q-.1-.365-.2-.748c-.084-1.87-.2-3.675-.3-5.508a20.147,20.147,0,0,1,.524-2.805q.154-.575.337-1.178A20.227,20.227,0,0,0,687.8,450.923a19.862,19.862,0,0,0-1.253-6.957,8.864,8.864,0,0,0,.935-2.207,9.005,9.005,0,0,0-1.253-6.471c-2.095-4.676-7.378-8.949-11.221-10.511-5.489-2.244-13.755-1.711-19.469-1.029-3.207.383-6.873,1.468-8.033,4.432a30.7,30.7,0,0,0-.729,3.413c-1.2,4.526-6.387,6.639-9.594,10.1-2.805,3.058-4.077,7.191-4.994,11.221a103.6,103.6,0,0,0-1.87,35.226c.327,2.712.757,5.4,1.216,8.1-1.926,2.712-3.666,7.481-2.871,15.9l-6.331,30.073L619.7,559.835a15.411,15.411,0,0,0,4.75,13.484c4.04,3.965,8.94,10.669,11.96,15.018a35.761,35.761,0,0,0-1.926,11.951c.065,1.87.168,3.638.3,5.339a47.538,47.538,0,0,0,2.02,10.567c.739,7.238,2.207,16.5,5.068,22.443l1.057,31.625s-1.58,29.035-4.75,34.739,6.864,53.928,6.864,53.928v6.742l-1.693,4.937-.421-.318c-7.92,9.856,0,13.484,0,13.484s2.151.1,5.611.234a6.368,6.368,0,0,0,3.376,7.023s44.885,2.076,52.8,0,5.807-9.351,1.58-8.818a19.311,19.311,0,0,1-6.321-.832c2.469-2.89.5-6.808-2.646-6.424-4.227.514-13.727-3.245-13.727-3.245v.065a7.126,7.126,0,0,0-.935-.281,105.893,105.893,0,0,1-10.445-2.946c-2.039-4.367-6.733-16.112-3.366-25.248,1.524-4.114,2.02-9.594,2.02-14.906a170.264,170.264,0,0,1,6.948-47.3l6.331-21.76s8.977-26.445,9.5-33.664l-.075-10.585c7.425,4.778,13.316,3.329,17.084,1.113a4.068,4.068,0,0,0,.655-6.6Zm-70.46-55c.178-.757.327-1.59.458-2.459h3.74a19.263,19.263,0,0,1,1.87,10.2C644.059,561.406,639.776,559.181,640.851,554.6Z" transform="translate(-133.339 -102.819)" fill="url(#linear-gradient-4)"></path><path id="Path_520" data-name="Path 520" d="M647.559,786.566l-2.029,6.1,6.6,6.6,21.844,5.078,15.747-1.524-1.019-5.611h0a6.742,6.742,0,0,0-5-4.919c-6.471-1.524-18.814-4.984-21.414-9.809Z" transform="translate(-135.026 -126.136)" fill="#db8b8b"></path><path id="Path_521" data-name="Path 521" d="M647.559,786.566l-2.029,6.1,6.6,6.6,21.844,5.078,15.747-1.524-1.019-5.611h0a6.742,6.742,0,0,0-5-4.919c-6.471-1.524-18.814-4.984-21.414-9.809Z" transform="translate(-135.026 -126.136)" opacity="0.1"></path><path id="Path_522" data-name="Path 522" d="M684.41,801.907l-3.048-4.068,3.048-4.676s9.145,3.694,13.2,3.179,6.1,6.6-1.524,8.64-50.8,0-50.8,0-7.621-3.553,0-13.2l6.6,5.078s11.221,6.1,16.766,5.078Z" transform="translate(-134.79 -126.739)" fill="#474463"></path><path id="Path_523" data-name="Path 523" d="M698.935,810.431l-15.747,1.524-21.825-5.115-6.6-6.546.542-1.618.757-2.263.739-2.216,14.728-4.068a9.126,9.126,0,0,0,2.983,2.992c4.788,3.273,13.381,5.611,18.422,6.817a5.291,5.291,0,0,1,.627.187,6.714,6.714,0,0,1,4.376,4.732Z" transform="translate(-135.625 -126.632)" fill="#db8b8b"></path><path id="Path_524" data-name="Path 524" d="M698.935,811.024l-15.747,1.524-21.825-5.115-6.6-6.546.542-1.618,6.069,4.676s11.221,6.1,16.766,5.078h15.747l-3.048-4.068,2.74-4.227a6.714,6.714,0,0,1,4.376,4.732Z" transform="translate(-135.625 -127.226)" opacity="0.1"></path><path id="Path_525" data-name="Path 525" d="M693.64,809.507l-3.048-4.068,3.048-4.676s9.145,3.694,13.2,3.179,6.1,6.6-1.524,8.64-50.8,0-50.8,0-7.621-3.553,0-13.2l6.6,5.078s11.221,6.1,16.766,5.078Z" transform="translate(-135.389 -127.233)" fill="#474463"></path><path id="Path_526" data-name="Path 526" d="M681.308,493.252s-24.388,2.543-20.825-7.621a18.29,18.29,0,0,0,.748-8.968,24.864,24.864,0,0,0-4.311-10.333l22.863,3.553a28.631,28.631,0,0,0-3.1,7.341C673.967,488.006,681.308,493.252,681.308,493.252Z" transform="translate(-135.765 -105.621)" fill="#db8b8b"></path><path id="Path_527" data-name="Path 527" d="M638.46,619s.5,21.844,5.611,32.514l1.019,30.99s-1.524,28.446-4.573,34.038,6.6,52.834,6.6,52.834V777.5s16.233,6.078,20.834-1.029l-4.573-60.455,2.029-83.823Z" transform="translate(-134.567 -115.528)" fill="#474463"></path><path id="Path_528" data-name="Path 528" d="M638.46,619s.5,21.844,5.611,32.514l1.019,30.99s-1.524,28.446-4.573,34.038,6.6,52.834,6.6,52.834V777.5s16.233,6.078,20.834-1.029l-4.573-60.455,2.029-83.823Z" transform="translate(-134.567 -115.528)" opacity="0.1"></path><path id="Path_529" data-name="Path 529" d="M627.2,544l-3.048,8.126L621.609,569.4a15.28,15.28,0,0,0,4.573,13.2c6.1,6.1,14.223,18.8,14.223,18.8l9.65-28.988s-9.65-1.524-8.126-8.126,1.019-18.8,1.019-18.8Z" transform="translate(-133.464 -110.661)" fill="#cbcdda"></path><path id="Path_530" data-name="Path 530" d="M627.2,543l-3.048,8.126L621.609,568.4a15.28,15.28,0,0,0,4.573,13.2c6.1,6.1,14.223,18.8,14.223,18.8l9.65-28.988s-9.65-1.524-8.126-8.126,1.019-18.8,1.019-18.8Z" transform="translate(-133.464 -110.596)" opacity="0.05"></path><path id="Path_531" data-name="Path 531" d="M674.6,793.1c-6.546,10.286-16.654,4.442-18.459,3.282l.739-2.216,14.728-4.068A9.125,9.125,0,0,0,674.6,793.1Z" transform="translate(-135.714 -126.63)" opacity="0.1"></path><path id="Path_532" data-name="Path 532" d="M693.731,636.257c-.5,7.116-9.145,33.019-9.145,33.019L678.5,690.6a169.639,169.639,0,0,0-6.7,46.381c0,5.2-.477,10.567-1.945,14.6-4.068,11.221,4.068,26.417,4.068,26.417-7.116,12.7-19.3,4.068-19.3,4.068v-8.126s-9.65-44.193-7.116-52.834,3.553-32.009,3.553-32.009V646.927a47.849,47.849,0,0,1-13.943-30.335c-.122-1.664-.215-3.413-.28-5.227-.411-11.464,7.425-24.9,10.483-29.69.739-1.159,1.2-1.8,1.2-1.8L693.4,597.637h.1v5.583Z" transform="translate(-134.461 -112.988)" fill="#474463"></path><path id="Path_533" data-name="Path 533" d="M679.793,469.883a28.632,28.632,0,0,0-3.1,7.341,19.881,19.881,0,0,1-15.457-.561,24.863,24.863,0,0,0-4.311-10.333Z" transform="translate(-135.766 -105.621)" opacity="0.1"></path><circle id="Ellipse_58" data-name="Ellipse 58" cx="19.815" cy="19.815" r="19.815" transform="translate(514.048 332.254)" fill="#db8b8b"></circle><path id="Path_534" data-name="Path 534" d="M694.331,603.238h-.215c-21.3,4.376-48.046-17.823-48.046-17.823a26.33,26.33,0,0,0,1.87-3.74c.739-1.159,1.2-1.8,1.2-1.8l44.885,17.767.112,1.777Z" transform="translate(-135.061 -112.988)" opacity="0.1"></path><path id="Path_535" data-name="Path 535" d="M687.329,493.746s-28.446-17.271-37.591-10.165l-12.7,16.252s-8.126,2.543-6.6,18.8l-6.1,29.465,18.291,4.573s10.67,10.165,2.029,24.893c0,0,26.922,22.349,48.261,17.767l-1.571-23.855s-4.573-13.2,3.553-25.4.5-23.873-7.116-28.446C687.843,517.628,684.281,498.318,687.329,493.746Z" transform="translate(-133.651 -106.629)" fill="#cbcdda"></path><path id="Path_536" data-name="Path 536" d="M692.968,605.4s10.67,2.029,15.747,10.165a31.66,31.66,0,0,0,5.321,6.639,4.03,4.03,0,0,1-.627,6.424c-4.03,2.422-10.6,3.918-18.908-2.908C680.269,614.04,692.968,605.4,692.968,605.4Z" transform="translate(-137.766 -114.645)" fill="#db8b8b"></path><path id="Path_537" data-name="Path 537" d="M675.114,504.873s-10.165-1.019-12.7,25.4-6.6,32.514-6.6,32.514-2.543,13.718,3.553,21.844,17.767,25.4,17.767,25.4,12.7,3.553,15.242-9.145l-15.747-29.465s-2.543-10.165,3.553-17.271S690.861,499.786,675.114,504.873Z" transform="translate(-135.659 -108.097)" opacity="0.1"></path><path id="Path_538" data-name="Path 538" d="M676.2,503.243s-10.165-1.019-12.7,25.4-6.6,32.514-6.6,32.514S654.36,574.873,660.457,583s17.767,25.4,17.767,25.4,12.7,3.553,15.242-9.145l-15.747-29.465s-2.534-10.155,3.553-17.234S691.951,498.157,676.2,503.243Z" transform="translate(-135.73 -107.991)" fill="#cbcdda"></path><path id="Path_539" data-name="Path 539" d="M686.055,523.64s1.019,15.747-3.553,24.388-4.573,19.815,0,25.912" transform="translate(-137.202 -109.339)" opacity="0.1"></path><path id="Path_540" data-name="Path 540" d="M687,502.4s-4.068-4.068-15.747-4.573-16.766-4.068-16.766-4.068" transform="translate(-135.607 -107.401)" opacity="0.1"></path><path id="Path_541" data-name="Path 541" d="M656.794,429.67c-3.086.383-6.611,1.44-7.724,4.339a30.574,30.574,0,0,0-.7,3.348c-1.15,4.442-6.144,6.546-9.23,9.893-2.721,2.992-3.918,7.041-4.807,11a103.313,103.313,0,0,0-1.786,34.515c.991,8.416,3.02,16.72,3.581,25.182s-.468,17.365-5.1,24.472c-1.992,3.058-4.61,5.742-6.022,9.108,2.918,2.366,6.929,2.7,10.688,2.805q6.546.224,13.091,0c2.291-.075,4.676-.224,6.667-1.384a10.286,10.286,0,0,0,3.5-3.74c2.5-4.245,3.133-9.351,3.02-14.26s-.888-9.809-.935-14.737c-.047-2.684.159-5.526,1.7-7.724,1.113-1.59,2.805-2.656,4.255-3.937,5.442-4.816,7.3-12.549,7.481-19.815s-1.019-14.541-.4-21.779c.243-2.805,1.3-6.237,4.086-6.789a15.716,15.716,0,0,0,2.656-.337c2.235-.86,2.02-4.012,2.656-6.321.72-2.59,2.927-4.591,3.553-7.21,1.459-6.144-6.359-13.484-11.483-15.626C670.279,428.473,662.33,429.006,656.794,429.67Z" transform="translate(-133.694 -103.204)" opacity="0.1"></path><path id="Path_542" data-name="Path 542" d="M656.294,428.579c-3.086.383-6.611,1.44-7.724,4.339a30.615,30.615,0,0,0-.7,3.348c-1.15,4.442-6.144,6.546-9.23,9.893-2.721,2.992-3.918,7.041-4.806,11a103.311,103.311,0,0,0-1.786,34.515c.991,8.416,3.02,16.72,3.581,25.183s-.468,17.365-5.1,24.472c-1.992,3.058-4.61,5.742-6.022,9.108,2.918,2.366,6.929,2.7,10.688,2.805q6.546.224,13.091,0c2.291-.075,4.676-.224,6.667-1.384a10.286,10.286,0,0,0,3.5-3.74c2.5-4.245,3.133-9.351,3.02-14.26s-.888-9.809-.935-14.737c-.047-2.684.159-5.526,1.7-7.724,1.113-1.59,2.805-2.656,4.255-3.937,5.442-4.816,7.3-12.549,7.481-19.815s-1.019-14.541-.4-21.779c.243-2.805,1.3-6.237,4.086-6.789a15.72,15.72,0,0,0,2.656-.337c2.235-.86,2.02-4.012,2.656-6.321.72-2.59,2.927-4.591,3.553-7.21,1.459-6.144-6.359-13.484-11.483-15.626C669.741,427.383,661.793,427.906,656.294,428.579Z" transform="translate(-133.662 -103.133)" fill="#472727"></path></g></svg> 