<?xml version="1.0" encoding="UTF-8"?> <svg xmlns="http://www.w3.org/2000/svg" xmlns:xlink="http://www.w3.org/1999/xlink" width="234.133" height="172.838" viewBox="0 0 234.133 172.838"><defs><linearGradient id="linear-gradient" x1="0.5" y1="1" x2="0.5" gradientUnits="objectBoundingBox"><stop offset="0" stop-color="gray" stop-opacity="0.251"></stop><stop offset="0.54" stop-color="gray" stop-opacity="0.122"></stop><stop offset="1" stop-color="gray" stop-opacity="0.102"></stop></linearGradient><linearGradient id="linear-gradient-2" y2="0" xlink:href="#linear-gradient"></linearGradient><linearGradient id="linear-gradient-4" x1="16.117" x2="16.117" y2="0" xlink:href="#linear-gradient"></linearGradient></defs><g id="undraw_organize_resume_utk5" transform="translate(-0.005 -0.011)"><path id="Path_463" data-name="Path 463" d="M106.645,189.12c-2.807.456-6.328,1.762-6.3,4.8a6.476,6.476,0,0,0,2.033,3.977,75.563,75.563,0,0,0,14.347,12.672c2.531,1.715,5.252,3.355,6.934,6.005s2.105,6.024,2.239,9.234a70.972,70.972,0,0,1-2.653,22.517c8.242,1.57,17.433,2.945,24.3-2.012,4.113-2.969,6.894-7.942,11.477-10,3.06-1.376,6.525-1.254,9.861-1.078q23.686,1.247,47.256,4.679c6.581.959,13.288,2.045,19.8.8s12.916-5.285,15.316-11.842a5.631,5.631,0,0,1,1.53-2.746,4.148,4.148,0,0,1,2.639-.5l54.994,1.89c3.013.1,6.132.187,8.89-1.053,2.674-1.2,4.73-3.509,6.709-5.771,4.527-5.161,9.395-11.51,8.064-18.514-1.064-5.615-5.823-9.538-10.541-12.284s-9.924-4.995-13.391-9.386c-5.275-6.684-5.067-16.249-5.395-24.921a138.433,138.433,0,0,0-2.889-23.354c-1.429-6.759-3.42-13.526-7.142-19.234s-9.414-10.279-15.852-11.117c-8.408-1.095-16.86,4.15-25.085,1.923-6.948-1.872-11.73-8.522-17.487-13.131-10.225-8.188-23.644-9.9-36.331-10.059-13.451-.171-27.259,1.191-39.248,7.507a21.034,21.034,0,0,0-7.334,5.75c-2.915,3.918-3.621,9.182-5.528,13.763-7.685,18.444-32.679,22.421-40.792,40.668-2.88,6.473-2.852,14.022-.753,20.821,2.258,7.315,8.611,11.355,11.131,17.733C114.737,188.6,109.931,188.585,106.645,189.12Z" transform="translate(-100.169 -80.59)" fill="#5685ec" opacity="0.1"></path><g id="Group_97" data-name="Group 97" transform="translate(201.666 34.696)" opacity="0.2"><path id="Path_464" data-name="Path 464" d="M985.15,311.9s1.123-14.918,9.554-23.024a22.669,22.669,0,0,0,6.744-12.654,38.133,38.133,0,0,0,.468-6.955" transform="translate(-979.647 -259.818)" fill="none" stroke="#535461" stroke-miterlimit="10" stroke-width="2"></path><path id="Path_465" data-name="Path 465" d="M1059.347,233.179c-.622,1.638-5.4,5.289-5.4,5.289s-1.17-5.9-.552-7.542a3.185,3.185,0,0,1,5.958,2.253Z" transform="translate(-1031.786 -228.866)" fill="#5685ec"></path><path id="Path_466" data-name="Path 466" d="M1061.491,275.379c-1.415,1.043-7.411,1.5-7.411,1.5s2.22-5.589,3.635-6.632a3.184,3.184,0,0,1,3.776,5.128Z" transform="translate(-1032.452 -260.093)" fill="#5685ec"></path><path id="Path_467" data-name="Path 467" d="M1036.236,339.626c-1.75.185-7.156-2.445-7.156-2.445s4.737-3.7,6.485-3.89a3.185,3.185,0,1,1,.671,6.335Z" transform="translate(-1013.3 -308.848)" fill="#5685ec"></path><path id="Path_468" data-name="Path 468" d="M1004.2,385.624c-1.694.468-7.467-1.2-7.467-1.2s4.042-4.445,5.736-4.929a3.184,3.184,0,0,1,1.731,6.129Z" transform="translate(-988.518 -344.164)" fill="#5685ec"></path><path id="Path_469" data-name="Path 469" d="M1025.841,277.031c.746,1.593,5.795,4.859,5.795,4.859s.718-5.97-.028-7.563a3.185,3.185,0,1,0-5.766,2.7Z" transform="translate(-1010.588 -262.288)" fill="#5685ec"></path><path id="Path_470" data-name="Path 470" d="M988.471,328.273c1.188,1.3,6.983,2.9,6.983,2.9s-1.1-5.912-2.29-7.208a3.185,3.185,0,0,0-4.7,4.3Z" transform="translate(-981.548 -300.929)" fill="#5685ec"></path><path id="Path_471" data-name="Path 471" d="M962.136,386.774c.952,1.478,6.394,4.04,6.394,4.04s-.087-6.012-1.039-7.486a3.185,3.185,0,1,0-5.355,3.451Z" transform="translate(-961.628 -346.075)" fill="#6c63ff"></path></g><path id="Path_472" data-name="Path 472" d="M164.14,87.83V195.676h173.3V87.83Z" transform="translate(-125.736 -67.275)" fill="url(#linear-gradient)"></path><rect id="Rectangle_71" data-name="Rectangle 71" width="169.641" height="8.237" transform="translate(40.235 21.695)" fill="#f6f7f9"></rect><g id="Group_98" data-name="Group 98" transform="translate(40.235 21.695)" opacity="0.2"><rect id="Rectangle_72" data-name="Rectangle 72" width="169.641" height="8.237" fill="#5685ec"></rect></g><rect id="Rectangle_73" data-name="Rectangle 73" width="169.641" height="97.33" transform="translate(40.235 29.932)" fill="#f6f7f9"></rect><circle id="Ellipse_54" data-name="Ellipse 54" cx="1.832" cy="1.832" r="1.832" transform="translate(42.472 23.931)" fill="#f6f7f9"></circle><circle id="Ellipse_55" data-name="Ellipse 55" cx="1.832" cy="1.832" r="1.832" transform="translate(47.352 23.931)" fill="#f6f7f9"></circle><circle id="Ellipse_56" data-name="Ellipse 56" cx="1.832" cy="1.832" r="1.832" transform="translate(52.234 23.931)" fill="#f6f7f9"></circle><g id="Group_99" data-name="Group 99" transform="translate(46.133 42.036)" opacity="0.2"><rect id="Rectangle_74" data-name="Rectangle 74" width="87.261" height="6.305" fill="#5685ec"></rect></g><g id="Group_100" data-name="Group 100" transform="translate(155.768 42.036)" opacity="0.2"><rect id="Rectangle_75" data-name="Rectangle 75" width="45.765" height="6.305" fill="#5685ec"></rect></g><g id="Group_101" data-name="Group 101" transform="translate(63.117 72.75)" opacity="0.2"><rect id="Rectangle_76" data-name="Rectangle 76" width="6.101" height="20.137" transform="translate(0 28.884)" fill="#5685ec"></rect><rect id="Rectangle_77" data-name="Rectangle 77" width="6.101" height="34.578" transform="translate(11.798 14.441)" fill="#5685ec"></rect><rect id="Rectangle_78" data-name="Rectangle 78" width="6.101" height="49.02" transform="translate(23.595)" fill="#5685ec"></rect><rect id="Rectangle_79" data-name="Rectangle 79" width="6.101" height="44.343" transform="translate(35.393 4.679)" fill="#5685ec"></rect><rect id="Rectangle_80" data-name="Rectangle 80" width="6.101" height="30.51" transform="translate(47.19 18.509)" fill="#5685ec"></rect></g><g id="Group_102" data-name="Group 102" transform="translate(155.668 62.173)" opacity="0.2"><rect id="Rectangle_81" data-name="Rectangle 81" width="45.765" height="56.241" fill="#5685ec"></rect></g><path id="Path_473" data-name="Path 473" d="M991.772,433.122a24.745,24.745,0,0,1-.868-4.459c-.021-2.461,1.289-5.32-.433-7.137a8.1,8.1,0,0,1-1.212-1.207,2.657,2.657,0,0,1-.3-1.362c-.028-2.87,1.553-5.785.606-8.506a2.891,2.891,0,0,0-1.085-1.514,3.149,3.149,0,0,0-1.841-.412c-.606,0-1.245.068-1.872.08a4.046,4.046,0,0,1-1.05-.138c-.725-.206-1.34-.681-2.059-.915a3.364,3.364,0,0,0-1.17-.161c-1.572-.051-3.008.994-4.127,2.007a15.4,15.4,0,0,1-1.766,1.284c.094-.065-2.183,1.5-1.326,1.514a2.981,2.981,0,0,1,1.694.589,4.576,4.576,0,0,0,.234,5.306c-.372-.365-.784-.765-1.2-1.17a27.731,27.731,0,0,0-3.83-3.338,27.105,27.105,0,0,1-3.289-2.309s-2.515,1.4-1.74,3.352a7.821,7.821,0,0,1,1.078.423,2.019,2.019,0,0,0,.147.756,8.329,8.329,0,0,1,2.234,1.095,3.825,3.825,0,0,1,.215.335,17.4,17.4,0,0,0,2.648,2.833c.894.9,2.07,1.967,3.242,3a6.3,6.3,0,0,0-.791,2.105,2.606,2.606,0,0,1-.264-.122c-1.74-.936-5.8-.837-5.8-.837a8.486,8.486,0,0,1-4.061-5.771,10.9,10.9,0,0,1-.484-3.072h-.012l.087-.019.812-1.471a.65.65,0,0,0-.533-.954A3.516,3.516,0,0,0,959.5,416.2h.035l-.012.03c.484,2.328.87,2.141.774,4l1.546,4.1s.1,1.4,2.9,3.259a60.618,60.618,0,0,1,6,4.749s-1.691.884-1.064,4.934c.767,4.95-.386,12.01-.386,12.01v4.562l.215-.058c-.028.152-.054.313-.082.489a25.688,25.688,0,0,0-.133,6.927,67.631,67.631,0,0,0,2.9,11.463,20.722,20.722,0,0,1,1.064,4.19,3.864,3.864,0,0,0,.248,1.076,8.462,8.462,0,0,1,.679,3.231,22.746,22.746,0,0,0,1.49,8.167,21.588,21.588,0,0,1,1.453,4.8c-.7.908-1.6,1.9-2.323,2-1.354.187-3.965.372-2.225,2.606a1.594,1.594,0,0,0,.2.213c-1.322.211-2.775.674-1.362,2.487,1.741,2.234,11.989,1.209,11.989,1.209s.066-1.242,0-2.606c.718-.049,1.17-.094,1.17-.094s.29-5.4-.966-6.052a2.717,2.717,0,0,0-.678.164c-.136-.746-.234-1.675-.3-2.36l.5-.037v-.037h.03V483.48s-.58-5.027-2.707-7.252a4.521,4.521,0,0,1-.7-.936l-.028-.059c.014-.636.014-1.495,0-2.48l.031-.054c.037-.061.075-.115.11-.164a2.033,2.033,0,0,1,.159-.187l.03-.04h0s1.17-1.4,5.126-10.242c2.417-5.395,1.778-8.422.912-9.982-.182-.7-.564-2.274-1.041-4.966a19.468,19.468,0,0,1-.278-3.46,6.959,6.959,0,0,0,1.834.206,6.227,6.227,0,0,0,2.807-.6c-.632-.922-1.291-2-.973-3.062.36-1.207,1.787-1.762,2.611-2.735A5.156,5.156,0,0,0,991.772,433.122Z" transform="translate(-758.331 -330.929)" fill="url(#linear-gradient-2)"></path><path id="Path_474" data-name="Path 474" d="M986.808,428.25s-2.4,1.385-1.661,3.324a6.593,6.593,0,0,1,3.509,2.585c1.015,1.846,8.864,8.494,8.864,8.494l5.732-2.861s-1.991-2.658-8.288-4.515c0,0-3.713-3.977-5.006-4.719A28.007,28.007,0,0,1,986.808,428.25Z" transform="translate(-777.87 -346.91)" fill="#797c9c"></path><path id="Path_475" data-name="Path 475" d="M991.808,433.25s-2.4,1.385-1.661,3.324a6.593,6.593,0,0,1,3.509,2.585c1.015,1.846,8.864,8.494,8.864,8.494l5.732-2.861s-1.991-2.658-8.288-4.515c0,0-3.713-3.977-5.006-4.719A28.012,28.012,0,0,1,991.808,433.25Z" transform="translate(-781.701 -350.741)" opacity="0.05"></path><path id="Path_476" data-name="Path 476" d="M103.259,720.614s-13.489,8.139,11.376,20.668c0,0,5.479-10.172-.578-18.465a8.167,8.167,0,0,0-10.6-2.321Z" transform="translate(-99.6 -569.991)" fill="#5685ec"></path><path id="Path_477" data-name="Path 477" d="M115.88,723.67s11.545,8.831,11.229,20.839" transform="translate(-112.067 -573.22)" fill="none" stroke="#535461" stroke-miterlimit="10" stroke-width="1"></path><path id="Path_478" data-name="Path 478" d="M161.185,663.38s-4.227-14.362.786-24.914a22.669,22.669,0,0,0,1.834-14.221,38.131,38.131,0,0,0-2.014-6.674" transform="translate(-145.497 -491.941)" fill="none" stroke="#535461" stroke-miterlimit="10" stroke-width="2"></path><path id="Path_479" data-name="Path 479" d="M161.758,578.57c0,1.759-3.184,6.859-3.184,6.859s-3.184-5.1-3.184-6.859a3.185,3.185,0,0,1,6.37,0Z" transform="translate(-142.334 -459.625)" fill="#6c63ff"></path><path id="Path_480" data-name="Path 480" d="M184.151,614.59c-.957,1.476-6.4,4.026-6.4,4.026s.1-6.012,1.055-7.486a3.184,3.184,0,0,1,5.346,3.462Z" transform="translate(-159.463 -485.894)" fill="#6c63ff"></path><path id="Path_481" data-name="Path 481" d="M179.379,682.059c-1.57.793-7.559.234-7.559.234s3.121-5.147,4.69-5.933a3.185,3.185,0,0,1,2.868,5.687Z" transform="translate(-154.92 -536.716)" fill="#6c63ff"></path><path id="Path_482" data-name="Path 482" d="M167,736.706c-1.4,1.046-7.409,1.518-7.409,1.518s2.206-5.593,3.621-6.639A3.185,3.185,0,1,1,167,736.706Z" transform="translate(-145.551 -578.805)" fill="#6c63ff"></path><path id="Path_483" data-name="Path 483" d="M145.988,631.433c1.261,1.226,7.14,2.5,7.14,2.5s-1.439-5.848-2.7-7.065a3.187,3.187,0,1,0-4.445,4.569Z" transform="translate(-134.387 -498.369)" fill="#6c63ff"></path><path id="Path_484" data-name="Path 484" d="M129.175,692.539c1.57.793,7.559.234,7.559.234s-3.121-5.147-4.69-5.933a3.185,3.185,0,0,0-2.868,5.687Z" transform="translate(-120.91 -544.745)" fill="#6c63ff"></path><path id="Path_485" data-name="Path 485" d="M125.232,756.606c1.4,1.046,7.409,1.518,7.409,1.518s-2.206-5.593-3.621-6.639a3.185,3.185,0,1,0-3.787,5.121Z" transform="translate(-118.242 -594.05)" fill="#6c63ff"></path><path id="Path_486" data-name="Path 486" d="M161.758,578.57c0,1.759-3.184,6.859-3.184,6.859s-3.184-5.1-3.184-6.859a3.185,3.185,0,0,1,6.37,0Z" transform="translate(-142.334 -459.625)" fill="#0606e2" opacity="0.25"></path><path id="Path_487" data-name="Path 487" d="M184.151,614.59c-.957,1.476-6.4,4.026-6.4,4.026s.1-6.012,1.055-7.486a3.184,3.184,0,0,1,5.346,3.462Z" transform="translate(-159.463 -485.894)" fill="#0606e2" opacity="0.25"></path><path id="Path_488" data-name="Path 488" d="M179.379,682.059c-1.57.793-7.559.234-7.559.234s3.121-5.147,4.69-5.933a3.185,3.185,0,0,1,2.868,5.687Z" transform="translate(-154.92 -536.716)" fill="#0606e2" opacity="0.25"></path><path id="Path_489" data-name="Path 489" d="M167,736.706c-1.4,1.046-7.409,1.518-7.409,1.518s2.206-5.593,3.621-6.639A3.185,3.185,0,1,1,167,736.706Z" transform="translate(-145.551 -578.805)" fill="#0606e2" opacity="0.25"></path><path id="Path_490" data-name="Path 490" d="M145.988,631.433c1.261,1.226,7.14,2.5,7.14,2.5s-1.439-5.848-2.7-7.065a3.187,3.187,0,1,0-4.445,4.569Z" transform="translate(-134.387 -498.369)" fill="#0606e2" opacity="0.25"></path><path id="Path_491" data-name="Path 491" d="M129.175,692.539c1.57.793,7.559.234,7.559.234s-3.121-5.147-4.69-5.933a3.185,3.185,0,0,0-2.868,5.687Z" transform="translate(-120.91 -544.745)" fill="#0606e2" opacity="0.25"></path><path id="Path_492" data-name="Path 492" d="M125.232,756.606c1.4,1.046,7.409,1.518,7.409,1.518s-2.206-5.593-3.621-6.639a3.185,3.185,0,1,0-3.787,5.121Z" transform="translate(-118.242 -594.05)" fill="#524bf8"></path><path id="Path_493" data-name="Path 493" d="M203,664.55s-4.227-14.352.793-24.915a22.668,22.668,0,0,0,1.834-14.221,38.131,38.131,0,0,0-2.014-6.674" transform="translate(-177.531 -492.837)" fill="none" stroke="#535461" stroke-miterlimit="10" stroke-width="2"></path><path id="Path_494" data-name="Path 494" d="M203.568,579.77c0,1.759-3.184,6.859-3.184,6.859s-3.184-5.1-3.184-6.859a3.185,3.185,0,1,1,6.37,0Z" transform="translate(-174.363 -460.544)" fill="#5685ec"></path><path id="Path_495" data-name="Path 495" d="M225.971,615.75c-.957,1.476-6.4,4.026-6.4,4.026s.1-6.012,1.055-7.486a3.184,3.184,0,0,1,5.346,3.462Z" transform="translate(-191.5 -486.783)" fill="#5685ec"></path><path id="Path_496" data-name="Path 496" d="M221.189,683.221c-1.57.793-7.559.234-7.559.234s3.121-5.147,4.69-5.933a3.19,3.19,0,0,1,2.868,5.7Z" transform="translate(-186.949 -537.607)" fill="#5685ec"></path><path id="Path_497" data-name="Path 497" d="M208.809,737.876c-1.4,1.046-7.409,1.518-7.409,1.518s2.206-5.594,3.621-6.639a3.185,3.185,0,0,1,3.787,5.121Z" transform="translate(-177.58 -579.702)" fill="#5685ec"></path><path id="Path_498" data-name="Path 498" d="M187.818,632.593c1.261,1.226,7.14,2.5,7.14,2.5s-1.439-5.848-2.7-7.065a3.187,3.187,0,1,0-4.445,4.569Z" transform="translate(-166.431 -499.258)" fill="#5685ec"></path><path id="Path_499" data-name="Path 499" d="M170.985,693.7c1.57.793,7.559.234,7.559.234s-3.121-5.147-4.69-5.933a3.185,3.185,0,0,0-2.868,5.687Z" transform="translate(-152.939 -545.633)" fill="#5685ec"></path><path id="Path_500" data-name="Path 500" d="M167.042,757.776c1.4,1.046,7.409,1.518,7.409,1.518s-2.206-5.594-3.621-6.639a3.185,3.185,0,0,0-3.787,5.121Z" transform="translate(-150.271 -594.946)" fill="#5685ec"></path><rect id="Rectangle_82" data-name="Rectangle 82" width="222.944" height="1.638" transform="translate(5.746 171.212)" fill="#5685ec"></rect><rect id="Rectangle_83" data-name="Rectangle 83" width="47.249" height="58.064" transform="translate(163.348 79.742)" fill="url(#linear-gradient)"></rect><rect id="Rectangle_84" data-name="Rectangle 84" width="45.765" height="56.241" transform="translate(164.089 80.654)" fill="#5685ec"></rect><rect id="Rectangle_85" data-name="Rectangle 85" width="9.358" height="9.358" transform="translate(167.163 85.59)" fill="#e8eaf1"></rect><rect id="Rectangle_86" data-name="Rectangle 86" width="33.219" height="1.872" transform="translate(171.842 100.562)" fill="#e8eaf1"></rect><rect id="Rectangle_87" data-name="Rectangle 87" width="33.219" height="1.872" transform="translate(171.842 104.539)" fill="#e8eaf1"></rect><rect id="Rectangle_88" data-name="Rectangle 88" width="33.219" height="1.872" transform="translate(171.842 108.516)" fill="#e8eaf1"></rect><rect id="Rectangle_89" data-name="Rectangle 89" width="33.219" height="1.872" transform="translate(171.842 112.493)" fill="#e8eaf1"></rect><rect id="Rectangle_90" data-name="Rectangle 90" width="33.219" height="1.872" transform="translate(171.842 116.47)" fill="#e8eaf1"></rect><rect id="Rectangle_91" data-name="Rectangle 91" width="33.219" height="1.872" transform="translate(171.842 120.447)" fill="#e8eaf1"></rect><rect id="Rectangle_92" data-name="Rectangle 92" width="33.219" height="1.872" transform="translate(171.842 124.424)" fill="#e8eaf1"></rect><path id="Path_501" data-name="Path 501" d="M1045.466,764.89s.276,4.061.739,4.524-4.155.739-4.155.739l.646-5.264Z" transform="translate(-821.57 -604.797)" fill="#ffb9b9"></path><path id="Path_502" data-name="Path 502" d="M1045.466,764.89s.276,4.061.739,4.524-4.155.739-4.155.739l.646-5.264Z" transform="translate(-821.57 -604.797)" opacity="0.05"></path><path id="Path_503" data-name="Path 503" d="M1024.727,774.074a8.871,8.871,0,0,0-2.955,1.2,3.2,3.2,0,0,1-2.215-2.494s-1.939,3.324-3.231,3.509-3.785.37-2.124,2.585,11.449,1.2,11.449,1.2S1025.925,774.719,1024.727,774.074Z" transform="translate(-799.813 -610.841)" fill="#e4e2f3"></path><path id="Path_504" data-name="Path 504" d="M1024.727,774.074a8.871,8.871,0,0,0-2.955,1.2,3.2,3.2,0,0,1-2.215-2.494s-1.939,3.324-3.231,3.509-3.785.37-2.124,2.585,11.449,1.2,11.449,1.2S1025.925,774.719,1024.727,774.074Z" transform="translate(-799.813 -610.841)" opacity="0.05"></path><path id="Path_505" data-name="Path 505" d="M1039.052,780.69l-.646,1.755-4.246-1.2.234-1.74.058-.421.161-1.17s3.6-.924,3.6-.468a7.175,7.175,0,0,0,.234,1.125c.147.568.332,1.214.468,1.638C1039,780.506,1039.052,780.69,1039.052,780.69Z" transform="translate(-815.525 -614.319)" fill="#ffb9b9"></path><path id="Path_506" data-name="Path 506" d="M1028.983,617.4a2.524,2.524,0,0,0,0,2.573,4.474,4.474,0,0,0,.664.919c2.031,2.215,2.585,7.2,2.585,7.2v8.031l-1.385.105-2.215.171-3.324-13.664s-1.939-9.97-1.015-11.725,1.755-12.74,1.755-12.74l.767-.793,1.818-1.883h5.264a3.539,3.539,0,0,1,1.025,1.144c.884,1.462,1.677,4.5-.746,10.118-3.785,8.77-4.894,10.155-4.894,10.155a2.125,2.125,0,0,0-.3.388Z" transform="translate(-807.775 -475.103)" fill="#4c4c78"></path><path id="Path_507" data-name="Path 507" d="M1029.113,617.225a2.524,2.524,0,0,0,0,2.573,4.471,4.471,0,0,0,.664.919c2.031,2.215,2.585,7.2,2.585,7.2v8.031l-1.385.105-2.215.171-3.324-13.664s-1.939-9.971-1.015-11.725,1.755-12.74,1.755-12.74l.767-.793,1.818-1.883h5.264a3.539,3.539,0,0,1,1.025,1.144c.884,1.462,1.677,4.5-.746,10.118-3.785,8.77-4.894,10.155-4.894,10.155A2.125,2.125,0,0,0,1029.113,617.225Z" transform="translate(-807.875 -474.973)" opacity="0.05"></path><path id="Path_508" data-name="Path 508" d="M1039.438,778.583l-4,.5.161-1.17s3.6-.924,3.6-.468a7.15,7.15,0,0,0,.236,1.137Z" transform="translate(-816.506 -614.319)" opacity="0.1"></path><path id="Path_509" data-name="Path 509" d="M1011.739,601.04s.234,7.268.267,11.835v2.573a5.692,5.692,0,0,1-.075,1.013,6.45,6.45,0,0,0,.276,2.676,26.647,26.647,0,0,1,1.661,11.449v4.061l-4.431.554s.739-.554-1.294-5.909a23.338,23.338,0,0,1-1.425-8.1,8.668,8.668,0,0,0-.648-3.205,3.954,3.954,0,0,1-.234-1.067,21.191,21.191,0,0,0-1.015-4.155,68.825,68.825,0,0,1-2.77-11.355,26.433,26.433,0,0,1,.129-6.868,17.143,17.143,0,0,1,.332-1.717s9.025-5.68,12.434-1.755a4.446,4.446,0,0,1,.77,1.294,8.536,8.536,0,0,1,.435,1.439C1017.211,599.01,1011.739,601.04,1011.739,601.04Z" transform="translate(-790.803 -470.583)" fill="#4c4c78"></path><circle id="Ellipse_57" data-name="Ellipse 57" cx="4.709" cy="4.709" r="4.709" transform="translate(215.954 80.603)" fill="#ffb9b9"></circle><path id="Path_510" data-name="Path 510" d="M1030.8,448.443s1.939,5.446,0,8.309,6.185,1.939,6.185,1.939l3.139-3.785s-3.694,0-3.879-6.464S1030.8,448.443,1030.8,448.443Z" transform="translate(-812.723 -360.178)" fill="#ffb9b9"></path><path id="Path_511" data-name="Path 511" d="M1019.149,593.278a12.115,12.115,0,0,1-2.056.515,4.2,4.2,0,0,1-3.3-.515c-.468-.414-1.638-.468-3.02-.332a51.777,51.777,0,0,0-7.654,1.588,17.133,17.133,0,0,1,.332-1.717s9.025-5.68,12.434-1.755h1.97a3.538,3.538,0,0,1,1.025,1.144C1019.051,592.941,1019.149,593.278,1019.149,593.278Z" transform="translate(-791.747 -470.575)" opacity="0.1"></path><path id="Path_512" data-name="Path 512" d="M1039.052,787.846l-.646,1.754-4.246-1.2.234-1.741a2.992,2.992,0,0,0,1.974,1.834,15.058,15.058,0,0,1,2.541-1.114C1039,787.661,1039.052,787.846,1039.052,787.846Z" transform="translate(-815.525 -621.474)" opacity="0.1"></path><path id="Path_513" data-name="Path 513" d="M1019.977,785.524a8.871,8.871,0,0,0-2.955,1.2,3.2,3.2,0,0,1-2.215-2.494s-1.939,3.324-3.231,3.509-3.785.37-2.124,2.585,11.449,1.2,11.449,1.2S1021.177,786.169,1019.977,785.524Z" transform="translate(-796.175 -619.613)" fill="#e4e2f3"></path><path id="Path_514" data-name="Path 514" d="M962.62,438.376a3.416,3.416,0,0,1,3.958-3.245.646.646,0,0,1,.51.936l-.774,1.457Z" transform="translate(-760.721 -352.163)" fill="#ffb9b9"></path><path id="Path_515" data-name="Path 515" d="M984.486,453.126s-4.524-.739-5.724-1.661a1.868,1.868,0,0,1-2.585.83c-1.661-.924-5.54-.83-5.54-.83a8.373,8.373,0,0,1-3.879-5.725,11.353,11.353,0,0,1-.468-3.041s-2.4-2.494-3.6.83c.468,2.309.83,2.124.739,3.977l1.476,4.061s.091,1.385,2.77,3.231a59.232,59.232,0,0,1,5.724,4.709s-1.617.877-1.015,4.894c.735,4.913-.37,11.91-.37,11.91v4.524s9.234-2.676,10.8-1.294,5.355,0,5.355,0a51.583,51.583,0,0,1-1.109-5.355,23.47,23.47,0,0,1,.091-7.486s2.4-6.37,3.509-8.955-.831-6.082-2.77-7.385-2.66-.517-2.66-.517S988.641,452.3,984.486,453.126Z" transform="translate(-760.775 -357.292)" fill="#797c9c"></path><path id="Path_516" data-name="Path 516" d="M1005.15,544.37s.737-.178,4.428-.732,10.155.739,10.155.739" transform="translate(-793.302 -435.199)" opacity="0.05"></path><path id="Path_517" data-name="Path 517" d="M1018.185,416.517a3.281,3.281,0,0,1,2.73,4.515c-.409.823-1.2,1.549-1.121,2.463a8.914,8.914,0,0,0,.356,1.2c.442,1.872-1.8,3.624-1.284,5.472a3.952,3.952,0,0,0,.8,1.34l3.888,4.9a3.681,3.681,0,0,1,.58.9,3.786,3.786,0,0,1,.168,1.439c-.019,2.339.133,4.85,1.514,6.747a6.2,6.2,0,0,0,7.554,1.827,3.907,3.907,0,0,1-.936-3.041c.344-1.2,1.705-1.748,2.491-2.711a5.293,5.293,0,0,0,.7-4.307,26.008,26.008,0,0,1-.828-4.421c-.019-2.44,1.23-5.275-.414-7.077a7.877,7.877,0,0,1-1.158-1.2,2.722,2.722,0,0,1-.29-1.352c-.026-2.845,1.483-5.739.578-8.436a2.866,2.866,0,0,0-1.036-1.5c-1.282-.863-3.06-.026-4.543-.468-.7-.2-1.28-.676-1.965-.908-1.848-.625-3.558.629-4.836,1.832a14.732,14.732,0,0,1-1.687,1.273C1019.539,414.952,1017.366,416.5,1018.185,416.517Z" transform="translate(-803.146 -334.255)" opacity="0.1"></path><path id="Path_518" data-name="Path 518" d="M1019.185,416.517a3.281,3.281,0,0,1,2.73,4.515c-.409.823-1.2,1.549-1.12,2.463a8.9,8.9,0,0,0,.355,1.2c.442,1.872-1.8,3.624-1.284,5.472a3.95,3.95,0,0,0,.8,1.34l3.888,4.9a3.682,3.682,0,0,1,.58.9,3.784,3.784,0,0,1,.168,1.439c-.019,2.339.133,4.85,1.514,6.747a6.2,6.2,0,0,0,7.554,1.827,3.907,3.907,0,0,1-.936-3.041c.344-1.2,1.705-1.748,2.491-2.711a5.293,5.293,0,0,0,.7-4.307,26.008,26.008,0,0,1-.828-4.421c-.019-2.44,1.23-5.275-.414-7.077a7.877,7.877,0,0,1-1.158-1.2,2.722,2.722,0,0,1-.29-1.352c-.026-2.845,1.483-5.739.578-8.436a2.866,2.866,0,0,0-1.036-1.5c-1.282-.863-3.06-.026-4.543-.468-.7-.2-1.28-.676-1.965-.908-1.848-.625-3.558.629-4.836,1.832a14.72,14.72,0,0,1-1.687,1.273C1020.539,414.952,1018.366,416.5,1019.185,416.517Z" transform="translate(-803.912 -334.255)" fill="#b36362"></path><path id="Path_519" data-name="Path 519" d="M642.5,469.8a8.116,8.116,0,0,1-1.383-1.7,6.158,6.158,0,0,0-3.093-2.3v-.414h.056l-.026-.384h.026l-.066-1.015h0l-.33-5.072a7.836,7.836,0,0,1,.912-6.51c2.105-3.111.131-6.1-1.848-7.264,0,0-.936-4.929-.131-6.1a33.992,33.992,0,0,0-3.322-1.691q-.026-.091-.049-.187c-.021-.468-.049-.919-.075-1.378a5.037,5.037,0,0,1,.131-.7q.039-.144.084-.295a5.06,5.06,0,0,0,3.231-4.693,4.969,4.969,0,0,0-.314-1.74,2.216,2.216,0,0,0,.234-.552,2.253,2.253,0,0,0-.313-1.619,5.838,5.838,0,0,0-2.807-2.629,10.938,10.938,0,0,0-4.871-.257c-.8.1-1.719.367-2.01,1.109a7.687,7.687,0,0,0-.182.854c-.3,1.132-1.6,1.661-2.4,2.527A6.031,6.031,0,0,0,622.7,430.6a25.921,25.921,0,0,0-.468,8.812c.082.678.19,1.352.3,2.026a5.754,5.754,0,0,0-.718,3.977l-1.584,7.523-.66,4.41a3.855,3.855,0,0,0,1.188,3.373,29.7,29.7,0,0,1,2.992,3.757,8.948,8.948,0,0,0-.482,2.99c.016.468.042.91.075,1.336a11.889,11.889,0,0,0,.505,2.644,18.841,18.841,0,0,0,1.268,5.615l.264,7.912s-.4,7.264-1.188,8.691,1.717,13.491,1.717,13.491v1.687l-.423,1.235-.105-.08c-1.981,2.466,0,3.373,0,3.373s.538.026,1.4.058a1.593,1.593,0,0,0,.844,1.757s11.229.519,13.208,0,1.453-2.339.4-2.206a4.83,4.83,0,0,1-1.581-.208.925.925,0,0,0-.662-1.607,10.834,10.834,0,0,1-3.434-.812v.016a1.78,1.78,0,0,0-.234-.07,26.5,26.5,0,0,1-2.613-.737c-.51-1.092-1.684-4.031-.842-6.316a11.343,11.343,0,0,0,.505-3.729,42.592,42.592,0,0,1,1.738-11.833l1.584-5.444s2.246-6.616,2.377-8.422l-.019-2.648a3.844,3.844,0,0,0,4.274.278,1.018,1.018,0,0,0,.164-1.652Zm-17.627-13.76c.044-.19.082-.4.115-.615h.936a4.819,4.819,0,0,1,.468,2.552C625.674,457.744,624.6,457.187,624.871,456.041Z" transform="translate(-497.901 -343.009)" fill="url(#linear-gradient-4)"></path><path id="Path_520" data-name="Path 520" d="M646.038,783.5l-.508,1.525,1.652,1.652,5.465,1.27,3.94-.381-.255-1.4h0a1.687,1.687,0,0,0-1.252-1.23c-1.619-.381-4.707-1.247-5.357-2.454Z" transform="translate(-517.811 -618.272)" fill="#db8b8b"></path><path id="Path_521" data-name="Path 521" d="M646.038,783.5l-.508,1.525,1.652,1.652,5.465,1.27,3.94-.381-.255-1.4h0a1.687,1.687,0,0,0-1.252-1.23c-1.619-.381-4.707-1.247-5.357-2.454Z" transform="translate(-517.811 -618.272)" opacity="0.1"></path><path id="Path_522" data-name="Path 522" d="M652.533,794.314l-.763-1.018.763-1.17a10.208,10.208,0,0,0,3.3.8c1.015-.129,1.525,1.652-.381,2.162s-12.71,0-12.71,0-1.907-.889,0-3.3l1.652,1.27s2.807,1.525,4.194,1.27Z" transform="translate(-515.028 -625.397)" fill="#474463"></path><path id="Path_523" data-name="Path 523" d="M665.811,795.209l-3.94.381-5.46-1.28-1.652-1.638.136-.4.19-.566.185-.554,3.685-1.018a2.282,2.282,0,0,0,.746.749,15.969,15.969,0,0,0,4.609,1.705,1.335,1.335,0,0,1,.157.047,1.68,1.68,0,0,1,1.095,1.184Z" transform="translate(-524.882 -624.133)" fill="#db8b8b"></path><path id="Path_524" data-name="Path 524" d="M665.811,802.211l-3.94.381-5.46-1.28-1.652-1.638.136-.4,1.518,1.17s2.807,1.525,4.195,1.27h3.939l-.763-1.018.685-1.057a1.68,1.68,0,0,1,1.095,1.184Z" transform="translate(-524.882 -631.134)" opacity="0.1"></path><path id="Path_525" data-name="Path 525" d="M661.763,801.914,661,800.9l.763-1.17a10.208,10.208,0,0,0,3.3.8c1.015-.129,1.525,1.652-.381,2.162s-12.71,0-12.71,0-1.907-.889,0-3.3l1.652,1.27s2.807,1.525,4.194,1.27Z" transform="translate(-522.099 -631.219)" fill="#474463"></path><path id="Path_526" data-name="Path 526" d="M663.021,473.065s-6.1.636-5.21-1.907a4.576,4.576,0,0,0,.187-2.243,6.221,6.221,0,0,0-1.078-2.585l5.72.889a7.163,7.163,0,0,0-.774,1.836A3.743,3.743,0,0,0,663.021,473.065Z" transform="translate(-526.537 -376.082)" fill="#db8b8b"></path><path id="Path_527" data-name="Path 527" d="M638.46,619s.126,5.465,1.4,8.134l.255,7.753s-.381,7.116-1.144,8.516,1.652,13.217,1.652,13.217v2.033s4.061,1.521,5.212-.257l-1.144-15.124.508-20.97Z" transform="translate(-512.395 -493.036)" fill="#474463"></path><path id="Path_528" data-name="Path 528" d="M638.46,619s.126,5.465,1.4,8.134l.255,7.753s-.381,7.116-1.144,8.516,1.652,13.217,1.652,13.217v2.033s4.061,1.521,5.212-.257l-1.144-15.124.508-20.97Z" transform="translate(-512.395 -493.036)" opacity="0.1"></path><path id="Path_529" data-name="Path 529" d="M622.894,544l-.763,2.033-.636,4.321a3.823,3.823,0,0,0,1.144,3.3,36.342,36.342,0,0,1,3.558,4.7l2.414-7.252s-2.414-.381-2.033-2.033a23.639,23.639,0,0,0,.255-4.7Z" transform="translate(-499.369 -435.582)" fill="#cbcdda"></path><path id="Path_530" data-name="Path 530" d="M622.894,543l-.763,2.033-.636,4.321a3.823,3.823,0,0,0,1.144,3.3,36.342,36.342,0,0,1,3.558,4.7l2.414-7.252s-2.414-.381-2.033-2.033a23.639,23.639,0,0,0,.255-4.7Z" transform="translate(-499.369 -434.816)" opacity="0.05"></path><path id="Path_531" data-name="Path 531" d="M660.758,790.851c-1.638,2.573-4.166,1.111-4.618.821l.185-.554,3.685-1.018A2.282,2.282,0,0,0,660.758,790.851Z" transform="translate(-525.939 -624.11)" opacity="0.1"></path><path id="Path_532" data-name="Path 532" d="M651.06,593.976c-.126,1.78-2.288,8.26-2.288,8.26l-1.523,5.334a42.436,42.436,0,0,0-1.675,11.6,11.285,11.285,0,0,1-.487,3.652c-1.018,2.807,1.018,6.609,1.018,6.609-1.78,3.177-4.828,1.018-4.828,1.018v-2.033s-2.414-11.056-1.78-13.218a52.979,52.979,0,0,0,.889-8.008V596.646a11.971,11.971,0,0,1-3.488-7.589c-.03-.416-.054-.854-.07-1.308-.1-2.868,1.857-6.23,2.622-7.428.185-.29.3-.451.3-.451l11.229,4.445H651v1.4Z" transform="translate(-511.141 -463.06)" fill="#474463"></path><path id="Path_533" data-name="Path 533" d="M662.65,467.219a7.163,7.163,0,0,0-.774,1.836,4.974,4.974,0,0,1-3.867-.14,6.219,6.219,0,0,0-1.078-2.585Z" transform="translate(-526.544 -376.082)" opacity="0.1"></path><circle id="Ellipse_58" data-name="Ellipse 58" cx="4.957" cy="4.957" r="4.957" transform="translate(128.606 83.129)" fill="#db8b8b"></circle><path id="Path_534" data-name="Path 534" d="M658.144,585.716h-.054c-5.329,1.095-12.02-4.459-12.02-4.459a6.589,6.589,0,0,0,.468-.936c.185-.29.3-.451.3-.451l11.229,4.445.028.444Z" transform="translate(-518.225 -463.06)" opacity="0.1"></path><path id="Path_535" data-name="Path 535" d="M640.1,484.838s-7.116-4.321-9.4-2.543l-3.177,4.066s-2.033.636-1.652,4.7l-1.525,7.371,4.576,1.144a5,5,0,0,1,.508,6.227s6.735,5.591,12.074,4.445l-.393-5.968a7.738,7.738,0,0,1,.889-6.354,4.966,4.966,0,0,0-1.78-7.116C640.227,490.812,639.336,485.981,640.1,484.838Z" transform="translate(-501.578 -387.983)" fill="#cbcdda"></path><path id="Path_536" data-name="Path 536" d="M689.057,605.4a6.554,6.554,0,0,1,3.94,2.543,7.921,7.921,0,0,0,1.331,1.661,1.008,1.008,0,0,1-.157,1.607c-1.008.606-2.653.98-4.73-.727C685.88,607.562,689.057,605.4,689.057,605.4Z" transform="translate(-550.156 -482.618)" fill="#db8b8b"></path><path id="Path_537" data-name="Path 537" d="M660.247,504.587s-2.543-.255-3.177,6.354-1.652,8.134-1.652,8.134-.636,3.432.889,5.465,4.445,6.354,4.445,6.354,3.177.889,3.813-2.288l-3.939-7.371a5.288,5.288,0,0,1,.889-4.321C663.041,515.135,664.187,503.314,660.247,504.587Z" transform="translate(-525.286 -405.316)" opacity="0.1"></path><path id="Path_538" data-name="Path 538" d="M661.338,502.957s-2.543-.255-3.177,6.354-1.652,8.134-1.652,8.134-.636,3.432.889,5.465,4.445,6.354,4.445,6.354,3.177.889,3.813-2.288l-3.94-7.371a5.276,5.276,0,0,1,.889-4.311C664.128,513.522,665.277,501.685,661.338,502.957Z" transform="translate(-526.121 -404.067)" fill="#cbcdda"></path><path id="Path_539" data-name="Path 539" d="M680.819,523.64s.255,3.94-.889,6.1-1.144,4.957,0,6.482" transform="translate(-543.507 -419.985)" opacity="0.1"></path><path id="Path_540" data-name="Path 540" d="M662.624,495.922s-1.018-1.018-3.94-1.144a8.418,8.418,0,0,1-4.195-1.018" transform="translate(-524.675 -397.095)" opacity="0.1"></path><path id="Path_541" data-name="Path 541" d="M632.962,429.235c-.772.1-1.654.36-1.932,1.085a7.652,7.652,0,0,0-.175.837c-.288,1.111-1.537,1.638-2.309,2.475a5.912,5.912,0,0,0-1.2,2.751,25.846,25.846,0,0,0-.447,8.635c.248,2.105.756,4.183.9,6.3a9.977,9.977,0,0,1-1.275,6.122,15.234,15.234,0,0,0-1.507,2.279,4.35,4.35,0,0,0,2.674.7q1.638.056,3.275,0a3.5,3.5,0,0,0,1.668-.346,2.573,2.573,0,0,0,.875-.936,6.713,6.713,0,0,0,.756-3.568c-.028-1.228-.222-2.454-.234-3.687a3.226,3.226,0,0,1,.426-1.932,6.179,6.179,0,0,1,1.064-.985,6.73,6.73,0,0,0,1.872-4.957c.044-1.818-.255-3.638-.1-5.448.061-.7.325-1.56,1.022-1.7a3.926,3.926,0,0,0,.664-.084c.559-.215.505-1,.664-1.581.18-.648.732-1.149.889-1.8.365-1.537-1.591-3.373-2.873-3.909A10.371,10.371,0,0,0,632.962,429.235Z" transform="translate(-502.091 -347.553)" opacity="0.1"></path><path id="Path_542" data-name="Path 542" d="M632.462,428.142c-.772.1-1.654.36-1.932,1.085a7.666,7.666,0,0,0-.175.838c-.288,1.111-1.537,1.638-2.309,2.475a5.912,5.912,0,0,0-1.2,2.751,25.846,25.846,0,0,0-.447,8.635c.248,2.105.756,4.183.9,6.3a9.977,9.977,0,0,1-1.275,6.122,15.233,15.233,0,0,0-1.507,2.279,4.35,4.35,0,0,0,2.674.7q1.638.056,3.275,0a3.5,3.5,0,0,0,1.668-.346,2.573,2.573,0,0,0,.875-.936,6.713,6.713,0,0,0,.756-3.568c-.028-1.228-.222-2.454-.234-3.687a3.225,3.225,0,0,1,.426-1.932,6.177,6.177,0,0,1,1.064-.985,6.731,6.731,0,0,0,1.871-4.957c.044-1.818-.255-3.638-.1-5.448.061-.7.325-1.56,1.022-1.7a3.928,3.928,0,0,0,.664-.084c.559-.215.505-1,.664-1.581.18-.648.732-1.149.889-1.8.365-1.537-1.591-3.373-2.873-3.909A10.352,10.352,0,0,0,632.462,428.142Z" transform="translate(-501.708 -346.715)" fill="#472727"></path></g></svg> 