<?xml version="1.0" encoding="UTF-8"?> <svg xmlns="http://www.w3.org/2000/svg" width="97.244" height="97.829" viewBox="0 0 97.244 97.829"><path id="Union_2" data-name="Union 2" d="M19865.137,9273.9a1.424,1.424,0,0,1-.5-2.338l7.3-7.307-1.6-3.746-3.615-1.486-7.311,7.315a1.429,1.429,0,0,1-2.344-.5,14.029,14.029,0,0,1,17.867-18.223l26.039-26.039-.34-.586a25.212,25.212,0,0,1-2.924-7.071h-1.924a3.944,3.944,0,0,1-3.941-3.936v-4.427a3.945,3.945,0,0,1,3.941-3.941h1.924a25.281,25.281,0,0,1,2.943-7.105l-1.361-1.362a3.938,3.938,0,0,1,0-5.568l3.129-3.13a3.938,3.938,0,0,1,5.568,0l1.367,1.362a25.243,25.243,0,0,1,7.1-2.944v-1.923a3.945,3.945,0,0,1,3.941-3.941h4.426a3.945,3.945,0,0,1,3.941,3.941v1.923a25.314,25.314,0,0,1,7.1,2.944l1.361-1.362a3.946,3.946,0,0,1,5.574,0l3.129,3.13a3.938,3.938,0,0,1,0,5.568l-1.361,1.362a25.454,25.454,0,0,1,2.943,7.105h1.924a3.946,3.946,0,0,1,3.941,3.941v4.427a3.945,3.945,0,0,1-3.941,3.936h-1.924a25.472,25.472,0,0,1-2.943,7.106l1.361,1.361a3.931,3.931,0,0,1,0,5.569l-3.129,3.135a3.949,3.949,0,0,1-5.574,0l-1.357-1.367a25.372,25.372,0,0,1-7.105,2.944v1.928a3.941,3.941,0,0,1-3.941,3.936h-4.426a3.941,3.941,0,0,1-3.941-3.936v-1.928a25.462,25.462,0,0,1-6.906-2.824l-17.332,17.326a1.427,1.427,0,0,1-2.018-2.019l26.611-26.6a1.423,1.423,0,0,1,1.588-.295,11.177,11.177,0,0,0,15.568-11.993l-6.266,6.265a1.423,1.423,0,0,1-1.572.3l-5.152-2.233a1.407,1.407,0,0,1-.752-.756l-2.088-5.013v0s0-.01-.01-.015,0-.011,0-.011a.016.016,0,0,0-.006-.015v-.015c-.006,0-.006-.011-.01-.011v-.01c-.006,0-.006-.015-.01-.02v0c0-.011-.006-.016-.006-.021v-.01s0-.01-.01-.016v0a.134.134,0,0,0,0-.02l-.006-.011v-.015c-.006,0-.006,0-.006-.01s0-.016,0-.021v0s-.006-.01-.006-.02v0c0-.006,0-.016,0-.021v0a.033.033,0,0,1-.006-.021v-.01a.021.021,0,0,0,0-.015v-.01a.033.033,0,0,0-.006-.021v-.03c0-.01-.006-.015-.006-.02v-.025s0,0,0-.01v-.211a.021.021,0,0,0,0-.015v-.025s.006-.01.006-.01v-.045c.006,0,.006,0,.006-.01v-.016s0,0,0-.01v-.015s0-.01.006-.01V9204a.019.019,0,0,1,0-.01v-.016s0-.01.006-.01v-.02s0,0,0,0a.017.017,0,0,1,.006-.016v-.015a.019.019,0,0,1,.006-.016.017.017,0,0,1,0-.01v-.01s.006-.01.006-.015a.019.019,0,0,1,0-.011v-.015a.016.016,0,0,0,.006-.015l0-.006s.006-.01.006-.02a.017.017,0,0,1,0-.01s.006,0,.006-.011v-.01c.006,0,.006-.01.01-.015a.018.018,0,0,1,.006-.016.017.017,0,0,1,0-.01.016.016,0,0,1,.006-.015.021.021,0,0,1,0-.011s0,0,.006-.01a.016.016,0,0,1,.006-.015s0,0,0-.01a.017.017,0,0,1,.006-.011.017.017,0,0,0,0-.01.016.016,0,0,0,.006-.015.012.012,0,0,0,0-.011c.006,0,.006-.01.01-.015s.006,0,.006-.01.006-.01.006-.01a.025.025,0,0,0,0-.016c.006,0,.006,0,.01-.01s.006,0,.006-.01a.023.023,0,0,1,.01-.016.005.005,0,0,1,.006,0s0-.01,0-.015.006-.011.01-.011.006-.01.006-.015l.01-.01s.006,0,.006-.01,0-.006,0-.011l.01-.01a.014.014,0,0,0,.006-.01s.01-.01.01-.016,0,0,.01,0,.006-.01.01-.015,0,0,.006-.01l.01-.011s0,0,0-.01.006-.01.012-.01.01-.01.01-.015,0-.006.01-.006a.279.279,0,0,1,.029-.035s0,0,.006-.01l0,0c.01-.01.021-.02.031-.03l6.264-6.265a11.175,11.175,0,0,0-11.988,15.564,1.425,1.425,0,0,1-.295,1.587l-36.141,36.141a1.42,1.42,0,0,1-1.588.295,11.177,11.177,0,0,0-15.568,11.993l6.25-6.249a1.428,1.428,0,0,1,1.547-.311l5.033,2.073a1.439,1.439,0,0,1,.771.756l2.207,5.173a1.421,1.421,0,0,1-.3,1.567l-6.244,6.245a11.173,11.173,0,0,0,11.988-15.569,1.428,1.428,0,0,1,.295-1.587l5.5-5.494a1.426,1.426,0,0,1,2.014,2.019l-4.828,4.832a14.029,14.029,0,0,1-18.223,17.862Zm46.506-46.146a22.741,22.741,0,0,0,6.135,2.294,1.954,1.954,0,0,1,1.537,1.9v2.649a1.087,1.087,0,0,0,1.088,1.087h4.426a1.089,1.089,0,0,0,1.086-1.087v-2.649a1.954,1.954,0,0,1,1.539-1.9,22.567,22.567,0,0,0,7.5-3.109,1.952,1.952,0,0,1,2.428.26l1.873,1.873a1.085,1.085,0,0,0,1.537,0l3.131-3.13a1.082,1.082,0,0,0,0-1.537l-1.873-1.873a1.953,1.953,0,0,1-.256-2.429,22.644,22.644,0,0,0,3.105-7.5,1.952,1.952,0,0,1,1.9-1.538h2.65a1.089,1.089,0,0,0,1.086-1.086v-4.427a1.086,1.086,0,0,0-1.086-1.087h-2.65a1.951,1.951,0,0,1-1.9-1.537,22.607,22.607,0,0,0-3.105-7.5,1.953,1.953,0,0,1,.256-2.429l1.873-1.877a1.08,1.08,0,0,0,0-1.533l-3.131-3.13a1.086,1.086,0,0,0-1.537,0l-1.873,1.873a1.951,1.951,0,0,1-2.428.256,22.638,22.638,0,0,0-7.5-3.1,1.96,1.96,0,0,1-1.539-1.9v-2.644a1.089,1.089,0,0,0-1.086-1.092h-4.426a1.09,1.09,0,0,0-1.088,1.092v2.648a1.959,1.959,0,0,1-1.537,1.9,22.621,22.621,0,0,0-7.5,3.1,1.955,1.955,0,0,1-2.43-.256l-1.871-1.873a1.089,1.089,0,0,0-1.539,0l-3.129,3.13a1.086,1.086,0,0,0,0,1.538l1.873,1.872a1.961,1.961,0,0,1,.26,2.429,22.533,22.533,0,0,0-3.109,7.5,1.953,1.953,0,0,1-1.9,1.537h-2.648a1.084,1.084,0,0,0-1.086,1.087v4.427a1.087,1.087,0,0,0,1.086,1.086h2.645a1.955,1.955,0,0,1,1.9,1.538,22.665,22.665,0,0,0,2.725,6.885l2.674-2.674a19.151,19.151,0,1,1,35.869-11.527,1.426,1.426,0,1,1-2.828.365,16.3,16.3,0,1,0-30.918,9.034l1.893-1.888a14.025,14.025,0,0,1,18.223-17.862,1.421,1.421,0,0,1,.5,2.338l-1.437,1.442,3.281.986a1.413,1.413,0,0,1,.955.957l.986,3.28,1.443-1.442a1.425,1.425,0,0,1,2.338.5,14.027,14.027,0,0,1-17.867,18.223l-1.652,1.657a16.307,16.307,0,0,0,22.094-11.974,1.426,1.426,0,0,1,2.8.546,19.154,19.154,0,0,1-27.057,13.591Zm9.51-23.155,1.488,3.48,3.75,1.723,2.889-2.884.682-.682-1.207-4.021-4.016-1.2Zm.045,65.881a2.141,2.141,0,0,1-2.143-2.139v-.8a11.267,11.267,0,0,1-1.287-.531l-.561.566a2.141,2.141,0,0,1-3.025,0l-2.488-2.489a2.137,2.137,0,0,1,0-3.024l.566-.565a12.261,12.261,0,0,1-.537-1.282h-.795a2.142,2.142,0,0,1-2.139-2.144v-3.515a2.142,2.142,0,0,1,2.139-2.144h.795a12.261,12.261,0,0,1,.537-1.282l-.566-.565a2.138,2.138,0,0,1,0-3.025l2.488-2.488a2.141,2.141,0,0,1,3.025,0l.561.565a11.44,11.44,0,0,1,1.287-.53v-.8a2.141,2.141,0,0,1,2.143-2.138h3.516a2.137,2.137,0,0,1,2.139,2.138v.8a10.735,10.735,0,0,1,1.287.53l.566-.565a2.138,2.138,0,0,1,3.023,0l2.488,2.488a2.145,2.145,0,0,1,0,3.025l-.564.565a11.8,11.8,0,0,1,.529,1.282h.8a2.145,2.145,0,0,1,2.139,2.144v3.515a2.146,2.146,0,0,1-2.139,2.144h-.8a11.8,11.8,0,0,1-.529,1.282l.564.565a2.144,2.144,0,0,1,0,3.024l-2.488,2.489a2.138,2.138,0,0,1-3.023,0l-.566-.566a10.582,10.582,0,0,1-1.287.531v.8a2.137,2.137,0,0,1-2.139,2.139Zm-2.939-6.45a9,9,0,0,0,2.559,1.062,1.423,1.423,0,0,1,1.092,1.383v1.156H19924v-1.156a1.425,1.425,0,0,1,1.092-1.383,9,9,0,0,0,2.559-1.062,1.426,1.426,0,0,1,1.748.211l.816.811,1.477-1.477-.811-.816a1.416,1.416,0,0,1-.211-1.748,8.877,8.877,0,0,0,1.057-2.559,1.433,1.433,0,0,1,1.387-1.092h1.152v-2.093h-1.152a1.433,1.433,0,0,1-1.387-1.092,8.9,8.9,0,0,0-1.057-2.56,1.43,1.43,0,0,1,.211-1.752l.811-.812-1.477-1.478-.816.812a1.424,1.424,0,0,1-1.748.21,8.917,8.917,0,0,0-2.559-1.062,1.42,1.42,0,0,1-1.092-1.382v-1.157h-2.094v1.157a1.417,1.417,0,0,1-1.092,1.382,8.917,8.917,0,0,0-2.559,1.062,1.43,1.43,0,0,1-1.752-.21l-.811-.812-1.479,1.478.813.812a1.43,1.43,0,0,1,.209,1.752,8.9,8.9,0,0,0-1.061,2.56,1.426,1.426,0,0,1-1.383,1.092h-1.156v2.093h1.156a1.426,1.426,0,0,1,1.383,1.092,8.887,8.887,0,0,0,1.061,2.559,1.423,1.423,0,0,1-.209,1.748l-.812.816,1.479,1.477.811-.811a1.431,1.431,0,0,1,1.752-.211Zm-2.242-7.717a6.94,6.94,0,1,1,6.939,6.941A6.947,6.947,0,0,1,19916.016,9256.312Zm2.854,0a4.086,4.086,0,1,0,4.086-4.091A4.09,4.09,0,0,0,19918.869,9256.312Zm-47.5-33a2.144,2.144,0,0,1-2.143-2.138v-.8a11.828,11.828,0,0,1-1.281-.53l-.566.565a2.141,2.141,0,0,1-3.025,0l-2.488-2.489a2.137,2.137,0,0,1,0-3.024l.566-.565a10.807,10.807,0,0,1-.531-1.287h-.8a2.14,2.14,0,0,1-2.139-2.139v-3.52a2.141,2.141,0,0,1,2.139-2.139h.8a11.082,11.082,0,0,1,.531-1.282l-.566-.565a2.144,2.144,0,0,1,0-3.03l2.488-2.483a2.141,2.141,0,0,1,3.025,0l.566.566a11.672,11.672,0,0,1,1.281-.536v-.8a2.14,2.14,0,0,1,2.139-2.139h3.52a2.137,2.137,0,0,1,2.139,2.139v.8a11.452,11.452,0,0,1,1.287.536l.566-.566a2.138,2.138,0,0,1,3.023,0l2.49,2.483a2.155,2.155,0,0,1,0,3.03l-.566.565a11.082,11.082,0,0,1,.531,1.282h.8a2.141,2.141,0,0,1,2.139,2.139v3.52a2.137,2.137,0,0,1-2.139,2.139h-.8a10.807,10.807,0,0,1-.531,1.287l.566.565a2.148,2.148,0,0,1,0,3.024l-2.49,2.489a2.138,2.138,0,0,1-3.023,0l-.566-.565a11.6,11.6,0,0,1-1.287.53v.8a2.14,2.14,0,0,1-2.139,2.138Zm-2.939-6.449a9.014,9.014,0,0,0,2.559,1.056,1.428,1.428,0,0,1,1.092,1.388v1.151h2.094v-1.151a1.43,1.43,0,0,1,1.092-1.388,9.014,9.014,0,0,0,2.559-1.056,1.417,1.417,0,0,1,1.748.21l.816.812,1.477-1.478-.811-.816a1.427,1.427,0,0,1-.211-1.748,8.85,8.85,0,0,0,1.057-2.563,1.433,1.433,0,0,1,1.387-1.087h1.152V9208.1h-1.152a1.432,1.432,0,0,1-1.387-1.092,8.877,8.877,0,0,0-1.057-2.559,1.434,1.434,0,0,1,.211-1.753l.811-.812-1.477-1.482-.816.816a1.425,1.425,0,0,1-1.748.211,8.891,8.891,0,0,0-2.559-1.062,1.424,1.424,0,0,1-1.092-1.387v-1.151h-2.094v1.151a1.422,1.422,0,0,1-1.092,1.387,8.891,8.891,0,0,0-2.559,1.063,1.431,1.431,0,0,1-1.752-.211l-.811-.816-1.479,1.482.813.812a1.431,1.431,0,0,1,.209,1.753,9.054,9.054,0,0,0-1.061,2.559,1.426,1.426,0,0,1-1.383,1.092h-1.156v2.093h1.156a1.427,1.427,0,0,1,1.383,1.087,9.025,9.025,0,0,0,1.061,2.563,1.424,1.424,0,0,1-.209,1.748l-.812.816,1.479,1.478.811-.812a1.432,1.432,0,0,1,1.012-.42A1.4,1.4,0,0,1,19868.432,9216.867Zm48.385,1.672,0,0S19916.813,9218.539,19916.816,9218.539Zm0,0c0-.01,0,0,0,0Zm-50.627-9.389a6.94,6.94,0,1,1,6.939,6.94A6.946,6.946,0,0,1,19866.189,9209.15Zm2.854,0a4.089,4.089,0,1,0,4.086-4.092A4.091,4.091,0,0,0,19869.043,9209.15Zm55.244-4.042a1.575,1.575,0,1,1,1.578,1.578A1.574,1.574,0,0,1,19924.287,9205.108Z" transform="translate(-19856.139 -9177.001)" fill="#fff"></path></svg> 