<?xml version="1.0" encoding="UTF-8"?> <svg xmlns="http://www.w3.org/2000/svg" xmlns:xlink="http://www.w3.org/1999/xlink" width="388" height="295" viewBox="0 0 388 295"><defs><clipPath id="clip-path"><rect id="Rectangle_632" data-name="Rectangle 632" width="388" height="295" transform="translate(988 3253)" fill="#fff"></rect></clipPath><linearGradient id="linear-gradient" x1="0.5" x2="0.5" y2="1" gradientUnits="objectBoundingBox"><stop offset="0.01" stop-color="#71bfff"></stop><stop offset="1" stop-color="#5a4dff"></stop></linearGradient><linearGradient id="linear-gradient-6" x2="-0.204" xlink:href="#linear-gradient"></linearGradient><linearGradient id="linear-gradient-13" x1="0.861" y1="0.026" x2="-0.195" y2="2.415" gradientUnits="objectBoundingBox"><stop offset="0" stop-color="#71bfff"></stop><stop offset="0.081" stop-color="#71bfff"></stop><stop offset="0.085" stop-color="#71bfff"></stop><stop offset="1" stop-color="#5a4dff"></stop></linearGradient><linearGradient id="linear-gradient-14" x1="0.714" y1="-1.911" x2="0.229" y2="6.473" gradientUnits="objectBoundingBox"><stop offset="0" stop-color="#5685ec"></stop><stop offset="1" stop-color="#00c4d8"></stop></linearGradient><linearGradient id="linear-gradient-16" x1="1.141" y1="-0.679" x2="-0.135" y2="1.387" gradientUnits="objectBoundingBox"><stop offset="0" stop-color="#7bbdff"></stop><stop offset="0.045" stop-color="#7bbdff"></stop><stop offset="0.192" stop-color="#eefbfb"></stop><stop offset="0.39" stop-color="#92baff"></stop><stop offset="0.617" stop-color="#aeb6ff"></stop><stop offset="0.864" stop-color="#d4b1ff"></stop><stop offset="0.881" stop-color="#d8b1ff"></stop><stop offset="1" stop-color="#d8b1ff"></stop></linearGradient><linearGradient id="linear-gradient-20" x1="0.5" y1="0" x2="0.5" y2="1" xlink:href="#linear-gradient-13"></linearGradient><linearGradient id="linear-gradient-23" x1="1.031" y1="0.053" x2="0.5" y2="1" xlink:href="#linear-gradient-13"></linearGradient><linearGradient id="linear-gradient-30" x1="0.5" y1="1" x2="0.5" gradientUnits="objectBoundingBox"><stop offset="0" stop-color="gray" stop-opacity="0.251"></stop><stop offset="0.54" stop-color="gray" stop-opacity="0.122"></stop><stop offset="1" stop-color="gray" stop-opacity="0.102"></stop></linearGradient><linearGradient id="linear-gradient-31" x1="0.5" y1="0" x2="0.5" y2="1" xlink:href="#linear-gradient-13"></linearGradient></defs><g id="Mask_Group_26" data-name="Mask Group 26" transform="translate(-988 -3253)" clip-path="url(#clip-path)"><g id="Group_610" data-name="Group 610" transform="translate(18217.676 11346.542)"><g id="blob-shape_10_" data-name="blob-shape (10)" transform="matrix(-0.602, -0.799, 0.799, -0.602, -17077.773, -7704.1)"><path id="Path_2302" data-name="Path 2302" d="M312.569,80.985c1.775,37.892-41.548,68.41-49.24,125.112-7.692,56.792-11.123,97.394-26.014,121.992s-74.172,56.431-140.344,29.3-83.96-64.878-94.71-107.382C-8.586,207.594,20.634,137.186,67.378,89.889c46.843-47.3,94.573-87.45,145.657-89.8C264.02-2.264,310.794,43.093,312.569,80.985Z" transform="translate(0 0)" fill="#e2eaff" opacity="0.765"></path></g><g id="undraw_wireframing_nxyi" transform="translate(-17197.449 -8045.847)"><path id="Path_2566" data-name="Path 2566" d="M270.734,452.657s-16.8-24.236-13.944-47.11a44.678,44.678,0,0,0-5.379-27.743,75.115,75.115,0,0,0-7.9-11.244" transform="translate(-195.655 -303.202)" fill="none" stroke="#5685ec" stroke-miterlimit="10" stroke-width="2"></path><path id="Path_2567" data-name="Path 2567" d="M226.781,319.324c1.09,3.289-1.712,14.806-1.712,14.806s-9.118-7.57-10.208-10.863a6.278,6.278,0,0,1,11.92-3.943Z" transform="translate(-177.214 -270.39)" fill="#6c63ff"></path><path id="Path_2568" data-name="Path 2568" d="M270.4,354.291c-.872,3.354-9.482,11.5-9.482,11.5s-3.54-11.31-2.664-14.664a6.276,6.276,0,1,1,12.146,3.166Z" transform="translate(-204.953 -290.388)" fill="#6c63ff"></path><path id="Path_2569" data-name="Path 2569" d="M294.6,435.412c-2.449,2.457-13.992,5.139-13.992,5.139s2.657-11.549,5.088-14a6.277,6.277,0,1,1,8.889,8.864Z" transform="translate(-219.272 -340.215)" fill="#6c63ff"></path><path id="Path_2570" data-name="Path 2570" d="M302.363,506.667c-2,2.831-12.923,7.428-12.923,7.428s.665-11.833,2.664-14.664a6.277,6.277,0,1,1,10.259,7.236Z" transform="translate(-224.893 -386.092)" fill="#6c63ff"></path><path id="Path_2571" data-name="Path 2571" d="M226.12,392.123c3.118,1.512,14.9.247,14.9.247s-6.309-10.03-9.449-11.546a6.276,6.276,0,0,0-5.451,11.3Z" transform="translate(-182.448 -311.942)" fill="#6c63ff"></path><path id="Path_2572" data-name="Path 2572" d="M230.536,472.507c3.431.509,14.3-4.223,14.3-4.223s-9.024-7.686-12.447-8.2a6.277,6.277,0,1,0-1.846,12.418Z" transform="translate(-183.99 -362.697)" fill="#6c63ff"></path><path id="Path_2573" data-name="Path 2573" d="M250.9,551.128c3.3,1.09,14.806-1.744,14.806-1.744s-7.6-9.086-10.9-10.176a6.277,6.277,0,1,0-3.918,11.927Z" transform="translate(-197.598 -412.906)" fill="#6c63ff"></path><path id="Path_2574" data-name="Path 2574" d="M226.781,319.324c1.09,3.289-1.712,14.806-1.712,14.806s-9.118-7.57-10.208-10.863a6.278,6.278,0,0,1,11.92-3.943Z" transform="translate(-177.214 -270.39)" fill="url(#linear-gradient)"></path><path id="Path_2575" data-name="Path 2575" d="M270.4,354.291c-.872,3.354-9.482,11.5-9.482,11.5s-3.54-11.31-2.664-14.664a6.276,6.276,0,1,1,12.146,3.166Z" transform="translate(-204.953 -290.388)" fill="url(#linear-gradient)"></path><path id="Path_2576" data-name="Path 2576" d="M294.6,435.412c-2.449,2.457-13.992,5.139-13.992,5.139s2.657-11.549,5.088-14a6.277,6.277,0,1,1,8.889,8.864Z" transform="translate(-219.272 -340.215)" opacity="0.25"></path><path id="Path_2577" data-name="Path 2577" d="M302.363,506.667c-2,2.831-12.923,7.428-12.923,7.428s.665-11.833,2.664-14.664a6.277,6.277,0,1,1,10.259,7.236Z" transform="translate(-224.893 -386.092)" opacity="0.25"></path><path id="Path_2578" data-name="Path 2578" d="M226.12,392.123c3.118,1.512,14.9.247,14.9.247s-6.309-10.03-9.449-11.546a6.276,6.276,0,0,0-5.451,11.3Z" transform="translate(-182.448 -311.942)" fill="url(#linear-gradient)"></path><path id="Path_2579" data-name="Path 2579" d="M230.536,472.507c3.431.509,14.3-4.223,14.3-4.223s-9.024-7.686-12.447-8.2a6.277,6.277,0,1,0-1.846,12.418Z" transform="translate(-183.99 -362.697)" fill="url(#linear-gradient)"></path><path id="Path_2580" data-name="Path 2580" d="M250.9,551.128c3.3,1.09,14.806-1.744,14.806-1.744s-7.6-9.086-10.9-10.176a6.277,6.277,0,1,0-3.918,11.927Z" transform="translate(-197.598 -412.906)" fill="url(#linear-gradient)"></path><path id="Path_2581" data-name="Path 2581" d="M213.449,482.22s-25.178-15.351-31.843-37.432a44.7,44.7,0,0,0-16.158-23.182,75.112,75.112,0,0,0-11.778-7.076" transform="translate(-138.465 -333.739)" fill="none" stroke="#5685ec" stroke-miterlimit="10" stroke-width="2"></path><path id="Path_2582" data-name="Path 2582" d="M122.754,372.764c2.33,2.566,4.434,14.228,4.434,14.228s-11.4-3.227-13.73-5.793a6.276,6.276,0,0,1,9.3-8.435Z" transform="translate(-111.83 -305.84)" fill="url(#linear-gradient-6)"></path><path id="Path_2583" data-name="Path 2583" d="M176.693,387.089c.56,3.423-4,14.359-4,14.359s-7.828-8.907-8.391-12.331a6.277,6.277,0,0,1,12.389-2.028Z" transform="translate(-145.181 -312.919)" fill="url(#linear-gradient-6)"></path><path id="Path_2584" data-name="Path 2584" d="M237.105,449.057c-1.247,3.238-10.71,10.368-10.71,10.368s-2.253-11.629-1.01-14.871a6.278,6.278,0,1,1,11.72,4.5Z" transform="translate(-183.879 -350.287)" fill="url(#linear-gradient-6)"></path><path id="Path_2585" data-name="Path 2585" d="M270.3,512.28c-.68,3.4-8.806,12.029-8.806,12.029s-4.187-11.088-3.507-14.486A6.278,6.278,0,0,1,270.3,512.28Z" transform="translate(-204.825 -391.185)" fill="url(#linear-gradient-6)"></path><path id="Path_2586" data-name="Path 2586" d="M151.262,439.55c3.467.12,13.726-5.815,13.726-5.815s-9.83-6.614-13.3-6.741a6.276,6.276,0,1,0-.429,12.545Z" transform="translate(-133.072 -341.67)" fill="url(#linear-gradient-6)"></path><path id="Path_2587" data-name="Path 2587" d="M188.264,511.391c3.343-.923,11.36-9.652,11.36-9.652s-11.364-3.383-14.693-2.446a6.276,6.276,0,1,0,3.344,12.1Z" transform="translate(-155.433 -387.592)" fill="url(#linear-gradient-6)"></path><path id="Path_2588" data-name="Path 2588" d="M238.75,574.912c3.452-.363,12.829-7.6,12.829-7.6s-10.63-5.24-14.079-4.9a6.277,6.277,0,0,0,1.25,12.491Z" transform="translate(-188.231 -427.873)" fill="url(#linear-gradient-6)"></path><ellipse id="Ellipse_193" data-name="Ellipse 193" cx="65.052" cy="3.86" rx="65.052" ry="3.86" transform="translate(112.616 211.379)" fill="#6c63ff" opacity="0.1"></ellipse><ellipse id="Ellipse_194" data-name="Ellipse 194" cx="17.03" cy="3.1" rx="17.03" ry="3.1" transform="translate(226.475 229.281)" fill="#6c63ff" opacity="0.1"></ellipse><path id="Path_2589" data-name="Path 2589" d="M562.291,693.284v2.329H493.38v-1.9a22.652,22.652,0,0,0,1.559-41.837h66.9a22.666,22.666,0,0,0,.454,41.4Z" transform="translate(-354.718 -484.831)" fill="#c8cad7"></path><path id="Path_2590" data-name="Path 2590" d="M564.568,651.89a22.688,22.688,0,0,0-12.523,15.02H510.193a22.688,22.688,0,0,0-12.523-15.02Z" transform="translate(-357.449 -484.838)" opacity="0.1"></path><path id="Path_2591" data-name="Path 2591" d="M276.21,619.22V632.3c0,7.225,5.288,13.083,11.811,13.083H490.808c6.523,0,11.811-5.858,11.811-13.083V619.22Z" transform="translate(-216.471 -464.041)" fill="#c8cad7"></path><path id="Path_2592" data-name="Path 2592" d="M562.291,761.615v2.329H493.38v-1.9a22.605,22.605,0,0,0,5.313-2.827h59.383A22.707,22.707,0,0,0,562.291,761.615Z" transform="translate(-354.718 -553.162)" opacity="0.1"></path><rect id="Rectangle_442" data-name="Rectangle 442" width="114.477" height="6.905" rx="3.452" transform="translate(115.887 206.785)" fill="#c8cad7"></rect><path id="Path_2593" data-name="Path 2593" d="M502.62,204.031a11.811,11.811,0,0,0-11.811-11.811H288.021a11.811,11.811,0,0,0-11.811,11.811V349.943H502.62Z" transform="translate(-216.471 -192.22)" fill="url(#linear-gradient-13)"></path><rect id="Rectangle_443" data-name="Rectangle 443" width="214.053" height="137.009" rx="3" transform="translate(65.917 11.266)" fill="#ededf4"></rect><circle id="Ellipse_195" data-name="Ellipse 195" cx="2.726" cy="2.726" r="2.726" transform="translate(170.218 2.907)" fill="#fff"></circle><circle id="Ellipse_196" data-name="Ellipse 196" cx="6.723" cy="6.723" r="6.723" transform="translate(166.22 162.085)" fill="#fff"></circle><path id="Path_2594" data-name="Path 2594" d="M507.263,229.035H293.21a5.815,5.815,0,0,1,5.815-5.815H501.449A5.815,5.815,0,0,1,507.263,229.035Z" transform="translate(-227.293 -211.954)" fill="#c8cad7"></path><circle id="Ellipse_197" data-name="Ellipse 197" cx="1.454" cy="1.454" r="1.454" transform="translate(70.278 12.72)" fill="#ededf4"></circle><circle id="Ellipse_198" data-name="Ellipse 198" cx="1.454" cy="1.454" r="1.454" transform="translate(74.639 12.72)" fill="#ededf4"></circle><circle id="Ellipse_199" data-name="Ellipse 199" cx="1.454" cy="1.454" r="1.454" transform="translate(79 12.72)" fill="#ededf4"></circle><rect id="Rectangle_444" data-name="Rectangle 444" width="54.876" height="3.271" transform="translate(73.912 21.987)" opacity="0.729" fill="url(#linear-gradient-14)"></rect><rect id="Rectangle_445" data-name="Rectangle 445" width="54.876" height="3.271" transform="translate(73.912 117.566)" opacity="0.729" fill="url(#linear-gradient-14)"></rect><rect id="Rectangle_446" data-name="Rectangle 446" width="101.757" height="3.271" transform="translate(73.912 124.834)" fill="#6c63ff" opacity="0.2"></rect><rect id="Rectangle_447" data-name="Rectangle 447" width="101.757" height="3.271" transform="translate(73.912 129.562)" fill="#6c63ff" opacity="0.2"></rect><rect id="Rectangle_448" data-name="Rectangle 448" width="101.757" height="3.271" transform="translate(73.912 134.287)" fill="#6c63ff" opacity="0.2"></rect><rect id="Rectangle_449" data-name="Rectangle 449" width="101.03" height="54.876" transform="translate(73.912 30.709)" opacity="0.2" fill="url(#linear-gradient-16)"></rect><rect id="Rectangle_450" data-name="Rectangle 450" width="23.622" height="21.805" transform="translate(75.002 90.673)" opacity="0.2" fill="url(#linear-gradient-16)"></rect><rect id="Rectangle_451" data-name="Rectangle 451" width="23.622" height="21.805" transform="translate(151.32 90.673)" opacity="0.2" fill="url(#linear-gradient-16)"></rect><rect id="Rectangle_452" data-name="Rectangle 452" width="23.622" height="21.805" transform="translate(112.616 90.673)" opacity="0.2" fill="url(#linear-gradient-16)"></rect><rect id="Rectangle_453" data-name="Rectangle 453" width="69.533" height="51.18" transform="translate(196.508 46.67)" opacity="0.776" fill="url(#linear-gradient-20)"></rect><rect id="Rectangle_454" data-name="Rectangle 454" width="54.876" height="3.271" transform="translate(203.834 57.057)" fill="#ededf4"></rect><rect id="Rectangle_455" data-name="Rectangle 455" width="54.876" height="3.271" transform="translate(203.834 63.842)" fill="#ededf4"></rect><rect id="Rectangle_456" data-name="Rectangle 456" width="54.876" height="3.271" transform="translate(203.834 70.627)" fill="#ededf4"></rect><rect id="Rectangle_457" data-name="Rectangle 457" width="54.876" height="3.271" transform="translate(203.834 77.408)" fill="#ededf4"></rect><rect id="Rectangle_458" data-name="Rectangle 458" width="54.876" height="3.271" transform="translate(203.834 84.193)" fill="#ededf4"></rect><rect id="Rectangle_459" data-name="Rectangle 459" width="52.576" height="9.205" transform="translate(204.986 103.665)" opacity="0.729" fill="url(#linear-gradient-14)"></rect><rect id="Rectangle_460" data-name="Rectangle 460" width="35.255" height="6.174" transform="translate(202.177 134.338)" opacity="0.729" fill="url(#linear-gradient-14)"></rect><ellipse id="Ellipse_203" data-name="Ellipse 203" cx="15.173" cy="1.268" rx="15.173" ry="1.268" transform="translate(297.08 236.367)" fill="#6c63ff" opacity="0.1"></ellipse><path id="Path_2598" data-name="Path 2598" d="M964.78,731.263a6.335,6.335,0,0,0-.829,1.563c-.051.135-.1.291-.149.44a1.634,1.634,0,0,0-.291-.1,4,4,0,0,0-1.294-.109c0-.171.018-.345.025-.534.051-1.915-.174-4.586-2-3.453-1.752,1.09-.5,2.907.629,4.07.1.1.2.2.291.287-1.028.727-1.228,2.446-1.4,4.23s-1.686,3.736-2.689,4.844l-.287.309a3.678,3.678,0,0,0-2.907-.752c-.044-.156-.087-.32-.138-.491-.81-2.94-2.5-8.031-4.659-9.147.094-.113.189-.233.287-.363.916-1.2,1.944-2.977.421-3.431s-1.657,1.541-1.573,3.038a3.12,3.12,0,0,0,.044.534,2.235,2.235,0,0,0-1.6.778l-.233-.28c-1.236-1.454-3.5-3.769-4.187-2.021-.64,1.628,1.352,3.743,2.755,4.968l.091.076c-.945,3.819,3.165,6.934,5.378,8.3l.287.174c-3.053,3.6-4.935,10.343-4.935,10.343l8.547,1.526s5.666-4.892,4.943-9.485h.058c5.662-1.134,6.952-7.174,6.069-10.761l.1-.04a6.415,6.415,0,0,0,2.624-1.984C969.73,731.579,966.426,729.083,964.78,731.263Z" transform="translate(-640.378 -533.644)" fill="#6c63ff"></path><path id="Path_2599" data-name="Path 2599" d="M964.78,731.263a6.335,6.335,0,0,0-.829,1.563c-.051.135-.1.291-.149.44a1.634,1.634,0,0,0-.291-.1,4,4,0,0,0-1.294-.109c0-.171.018-.345.025-.534.051-1.915-.174-4.586-2-3.453-1.752,1.09-.5,2.907.629,4.07.1.1.2.2.291.287-1.028.727-1.228,2.446-1.4,4.23s-1.686,3.736-2.689,4.844l-.287.309a3.678,3.678,0,0,0-2.907-.752c-.044-.156-.087-.32-.138-.491-.81-2.94-2.5-8.031-4.659-9.147.094-.113.189-.233.287-.363.916-1.2,1.944-2.977.421-3.431s-1.657,1.541-1.573,3.038a3.12,3.12,0,0,0,.044.534,2.235,2.235,0,0,0-1.6.778l-.233-.28c-1.236-1.454-3.5-3.769-4.187-2.021-.64,1.628,1.352,3.743,2.755,4.968l.091.076c-.945,3.819,3.165,6.934,5.378,8.3l.287.174c-3.053,3.6-4.935,10.343-4.935,10.343l8.547,1.526s5.666-4.892,4.943-9.485h.058c5.662-1.134,6.952-7.174,6.069-10.761l.1-.04a6.415,6.415,0,0,0,2.624-1.984C969.73,731.579,966.426,729.083,964.78,731.263Z" transform="translate(-640.378 -533.644)" opacity="0.1"></path><path id="Path_2600" data-name="Path 2600" d="M948.656,736.282l-1,2.907s-.556-.393-1.257-1.01c-1.4-1.225-3.394-3.34-2.755-4.968.683-1.748,2.951.56,4.187,2.021C948.325,735.831,948.656,736.282,948.656,736.282Z" transform="translate(-641.27 -536.206)" fill="url(#linear-gradient-23)"></path><path id="Path_2601" data-name="Path 2601" d="M961.411,732.038a14.705,14.705,0,0,1-.974,1.148,14.163,14.163,0,0,1-.178-1.541c-.083-1.5.073-3.485,1.574-3.038S962.334,730.839,961.411,732.038Z" transform="translate(-651.913 -533.634)" fill="url(#linear-gradient-23)"></path><path id="Path_2602" data-name="Path 2602" d="M993.9,732.908c-.033.963-.127,1.734-.127,1.734a12.7,12.7,0,0,1-1.247-1.116c-1.13-1.174-2.38-2.984-.629-4.07C993.723,728.321,993.949,730.993,993.9,732.908Z" transform="translate(-671.51 -534.042)" fill="url(#linear-gradient-23)"></path><path id="Path_2603" data-name="Path 2603" d="M1006.977,737.026a6.429,6.429,0,0,1-2.62,1.984,8.17,8.17,0,0,1-.88.32l-1.177-1.654a11.679,11.679,0,0,1,.483-1.606,6.34,6.34,0,0,1,.828-1.563C1005.24,732.338,1008.562,734.835,1006.977,737.026Z" transform="translate(-678.687 -536.899)" fill="url(#linear-gradient-23)"></path><path id="Path_2604" data-name="Path 2604" d="M952.872,739.92c.494.582.825,1.032.825,1.032l-1,2.907s-.556-.393-1.258-1.01a5.745,5.745,0,0,1,1.127-2.569Q952.71,740.092,952.872,739.92Z" transform="translate(-646.31 -540.876)" opacity="0.1"></path><path id="Path_2605" data-name="Path 2605" d="M961.442,737.473a14.747,14.747,0,0,1-.974,1.148,14.17,14.17,0,0,1-.178-1.541A2.016,2.016,0,0,1,961.442,737.473Z" transform="translate(-651.944 -539.068)" opacity="0.1"></path><path id="Path_2606" data-name="Path 2606" d="M960.639,750.005l-2.486,1.09s-.545-.262-1.326-.749c-2.609-1.606-7.865-5.651-4.361-10.419s6.458,3.783,7.632,7.966C960.443,749.148,960.639,750.005,960.639,750.005Z" transform="translate(-646.221 -539.986)" fill="url(#linear-gradient-23)"></path><path id="Path_2607" data-name="Path 2607" d="M995.15,740.048a2.036,2.036,0,0,1,1.374-.618c-.033.963-.127,1.734-.127,1.734A12.671,12.671,0,0,1,995.15,740.048Z" transform="translate(-674.135 -540.564)" opacity="0.1"></path><path id="Path_2608" data-name="Path 2608" d="M1004.4,743.21a8.1,8.1,0,0,1-.879.32l-1.178-1.653a11.728,11.728,0,0,1,.483-1.606A4.362,4.362,0,0,1,1004.4,743.21Z" transform="translate(-678.712 -541.099)" opacity="0.1"></path><path id="Path_2609" data-name="Path 2609" d="M982.242,754.374c-.138.029-.28.055-.422.073-8.329,1.268-2.747-3.227-2.747-3.227s.363-.345.887-.912c1-1.09,2.515-3.049,2.689-4.844.261-2.7.563-5.233,3.75-4.492S990.121,752.793,982.242,754.374Z" transform="translate(-662.736 -541.462)" fill="url(#linear-gradient-23)"></path><rect id="Rectangle_461" data-name="Rectangle 461" width="15.921" height="4.187" transform="translate(303.422 233.66)" fill="#d4dfec"></rect><rect id="Rectangle_462" data-name="Rectangle 462" width="20.802" height="14.609" transform="translate(300.889 220.053)" fill="#d4dfec"></rect><rect id="Rectangle_463" data-name="Rectangle 463" width="15.921" height="4.187" transform="translate(303.422 233.66)" opacity="0.1"></rect><rect id="Rectangle_464" data-name="Rectangle 464" width="20.802" height="14.609" transform="translate(300.889 220.053)" opacity="0.1"></rect><rect id="Rectangle_465" data-name="Rectangle 465" width="15.921" height="4.187" transform="translate(304.468 233.66)" fill="#d4dfec"></rect><path id="Path_2610" data-name="Path 2610" d="M969.761,764.32c.363,1.25.541,2.108.541,2.108l-2.486,1.09s-.545-.262-1.327-.749A6.4,6.4,0,0,1,969.761,764.32Z" transform="translate(-655.891 -556.409)" opacity="0.1"></path><path id="Path_2611" data-name="Path 2611" d="M982.242,770.957c-.138.029-.28.055-.422.073-8.329,1.269-2.747-3.227-2.747-3.227s.363-.345.887-.912A5.543,5.543,0,0,1,982.242,770.957Z" transform="translate(-662.736 -558.044)" opacity="0.1"></path><path id="Path_2612" data-name="Path 2612" d="M953.7,778.02s4.666-16.717,11.208-11.56-2.66,13.083-2.66,13.083Z" transform="translate(-647.749 -557.142)" fill="url(#linear-gradient-23)"></path><circle id="Ellipse_204" data-name="Ellipse 204" cx="0.523" cy="0.523" r="0.523" transform="translate(307.783 202.042)" fill="#6c63ff" opacity="0.732"></circle><circle id="Ellipse_205" data-name="Ellipse 205" cx="0.523" cy="0.523" r="0.523" transform="translate(307.739 204.485)" fill="#6c63ff" opacity="0.732"></circle><circle id="Ellipse_206" data-name="Ellipse 206" cx="0.523" cy="0.523" r="0.523" transform="translate(322.915 202.522)" fill="#6c63ff" opacity="0.732"></circle><circle id="Ellipse_207" data-name="Ellipse 207" cx="0.523" cy="0.523" r="0.523" transform="translate(310.704 215.038)" fill="#6c63ff" opacity="0.732"></circle><circle id="Ellipse_208" data-name="Ellipse 208" cx="0.523" cy="0.523" r="0.523" transform="translate(321.825 206.578)" fill="#6c63ff" opacity="0.732"></circle><circle id="Ellipse_209" data-name="Ellipse 209" cx="0.523" cy="0.523" r="0.523" transform="translate(316.417 211.985)" fill="#6c63ff" opacity="0.732"></circle><circle id="Ellipse_210" data-name="Ellipse 210" cx="0.523" cy="0.523" r="0.523" transform="translate(309.571 203.089)" fill="#6c63ff" opacity="0.732"></circle><circle id="Ellipse_211" data-name="Ellipse 211" cx="0.523" cy="0.523" r="0.523" transform="translate(321.476 204.092)" fill="#6c63ff" opacity="0.732"></circle><circle id="Ellipse_212" data-name="Ellipse 212" cx="0.523" cy="0.523" r="0.523" transform="translate(319.688 208.148)" fill="#6c63ff" opacity="0.732"></circle><circle id="Ellipse_213" data-name="Ellipse 213" cx="0.523" cy="0.523" r="0.523" transform="translate(314.193 214.646)" fill="#6c63ff" opacity="0.732"></circle><circle id="Ellipse_214" data-name="Ellipse 214" cx="0.523" cy="0.523" r="0.523" transform="translate(313.059 212.073)" fill="#6c63ff" opacity="0.732"></circle><circle id="Ellipse_215" data-name="Ellipse 215" cx="0.523" cy="0.523" r="0.523" transform="translate(310.356 206.273)" fill="#6c63ff" opacity="0.732"></circle><rect id="Rectangle_466" data-name="Rectangle 466" width="15.921" height="1.53" transform="translate(304.468 233.66)" opacity="0.1"></rect><rect id="Rectangle_467" data-name="Rectangle 467" width="20.802" height="14.609" transform="translate(301.939 220.053)" fill="#d4dfec"></rect><circle id="Ellipse_216" data-name="Ellipse 216" cx="0.523" cy="0.523" r="0.523" transform="translate(314.891 217.001)" fill="#6c63ff" opacity="0.732"></circle><circle id="Ellipse_217" data-name="Ellipse 217" cx="0.523" cy="0.523" r="0.523" transform="translate(311.751 217.655)" fill="#6c63ff" opacity="0.732"></circle><path id="Path_2613" data-name="Path 2613" d="M755.858,494.6a2.568,2.568,0,0,1-.683-1.817c0-.171-.026-.338-.033-.5a1.817,1.817,0,0,0,.505-.458c.861-1.221-1.2-5.651-1.2-5.651a7.009,7.009,0,0,0,0-4.3,9.4,9.4,0,0,0-1.159-2.377S750.6,473.97,751,473.316s-.665-5.815-1.454-6.85a15.121,15.121,0,0,0-1.061-1.286,7.48,7.48,0,0,0-1-4c-1.13-1.752-2.388-6.614-2.388-6.614a40.456,40.456,0,0,0-2.388-6.178,6.906,6.906,0,0,0-1.454-1.494c.156-.727.516-1.69-.516-7.388-.422-2.34.236-3.736.778-6.051s.425-4.993-1.236-6.741-4.237-2.075-6.3-3.271c-1.817-1.05-3.434-2.827-5.557-2.795-1.559.025-1.555.269-2.991.854-2.482,1.01-5.273.705-7.8,1.541-2.268.752-5.15,3.223-4.463,5.844a2.87,2.87,0,0,0,.836,1.555,1.88,1.88,0,0,0,1.763.316.23.23,0,0,1-.025.127,6.684,6.684,0,0,0-.087,1.09,7.18,7.18,0,0,0,7.243,7.065c.022.084.04.171.062.258.055.233.105.465.156.7-.189.251-.385.5-.571.752a7.3,7.3,0,0,0-1.09,1.937c-2.1.429-5.622,1.123-6.178,2.031-.727,1.221-3.714,7.268-3.383,10.019.018.153.033.363.047.582a34.8,34.8,0,0,0-2.1,4.3c-.265,1.028-.861,4.881-1.992,5.778s-3.449,3.79-3.118,4.361-3.118,1.283-3.118,1.283-2.319.9-2.181,1.606c.04.214-.124.418-.363.614-2.638-.869-6-1.454-8.606-.131-3.634,1.843,2.74,3.111,6.542,3.667.625.095,1.177.167,1.606.218.029.124.149.233.454.338.24.084.6.214,1.01.363l.153-.472c1.261.447,4.7,1.839,4.7,1.839s2.987.487,3.849-1.247a15.709,15.709,0,0,1,2.435-2.907l-.12.389-2.515,8.3s-3.979,6.178-3.78,7.512-1.261,4.754-1.592,5.088-3.634,10.081-5.375,10.725-4.048,2.889-3.271,3.6,4,3.016,5.451,2.246,4,.643,4,.643a9.656,9.656,0,0,1,5.052.632c.025.251.054.523.084.81a31.653,31.653,0,0,0,1.032,6.069c.665,1.414,1.261,3.918.727,4.881s.465,19.33,1.454,22.477c.778,2.464,1.843,6.429,1.661,9.016-.109,1.574-.174,3.147-.185,4.724v.262c0,.087-.062.138-.091.211v.142a13.027,13.027,0,0,0-.578,1.675s-1.712,4.3-1.134,5.426a1.006,1.006,0,0,0,.273.316c.825.662,2.907.8,3.634.832l-.033,1.09h.978s.026-1.09.091-2.45a6.68,6.68,0,0,0,.422-2.391,9.779,9.779,0,0,1,.872-4.132s.022-.113.043-.294h0a7.288,7.288,0,0,0,.062-1.13,4,4,0,0,0-.364-1.922,4.324,4.324,0,0,1,.073-1.174c.265-.963-.4-7.7-.4-7.7l1.127-12.4s.665-9.569.4-12.073a7.958,7.958,0,0,1,.047-2.013A64.971,64.971,0,0,0,720,516.1c0-.258,0-.512,0-.771,2.413.829,6.505.149,6.505.149s.952-.022,2.217,0c.033.262.069.52.105.77a14.382,14.382,0,0,0,.658,3.056c.661,1.414,1.261,3.918.727,4.881s.462,19.33,1.454,22.477c.781,2.464,1.846,6.425,1.665,9.016-.109,1.57-.175,3.144-.185,4.724v.291c-.033.069-.065.138-.094.211s0,.1,0,.142a13.246,13.246,0,0,0-.549,1.683s-1.715,4.307-1.134,5.43a.957.957,0,0,0,.273.313c.825.665,2.907.8,3.634.832l-.033,1.09h.978s.026-1.09.091-2.449a6.682,6.682,0,0,0,.422-2.391,9.81,9.81,0,0,1,.858-4.132A7.542,7.542,0,0,0,737.69,560a3.976,3.976,0,0,0-.382-1.933,4.474,4.474,0,0,1,.073-1.17c.265-.963-.4-7.708-.4-7.708l1.126-12.393s.665-9.569.4-12.073a8.12,8.12,0,0,1,.051-2.013,64.793,64.793,0,0,0,.727-7.81v-.781c.24-.294.727-.527,2.072-.978,2.322-.77,6.967-4.626,8.824-4.881s3.514-1.479,2.984-2.442-3.449-1.606-3.183-3.082-1.792-2.377-2.718-4.815-4.979-4.361-5.044-6.178-3.823-7.37-3.823-7.37-3.776-6.28-4.612-10.118a1.351,1.351,0,0,0-.047-.247h.047a6.946,6.946,0,0,1-.138-.872,1.35,1.35,0,0,1,.033-.247h-.051v-.164a.58.58,0,0,1,.08-.051l.218-.127-.073.029a7.192,7.192,0,0,0,1.2-.981,5.342,5.342,0,0,0,1.385-1.933,9.809,9.809,0,0,0,.541-2.544l.473-.727c.458,1.915,1.126,4.663,1.337,5.277a53.541,53.541,0,0,1,2.391,7.981,27.105,27.105,0,0,0,2.907,7.515s3.383,4.43,5.971,4.623,1.13.9,1.526,1.028l.113.025.04.52.113,1.508s2.653,10.79,5.64,9.249S756.846,495.3,755.858,494.6Z" transform="translate(-479.496 -337.634)" fill="url(#linear-gradient-30)"></path><path id="Path_2614" data-name="Path 2614" d="M863.188,626.779c-2.871,1.534-5.422-9.18-5.422-9.18l-.109-1.5-.207-2.838,3.507.447a10.725,10.725,0,0,0,0,1.843,2.6,2.6,0,0,0,.658,1.792C862.549,618.046,866.056,625.249,863.188,626.779Z" transform="translate(-586.478 -460.246)" fill="#e2a28e"></path><path id="Path_2615" data-name="Path 2615" d="M754.21,822.275l.244-.185A1.306,1.306,0,0,1,754.21,822.275Z" transform="translate(-520.757 -593.184)" fill="#a1616a"></path><path id="Path_2616" data-name="Path 2616" d="M755.442,660.64v8.268a66.864,66.864,0,0,1-.727,8.166,8.16,8.16,0,0,0-.047,2c.254,2.49-.363,11.993-.363,11.993l-1.09,12.309s.636,6.694.363,7.632a4.628,4.628,0,0,0-.069,1.166c.036,1.09.225,2.49.287,2.907v.127l-.04.029-5.331,4.067c.85-.774,1.068-2.577,1.065-4.248v-.545q0-2.344.182-4.688c.174-2.569-.85-6.505-1.6-8.955-.956-3.122-1.915-21.362-1.4-22.318s-.065-3.445-.7-4.848a33.422,33.422,0,0,1-.956-6.022c-.138-1.323-.222-2.326-.222-2.326Z" transform="translate(-514.761 -490.408)" fill="#e2a28e"></path><path id="Path_2617" data-name="Path 2617" d="M805.26,817.756l.262-.2A1.558,1.558,0,0,1,805.26,817.756Z" transform="translate(-553.255 -590.3)" fill="#a1616a"></path><path id="Path_2618" data-name="Path 2618" d="M806.473,656.14v8.675a66.912,66.912,0,0,1-.7,7.759,8.16,8.16,0,0,0-.047,2c.255,2.489-.363,11.993-.363,11.993l-1.09,12.309s.64,6.694.385,7.632a4.442,4.442,0,0,0-.069,1.163c.036,1.09.229,2.511.287,2.907a.314.314,0,0,0,.018.12l-.04.029h0l-5.339,4.067c.825-.792,1.039-2.573,1.036-4.223v-.549c0-1.563.073-3.125.178-4.688.171-2.569-.85-6.5-1.6-8.951-.96-3.122-1.915-21.362-1.4-22.318s-.065-3.445-.7-4.848a14.561,14.561,0,0,1-.636-3.035c-.338-2.428-.578-5.317-.578-5.317Z" transform="translate(-547.239 -487.543)" fill="#e2a28e"></path><path id="Path_2619" data-name="Path 2619" d="M786.043,455.273l-.054.084a7,7,0,0,1-4.852,2.907,6.03,6.03,0,0,1-.854.058c-.022-.087-.04-.174-.062-.258-.418-1.817-.861-3.271-.861-3.271s.476-.687,1.17-1.563c1.886-2.384,5.36-6.153,5.088-1.116a8.643,8.643,0,0,0,.364,3.02A.411.411,0,0,1,786.043,455.273Z" transform="translate(-536.767 -356.078)" opacity="0.1"></path><path id="Path_2620" data-name="Path 2620" d="M776.608,441.214a7.01,7.01,0,0,1-6.153,6.959,6.782,6.782,0,0,1-.865.055h-.051a7.014,7.014,0,1,1,7.069-7.014Z" transform="translate(-526.085 -346.26)" fill="#e2a28e"></path><path id="Path_2621" data-name="Path 2621" d="M794.068,471.465l-6.8,5.815s-7.417-10.583-6.542-12.752a7.3,7.3,0,0,0,.069-3.231c-.1-.727-.24-1.53-.4-2.286-.047-.236-.1-.469-.149-.7-.022-.087-.04-.174-.062-.258-.418-1.817-.861-3.271-.861-3.271s.476-.687,1.17-1.563c1.886-2.384,5.361-6.153,5.088-1.116a8.635,8.635,0,0,0,.364,3.02.5.5,0,0,0,.054.171,15.64,15.64,0,0,0,5.131,6.818,20.325,20.325,0,0,0,2.344,1.664Z" transform="translate(-536.742 -356.072)" fill="#e3937a"></path><path id="Path_2622" data-name="Path 2622" d="M744.79,665.355l10.652-4.724V668.9a3.675,3.675,0,0,1-.691-.323c-2.1-1.3-4.724-.291-4.91-.291a5.583,5.583,0,0,1-4.528-.447c-.1-.058-.2-.113-.291-.16C744.866,666.357,744.79,665.355,744.79,665.355Z" transform="translate(-514.761 -490.401)" opacity="0.1"></path><path id="Path_2623" data-name="Path 2623" d="M806.517,656.14v8.675a3.891,3.891,0,0,0-.363.8c-.385.894-3,1.214-5.3.836a32.81,32.81,0,0,0-4.4-.276c-.338-2.428-.578-5.317-.578-5.317Z" transform="translate(-547.284 -487.543)" opacity="0.1"></path><path id="Path_2624" data-name="Path 2624" d="M760.057,547.2c-1.788.255-6.251,4.081-8.482,4.848s-1.977.89-2.359,1.784-3,1.21-5.295.832a47.516,47.516,0,0,0-6.632-.258s-4.83.836-6.949-.476-4.724-.291-4.91-.291a5.583,5.583,0,0,1-4.528-.447,8.691,8.691,0,0,0-5.23-.829s-2.424-1.4-3.827-.636-4.463-1.53-5.23-2.231,1.454-2.933,3.125-3.572,4.848-10.332,5.164-10.648,1.723-3.7,1.53-5.037,3.634-7.465,3.634-7.465l2.42-8.235.727-2.544.029-1.516c0-.683.033-1.559.051-2.544.065-4.07.134-10.107,0-12.836-.022-.422-.044-.763-.073-1.01-.32-2.74,2.544-8.722,3.253-9.947.523-.9,3.91-1.592,5.927-2.017a12.97,12.97,0,0,0,1.425-.342,1.668,1.668,0,0,1,.56-.044c1.9.076,7.519,1.254,7.519,1.254-.509,15.369.512,12.691.512,12.691,1.657-1.276.636-12.563.636-12.563.829.382,1.675-.578,1.675-.578l3.234,1.341a32.016,32.016,0,0,1,2.853,1.93,8.6,8.6,0,0,1,2,1.962,40.806,40.806,0,0,1,2.3,6.124l-1.148,1.817c-1,1.61-2.544,4.085-4.125,6.592l-2.806,4.466c-1.254,1.991-2.275,3.609-2.7,4.267a1.591,1.591,0,0,0-.2.512,2.657,2.657,0,0,0-.047.363,5.713,5.713,0,0,0,.149,1.512c.8,3.809,4.434,10.048,4.434,10.048s3.634,5.546,3.7,7.33,3.954,3.7,4.848,6.124,2.867,3.314,2.613,4.782,2.544,2.1,3.06,3.06S761.841,546.942,760.057,547.2Z" transform="translate(-490.361 -376.517)" fill="url(#linear-gradient-31)"></path><path id="Path_2625" data-name="Path 2625" d="M860.95,615.55a5.53,5.53,0,0,1-3.293.549l-.207-2.838,3.507.447A10.719,10.719,0,0,0,860.95,615.55Z" transform="translate(-586.478 -460.246)" opacity="0.1"></path><path id="Path_2626" data-name="Path 2626" d="M824.2,510.09l2.617,1.85s1.21,4.844,2.293,6.567a7.593,7.593,0,0,1,.956,3.954,13.762,13.762,0,0,1,1.021,1.275c.767,1.021,1.784,6.142,1.4,6.8s2.2,6.142,2.2,6.142a8.292,8.292,0,0,1,1.116,2.359,7.281,7.281,0,0,1,0,4.274s1.977,4.4,1.148,5.611-3.511,1.09-3.892.956,1.021-.829-1.454-1.021-5.742-4.59-5.742-4.59a27.415,27.415,0,0,1-2.806-7.461,54.918,54.918,0,0,0-2.293-7.908c-.32-.956-1.722-7.141-1.722-7.141Z" transform="translate(-562.033 -394.57)" fill="url(#linear-gradient-31)"></path><path id="Path_2627" data-name="Path 2627" d="M775.9,510.09s-.193,14.795-1.977,17.728Z" transform="translate(-533.304 -394.57)" opacity="0.1"></path><path id="Path_2628" data-name="Path 2628" d="M802.159,524.48s-1.657,14.795-2.966,15.558S802.159,524.48,802.159,524.48Z" transform="translate(-549.235 -403.731)" opacity="0.1"></path><path id="Path_2629" data-name="Path 2629" d="M795.824,518.69s-.4,13.952-2.508,15.329S795.824,518.69,795.824,518.69Z" transform="translate(-545.302 -400.045)" opacity="0.1"></path><path id="Path_2630" data-name="Path 2630" d="M746.619,591.33s-2.638,7.715-2.34,10.9S746.619,591.33,746.619,591.33Z" transform="translate(-514.42 -446.286)" opacity="0.1"></path><path id="Path_2631" data-name="Path 2631" d="M773.706,560.731c-3.453.774-12.792,2.162-21.006-2.947,0-.683.033-1.559.051-2.544,3.118,1.715,11.876,6.178,16.336,4.928,2.224-.636,3.634-1.039,4.517-1.3a4.8,4.8,0,0,0,.1,1.864Z" transform="translate(-519.796 -423.312)" opacity="0.1"></path><path id="Path_2632" data-name="Path 2632" d="M773.706,558.631c-3.453.77-12.792,2.159-21.006-2.947,0-.683.033-1.563.051-2.544,3.118,1.715,11.876,6.178,16.336,4.928,2.224-.632,3.634-1.039,4.517-1.3A4.806,4.806,0,0,0,773.706,558.631Z" transform="translate(-519.796 -421.975)" opacity="0.1"></path><path id="Path_2633" data-name="Path 2633" d="M773.706,559.381c-3.453.77-12.792,2.159-21.006-2.947,0-.683.033-1.559.051-2.544,3.118,1.715,11.876,6.178,16.336,4.928,2.224-.632,3.634-1.039,4.517-1.3A4.806,4.806,0,0,0,773.706,559.381Z" transform="translate(-519.796 -422.453)" fill="#605d82"></path><path id="Path_2634" data-name="Path 2634" d="M773.706,559.381c-3.453.77-12.792,2.159-21.006-2.947,0-.683.033-1.559.051-2.544,3.118,1.715,11.876,6.178,16.336,4.928,2.224-.632,3.634-1.039,4.517-1.3A4.806,4.806,0,0,0,773.706,559.381Z" transform="translate(-519.796 -422.453)" opacity="0.1"></path><path id="Path_2635" data-name="Path 2635" d="M760.233,803.793a.6.6,0,0,1-.022.156l-5.331,4.067c.85-.774,1.069-2.577,1.065-4.248v-.545a10.758,10.758,0,0,1,1.97-3.147,1.635,1.635,0,0,1,1.817.411v.116a1.667,1.667,0,0,1,.189.284A5.172,5.172,0,0,1,760.233,803.793Z" transform="translate(-521.184 -579.11)" opacity="0.1"></path><path id="Path_2636" data-name="Path 2636" d="M761.423,802.177l-4.023,2.762s.026-.323.062-.8a11.013,11.013,0,0,1,2.061-3.362,1.642,1.642,0,0,1,1.817.411C761.372,801.785,761.423,802.177,761.423,802.177Z" transform="translate(-522.788 -579.558)" opacity="0.1"></path><path id="Path_2637" data-name="Path 2637" d="M758.808,804.853a10.032,10.032,0,0,0-.836,4.107,6.338,6.338,0,0,1-.854,3.311,2.855,2.855,0,0,1-.28.4s-2.795-.022-3.772-.832a.953.953,0,0,1-.269-.309c-.56-1.116,1.09-5.389,1.09-5.389a11.849,11.849,0,0,1,2.624-5.055C759.648,800.266,758.808,804.853,758.808,804.853Z" transform="translate(-519.784 -579.751)" fill="#5a5773"></path><path id="Path_2638" data-name="Path 2638" d="M757.792,821.3a2.833,2.833,0,0,1-.28.4s-2.795-.022-3.772-.832c.48-1.592,2.017-6.407,2.733-5.589S757.621,819.758,757.792,821.3Z" transform="translate(-520.458 -588.788)" opacity="0.1"></path><path id="Path_2639" data-name="Path 2639" d="M763.493,815.6l-.193,7.217h.938s.149-6.331.571-7.217S763.493,815.6,763.493,815.6Z" transform="translate(-526.544 -588.801)" fill="#5a5773"></path><path id="Path_2640" data-name="Path 2640" d="M811.328,799.3l-.022.149h0L806,803.491c.825-.792,1.039-2.573,1.036-4.223v-.549A10.747,10.747,0,0,1,809,795.575a1.681,1.681,0,0,1,1.835.407v.12a1.518,1.518,0,0,1,.189.28A5.28,5.28,0,0,1,811.328,799.3Z" transform="translate(-553.726 -576.245)" opacity="0.1"></path><path id="Path_2641" data-name="Path 2641" d="M812.473,797.669l-4.023,2.765s.025-.323.065-.8a10.9,10.9,0,0,1,2.057-3.362,1.651,1.651,0,0,1,1.835.411C812.422,797.28,812.473,797.669,812.473,797.669Z" transform="translate(-555.286 -576.689)" opacity="0.1"></path><path id="Path_2642" data-name="Path 2642" d="M809.876,800.35a9.97,9.97,0,0,0-.839,4.107,6.338,6.338,0,0,1-.854,3.311,3.149,3.149,0,0,1-.28.4s-2.795-.022-3.772-.832a1,1,0,0,1-.262-.312c-.556-1.116,1.09-5.389,1.09-5.389a11.852,11.852,0,0,1,2.624-5.055C810.712,795.771,809.876,800.35,809.876,800.35Z" transform="translate(-552.296 -576.884)" fill="#5a5773"></path><path id="Path_2643" data-name="Path 2643" d="M808.842,816.82a3.148,3.148,0,0,1-.28.4s-2.795-.022-3.772-.832c.48-1.592,2.017-6.411,2.733-5.593S808.671,815.271,808.842,816.82Z" transform="translate(-552.956 -585.936)" opacity="0.1"></path><path id="Path_2644" data-name="Path 2644" d="M814.546,811.1l-.2,7.214h.938s.149-6.327.571-7.214S814.546,811.1,814.546,811.1Z" transform="translate(-559.041 -585.937)" fill="#5a5773"></path><path id="Path_2645" data-name="Path 2645" d="M790.117,467.438a4.513,4.513,0,0,1-2.776,4.3c-.509.156-1.05.193-1.57.3a3.372,3.372,0,0,0-.727.222,3.931,3.931,0,0,0-1.9,2.991c-.08.414-.131.832-.182,1.254a9.009,9.009,0,0,1-.5,2.351,5.953,5.953,0,0,1-2.449,2.791,15.772,15.772,0,0,1-4.067,1.7,9.14,9.14,0,0,0,1.09-7.6c-.233-.745-.727-1.577-1.515-1.555-.614.018-1.054.563-1.512.978-2.253,2.028-5.778,1.123-8.631.1a18.354,18.354,0,0,0,3.434-20.13,6.644,6.644,0,0,1-.625-1.625,3.387,3.387,0,0,1,.156-1.679,7.446,7.446,0,0,1,1.032-1.922c.178-.251.364-.5.552-.749.243-.331.487-.665.705-1.01a5.556,5.556,0,0,0,.727-1.574,2.676,2.676,0,0,0-1.326-3.22l-.065-.025a4.248,4.248,0,0,1-2.635-1.6c-.6-.705-.945-1.817-1.977-2.024a5.941,5.941,0,0,0-2.511.4,7.018,7.018,0,1,1,12.647,5.15,15.464,15.464,0,0,0,5.186,6.989l3.234,1.341a31.989,31.989,0,0,1,2.853,1.93,41.726,41.726,0,0,0,2.057,6.647,23.416,23.416,0,0,1,1.09,3.271A8.046,8.046,0,0,1,790.117,467.438Z" transform="translate(-526.258 -346.241)" opacity="0.1"></path><path id="Path_2646" data-name="Path 2646" d="M765.655,435.69c1.243.389,1.722,1.988,1.392,3.245a10.855,10.855,0,0,1-1.973,3.333,4.978,4.978,0,0,0-1.192,3.6,6.64,6.64,0,0,0,.625,1.625,18.388,18.388,0,0,1-3.434,20.13c2.853,1.021,6.382,1.926,8.631-.1.458-.414.9-.959,1.512-.978.781-.025,1.286.81,1.515,1.555a9.133,9.133,0,0,1-1.09,7.592c2.627-.763,5.513-1.944,6.52-4.488a19.238,19.238,0,0,0,.676-3.609,3.924,3.924,0,0,1,1.9-2.987,18.931,18.931,0,0,1,2.3-.52,4.51,4.51,0,0,0,2.777-4.3,14.012,14.012,0,0,0-1.308-5.266c-3.634-9.449-.218-1.879-2.21-13.25-.407-2.322.229-3.711.749-6.007s.407-4.957-1.188-6.694-4.074-2.061-6.055-3.238c-1.755-1.047-3.3-2.809-5.342-2.777-1.5.022-1.494.265-2.875.847-2.388,1-5.066.7-7.494,1.53-2.181.749-4.95,3.2-4.288,5.815.891,3.521,3.333.93,5.237,1.326,1.032.218,1.374,1.316,1.977,2.024A4.364,4.364,0,0,0,765.655,435.69Z" transform="translate(-521.703 -338.85)" fill="#4a4347"></path><path id="Path_2647" data-name="Path 2647" d="M702.933,568.609s-1.032-.109-2.42-.323c-3.634-.552-9.78-1.817-6.283-3.634,3.209-1.679,7.632-.254,10.219.887a22.667,22.667,0,0,1,2.151,1.09Z" transform="translate(-481.913 -428.813)" fill="#e2a28e"></path><path id="Path_2648" data-name="Path 2648" d="M758.782,500.3s-1.657,8.359-2.486,10.2-2.181,6.7-2.181,6.7-1.959,1.774-3.576,3.5l.727-2.544.029-1.515c0-.683.033-1.559.051-2.544.065-4.07.134-10.107,0-12.836.142-.265.233-.429.233-.429l1.29-2.046s2.1-5.611,3.315-7.207S758.782,500.3,758.782,500.3Z" transform="translate(-518.421 -382.678)" opacity="0.1"></path><path id="Path_2649" data-name="Path 2649" d="M717.615,569.091s-.185.727-.5,1.708c-.4-.16-.727-.287-.97-.363-1.09-.363.193-.829-.127-1.784-.273-.821-.778-.563-1.359-.792a15.877,15.877,0,0,1,1.232-1.479Z" transform="translate(-495.581 -430.403)" opacity="0.1"></path><path id="Path_2650" data-name="Path 2650" d="M730.757,498.774l-1.29,2.046a38.587,38.587,0,0,0-2.024,4.252c-.273,1.007-.818,4.859-1.908,5.753s-3.318,3.761-3,4.336-3,1.276-3,1.276-2.232.894-2.1,1.6-1.85,1.276-1.148,1.784,1.341,0,1.661.956-.96,1.406.127,1.788,4.655,1.875,4.655,1.875,2.867.483,3.7-1.239,5.549-5.993,5.549-5.993a68.894,68.894,0,0,1,2.181-6.7c.843-1.85,2.489-10.2,2.489-10.2s-1.341-10.332-2.544-8.722S730.757,498.774,730.757,498.774Z" transform="translate(-496.519 -382.68)" fill="url(#linear-gradient-31)"></path><path id="Path_2651" data-name="Path 2651" d="M739.49,556.94s-6.313.829-2.933,2.231,4.528,0,4.528,0Z" transform="translate(-508.886 -424.394)" opacity="0.1"></path><path id="Path_2652" data-name="Path 2652" d="M724.79,566.7s3.7-.763,4.655,0S724.79,566.7,724.79,566.7Z" transform="translate(-502.029 -430.389)" opacity="0.1"></path><path id="Path_2653" data-name="Path 2653" d="M723.74,572.062s.254-.64,1.53,0S723.74,572.062,723.74,572.062Z" transform="translate(-501.361 -433.84)" opacity="0.1"></path><path id="Path_2654" data-name="Path 2654" d="M838.58,589.32s.385,5.815,1.952,6S838.58,589.32,838.58,589.32Z" transform="translate(-574.466 -445.007)" opacity="0.1"></path><path id="Path_2655" data-name="Path 2655" d="M844.481,553.1a1.817,1.817,0,0,1-1.4,2.1C841.418,555.517,844.481,553.1,844.481,553.1Z" transform="translate(-577.016 -421.95)" opacity="0.1"></path><path id="Path_2656" data-name="Path 2656" d="M795.85,600.69s-.083,17.942,3.573,20.151Z" transform="translate(-547.264 -452.245)" opacity="0.1"></path><path id="Path_2657" data-name="Path 2657" d="M809.18,602.8s-.066,17.938,3.569,20.152Z" transform="translate(-555.75 -453.588)" opacity="0.1"></path><path id="Path_2658" data-name="Path 2658" d="M755.72,709.589a13.427,13.427,0,0,1,2.489,0C759.594,709.7,755.72,709.589,755.72,709.589Z" transform="translate(-521.719 -521.531)" opacity="0.1"></path><path id="Path_2659" data-name="Path 2659" d="M755.72,713.039a13.459,13.459,0,0,1,2.489,0C759.594,713.166,755.72,713.039,755.72,713.039Z" transform="translate(-521.719 -523.727)" opacity="0.1"></path><path id="Path_2660" data-name="Path 2660" d="M807.77,705.539a13.427,13.427,0,0,1,2.489,0C811.644,705.67,807.77,705.539,807.77,705.539Z" transform="translate(-554.853 -518.953)" opacity="0.1"></path><path id="Path_2661" data-name="Path 2661" d="M808.94,708.3a13.437,13.437,0,0,1,2.489,0C812.811,708.426,808.94,708.3,808.94,708.3Z" transform="translate(-555.598 -520.71)" opacity="0.1"></path><g id="Group_609" data-name="Group 609" transform="translate(234.069 86.286)" opacity="0.1"><path id="Path_2662" data-name="Path 2662" d="M762.547,471.508a18.353,18.353,0,0,0,3.434-20.13,6.641,6.641,0,0,1-.625-1.625,4.961,4.961,0,0,1,1.192-3.6,10.708,10.708,0,0,0,1.973-3.333c.327-1.257-.149-2.856-1.392-3.242a4.252,4.252,0,0,1-2.635-1.6c-.6-.705-.945-1.817-1.977-2.021-1.9-.4-4.361,2.181-5.237-1.33-.5-1.97.963-3.852,2.653-4.975-2.112.876-4.554,3.2-3.929,5.662.89,3.522,3.333.934,5.237,1.33,1.032.214,1.374,1.316,1.977,2.021a4.262,4.262,0,0,0,2.635,1.6c1.243.385,1.723,1.984,1.392,3.242a10.849,10.849,0,0,1-1.973,3.333,4.981,4.981,0,0,0-1.192,3.605,6.677,6.677,0,0,0,.625,1.621,18.386,18.386,0,0,1-3.434,20.13c2.747.985,6.116,1.857,8.359.113C767.5,473.057,764.815,472.319,762.547,471.508Z" transform="translate(-755.906 -429.65)"></path><path id="Path_2663" data-name="Path 2663" d="M827.037,535.668a2.505,2.505,0,0,0-.727.5c.574-.142,1.181-.16,1.744-.338a3.27,3.27,0,0,0,1.185-.661A14.435,14.435,0,0,0,827.037,535.668Z" transform="translate(-800.724 -496.822)"></path><path id="Path_2664" data-name="Path 2664" d="M803.194,550.011a20.1,20.1,0,0,1-2.762,1,9.133,9.133,0,0,0,1.09-7.592c-.229-.727-.727-1.581-1.516-1.559a1.937,1.937,0,0,0-1.207.69c.727.025,1.225.832,1.454,1.555a9.133,9.133,0,0,1-1.09,7.592A15.959,15.959,0,0,0,803.194,550.011Z" transform="translate(-783.212 -501.08)"></path></g></g></g></g></svg> 