<svg width="93" height="76" viewBox="0 0 93 76" fill="none" xmlns="http://www.w3.org/2000/svg">
<path opacity="0.2" d="M39.2 37.24V75.88H0V50.4C0 40.6933 1.68 31.92 5.04 24.08C8.4 16.0533 14.0933 8.02666 22.12 0L36.4 11.2C31.92 16.0533 28.4667 20.5333 26.04 24.64C23.6133 28.7467 22.0267 32.9466 21.28 37.24H39.2ZM92.96 37.24V75.88H53.76V50.4C53.76 40.6933 55.44 31.92 58.8 24.08C62.16 16.0533 67.8533 8.02666 75.88 0L90.16 11.2C85.68 16.0533 82.2267 20.5333 79.8 24.64C77.3733 28.7467 75.7867 32.9466 75.04 37.24H92.96Z" fill="#A0A6F4"/>
</svg>
