<svg width="120" height="120" viewBox="0 0 120 120" fill="none" xmlns="http://www.w3.org/2000/svg">
<g clip-path="url(#clip0)">
<path fill-rule="evenodd" clip-rule="evenodd" d="M63.3604 44.3561L64.716 35.9962C60.8151 28.1945 52.841 12.244 47.1427 0.849609H34.1901C30.4595 8.31082 26.1298 16.9703 24.1557 20.9164L20.9164 24.1535C16.9703 26.1277 8.31082 30.4574 0.849609 34.188V47.1406C12.2462 52.8389 28.1966 60.8152 35.9983 64.716L44.3561 63.3583C49.3841 58.3324 58.3324 49.382 63.3604 44.3561Z" fill="#0523FA" fill-opacity="0.4"/>
<path fill-rule="evenodd" clip-rule="evenodd" d="M51.391 46.3729L46.4406 39.5022C38.1669 36.7457 21.2466 31.1057 9.16041 27.0776L0.000915527 36.2371C2.63885 44.1509 5.70137 53.3341 7.09577 57.5195V62.1014C5.70137 66.2867 2.63885 75.4699 0.000915527 83.3837L9.16041 92.5432C21.2466 88.5152 38.1669 82.8751 46.4406 80.1186L51.391 73.2479V46.3729Z" fill="#242EDB" fill-opacity="0.5"/>
<path fill-rule="evenodd" clip-rule="evenodd" d="M44.3561 56.2674L35.9983 54.9097C28.1966 58.8105 12.2462 66.7868 0.849609 72.4851V85.4377C8.31082 89.1683 16.9703 93.4981 20.9164 95.4722L24.1557 98.7093C26.1298 102.655 30.4595 111.315 34.1901 118.776H47.1427C52.841 107.382 60.8151 91.4313 64.716 83.6295L63.3604 75.2696C58.3324 70.2437 49.3841 61.2933 44.3561 56.2674Z" fill="#744B8B" fill-opacity="0.6"/>
<path fill-rule="evenodd" clip-rule="evenodd" d="M46.3778 68.2324L39.5071 73.185C36.7485 81.4587 31.1106 98.379 27.0804 110.463L36.2399 119.623C44.1537 116.985 53.339 113.924 57.5244 112.528H62.1041C66.2895 113.924 75.4749 116.985 83.3887 119.623L92.5481 110.463C88.5201 98.379 82.88 81.4587 80.1214 73.185L73.2528 68.2324H46.3778Z" fill="#E3741C" fill-opacity="0.6"/>
<path fill-rule="evenodd" clip-rule="evenodd" d="M75.2724 56.2674L83.6322 54.9097C91.4318 58.8105 107.384 66.7868 118.779 72.4851V85.4377C111.318 89.1683 102.658 93.4981 98.712 95.4722L95.4728 98.7093C93.5008 102.655 89.1711 111.315 85.4405 118.776H72.4857C66.7896 107.382 58.8133 91.4313 54.9124 83.6295L56.268 75.2696C61.296 70.2437 70.2443 61.2933 75.2724 56.2674Z" fill="#FF9400" fill-opacity="0.5"/>
<path fill-rule="evenodd" clip-rule="evenodd" d="M68.2379 46.3729L73.1883 39.5022C81.4642 36.7457 98.3824 31.1057 110.469 27.0776L119.628 36.2371C116.99 44.1509 113.93 53.3341 112.533 57.5195V62.1014C113.93 66.2867 116.99 75.4699 119.628 83.3837L110.469 92.5432C98.3824 88.5152 81.4642 82.8751 73.1883 80.1186L68.2379 73.2479V46.3729Z" fill="#FFAA00" fill-opacity="0.7"/>
<path fill-rule="evenodd" clip-rule="evenodd" d="M56.268 44.3561L54.9124 35.9962C58.8133 28.1945 66.7896 12.244 72.4857 0.849609H85.4405C89.1711 8.31082 93.5008 16.9703 95.4728 20.9164L98.712 24.1535C102.658 26.1277 111.318 30.4574 118.779 34.188V47.1406C107.384 52.8389 91.4318 60.8152 83.6322 64.716L75.2724 63.3583C70.2443 58.3324 61.296 49.382 56.268 44.3561Z" fill="#FFC500" fill-opacity="0.6"/>
<path fill-rule="evenodd" clip-rule="evenodd" d="M46.3778 51.3901L39.5071 46.4376C36.7485 38.1638 31.1106 21.2435 27.0804 9.15949L36.2399 0C44.1537 2.63793 53.339 5.6983 57.5244 7.09485H62.1041C66.2895 5.6983 75.4749 2.63793 83.3887 0L92.5481 9.15949C88.5201 21.2435 82.88 38.1638 80.1214 46.4376L73.2528 51.3901H46.3778Z" fill="#FFD700" fill-opacity="0.8"/>
<path d="M59.8151 77.4207C50.0917 77.4207 42.2094 69.5384 42.2094 59.8151C42.2094 50.0918 50.0917 42.2095 59.8151 42.2095C69.5384 42.2095 77.4207 50.0918 77.4207 59.8151C77.4207 69.5384 69.5384 77.4207 59.8151 77.4207Z" fill="#D2E7FB"/>
</g>
<defs>
<clipPath id="clip0">
<rect width="120" height="120" fill="white"/>
</clipPath>
</defs>
</svg>
