<svg xmlns="http://www.w3.org/2000/svg" width="600.004" height="200" viewBox="0 0 600.004 200">
  <g id="Group_27" data-name="Group 27" transform="translate(-1501.001 -298.003)">
    <g id="catalyst" transform="translate(1453.636 368.401)">
      <g id="Group_1" data-name="Group 1" transform="translate(276.502 55.484)">
        <path id="Path_10" data-name="Path 10" d="M28.934.827A26.124,26.124,0,0,1,14.157-3.41,22.287,22.287,0,0,1,5.063-15.087,31.455,31.455,0,0,1,3.1-26.97,31.455,31.455,0,0,1,5.063-38.853a22.3,22.3,0,0,1,8.99-11.367,27.188,27.188,0,0,1,14.88-4.03A27.4,27.4,0,0,1,44.02-50.013,21.013,21.013,0,0,1,52.8-39.267a12.772,12.772,0,0,1,.93,4.03A1.262,1.262,0,0,1,52.6-33.893l-14.363,2.17h-.207a1.209,1.209,0,0,1-1.24-1.033l-.207-.93c-.1-.517-.31-1.033-.413-1.447a7.606,7.606,0,0,0-2.79-3.2,8.332,8.332,0,0,0-4.547-1.24c-3.617,0-6.1,1.653-7.233,4.857a22.972,22.972,0,0,0-1.137,7.853,24.7,24.7,0,0,0,1.033,7.75c1.343,3.513,3.72,5.27,7.337,5.27a7.332,7.332,0,0,0,4.65-1.447,6.92,6.92,0,0,0,2.79-3.927c.1-.1.1-.31.1-.62.1-.1.1-.207.1-.413a1.193,1.193,0,0,1,1.447-1.033L52.39-19.013a1.055,1.055,0,0,1,1.033,1.137,10.862,10.862,0,0,1-.62,3.41A20.978,20.978,0,0,1,43.917-3.2,27.794,27.794,0,0,1,28.934.827Z"/>
      </g>
      <g id="Group_2" data-name="Group 2" transform="translate(332.717 55.484)">
        <path id="Path_11" data-name="Path 11" d="M26.66-54.25a32.1,32.1,0,0,1,12.5,2.273,21.818,21.818,0,0,1,8.783,6.407,14.378,14.378,0,0,1,3.2,9.093V-1.24a1.173,1.173,0,0,1-.31.827A1.262,1.262,0,0,1,49.91,0H35.237a.94.94,0,0,1-.827-.413A.94.94,0,0,1,34-1.24V-4.857a.607.607,0,0,0-.207-.517c-.1,0-.31.1-.413.413C30.794-1.137,26.247.827,19.944.827,14.467.827,10.023-.517,6.82-3.1,3.513-5.683,1.86-9.4,1.86-14.467c0-5.27,1.86-9.4,5.58-12.3,3.617-2.893,8.99-4.34,16.017-4.34H33.48A.488.488,0,0,0,34-31.62v-1.963a5.7,5.7,0,0,0-1.86-4.443,7.9,7.9,0,0,0-5.167-1.55,8.854,8.854,0,0,0-4.237.93,4.421,4.421,0,0,0-2.377,2.377c-.31.723-.827,1.137-1.447,1.033L4.03-37.2q-1.24-.155-1.24-.93A14.552,14.552,0,0,1,6.407-46.4a21.616,21.616,0,0,1,8.473-5.787A32.757,32.757,0,0,1,26.66-54.25ZM25.007-11.47a10.431,10.431,0,0,0,6.51-2.067A6.33,6.33,0,0,0,34-18.807v-2.48a.488.488,0,0,0-.517-.517h-6.2c-2.583,0-4.65.413-5.993,1.343a4.5,4.5,0,0,0-2.17,4.03,4.542,4.542,0,0,0,1.55,3.617A6.245,6.245,0,0,0,25.007-11.47Z"/>
      </g>
      <g id="Group_3" data-name="Group 3" transform="translate(386.657 55.484)">
        <path id="Path_12" data-name="Path 12" d="M37.3-40.92a1.173,1.173,0,0,1-.31.827,1.262,1.262,0,0,1-.93.413h-9.4a.488.488,0,0,0-.517.517v18.807c0,3.927,1.55,5.89,4.753,5.89H34.72a1.667,1.667,0,0,1,.93.31,1.667,1.667,0,0,1,.31.93V-1.24A1.275,1.275,0,0,1,34.72.1c-3.307.1-5.683.207-7.233.207-5.993,0-10.437-.93-13.33-2.893C11.263-4.443,9.817-8.06,9.713-13.33V-39.163A.488.488,0,0,0,9.2-39.68H3.307a.94.94,0,0,1-.827-.413.94.94,0,0,1-.413-.827V-52.183a1.262,1.262,0,0,1,.413-.93,1.173,1.173,0,0,1,.827-.31H9.2a.488.488,0,0,0,.517-.517v-12.5a1.262,1.262,0,0,1,.413-.93,1.173,1.173,0,0,1,.827-.31H24.9a1.667,1.667,0,0,1,.93.31,1.667,1.667,0,0,1,.31.93v12.5a.488.488,0,0,0,.517.517h9.4a1.667,1.667,0,0,1,.93.31,1.667,1.667,0,0,1,.31.93Z"/>
      </g>
      <g id="Group_4" data-name="Group 4" transform="translate(426.543 55.484)">
        <path id="Path_13" data-name="Path 13" d="M26.66-54.25a32.1,32.1,0,0,1,12.5,2.273,21.818,21.818,0,0,1,8.783,6.407,14.378,14.378,0,0,1,3.2,9.093V-1.24a1.173,1.173,0,0,1-.31.827A1.262,1.262,0,0,1,49.91,0H35.237a.94.94,0,0,1-.827-.413A.94.94,0,0,1,34-1.24V-4.857a.607.607,0,0,0-.207-.517c-.1,0-.31.1-.413.413C30.794-1.137,26.247.827,19.944.827,14.467.827,10.023-.517,6.82-3.1,3.513-5.683,1.86-9.4,1.86-14.467c0-5.27,1.86-9.4,5.58-12.3,3.617-2.893,8.99-4.34,16.017-4.34H33.48A.488.488,0,0,0,34-31.62v-1.963a5.7,5.7,0,0,0-1.86-4.443,7.9,7.9,0,0,0-5.167-1.55,8.854,8.854,0,0,0-4.237.93,4.421,4.421,0,0,0-2.377,2.377c-.31.723-.827,1.137-1.447,1.033L4.03-37.2q-1.24-.155-1.24-.93A14.552,14.552,0,0,1,6.407-46.4a21.616,21.616,0,0,1,8.473-5.787A32.757,32.757,0,0,1,26.66-54.25ZM25.007-11.47a10.431,10.431,0,0,0,6.51-2.067A6.33,6.33,0,0,0,34-18.807v-2.48a.488.488,0,0,0-.517-.517h-6.2c-2.583,0-4.65.413-5.993,1.343a4.5,4.5,0,0,0-2.17,4.03,4.542,4.542,0,0,0,1.55,3.617A6.245,6.245,0,0,0,25.007-11.47Z"/>
      </g>
      <g id="Group_5" data-name="Group 5" transform="translate(481.828 55.484)">
        <path id="Path_14" data-name="Path 14" d="M5.58,0a.94.94,0,0,1-.827-.413A.94.94,0,0,1,4.34-1.24V-71.093a1.262,1.262,0,0,1,.413-.93,1.173,1.173,0,0,1,.827-.31H20.254a1.667,1.667,0,0,1,.93.31,1.667,1.667,0,0,1,.31.93V-1.24a1.173,1.173,0,0,1-.31.827,1.262,1.262,0,0,1-.93.413Z"/>
      </g>
      <g id="Group_6" data-name="Group 6" transform="translate(507.558 55.484)">
        <path id="Path_15" data-name="Path 15" d="M4.857,20.563a.568.568,0,0,1-.517-.31,3.017,3.017,0,0,1-.207-.93V7.75c0-.827.413-1.24,1.137-1.24,4.443,0,7.543-.413,9.507-1.24s3.1-2.48,3.513-4.96q.155-.155,0-.62L1.653-52.08a.774.774,0,0,1-.1-.517c0-.62.413-.93,1.137-.93h15.6a1.244,1.244,0,0,1,1.343,1.033l7.13,30.587c.1.31.207.413.31.413s.207-.1.31-.413l7.13-30.587a1.244,1.244,0,0,1,1.343-1.033H51.15a1.263,1.263,0,0,1,.93.31,1.371,1.371,0,0,1,.1,1.137L34.72,1.033a49.149,49.149,0,0,1-5.373,11.78A17.773,17.773,0,0,1,21.08,18.7q-5.425,1.86-15.5,1.86Z"/>
      </g>
      <g id="Group_7" data-name="Group 7" transform="translate(557.468 55.484)">
        <path id="Path_16" data-name="Path 16" d="M27.074.827A34.734,34.734,0,0,1,14.26-1.24,17.781,17.781,0,0,1,5.89-6.923a12.783,12.783,0,0,1-3-8.37V-16.43a1.262,1.262,0,0,1,.413-.93,1.173,1.173,0,0,1,.827-.31h13.95a1.667,1.667,0,0,1,.93.31,1.667,1.667,0,0,1,.31.93,3.618,3.618,0,0,0,2.17,3.2,10.018,10.018,0,0,0,5.477,1.343,8.622,8.622,0,0,0,4.65-1.033A2.765,2.765,0,0,0,33.274-15.5a2.633,2.633,0,0,0-1.757-2.48,34.531,34.531,0,0,0-5.89-1.447,52.92,52.92,0,0,1-10.54-3A24.042,24.042,0,0,1,6.717-27.9c-2.067-2.17-3.1-5.063-3.1-8.887A15.173,15.173,0,0,1,9.92-49.6q6.2-4.65,16.43-4.65a31.714,31.714,0,0,1,12.193,2.17,19.849,19.849,0,0,1,8.06,6.3,15.307,15.307,0,0,1,2.893,9.3,1.173,1.173,0,0,1-.31.827,1.262,1.262,0,0,1-.93.413H34.72a.94.94,0,0,1-.827-.413.94.94,0,0,1-.413-.827,3.68,3.68,0,0,0-1.86-3.2,8.949,8.949,0,0,0-5.063-1.24,9.766,9.766,0,0,0-4.65.93,3.194,3.194,0,0,0-1.86,2.79,2.576,2.576,0,0,0,1.963,2.48,42.935,42.935,0,0,0,6.613,1.757c4.03.827,6.82,1.447,8.37,1.963a24.481,24.481,0,0,1,10.023,5.58c2.377,2.377,3.513,5.477,3.513,9.4a14.311,14.311,0,0,1-6.3,12.4C39.99-.62,34.2.827,27.074.827Z"/>
      </g>
      <g id="Group_8" data-name="Group 8" transform="translate(610.065 55.484)">
        <path id="Path_17" data-name="Path 17" d="M37.3-40.92a1.173,1.173,0,0,1-.31.827,1.262,1.262,0,0,1-.93.413h-9.4a.488.488,0,0,0-.517.517v18.807c0,3.927,1.55,5.89,4.753,5.89H34.72a1.667,1.667,0,0,1,.93.31,1.667,1.667,0,0,1,.31.93V-1.24A1.275,1.275,0,0,1,34.72.1c-3.307.1-5.683.207-7.233.207-5.993,0-10.437-.93-13.33-2.893C11.263-4.443,9.817-8.06,9.713-13.33V-39.163A.488.488,0,0,0,9.2-39.68H3.307a.94.94,0,0,1-.827-.413.94.94,0,0,1-.413-.827V-52.183a1.262,1.262,0,0,1,.413-.93,1.173,1.173,0,0,1,.827-.31H9.2a.488.488,0,0,0,.517-.517v-12.5a1.262,1.262,0,0,1,.413-.93,1.173,1.173,0,0,1,.827-.31H24.9a1.667,1.667,0,0,1,.93.31,1.667,1.667,0,0,1,.31.93v12.5a.488.488,0,0,0,.517.517h9.4a1.667,1.667,0,0,1,.93.31,1.667,1.667,0,0,1,.31.93Z"/>
      </g>
    </g>
    <g id="solutions" transform="translate(1482.211 311.887)">
      <g id="Group_9" data-name="Group 9" transform="translate(250.028 156.424)">
        <path id="Path_18" data-name="Path 18" d="M10.1.267a11.859,11.859,0,0,1-4.8-.9A6.9,6.9,0,0,1,2.133-3.167,6.469,6.469,0,0,1,1-6.967V-7.6a.407.407,0,0,1,.133-.3A.379.379,0,0,1,1.4-8H6.033a.538.538,0,0,1,.3.1.538.538,0,0,1,.1.3v.4a2.316,2.316,0,0,0,1.1,1.9,4.749,4.749,0,0,0,2.967.833A3.118,3.118,0,0,0,12.667-5.1a1.927,1.927,0,0,0,.7-1.467,1.6,1.6,0,0,0-.4-1.1,4.111,4.111,0,0,0-1.133-.7c-.467-.167-1.2-.433-2.167-.767a2.039,2.039,0,0,0-.4-.167C9.133-9.333,9-9.367,8.9-9.4a23.85,23.85,0,0,1-3.767-1.533A8.1,8.1,0,0,1,2.4-13.2a5.508,5.508,0,0,1-1.133-3.567,6.163,6.163,0,0,1,1.1-3.633,6.725,6.725,0,0,1,3-2.367A10.742,10.742,0,0,1,9.733-23.6a11.069,11.069,0,0,1,4.633.933,7.809,7.809,0,0,1,3.2,2.633,6.808,6.808,0,0,1,1.167,3.9v.467a.379.379,0,0,1-.1.267.407.407,0,0,1-.3.133H13.7a.3.3,0,0,1-.267-.133.3.3,0,0,1-.133-.267V-15.9a2.665,2.665,0,0,0-1.033-2.067,4.064,4.064,0,0,0-2.767-.9,3.347,3.347,0,0,0-2.033.533,1.747,1.747,0,0,0-.733,1.5,1.633,1.633,0,0,0,.467,1.2,3.96,3.96,0,0,0,1.467.9,25.972,25.972,0,0,0,3,1.1c1.567.533,2.767,1,3.633,1.4A8.068,8.068,0,0,1,17.767-10.3,5.325,5.325,0,0,1,18.9-6.733,6.33,6.33,0,0,1,17.8-3,7.181,7.181,0,0,1,14.733-.6,11.722,11.722,0,0,1,10.1.267Z" fill="#b7b7b7"/>
      </g>
      <g id="Group_10" data-name="Group 10" transform="translate(271.996 156.424)">
        <path id="Path_19" data-name="Path 19" d="M10.333.367A9.827,9.827,0,0,1,5.6-.733,7.8,7.8,0,0,1,2.4-3.767,8.845,8.845,0,0,1,1.267-8.333V-15A8.683,8.683,0,0,1,2.4-19.5a8.018,8.018,0,0,1,3.2-3.033A10.214,10.214,0,0,1,10.333-23.6,10.355,10.355,0,0,1,15.1-22.533,8.018,8.018,0,0,1,18.3-19.5,8.683,8.683,0,0,1,19.434-15v6.667A8.845,8.845,0,0,1,18.3-3.767,7.8,7.8,0,0,1,15.1-.733,9.962,9.962,0,0,1,10.333.367Zm0-4.733a3.416,3.416,0,0,0,2.6-1.033A3.937,3.937,0,0,0,13.9-8.167v-6.9a3.994,3.994,0,0,0-.967-2.767,3.416,3.416,0,0,0-2.6-1.033A3.27,3.27,0,0,0,7.8-17.833a3.864,3.864,0,0,0-1,2.767v6.9A3.809,3.809,0,0,0,7.8-5.4,3.27,3.27,0,0,0,10.333-4.367Z" fill="#b7b7b7"/>
      </g>
      <g id="Group_11" data-name="Group 11" transform="translate(294.696 156.424)">
        <path id="Path_20" data-name="Path 20" d="M2.033,0a.3.3,0,0,1-.267-.133A.3.3,0,0,1,1.633-.4V-22.933a.407.407,0,0,1,.133-.3.379.379,0,0,1,.267-.1H6.767a.538.538,0,0,1,.3.1.538.538,0,0,1,.1.3V-4.9a.157.157,0,0,0,.167.167H17.967a.538.538,0,0,1,.3.1.538.538,0,0,1,.1.3V-.4a.378.378,0,0,1-.1.267.407.407,0,0,1-.3.133Z" fill="#b7b7b7"/>
      </g>
      <g id="Group_12" data-name="Group 12" transform="translate(315.797 156.424)">
        <path id="Path_21" data-name="Path 21" d="M10.4.267A9.79,9.79,0,0,1,5.767-.767,7.267,7.267,0,0,1,2.633-3.633,7.967,7.967,0,0,1,1.5-7.933v-15a.407.407,0,0,1,.133-.3.379.379,0,0,1,.267-.1H6.633a.538.538,0,0,1,.3.1.538.538,0,0,1,.1.3v15a3.369,3.369,0,0,0,.933,2.5,3.072,3.072,0,0,0,2.433.967,3.167,3.167,0,0,0,2.433-.967,3.486,3.486,0,0,0,.9-2.5v-15a.407.407,0,0,1,.133-.3.379.379,0,0,1,.267-.1h4.733a.538.538,0,0,1,.3.1.538.538,0,0,1,.1.3v15a8.253,8.253,0,0,1-1.1,4.3,7.371,7.371,0,0,1-3.1,2.867A10.022,10.022,0,0,1,10.4.267Z" fill="#b7b7b7"/>
      </g>
      <g id="Group_13" data-name="Group 13" transform="translate(338.563 156.424)">
        <path id="Path_22" data-name="Path 22" d="M18.5-23.333a.538.538,0,0,1,.3.1.538.538,0,0,1,.1.3v3.967a.378.378,0,0,1-.1.267.407.407,0,0,1-.3.133H12.667a.157.157,0,0,0-.167.167v18a.378.378,0,0,1-.1.267A.407.407,0,0,1,12.1,0H7.367A.3.3,0,0,1,7.1-.133.3.3,0,0,1,6.967-.4v-18a.157.157,0,0,0-.167-.167H1.167A.3.3,0,0,1,.9-18.7a.3.3,0,0,1-.133-.267v-3.967a.407.407,0,0,1,.133-.3.379.379,0,0,1,.267-.1Z" fill="#b7b7b7"/>
      </g>
      <g id="Group_14" data-name="Group 14" transform="translate(360.229 156.424)">
        <path id="Path_23" data-name="Path 23" d="M2.033,0a.3.3,0,0,1-.267-.133A.3.3,0,0,1,1.633-.4V-22.933a.407.407,0,0,1,.133-.3.379.379,0,0,1,.267-.1H6.767a.538.538,0,0,1,.3.1.538.538,0,0,1,.1.3V-.4a.378.378,0,0,1-.1.267.407.407,0,0,1-.3.133Z" fill="#b7b7b7"/>
      </g>
      <g id="Group_15" data-name="Group 15" transform="translate(371.063 156.424)">
        <path id="Path_24" data-name="Path 24" d="M10.333.367A9.827,9.827,0,0,1,5.6-.733,7.8,7.8,0,0,1,2.4-3.767,8.845,8.845,0,0,1,1.267-8.333V-15A8.683,8.683,0,0,1,2.4-19.5a8.018,8.018,0,0,1,3.2-3.033A10.214,10.214,0,0,1,10.333-23.6,10.355,10.355,0,0,1,15.1-22.533,8.018,8.018,0,0,1,18.3-19.5,8.683,8.683,0,0,1,19.434-15v6.667A8.845,8.845,0,0,1,18.3-3.767,7.8,7.8,0,0,1,15.1-.733,9.962,9.962,0,0,1,10.333.367Zm0-4.733a3.416,3.416,0,0,0,2.6-1.033A3.937,3.937,0,0,0,13.9-8.167v-6.9a3.994,3.994,0,0,0-.967-2.767,3.416,3.416,0,0,0-2.6-1.033A3.27,3.27,0,0,0,7.8-17.833a3.864,3.864,0,0,0-1,2.767v6.9A3.809,3.809,0,0,0,7.8-5.4,3.27,3.27,0,0,0,10.333-4.367Z" fill="#b7b7b7"/>
      </g>
      <g id="Group_16" data-name="Group 16" transform="translate(393.763 156.424)">
        <path id="Path_25" data-name="Path 25" d="M14.867-22.933a.407.407,0,0,1,.133-.3.379.379,0,0,1,.267-.1H20a.538.538,0,0,1,.3.1.538.538,0,0,1,.1.3V-.4a.378.378,0,0,1-.1.267A.407.407,0,0,1,20,0H15.467A.5.5,0,0,1,15-.267L7.333-13a.179.179,0,0,0-.133-.1.2.2,0,0,0-.067.167L7.167-.4a.378.378,0,0,1-.1.267.407.407,0,0,1-.3.133H2.033a.3.3,0,0,1-.267-.133A.3.3,0,0,1,1.633-.4V-22.933a.407.407,0,0,1,.133-.3.379.379,0,0,1,.267-.1H6.6a.5.5,0,0,1,.467.267l7.633,12.7c.033.067.1.1.133.067.033,0,.067-.033.067-.133Z" fill="#b7b7b7"/>
      </g>
      <g id="Group_17" data-name="Group 17" transform="translate(417.829 156.424)">
        <path id="Path_26" data-name="Path 26" d="M10.1.267a11.859,11.859,0,0,1-4.8-.9A6.9,6.9,0,0,1,2.133-3.167,6.469,6.469,0,0,1,1-6.967V-7.6a.407.407,0,0,1,.133-.3A.379.379,0,0,1,1.4-8H6.033a.538.538,0,0,1,.3.1.538.538,0,0,1,.1.3v.4a2.316,2.316,0,0,0,1.1,1.9,4.749,4.749,0,0,0,2.967.833A3.118,3.118,0,0,0,12.667-5.1a1.927,1.927,0,0,0,.7-1.467,1.6,1.6,0,0,0-.4-1.1,4.111,4.111,0,0,0-1.133-.7c-.467-.167-1.2-.433-2.167-.767a2.039,2.039,0,0,0-.4-.167C9.133-9.333,9-9.367,8.9-9.4a23.85,23.85,0,0,1-3.767-1.533A8.1,8.1,0,0,1,2.4-13.2a5.508,5.508,0,0,1-1.133-3.567,6.163,6.163,0,0,1,1.1-3.633,6.725,6.725,0,0,1,3-2.367A10.742,10.742,0,0,1,9.733-23.6a11.069,11.069,0,0,1,4.633.933,7.809,7.809,0,0,1,3.2,2.633,6.808,6.808,0,0,1,1.167,3.9v.467a.379.379,0,0,1-.1.267.407.407,0,0,1-.3.133H13.7a.3.3,0,0,1-.267-.133.3.3,0,0,1-.133-.267V-15.9a2.665,2.665,0,0,0-1.033-2.067,4.064,4.064,0,0,0-2.767-.9,3.347,3.347,0,0,0-2.033.533,1.747,1.747,0,0,0-.733,1.5,1.633,1.633,0,0,0,.467,1.2,3.96,3.96,0,0,0,1.467.9,25.972,25.972,0,0,0,3,1.1c1.567.533,2.767,1,3.633,1.4A8.068,8.068,0,0,1,17.767-10.3,5.325,5.325,0,0,1,18.9-6.733,6.33,6.33,0,0,1,17.8-3,7.181,7.181,0,0,1,14.733-.6,11.722,11.722,0,0,1,10.1.267Z" fill="#b7b7b7"/>
      </g>
    </g>
    <g id="Group_26" data-name="Group 26" transform="translate(1501.001 298)">
      <g id="Group_18" data-name="Group 18" transform="translate(-100.001 -1047.166)">
        <path id="Path_27" data-name="Path 27" d="M166.836,1047.169h.5l.213.01h.03l.185.01h.064l.166.01h.051l.212.02h.044l.171.01.062.01.178.02h.036l.212.02.05.01.167.02h.058l.2.03h.01l.213.03.051.01.169.02.05.01.214.03.21.04.049.01.177.03.037.01.08.02.235.04.087.02.286.06.066.02.231.06.094.02.278.07.062.02.229.06.1.03.24.07.039.01.046.02.231.07.105.03.209.07.072.03.022.01.24.08.109.04.188.07.093.04a19.845,19.845,0,0,1,10.652,9.66c9.029,18.06,19.172,38.35,24.4,48.79a10.961,10.961,0,0,1-.928,11.33l-.241-.07-.723-.18c-.242-.06-.485-.12-.729-.17l-.734-.15c-.246-.05-.493-.09-.74-.13l-.747-.12-.752-.09c-.251-.03-.5-.05-.758-.08s-.508-.04-.763-.05-.512-.03-.769-.04-.516-.02-.774-.02h-.69c-.144,0-.288,0-.434.01l-.38.01c-.128,0-.256.01-.384.02l-.382.02c-.128.01-.255.02-.382.02l-.38.04-.378.03-.378.04c-.125.02-.25.03-.376.05l-.374.05c-.124.02-.249.03-.373.05l-.372.06c-.123.02-.246.04-.37.07l-.368.06c-.122.03-.245.05-.367.08l-.365.07c-.121.03-.242.06-.364.08l-.362.09-.36.09-.05.01c-.237.07-.474.13-.708.2l-.312.09c-.118.03-.235.07-.353.11l-.046.01q-.708.225-1.4.48l-.292.11c-.114.04-.228.08-.342.13l-.339.13-.338.15-.335.14-.333.15-.331.15c-.11.05-.22.11-.329.16l-.327.16c-.108.05-.216.11-.325.16l-.056.03c-.216.11-.43.22-.641.34s-.422.23-.631.35-.413.25-.618.37-.4.25-.6.38-.4.26-.6.4l-.266.18c-.1.07-.2.13-.3.2l-.293.22-.29.21-.287.22c-.095.07-.19.15-.285.22l-.282.22c-.093.08-.186.15-.279.23l-.277.23-.273.24-.271.23-.268.24-.053.05c-.452.42-.892.84-1.318,1.28-.245.26-.485.51-.722.77s-.479.54-.711.82c-.146.17-.29.35-.431.52l-.2.25c-.074.1-.147.19-.221.28l-.218.29c-.071.1-.143.19-.214.29l-.211.3c-.069.09-.138.19-.208.29l-.2.3-.2.3-.2.3c-.064.1-.129.21-.193.31l-.19.31c-.062.1-.124.2-.186.31l-.183.31c-.06.1-.119.21-.179.31l-.175.32c-.057.11-.114.22-.171.32l-.029.06c-.113.21-.223.43-.33.64s-.213.44-.315.66-.2.44-.3.66-.191.45-.283.67-.18.46-.266.68-.168.46-.249.69-.157.45-.231.68-.146.46-.214.69-.138.47-.2.71l-.09.34-.09.36-.086.36c-.027.13-.055.25-.082.37l-.077.36c-.024.13-.049.25-.073.37l-.068.37c-.021.12-.043.25-.064.37l-.059.37c-.018.13-.037.25-.055.37l-.05.38c-.015.12-.03.25-.045.37l-.041.38c-.012.13-.024.25-.036.38l-.031.38c-.009.13-.018.25-.027.38l-.022.38c-.006.13-.011.26-.017.39l-.012.38c0,.13,0,.26-.008.39l0,.39a29.969,29.969,0,0,0,1.1,8.07,10.946,10.946,0,0,1-11.326.93c-10.446-5.22-30.733-15.37-48.791-24.4a19.812,19.812,0,0,1-9.664-10.65l-.036-.09-.07-.19-.039-.11-.085-.24-.008-.02-.024-.07-.07-.21-.034-.11-.073-.23-.014-.04-.012-.04-.071-.24-.029-.1-.063-.23-.017-.06-.072-.28-.024-.09-.055-.23-.016-.07-.063-.29-.019-.08-.048-.24-.016-.08-.007-.04-.033-.17-.009-.05-.037-.21-.034-.22-.008-.05-.026-.16-.007-.06-.029-.21,0-.01-.025-.2-.007-.06-.019-.17-.006-.05-.021-.21,0-.03-.015-.18-.006-.06-.013-.18,0-.04-.014-.21,0-.05-.009-.17,0-.06-.008-.19v-.03l-.007-.21v-.06l0-.16V1114a19.929,19.929,0,0,1,12.021-18.29l15.019-7.51a31.322,31.322,0,0,0,14-13.99l7.509-15.02a19.943,19.943,0,0,1,18.291-12.02Z" fill="rgba(5,35,250,0.4)" fill-rule="evenodd"/>
      </g>
      <g id="Group_19" data-name="Group 19" transform="translate(-100.001 -1047.166)">
        <path id="Path_28" data-name="Path 28" d="M111.807,1095.809a19.818,19.818,0,0,1,14.366-.7c19.154,6.38,40.671,13.55,51.751,17.25a10.942,10.942,0,0,1,7.353,8.67q-1.065.6-2.076,1.29c-.2.13-.4.27-.6.41s-.394.29-.587.43-.387.29-.576.44-.379.31-.565.46-.37.31-.553.47-.362.32-.541.48q-.371.345-.729.69c-.452.44-.889.9-1.311,1.36-.555.62-1.084,1.25-1.588,1.91-.146.19-.291.39-.433.58s-.282.4-.419.59-.272.4-.405.61-.262.4-.39.61-.253.41-.376.62-.243.42-.361.63-.232.42-.345.64-.223.43-.33.64-.212.44-.315.66-.2.44-.3.66-.191.45-.283.67-.18.46-.266.68-.168.46-.249.69-.157.45-.231.68-.146.46-.214.69a30.036,30.036,0,0,0,14.039,34.69,10.97,10.97,0,0,1-7.353,8.67c-11.08,3.69-32.6,10.86-51.751,17.25a19.923,19.923,0,0,1-14.366-.7l-.09-.04-.182-.09-.106-.04-.229-.11-.021-.01-.069-.04-.2-.1-.1-.05-.214-.11-.043-.02-.036-.02-.22-.12-.091-.05-.206-.12-.056-.03-.248-.15-.083-.05-.2-.12-.058-.03-.247-.16-.074-.05-.2-.13-.069-.05-.031-.02-.149-.1-.04-.03-.175-.12-.176-.13-.04-.03-.138-.1-.041-.03-.172-.13-.007-.01-.161-.12-.046-.04-.131-.1-.039-.03-.165-.14-.029-.02-.136-.11-.048-.04-.131-.12-.033-.03-.16-.14-.038-.03-.124-.11-.047-.04-.136-.13-.022-.02-.156-.15-.042-.04-.117-.11-.045-.04-.153-.15a19.924,19.924,0,0,1-4.433-21.44l5.31-15.93a31.29,31.29,0,0,0,0-19.79l-5.31-15.93q-.161-.405-.3-.81a1.533,1.533,0,0,0-.066-.29,19.855,19.855,0,0,1,.434-13.74l.02-.05.09-.22.033-.08.006-.01.107-.25.045-.1.086-.18.041-.09.124-.26.038-.08.1-.2.045-.09.13-.25.008-.01.009-.02.135-.25.045-.08.117-.21.036-.06.152-.26.04-.06.124-.21.046-.07.163-.26.019-.03.151-.22.077-.12.028-.04.123-.18.024-.03.1-.15.035-.05.129-.18.131-.17.036-.05.11-.14.027-.04.134-.17.033-.04.11-.13.037-.05.139-.17.019-.02.125-.15.04-.04.128-.15.019-.02.146-.17.039-.04.119-.13.036-.04.151-.16.031-.03.126-.13.043-.04.156-.16.153-.15.045-.05.117-.11.042-.04.156-.15.022-.02.136-.12.047-.05.124-.11.038-.03.16-.14.033-.03.131-.11.048-.04.136-.12.029-.02.165-.13.039-.04.131-.1.046-.04.161-.12.007-.01.172-.13.041-.03.138-.1.04-.03.176-.12.175-.13.04-.03.149-.1.031-.02.069-.05.2-.13.074-.04.247-.16.058-.04.2-.12.083-.05.248-.15.056-.03.206-.12.091-.05.22-.12.036-.02.043-.02.214-.11.1-.05.2-.1.069-.03.021-.01.229-.11.106-.05.182-.08Z" fill="rgba(36,46,219,0.5)" fill-rule="evenodd"/>
      </g>
      <g id="Group_20" data-name="Group 20" transform="translate(-100.001 -1047.166)">
        <path id="Path_29" data-name="Path 29" d="M101.321,1173.209a19.881,19.881,0,0,1,9.664-10.65c18.058-9.03,38.345-19.17,48.791-24.4a10.968,10.968,0,0,1,11.326.93l-.066.24c-.065.24-.127.48-.186.73s-.114.48-.167.72-.1.49-.15.74-.091.49-.132.74-.078.5-.113.75-.066.5-.095.75-.054.5-.076.76-.041.5-.057.76-.029.51-.038.77c-.014.37-.021.74-.021,1.12,0,.14,0,.28,0,.43a30.023,30.023,0,0,0,38.072,28.47,10.941,10.941,0,0,1,.928,11.32c-5.223,10.45-15.366,30.73-24.4,48.79a19.865,19.865,0,0,1-10.652,9.67l-.093.03-.188.07-.109.04-.24.09-.022.01-.072.02-.209.07-.105.03-.231.08-.046.01-.039.01-.24.07-.1.03-.229.07-.062.01-.278.07-.094.03-.231.05-.066.02-.286.06-.087.02-.235.05-.08.02h-.037l-.177.04h-.049l-.21.04-.214.03-.05.01-.169.03-.051.01-.213.03h-.01l-.2.02-.058.01-.167.02h-.05l-.212.03h-.036l-.178.01-.062.01-.171.01-.044.01-.212.01h-.051l-.166.01h-.064l-.185.01h-.03l-.213.01h-.284l-.215.01a19.923,19.923,0,0,1-18.291-12.02l-7.509-15.02a31.3,31.3,0,0,0-14-14l-15.019-7.51A19.942,19.942,0,0,1,100,1180.329v-.28l0-.16v-.06l.007-.21v-.03l.008-.19,0-.06.009-.17,0-.05.014-.21,0-.04.013-.17.006-.07.015-.17,0-.04.021-.21.006-.05.019-.17.007-.06.025-.2,0-.01.029-.21.007-.05.026-.17.008-.05.034-.21.037-.21.009-.05.033-.18.007-.04.016-.08.048-.23.019-.09.063-.28.016-.07.055-.23.024-.1.072-.28.017-.06.063-.23.029-.09.071-.24.012-.04.014-.05.073-.23.034-.11.07-.21.024-.07.008-.02.085-.24.039-.11.07-.19Z" fill="rgba(116,75,139,0.6)" fill-rule="evenodd"/>
      </g>
      <g id="Group_21" data-name="Group 21" transform="translate(-100.001 -1047.166)">
        <path id="Path_30" data-name="Path 30" d="M148.639,1235.359a19.881,19.881,0,0,1-.7-14.37c6.385-19.15,13.557-40.67,17.25-51.75a10.963,10.963,0,0,1,8.671-7.35,30,30,0,0,0,52.278,0,10.962,10.962,0,0,1,8.671,7.35c3.693,11.08,10.865,32.6,17.25,51.75.5,1.52.53,6.14.209,12.53l-.813,1.63a19.9,19.9,0,0,1-25.63,10.61l-15.931-5.31a31.306,31.306,0,0,0-19.79,0l-15.931,5.31a19.978,19.978,0,0,1-21.434-4.43l-.151-.16-.043-.04-.113-.12-.041-.04-.146-.15-.02-.03-.126-.13-.042-.05-.112-.12-.034-.04-.14-.16-.028-.03-.112-.14-.041-.04-.114-.14-.023-.03-.135-.16-.031-.04-.1-.13-.036-.05-.124-.16-.006-.01-.13-.17-.031-.04-.1-.14-.03-.04-.127-.17-.123-.18-.028-.04-.1-.15-.021-.03-.045-.07-.132-.2-.049-.07-.157-.25-.036-.06-.123-.2-.05-.08-.146-.25-.032-.06-.117-.2-.05-.09-.12-.22-.019-.04-.023-.04-.111-.22-.051-.1-.1-.19-.034-.07-.01-.02-.109-.23-.05-.11-.083-.18Z" fill="rgba(227,116,28,0.6)" fill-rule="evenodd"/>
      </g>
      <g id="Group_22" data-name="Group 22" transform="translate(-100.001 -1047.166)">
        <path id="Path_31" data-name="Path 31" d="M228.944,1139.249l-.043-.16a10.968,10.968,0,0,1,11.326-.93c10.446,5.23,30.733,15.37,48.791,24.4,1.348.67,4.073,2.25,7.571,4.41l2.008,6.02a19.9,19.9,0,0,1-10.616,25.63l-21.084,10.54a10.952,10.952,0,0,0-4.9,4.9l-10.542,21.09a20,20,0,0,1-18.291,12.02l-.215-.01h-.284l-.213-.01h-.03l-.185-.01h-.064l-.166-.01h-.051l-.212-.01-.044-.01-.171-.01-.062-.01-.178-.01h-.036l-.212-.03h-.05l-.167-.02-.058-.01-.2-.02h-.01l-.213-.03-.051-.01-.169-.03-.05-.01-.214-.03-.21-.04H229.6l-.177-.04h-.037l-.08-.02-.235-.05-.087-.02-.286-.06-.066-.02-.231-.05-.094-.03-.278-.07-.062-.01-.229-.07-.1-.03-.24-.07-.039-.01-.046-.01-.231-.08-.105-.03-.209-.07-.072-.02-.022-.01-.24-.09-.109-.04-.188-.07-.093-.03a19.865,19.865,0,0,1-10.652-9.67c-9.029-18.06-19.172-38.34-24.4-48.79a10.941,10.941,0,0,1,.928-11.32,30.023,30.023,0,0,0,38.075-28.9c0-.93-.042-1.84-.124-2.74-.023-.26-.049-.51-.078-.76s-.062-.51-.1-.76-.074-.5-.116-.74-.086-.5-.134-.75-.1-.49-.153-.73-.11-.49-.17-.73S229.009,1139.489,228.944,1139.249Z" fill="rgba(255,148,0,0.5)" fill-rule="evenodd"/>
      </g>
      <g id="Group_23" data-name="Group 23" transform="translate(-100.001 -1047.166)">
        <path id="Path_32" data-name="Path 32" d="M218.765,1123.759a30.423,30.423,0,0,0-4.039-2.73,10.942,10.942,0,0,1,7.353-8.67c11.08-3.7,32.6-10.87,51.751-17.25a19.818,19.818,0,0,1,14.366.7l.09.04.182.08.106.05.229.11.021.01.069.03.2.1.1.05.214.11.043.02.036.02.22.12.091.05.206.12.056.03.248.15.083.05.2.12.058.04.247.16.074.04.2.13.069.05.031.02.149.1.04.03.175.13.176.12.04.03.138.1.041.03.172.13.007.01.161.12.046.04.131.1.039.04.165.13.029.02.136.12.048.04.131.11.033.03.16.14.038.03.124.11.047.05.136.12.022.02.156.15.042.04.117.11.045.05.153.15a19.907,19.907,0,0,1,4.433,21.43l-5.31,15.93a31.29,31.29,0,0,0,0,19.79l5.31,15.93a19.961,19.961,0,0,1-4.433,21.44l-.153.15-.045.04-.117.11-.042.04-.156.15-.022.02-.136.13-.047.04-.124.11-.038.03-.16.14-.033.03-.131.12-.048.04-.136.11-.029.02-.165.14-.039.03-.131.1-.046.04-.161.12-.007.01-.172.13-.041.03-.138.1-.04.03-.176.13-.175.12-.04.03-.149.1-.031.02-.069.05-.2.13-.074.05-.247.16-.058.03-.2.12-.083.05-.248.15-.056.03-.206.12-.091.05-.22.12-.036.02-.043.02-.214.11-.1.05-.2.1-.069.04-.021.01-.229.11-.106.04-.182.09-.09.04a19.923,19.923,0,0,1-14.366.7c-19.154-6.39-40.671-13.56-51.751-17.25a10.97,10.97,0,0,1-7.353-8.67,30.035,30.035,0,0,0,14.033-34.71c-.071-.24-.145-.48-.221-.71s-.156-.47-.238-.7-.167-.47-.255-.7-.178-.45-.271-.68-.189-.45-.288-.68-.2-.45-.3-.67-.211-.44-.319-.66-.221-.43-.335-.65-.231-.43-.35-.64a30.037,30.037,0,0,0-4.712-6.29c-.194-.2-.391-.4-.59-.59q-.768-.75-1.588-1.44C219.116,1124.049,218.941,1123.909,218.765,1123.759Z" fill="rgba(255,170,0,0.7)" fill-rule="evenodd"/>
      </g>
      <g id="Group_24" data-name="Group 24" transform="translate(-100.001 -1047.166)">
        <path id="Path_33" data-name="Path 33" d="M233.167,1047.169a19.923,19.923,0,0,1,18.291,12.02l7.509,15.02a31.322,31.322,0,0,0,14,13.99l15.019,7.51A19.964,19.964,0,0,1,300,1114v.28l0,.16v.06l-.007.21v.03l-.008.19,0,.06-.009.17,0,.05-.014.21,0,.04-.013.18-.006.06-.015.18,0,.03-.021.21-.006.05-.019.17-.007.06-.025.2,0,.01-.029.21-.007.06-.026.16-.008.05-.034.22-.037.21-.009.05-.033.17-.007.04-.016.08-.048.24-.019.08-.063.29-.016.07-.055.23-.024.09-.072.28-.017.06-.063.23-.029.1-.071.24-.012.04-.014.04-.073.23-.034.11-.07.21-.024.07-.008.02-.085.24-.039.11-.07.19-.036.09a19.812,19.812,0,0,1-9.664,10.65c-18.058,9.03-38.345,19.18-48.791,24.4a10.946,10.946,0,0,1-11.326-.93,29.969,29.969,0,0,0,1.1-8.07c0-.93-.042-1.84-.124-2.74l-.031-.33c-.014-.12-.027-.25-.041-.38l-.045-.37c-.017-.13-.034-.25-.05-.38l-.055-.37c-.02-.12-.039-.25-.059-.37l-.064-.37c-.023-.12-.045-.25-.068-.37l-.073-.37c-.026-.12-.051-.24-.077-.36l-.082-.37c-.028-.12-.057-.24-.086-.36l-.018-.07c-.059-.24-.121-.47-.185-.71-.06-.22-.122-.44-.185-.65l-.107-.35c-.037-.12-.074-.23-.111-.35l-.116-.35c-.04-.12-.08-.23-.12-.35l-.125-.34c-.042-.12-.085-.23-.128-.35l-.132-.34c-.046-.11-.091-.23-.137-.34l-.14-.34-.144-.33-.149-.33c-.051-.12-.1-.22-.152-.34l-.156-.33c-.054-.1-.107-.21-.16-.32l-.164-.33c-.056-.1-.112-.21-.168-.32l-.171-.32c-.058-.1-.117-.21-.175-.32l-.179-.31c-.061-.11-.122-.21-.183-.31l-.186-.31c-.063-.11-.126-.21-.19-.31l-.193-.31-.2-.3-.2-.3-.2-.3-.152-.22c-.167-.23-.338-.47-.512-.7l-.187-.25c-.074-.09-.147-.18-.221-.28l-.224-.28c-.076-.09-.152-.19-.228-.28l-.231-.28-.234-.27-.238-.27-.24-.27-.049-.05c-.413-.46-.84-.89-1.279-1.32q-.379-.375-.772-.72c-.268-.25-.54-.48-.816-.72-.173-.14-.348-.28-.524-.43l-.246-.19c-.1-.07-.19-.15-.285-.22l-.287-.22-.29-.21-.293-.22c-.1-.07-.2-.13-.3-.2l-.3-.21c-.1-.06-.2-.13-.3-.2l-.3-.19c-.1-.07-.2-.13-.306-.2l-.308-.19-.31-.18-.313-.19-.316-.18-.317-.17c-.107-.06-.213-.12-.32-.17l-.055-.03-.648-.33c-.217-.11-.436-.21-.656-.32s-.441-.2-.664-.29-.446-.2-.67-.29-.451-.18-.678-.26-.453-.17-.683-.25-.457-.16-.687-.23-.458-.15-.689-.22-.473-.13-.711-.2l-.34-.09-.36-.09-.362-.09c-.122-.02-.243-.05-.364-.08l-.365-.07c-.122-.03-.245-.05-.367-.08l-.368-.06c-.124-.03-.247-.05-.37-.07l-.372-.06c-.124-.02-.249-.03-.373-.05l-.374-.05c-.126-.02-.251-.03-.376-.05l-.378-.04-.378-.03-.38-.04c-.127,0-.254-.01-.382-.02l-.382-.02c-.128-.01-.256-.02-.384-.02l-.385-.01c-.129-.01-.258-.01-.387-.01h-.732a28.837,28.837,0,0,0-3.5.24c-.252.03-.5.07-.753.11l-.747.12c-.249.05-.5.09-.741.15s-.491.1-.735.16-.485.11-.726.17l-.531.15a10.961,10.961,0,0,1-.928-11.33c5.223-10.44,15.366-30.73,24.4-48.79a19.845,19.845,0,0,1,10.652-9.66l.093-.04.188-.07.109-.04.24-.08.022-.01.072-.03.209-.07.105-.03.231-.07.046-.02.039-.01.24-.07.1-.03.229-.06.062-.02.278-.07.094-.02.231-.06.066-.02.286-.06.087-.02.235-.04.08-.02.037-.01.177-.03.049-.01.21-.04.214-.03.05-.01.169-.02.051-.01.213-.03h.01l.2-.03h.058l.167-.02.05-.01.212-.02h.036l.178-.02.062-.01.171-.01h.044l.212-.02h.051l.166-.01h.064l.185-.01h.03l.213-.01h.5Z" fill="rgba(255,197,0,0.6)" fill-rule="evenodd"/>
      </g>
      <g id="Group_25" data-name="Group 25" transform="translate(-100.001 -1047.166)">
        <path id="Path_34" data-name="Path 34" d="M152.741,1053.009a19.931,19.931,0,0,1,21.434-4.44l15.931,5.31a31.3,31.3,0,0,0,19.79,0l15.931-5.31a19.948,19.948,0,0,1,21.434,4.44l.151.15.043.04.113.12.041.04.146.16.02.02.126.14.042.04.112.13.034.03.14.16.028.04.112.13.041.05.114.13.023.03.135.17.031.04.105.13.036.04.124.16.006.01.13.17.031.04.1.14.03.04.127.18.123.17.028.04.1.15.021.03.045.07.132.2.049.08.157.24.036.06.123.2.05.09.146.24.032.06.117.21.05.09.12.22.019.03.023.05.111.21.051.1.1.2.034.06.01.03.109.23.05.1.083.18.041.09a19.881,19.881,0,0,1,.7,14.37c-6.385,19.15-13.557,40.67-17.25,51.75a10.945,10.945,0,0,1-8.671,7.35c-.109-.19-.22-.38-.335-.57q-.186-.315-.381-.63c-.13-.2-.262-.41-.4-.61q-.249-.375-.509-.75c-.167-.23-.338-.47-.512-.7q-.219-.285-.443-.57c-.151-.2-.3-.38-.457-.57s-.311-.37-.47-.55-.319-.37-.482-.54c-.226-.25-.455-.49-.689-.73-.44-.45-.895-.89-1.362-1.31q-.921-.84-1.909-1.59c-.192-.15-.385-.29-.581-.43s-.392-.29-.591-.42-.4-.28-.6-.41-.406-.26-.611-.39-.413-.25-.621-.37-.419-.25-.63-.37-.425-.23-.639-.34l-.648-.33c-.217-.11-.436-.21-.656-.32s-.441-.2-.664-.29-.446-.2-.67-.29-.45-.18-.678-.26-.453-.17-.683-.25-.457-.16-.687-.23-.458-.15-.689-.22a30.127,30.127,0,0,0-8.545-1.23c-.26,0-.519,0-.779.01s-.517.01-.773.03-.514.03-.769.05l-.763.06a30.36,30.36,0,0,0-5.168,1l-.711.21c-.236.08-.47.15-.7.23s-.465.16-.695.25-.459.17-.687.26-.454.18-.679.28-.448.19-.67.29-.442.21-.66.31-.436.22-.651.33-.429.22-.641.34-.422.23-.631.35-.414.25-.618.37-.4.25-.6.38a30.363,30.363,0,0,0-4.745,3.78c-.2.19-.395.39-.589.59q-.744.765-1.433,1.59c-.146.17-.289.35-.431.52a30.433,30.433,0,0,0-2.737,4.04,10.945,10.945,0,0,1-8.671-7.35c-3.693-11.08-10.865-32.6-17.25-51.75a19.881,19.881,0,0,1,.7-14.37l.041-.09.083-.18.05-.1.109-.23.01-.03.034-.06.1-.2.051-.1.111-.21.023-.05.019-.03.12-.22.05-.09.117-.21.032-.06.146-.24.05-.09.123-.2.036-.06.157-.24.049-.08.132-.2.045-.07.021-.03.1-.15.028-.04.123-.17.127-.18.03-.04.1-.14.031-.04.13-.17.006-.01.124-.16.036-.04.1-.13.031-.04.135-.17.023-.03.114-.13.041-.05.112-.13.028-.04.14-.16.034-.03.112-.13.042-.04.126-.14.02-.02.146-.16.041-.04.113-.12.043-.04Z" fill="rgba(255,215,0,0.8)" fill-rule="evenodd"/>
      </g>
    </g>
  </g>
</svg>
